%TF.GenerationSoftware,KiCad,Pcbnew,7.0.8*%
%TF.CreationDate,2026-01-30T16:34:37+01:00*%
%TF.ProjectId,taxanRGB,74617861-6e52-4474-922e-6b696361645f,rev?*%
%TF.SameCoordinates,Original*%
%TF.FileFunction,Copper,L1,Top*%
%TF.FilePolarity,Positive*%
%FSLAX46Y46*%
G04 Gerber Fmt 4.6, Leading zero omitted, Abs format (unit mm)*
G04 Created by KiCad (PCBNEW 7.0.8) date 2026-01-30 16:34:37*
%MOMM*%
%LPD*%
G01*
G04 APERTURE LIST*
G04 Aperture macros list*
%AMFreePoly0*
4,1,6,1.000000,0.000000,0.500000,-0.750000,-0.500000,-0.750000,-0.500000,0.750000,0.500000,0.750000,1.000000,0.000000,1.000000,0.000000,$1*%
%AMFreePoly1*
4,1,6,0.500000,-0.750000,-0.650000,-0.750000,-0.150000,0.000000,-0.650000,0.750000,0.500000,0.750000,0.500000,-0.750000,0.500000,-0.750000,$1*%
G04 Aperture macros list end*
%TA.AperFunction,ComponentPad*%
%ADD10C,2.340000*%
%TD*%
%TA.AperFunction,SMDPad,CuDef*%
%ADD11R,3.480000X1.846667*%
%TD*%
%TA.AperFunction,ComponentPad*%
%ADD12C,1.600000*%
%TD*%
%TA.AperFunction,ComponentPad*%
%ADD13O,1.600000X1.600000*%
%TD*%
%TA.AperFunction,ComponentPad*%
%ADD14C,5.700000*%
%TD*%
%TA.AperFunction,ComponentPad*%
%ADD15R,1.500000X1.500000*%
%TD*%
%TA.AperFunction,ComponentPad*%
%ADD16O,1.500000X1.500000*%
%TD*%
%TA.AperFunction,SMDPad,CuDef*%
%ADD17FreePoly0,180.000000*%
%TD*%
%TA.AperFunction,SMDPad,CuDef*%
%ADD18FreePoly1,180.000000*%
%TD*%
%TA.AperFunction,ComponentPad*%
%ADD19R,1.700000X1.700000*%
%TD*%
%TA.AperFunction,ComponentPad*%
%ADD20O,1.700000X1.700000*%
%TD*%
%TA.AperFunction,ViaPad*%
%ADD21C,0.800000*%
%TD*%
%TA.AperFunction,Conductor*%
%ADD22C,0.250000*%
%TD*%
G04 APERTURE END LIST*
D10*
%TO.P,AB1,1,1*%
%TO.N,B*%
X65151000Y-22686000D03*
%TO.P,AB1,2,2*%
X67651000Y-32686000D03*
%TO.P,AB1,3,3*%
%TO.N,GNDB*%
X70151000Y-22686000D03*
%TD*%
%TO.P,AG1,1,1*%
%TO.N,G*%
X54182000Y-22686000D03*
%TO.P,AG1,2,2*%
X56682000Y-32686000D03*
%TO.P,AG1,3,3*%
%TO.N,GNDB*%
X59182000Y-22686000D03*
%TD*%
%TO.P,AR1,1,1*%
%TO.N,R*%
X43260000Y-22686000D03*
%TO.P,AR1,2,2*%
X45760000Y-32686000D03*
%TO.P,AR1,3,3*%
%TO.N,GNDB*%
X48260000Y-22686000D03*
%TD*%
D11*
%TO.P,J2,1,1*%
%TO.N,GNDB*%
X34925000Y-53131805D03*
%TO.P,J2,2,2*%
%TO.N,R*%
X34925000Y-50361805D03*
%TO.P,J2,3,3*%
%TO.N,CSYNC*%
X34925000Y-47591805D03*
%TO.P,J2,4,4*%
%TO.N,unconnected-(J2-Pad4)*%
X34925000Y-44821805D03*
%TO.P,J2,5,5*%
%TO.N,G*%
X34925000Y-42051805D03*
%TO.P,J2,6,6*%
%TO.N,GNDB*%
X34925000Y-39281805D03*
%TO.P,J2,7,7*%
%TO.N,-5V_R*%
X34925000Y-36511805D03*
%TO.P,J2,8,8*%
%TO.N,+12V_R*%
X34925000Y-33741805D03*
%TD*%
D12*
%TO.P,C1,1*%
%TO.N,Audio*%
X64222000Y-49784000D03*
%TO.P,C1,2*%
%TO.N,Net-(J5-Pin_1)*%
X59222000Y-49784000D03*
%TD*%
%TO.P,R1,1*%
%TO.N,+12V_T*%
X55372000Y-42291000D03*
D13*
%TO.P,R1,2*%
%TO.N,CR*%
X68072000Y-42291000D03*
%TD*%
D12*
%TO.P,R6,1*%
%TO.N,XRGB4*%
X87884000Y-43053000D03*
D13*
%TO.P,R6,2*%
%TO.N,G*%
X75184000Y-43053000D03*
%TD*%
D14*
%TO.P,REF\u002A\u002A,1*%
%TO.N,N/C*%
X96520000Y-23495000D03*
%TD*%
%TO.P,REF\u002A\u002A,1*%
%TO.N,N/C*%
X96520000Y-62230000D03*
%TD*%
D15*
%TO.P,D1,1,K*%
%TO.N,CR*%
X66802000Y-46736000D03*
D16*
%TO.P,D1,2,A*%
%TO.N,+12V_T*%
X56642000Y-46736000D03*
%TD*%
D17*
%TO.P,JP2,1,A*%
%TO.N,+12V_T*%
X52070000Y-59055000D03*
D18*
%TO.P,JP2,2,B*%
%TO.N,+12V_R*%
X50620000Y-59055000D03*
%TD*%
D11*
%TO.P,J1,8,8*%
%TO.N,+12V_T*%
X99060000Y-33056000D03*
%TO.P,J1,7,7*%
%TO.N,-5V_T*%
X99060000Y-35826000D03*
%TO.P,J1,6,6*%
%TO.N,GNDB*%
X99060000Y-38596000D03*
%TO.P,J1,5,5*%
%TO.N,XRGB1*%
X99060000Y-41366000D03*
%TO.P,J1,4,4*%
%TO.N,unconnected-(J1-Pad4)*%
X99060000Y-44136000D03*
%TO.P,J1,3,3*%
%TO.N,SyncTTLLS*%
X99060000Y-46906000D03*
%TO.P,J1,2,2*%
%TO.N,XRGB4*%
X99060000Y-49676000D03*
%TO.P,J1,1,1*%
%TO.N,GNDB*%
X99060000Y-52446000D03*
%TD*%
D12*
%TO.P,R3,1*%
%TO.N,XRGB1*%
X87884000Y-58293000D03*
D13*
%TO.P,R3,2*%
%TO.N,R*%
X75184000Y-58293000D03*
%TD*%
D12*
%TO.P,R5,1*%
%TO.N,XRGB8*%
X87884000Y-37639805D03*
D13*
%TO.P,R5,2*%
%TO.N,G*%
X75184000Y-37639805D03*
%TD*%
D12*
%TO.P,R10,1*%
%TO.N,Net-(J5-Pin_1)*%
X55499000Y-54483000D03*
D13*
%TO.P,R10,2*%
%TO.N,+5V_T*%
X68199000Y-54483000D03*
%TD*%
D19*
%TO.P,J5,1,Pin_1*%
%TO.N,Net-(J5-Pin_1)*%
X60325000Y-58928000D03*
D20*
%TO.P,J5,2,Pin_2*%
%TO.N,GNDB*%
X62865000Y-58928000D03*
%TD*%
D12*
%TO.P,R7,1*%
%TO.N,XRGB2*%
X87884000Y-27432000D03*
D13*
%TO.P,R7,2*%
%TO.N,B*%
X75184000Y-27432000D03*
%TD*%
D14*
%TO.P,REF\u002A\u002A,1*%
%TO.N,N/C*%
X37084000Y-23622000D03*
%TD*%
D19*
%TO.P,J3,1,Pin_1*%
%TO.N,CSYNC*%
X43942000Y-59944000D03*
D20*
%TO.P,J3,2,Pin_2*%
%TO.N,unconnected-(J3-Pin_2-Pad2)*%
X43942000Y-57404000D03*
%TO.P,J3,3,Pin_3*%
%TO.N,G*%
X43942000Y-54864000D03*
%TO.P,J3,4,Pin_4*%
%TO.N,R*%
X43942000Y-52324000D03*
%TO.P,J3,5,Pin_5*%
%TO.N,B*%
X43942000Y-49784000D03*
%TO.P,J3,6,Pin_6*%
%TO.N,GNDB*%
X43942000Y-47244000D03*
%TO.P,J3,7,Pin_7*%
%TO.N,CR*%
X43942000Y-44704000D03*
%TO.P,J3,8,Pin_8*%
%TO.N,+12V_T*%
X43942000Y-42164000D03*
%TO.P,J3,9,Pin_9*%
%TO.N,Audio*%
X43942000Y-39624000D03*
%TO.P,J3,10,Pin_10*%
%TO.N,unconnected-(J3-Pin_10-Pad10)*%
X43942000Y-37084000D03*
%TD*%
D12*
%TO.P,R4,1*%
%TO.N,XRGB8*%
X87884000Y-32559805D03*
D13*
%TO.P,R4,2*%
%TO.N,R*%
X75184000Y-32559805D03*
%TD*%
D17*
%TO.P,JP1,1,A*%
%TO.N,-5V_T*%
X55970000Y-59055000D03*
D18*
%TO.P,JP1,2,B*%
%TO.N,-5V_R*%
X54520000Y-59055000D03*
%TD*%
D12*
%TO.P,R9,1*%
%TO.N,XRGB4*%
X87884000Y-48133000D03*
D13*
%TO.P,R9,2*%
%TO.N,B*%
X75184000Y-48133000D03*
%TD*%
D19*
%TO.P,J4,1,Pin_1*%
%TO.N,+12V_T*%
X91440000Y-54610000D03*
D20*
%TO.P,J4,2,Pin_2*%
%TO.N,-12V_T*%
X91440000Y-52070000D03*
%TO.P,J4,3,Pin_3*%
%TO.N,-5V_T*%
X91440000Y-49530000D03*
%TO.P,J4,4,Pin_4*%
%TO.N,SyncTTLLS*%
X91440000Y-46990000D03*
%TO.P,J4,5,Pin_5*%
%TO.N,+5V_T*%
X91440000Y-44450000D03*
%TO.P,J4,6,Pin_6*%
%TO.N,GNDB*%
X91440000Y-41910000D03*
%TO.P,J4,7,Pin_7*%
%TO.N,XRGB1*%
X91440000Y-39370000D03*
%TO.P,J4,8,Pin_8*%
%TO.N,XRGB2*%
X91440000Y-36830000D03*
%TO.P,J4,9,Pin_9*%
%TO.N,XRGB4*%
X91440000Y-34290000D03*
%TO.P,J4,10,Pin_10*%
%TO.N,XRGB8*%
X91440000Y-31750000D03*
%TD*%
D12*
%TO.P,R2,1*%
%TO.N,SyncTTLLS*%
X87884000Y-63373000D03*
D13*
%TO.P,R2,2*%
%TO.N,CSYNC*%
X75184000Y-63373000D03*
%TD*%
D12*
%TO.P,R8,1*%
%TO.N,XRGB1*%
X87884000Y-53213000D03*
D13*
%TO.P,R8,2*%
%TO.N,B*%
X75184000Y-53213000D03*
%TD*%
D14*
%TO.P,REF\u002A\u002A,1*%
%TO.N,N/C*%
X36830000Y-62230000D03*
%TD*%
D21*
%TO.N,GNDB*%
X95504000Y-56515000D03*
X88392000Y-40132000D03*
X93218000Y-41910000D03*
%TO.N,+12V_T*%
X73406000Y-23622000D03*
%TO.N,XRGB4*%
X93599000Y-50800000D03*
%TO.N,GNDB*%
X96083219Y-39370000D03*
X93218000Y-39370000D03*
X38354000Y-40005000D03*
X34290000Y-55880000D03*
%TO.N,-5V_T*%
X95183219Y-47017000D03*
X96139000Y-36001000D03*
%TO.N,-12V_T*%
X96012000Y-47741500D03*
%TO.N,G*%
X46773500Y-54864000D03*
%TO.N,-5V_R*%
X47117000Y-40005000D03*
X40132000Y-36576000D03*
%TO.N,+12V_R*%
X40132000Y-33782000D03*
X47498000Y-34544000D03*
%TD*%
D22*
%TO.N,GNDB*%
X43942000Y-47244000D02*
X39116000Y-47244000D01*
X39116000Y-47244000D02*
X38746000Y-47614000D01*
X38746000Y-47614000D02*
X38746000Y-52821000D01*
X38746000Y-52821000D02*
X38435195Y-53131805D01*
X38435195Y-53131805D02*
X34925000Y-53131805D01*
X38354000Y-40005000D02*
X37630805Y-39281805D01*
X37630805Y-39281805D02*
X34925000Y-39281805D01*
%TO.N,-5V_R*%
X47117000Y-40005000D02*
X48051161Y-40939161D01*
X48051161Y-40939161D02*
X48051161Y-55849765D01*
X48051161Y-55849765D02*
X49859396Y-57658000D01*
X49859396Y-57658000D02*
X53123000Y-57658000D01*
X53123000Y-57658000D02*
X54520000Y-59055000D01*
%TO.N,CSYNC*%
X75184000Y-63373000D02*
X73671000Y-61860000D01*
X73671000Y-61860000D02*
X50176000Y-61860000D01*
X50176000Y-61860000D02*
X46048500Y-57732500D01*
%TO.N,SyncTTLLS*%
X87884000Y-63373000D02*
X89662000Y-61595000D01*
X89662000Y-61595000D02*
X89662000Y-48768000D01*
X89662000Y-48768000D02*
X91440000Y-46990000D01*
%TO.N,-5V_T*%
X90170000Y-63879604D02*
X90170000Y-50800000D01*
X88898604Y-65151000D02*
X90170000Y-63879604D01*
X57875000Y-60960000D02*
X76200000Y-60960000D01*
X80391000Y-65151000D02*
X88898604Y-65151000D01*
X76200000Y-60960000D02*
X80391000Y-65151000D01*
X90170000Y-50800000D02*
X91440000Y-49530000D01*
X55970000Y-59055000D02*
X57875000Y-60960000D01*
%TO.N,+12V_T*%
X90620000Y-56954000D02*
X91440000Y-56134000D01*
X89085000Y-65601000D02*
X90620000Y-64066000D01*
X91440000Y-56134000D02*
X91440000Y-54610000D01*
X80204604Y-65601000D02*
X89085000Y-65601000D01*
X52070000Y-59055000D02*
X52070000Y-59637000D01*
X53843000Y-61410000D02*
X76013604Y-61410000D01*
X52070000Y-59637000D02*
X53843000Y-61410000D01*
X90620000Y-64066000D02*
X90620000Y-56954000D01*
X76013604Y-61410000D02*
X80204604Y-65601000D01*
%TO.N,XRGB1*%
X91440000Y-39370000D02*
X90170000Y-40640000D01*
X90170000Y-40640000D02*
X90170000Y-47623604D01*
X90170000Y-47623604D02*
X87884000Y-49909604D01*
X87884000Y-49909604D02*
X87884000Y-53213000D01*
%TO.N,GNDB*%
X93218000Y-41910000D02*
X91440000Y-41910000D01*
%TO.N,-5V_T*%
X96139000Y-36001000D02*
X98955500Y-36001000D01*
%TO.N,XRGB1*%
X91440000Y-39370000D02*
X92710000Y-40640000D01*
X95758000Y-40640000D02*
X96659000Y-41541000D01*
X92710000Y-40640000D02*
X95758000Y-40640000D01*
X96659000Y-41541000D02*
X98955500Y-41541000D01*
%TO.N,GNDB*%
X96083219Y-39370000D02*
X96857219Y-38596000D01*
X96857219Y-38596000D02*
X99060000Y-38596000D01*
X93218000Y-39370000D02*
X96083219Y-39370000D01*
%TO.N,R*%
X43942000Y-52324000D02*
X45466000Y-52324000D01*
X45466000Y-52324000D02*
X46148000Y-51642000D01*
X46148000Y-46656000D02*
X45466000Y-45974000D01*
X46148000Y-51642000D02*
X46148000Y-46656000D01*
X45466000Y-45974000D02*
X38989000Y-45974000D01*
X37649195Y-50361805D02*
X34925000Y-50361805D01*
X38989000Y-45974000D02*
X38296000Y-46667000D01*
X38296000Y-46667000D02*
X38296000Y-49715000D01*
X38296000Y-49715000D02*
X37649195Y-50361805D01*
%TO.N,CSYNC*%
X34309305Y-47591805D02*
X37371195Y-47591805D01*
X46048500Y-54563695D02*
X46048500Y-57837500D01*
X37371195Y-47591805D02*
X37846000Y-47117000D01*
X37846000Y-47117000D02*
X37846000Y-44196000D01*
X37846000Y-44196000D02*
X38608000Y-43434000D01*
X46598000Y-45640973D02*
X46598000Y-54014195D01*
X38608000Y-43434000D02*
X44391027Y-43434000D01*
X44391027Y-43434000D02*
X46598000Y-45640973D01*
X46598000Y-54014195D02*
X46048500Y-54563695D01*
X46048500Y-57837500D02*
X43942000Y-59944000D01*
%TO.N,+12V_T*%
X73406000Y-23622000D02*
X89027000Y-23622000D01*
X94107000Y-28702000D02*
X94107000Y-31496000D01*
X89027000Y-23622000D02*
X94107000Y-28702000D01*
X94107000Y-31496000D02*
X95667000Y-33056000D01*
X95667000Y-33056000D02*
X99060000Y-33056000D01*
%TO.N,SyncTTLLS*%
X91440000Y-46990000D02*
X92329000Y-46101000D01*
X92329000Y-46101000D02*
X96012000Y-46101000D01*
X96817000Y-46906000D02*
X99060000Y-46906000D01*
X96012000Y-46101000D02*
X96817000Y-46906000D01*
%TO.N,-5V_T*%
X95183219Y-47017000D02*
X93953000Y-47017000D01*
X93953000Y-47017000D02*
X91440000Y-49530000D01*
%TO.N,Net-(J5-Pin_1)*%
X59222000Y-49784000D02*
X60325000Y-50887000D01*
X60325000Y-50887000D02*
X60325000Y-54483000D01*
X60325000Y-58928000D02*
X60325000Y-54483000D01*
X60325000Y-54483000D02*
X55499000Y-54483000D01*
%TO.N,CR*%
X68072000Y-42291000D02*
X66802000Y-43561000D01*
X66802000Y-43561000D02*
X66802000Y-46736000D01*
%TO.N,+12V_T*%
X55372000Y-42291000D02*
X56642000Y-43561000D01*
X56642000Y-43561000D02*
X56642000Y-46736000D01*
%TO.N,XRGB4*%
X97390000Y-49676000D02*
X99060000Y-49676000D01*
X91440000Y-34290000D02*
X89535000Y-36195000D01*
X89535000Y-36195000D02*
X89535000Y-41402000D01*
X96266000Y-50800000D02*
X97390000Y-49676000D01*
X93599000Y-50800000D02*
X96266000Y-50800000D01*
X89535000Y-41402000D02*
X87884000Y-43053000D01*
X87884000Y-43053000D02*
X87884000Y-48133000D01*
%TO.N,GNDB*%
X34290000Y-55880000D02*
X34290000Y-53766805D01*
X34290000Y-53766805D02*
X34925000Y-53131805D01*
X34572046Y-53131805D02*
X34925000Y-53131805D01*
%TO.N,XRGB2*%
X87884000Y-27432000D02*
X92163208Y-27432000D01*
X93657000Y-34613000D02*
X91440000Y-36830000D01*
X92163208Y-27432000D02*
X93657000Y-28925792D01*
X93657000Y-28925792D02*
X93657000Y-34613000D01*
%TO.N,XRGB8*%
X87884000Y-32559805D02*
X87884000Y-37639805D01*
X91440000Y-31750000D02*
X88693805Y-31750000D01*
X88693805Y-31750000D02*
X87884000Y-32559805D01*
%TO.N,-12V_T*%
X92710000Y-50800000D02*
X91440000Y-52070000D01*
X93990500Y-47741500D02*
X92710000Y-49022000D01*
X96012000Y-47741500D02*
X93990500Y-47741500D01*
X92710000Y-49022000D02*
X92710000Y-50800000D01*
%TO.N,R*%
X45760000Y-25186000D02*
X45760000Y-32686000D01*
X75184000Y-58293000D02*
X76327000Y-58293000D01*
X76962000Y-34337805D02*
X75184000Y-32559805D01*
X76962000Y-57658000D02*
X76962000Y-34337805D01*
X43260000Y-22686000D02*
X45760000Y-25186000D01*
X76327000Y-58293000D02*
X76962000Y-57658000D01*
%TO.N,CSYNC*%
X44196000Y-59690000D02*
X43942000Y-59944000D01*
%TO.N,G*%
X75184000Y-37639805D02*
X75184000Y-43053000D01*
X34925000Y-42051805D02*
X41514195Y-42051805D01*
X45466000Y-40894000D02*
X45466000Y-35219242D01*
X54142000Y-22512000D02*
X56682000Y-25052000D01*
X41514195Y-42051805D02*
X42672000Y-40894000D01*
X70024805Y-37639805D02*
X75184000Y-37639805D01*
X45466000Y-43872577D02*
X45466000Y-35219242D01*
X47048000Y-45454577D02*
X45466000Y-43872577D01*
X47999242Y-32686000D02*
X56682000Y-32686000D01*
X46773500Y-54864000D02*
X47048000Y-54589500D01*
X42672000Y-40894000D02*
X45466000Y-40894000D01*
X65071000Y-32686000D02*
X70024805Y-37639805D01*
X56682000Y-32686000D02*
X65071000Y-32686000D01*
X56682000Y-25052000D02*
X56682000Y-32686000D01*
X47048000Y-54589500D02*
X47048000Y-45454577D01*
X45466000Y-35219242D02*
X47999242Y-32686000D01*
%TO.N,-5V_R*%
X40067805Y-36511805D02*
X34925000Y-36511805D01*
X40132000Y-36576000D02*
X40067805Y-36511805D01*
%TO.N,+12V_R*%
X47498000Y-34544000D02*
X45916000Y-36126000D01*
X40091805Y-33741805D02*
X34925000Y-33741805D01*
X45916000Y-36126000D02*
X45916000Y-43686181D01*
X40132000Y-33782000D02*
X40091805Y-33741805D01*
X45916000Y-43686181D02*
X47498500Y-45268681D01*
X47498500Y-45268681D02*
X47498500Y-55933500D01*
X47498500Y-55933500D02*
X50620000Y-59055000D01*
%TO.N,B*%
X73914000Y-27432000D02*
X73914000Y-34036000D01*
X76512000Y-46805000D02*
X75184000Y-48133000D01*
X76512000Y-36634000D02*
X76512000Y-46805000D01*
X69897000Y-27432000D02*
X75184000Y-27432000D01*
X75184000Y-27432000D02*
X73914000Y-27432000D01*
X75184000Y-27432000D02*
X75184000Y-27813000D01*
X73914000Y-34036000D02*
X76512000Y-36634000D01*
X75184000Y-48133000D02*
X75184000Y-53213000D01*
X65151000Y-22686000D02*
X69897000Y-27432000D01*
%TD*%
%TA.AperFunction,Conductor*%
%TO.N,GNDB*%
G36*
X42625373Y-46619185D02*
G01*
X42671128Y-46671989D01*
X42681072Y-46741147D01*
X42670716Y-46775904D01*
X42668571Y-46780502D01*
X42668567Y-46780513D01*
X42611364Y-46993999D01*
X42611364Y-46994000D01*
X43508314Y-46994000D01*
X43482507Y-47034156D01*
X43442000Y-47172111D01*
X43442000Y-47315889D01*
X43482507Y-47453844D01*
X43508314Y-47494000D01*
X42611364Y-47494000D01*
X42668567Y-47707486D01*
X42668570Y-47707492D01*
X42768399Y-47921578D01*
X42903894Y-48115082D01*
X43070917Y-48282105D01*
X43256595Y-48412119D01*
X43300219Y-48466696D01*
X43307412Y-48536195D01*
X43275890Y-48598549D01*
X43256595Y-48615269D01*
X43070594Y-48745508D01*
X42903505Y-48912597D01*
X42767965Y-49106169D01*
X42767964Y-49106171D01*
X42668098Y-49320335D01*
X42668094Y-49320344D01*
X42606938Y-49548586D01*
X42606936Y-49548596D01*
X42586341Y-49783999D01*
X42586341Y-49784000D01*
X42606936Y-50019403D01*
X42606938Y-50019413D01*
X42668094Y-50247655D01*
X42668096Y-50247659D01*
X42668097Y-50247663D01*
X42756262Y-50436732D01*
X42767965Y-50461830D01*
X42767967Y-50461834D01*
X42852997Y-50583268D01*
X42897767Y-50647207D01*
X42903501Y-50655395D01*
X42903506Y-50655402D01*
X43070597Y-50822493D01*
X43070603Y-50822498D01*
X43256158Y-50952425D01*
X43299783Y-51007002D01*
X43306977Y-51076500D01*
X43275454Y-51138855D01*
X43256158Y-51155575D01*
X43070597Y-51285505D01*
X42903505Y-51452597D01*
X42767965Y-51646169D01*
X42767964Y-51646171D01*
X42668098Y-51860335D01*
X42668094Y-51860344D01*
X42606938Y-52088586D01*
X42606936Y-52088596D01*
X42586341Y-52323999D01*
X42586341Y-52324000D01*
X42606936Y-52559403D01*
X42606938Y-52559413D01*
X42668094Y-52787655D01*
X42668096Y-52787659D01*
X42668097Y-52787663D01*
X42742262Y-52946709D01*
X42767965Y-53001830D01*
X42767967Y-53001834D01*
X42876281Y-53156521D01*
X42903501Y-53195396D01*
X42903506Y-53195402D01*
X43070597Y-53362493D01*
X43070603Y-53362498D01*
X43256158Y-53492425D01*
X43299783Y-53547002D01*
X43306977Y-53616500D01*
X43275454Y-53678855D01*
X43256158Y-53695575D01*
X43070597Y-53825505D01*
X42903505Y-53992597D01*
X42767965Y-54186169D01*
X42767964Y-54186171D01*
X42668098Y-54400335D01*
X42668094Y-54400344D01*
X42606938Y-54628586D01*
X42606936Y-54628596D01*
X42586341Y-54863999D01*
X42586341Y-54864000D01*
X42606936Y-55099403D01*
X42606938Y-55099413D01*
X42668094Y-55327655D01*
X42668096Y-55327659D01*
X42668097Y-55327663D01*
X42721819Y-55442869D01*
X42767965Y-55541830D01*
X42767967Y-55541834D01*
X42903501Y-55735395D01*
X42903506Y-55735402D01*
X43070597Y-55902493D01*
X43070603Y-55902498D01*
X43256158Y-56032425D01*
X43299783Y-56087002D01*
X43306977Y-56156500D01*
X43275454Y-56218855D01*
X43256158Y-56235575D01*
X43070597Y-56365505D01*
X42903505Y-56532597D01*
X42767965Y-56726169D01*
X42767964Y-56726171D01*
X42668098Y-56940335D01*
X42668094Y-56940344D01*
X42606938Y-57168586D01*
X42606936Y-57168596D01*
X42586341Y-57403999D01*
X42586341Y-57404000D01*
X42606936Y-57639403D01*
X42606938Y-57639413D01*
X42668094Y-57867655D01*
X42668096Y-57867659D01*
X42668097Y-57867663D01*
X42743856Y-58030128D01*
X42767965Y-58081830D01*
X42767967Y-58081834D01*
X42811347Y-58143786D01*
X42886014Y-58250422D01*
X42903501Y-58275395D01*
X42903506Y-58275402D01*
X43025430Y-58397326D01*
X43058915Y-58458649D01*
X43053931Y-58528341D01*
X43012059Y-58584274D01*
X42981083Y-58601189D01*
X42849669Y-58650203D01*
X42849664Y-58650206D01*
X42734455Y-58736452D01*
X42734452Y-58736455D01*
X42648206Y-58851664D01*
X42648202Y-58851671D01*
X42597908Y-58986517D01*
X42591501Y-59046116D01*
X42591500Y-59046135D01*
X42591500Y-60841870D01*
X42591501Y-60841876D01*
X42597908Y-60901483D01*
X42648202Y-61036328D01*
X42648206Y-61036335D01*
X42734452Y-61151544D01*
X42734455Y-61151547D01*
X42849664Y-61237793D01*
X42849671Y-61237797D01*
X42984517Y-61288091D01*
X42984516Y-61288091D01*
X42991444Y-61288835D01*
X43044127Y-61294500D01*
X44839872Y-61294499D01*
X44899483Y-61288091D01*
X45034331Y-61237796D01*
X45149546Y-61151546D01*
X45235796Y-61036331D01*
X45286091Y-60901483D01*
X45292500Y-60841873D01*
X45292499Y-59529451D01*
X45312184Y-59462413D01*
X45328813Y-59441776D01*
X46013320Y-58757269D01*
X46074641Y-58723786D01*
X46144333Y-58728770D01*
X46188680Y-58757271D01*
X49675197Y-62243788D01*
X49685022Y-62256051D01*
X49685243Y-62255869D01*
X49690214Y-62261878D01*
X49716217Y-62286295D01*
X49740635Y-62309226D01*
X49761529Y-62330120D01*
X49767011Y-62334373D01*
X49771443Y-62338157D01*
X49805418Y-62370062D01*
X49822976Y-62379714D01*
X49839235Y-62390395D01*
X49855064Y-62402673D01*
X49897838Y-62421182D01*
X49903056Y-62423738D01*
X49943908Y-62446197D01*
X49963316Y-62451180D01*
X49981717Y-62457480D01*
X50000104Y-62465437D01*
X50043488Y-62472308D01*
X50046119Y-62472725D01*
X50051839Y-62473909D01*
X50096981Y-62485500D01*
X50117016Y-62485500D01*
X50136414Y-62487026D01*
X50156194Y-62490159D01*
X50156195Y-62490160D01*
X50156195Y-62490159D01*
X50156196Y-62490160D01*
X50202584Y-62485775D01*
X50208422Y-62485500D01*
X73360548Y-62485500D01*
X73427587Y-62505185D01*
X73448229Y-62521819D01*
X73884586Y-62958177D01*
X73918071Y-63019500D01*
X73916680Y-63077949D01*
X73898367Y-63146296D01*
X73898364Y-63146313D01*
X73878532Y-63372999D01*
X73878532Y-63373001D01*
X73898364Y-63599686D01*
X73898366Y-63599697D01*
X73957258Y-63819488D01*
X73957261Y-63819497D01*
X74053431Y-64025732D01*
X74053432Y-64025734D01*
X74183954Y-64212141D01*
X74344858Y-64373045D01*
X74344861Y-64373047D01*
X74531266Y-64503568D01*
X74737504Y-64599739D01*
X74957308Y-64658635D01*
X75119230Y-64672801D01*
X75183998Y-64678468D01*
X75184000Y-64678468D01*
X75184002Y-64678468D01*
X75240673Y-64673509D01*
X75410692Y-64658635D01*
X75630496Y-64599739D01*
X75836734Y-64503568D01*
X76023139Y-64373047D01*
X76184047Y-64212139D01*
X76314568Y-64025734D01*
X76410739Y-63819496D01*
X76469635Y-63599692D01*
X76489468Y-63373000D01*
X76469635Y-63146308D01*
X76444578Y-63052793D01*
X76446241Y-62982945D01*
X76485404Y-62925082D01*
X76549632Y-62897578D01*
X76618534Y-62909164D01*
X76652033Y-62933019D01*
X78017105Y-64298092D01*
X79373347Y-65654334D01*
X79406832Y-65715657D01*
X79401848Y-65785349D01*
X79359976Y-65841282D01*
X79294512Y-65865699D01*
X79286137Y-65866014D01*
X33652471Y-66039526D01*
X33585358Y-66020097D01*
X33539402Y-65967467D01*
X33528000Y-65915527D01*
X33528000Y-63640857D01*
X33547685Y-63573818D01*
X33600489Y-63528063D01*
X33669647Y-63518119D01*
X33733203Y-63547144D01*
X33767193Y-63594961D01*
X33784697Y-63638895D01*
X33784706Y-63638913D01*
X33954878Y-63959892D01*
X33954881Y-63959897D01*
X33954883Y-63959900D01*
X34006824Y-64036507D01*
X34158772Y-64260613D01*
X34256054Y-64375142D01*
X34393979Y-64537521D01*
X34657746Y-64787375D01*
X34946981Y-65007245D01*
X35258292Y-65194555D01*
X35258294Y-65194556D01*
X35258296Y-65194557D01*
X35258300Y-65194559D01*
X35588020Y-65347103D01*
X35588031Y-65347108D01*
X35932330Y-65463116D01*
X36287153Y-65541218D01*
X36648341Y-65580500D01*
X36648347Y-65580500D01*
X37011653Y-65580500D01*
X37011659Y-65580500D01*
X37372847Y-65541218D01*
X37727670Y-65463116D01*
X38071969Y-65347108D01*
X38401708Y-65194555D01*
X38713019Y-65007245D01*
X39002254Y-64787375D01*
X39266021Y-64537521D01*
X39501227Y-64260614D01*
X39705117Y-63959900D01*
X39875298Y-63638905D01*
X40009775Y-63301391D01*
X40106973Y-62951316D01*
X40135832Y-62775285D01*
X40165749Y-62592799D01*
X40165751Y-62592782D01*
X40185421Y-62230002D01*
X40185421Y-62229997D01*
X40165751Y-61867217D01*
X40165749Y-61867200D01*
X40106975Y-61508696D01*
X40106974Y-61508695D01*
X40106973Y-61508684D01*
X40047505Y-61294499D01*
X40009778Y-61158618D01*
X40009773Y-61158603D01*
X39892807Y-60865039D01*
X39875298Y-60821095D01*
X39735879Y-60558123D01*
X39705121Y-60500107D01*
X39705119Y-60500104D01*
X39705117Y-60500100D01*
X39501227Y-60199386D01*
X39266021Y-59922479D01*
X39002254Y-59672625D01*
X39002244Y-59672617D01*
X38904702Y-59598468D01*
X38713019Y-59452755D01*
X38401708Y-59265445D01*
X38401707Y-59265444D01*
X38401703Y-59265442D01*
X38401699Y-59265440D01*
X38071979Y-59112896D01*
X38071974Y-59112894D01*
X38071969Y-59112892D01*
X37873818Y-59046127D01*
X37727669Y-58996883D01*
X37372845Y-58918781D01*
X37011660Y-58879500D01*
X37011659Y-58879500D01*
X36648341Y-58879500D01*
X36648339Y-58879500D01*
X36287154Y-58918781D01*
X35932330Y-58996883D01*
X35666178Y-59086560D01*
X35588031Y-59112892D01*
X35588028Y-59112893D01*
X35588020Y-59112896D01*
X35258300Y-59265440D01*
X35258296Y-59265442D01*
X35048811Y-59391486D01*
X34946981Y-59452755D01*
X34913652Y-59478091D01*
X34657755Y-59672617D01*
X34657745Y-59672625D01*
X34393978Y-59922479D01*
X34158772Y-60199386D01*
X33954884Y-60500098D01*
X33954878Y-60500107D01*
X33784706Y-60821086D01*
X33784700Y-60821098D01*
X33767193Y-60865039D01*
X33724093Y-60920031D01*
X33658103Y-60942992D01*
X33590176Y-60926631D01*
X33541878Y-60876143D01*
X33528000Y-60819142D01*
X33528000Y-54679139D01*
X33547685Y-54612100D01*
X33600489Y-54566345D01*
X33652000Y-54555139D01*
X34675000Y-54555139D01*
X34675000Y-53381805D01*
X35175000Y-53381805D01*
X35175000Y-54555139D01*
X36712828Y-54555139D01*
X36712844Y-54555138D01*
X36772372Y-54548737D01*
X36772379Y-54548735D01*
X36907086Y-54498493D01*
X36907093Y-54498489D01*
X37022187Y-54412329D01*
X37022190Y-54412326D01*
X37108350Y-54297232D01*
X37108354Y-54297225D01*
X37158596Y-54162518D01*
X37158598Y-54162511D01*
X37164999Y-54102983D01*
X37165000Y-54102966D01*
X37165000Y-53381805D01*
X35175000Y-53381805D01*
X34675000Y-53381805D01*
X34675000Y-53005805D01*
X34694685Y-52938766D01*
X34747489Y-52893011D01*
X34799000Y-52881805D01*
X37165000Y-52881805D01*
X37165000Y-52160643D01*
X37164999Y-52160626D01*
X37158598Y-52101098D01*
X37158596Y-52101091D01*
X37108354Y-51966384D01*
X37108350Y-51966377D01*
X37022190Y-51851283D01*
X37022189Y-51851282D01*
X37015646Y-51846384D01*
X36973774Y-51790451D01*
X36968790Y-51720759D01*
X37002275Y-51659436D01*
X37015641Y-51647853D01*
X37022546Y-51642685D01*
X37108796Y-51527470D01*
X37159091Y-51392622D01*
X37165500Y-51333012D01*
X37165500Y-51111305D01*
X37185185Y-51044266D01*
X37237989Y-50998511D01*
X37289500Y-50987305D01*
X37566452Y-50987305D01*
X37582072Y-50989029D01*
X37582099Y-50988744D01*
X37589855Y-50989476D01*
X37589862Y-50989478D01*
X37659009Y-50987305D01*
X37688545Y-50987305D01*
X37695423Y-50986435D01*
X37701236Y-50985977D01*
X37747822Y-50984514D01*
X37767064Y-50978922D01*
X37786107Y-50974979D01*
X37805987Y-50972469D01*
X37849317Y-50955312D01*
X37854841Y-50953422D01*
X37858591Y-50952332D01*
X37899585Y-50940423D01*
X37916824Y-50930227D01*
X37934298Y-50921667D01*
X37952922Y-50914293D01*
X37952922Y-50914292D01*
X37952927Y-50914291D01*
X37990644Y-50886887D01*
X37995500Y-50883697D01*
X38035615Y-50859975D01*
X38049784Y-50845804D01*
X38064574Y-50833173D01*
X38080782Y-50821399D01*
X38110494Y-50785481D01*
X38114407Y-50781181D01*
X38679787Y-50215802D01*
X38692042Y-50205986D01*
X38691859Y-50205764D01*
X38697866Y-50200792D01*
X38697877Y-50200786D01*
X38728775Y-50167882D01*
X38745227Y-50150364D01*
X38755671Y-50139918D01*
X38766120Y-50129471D01*
X38770379Y-50123978D01*
X38774152Y-50119561D01*
X38806062Y-50085582D01*
X38815713Y-50068024D01*
X38826396Y-50051761D01*
X38838673Y-50035936D01*
X38857185Y-49993153D01*
X38859738Y-49987941D01*
X38882197Y-49947092D01*
X38887180Y-49927680D01*
X38893481Y-49909280D01*
X38901437Y-49890896D01*
X38908729Y-49844852D01*
X38909906Y-49839171D01*
X38921500Y-49794019D01*
X38921500Y-49773983D01*
X38923027Y-49754582D01*
X38926160Y-49734804D01*
X38921775Y-49688415D01*
X38921500Y-49682577D01*
X38921500Y-46977452D01*
X38941185Y-46910413D01*
X38957819Y-46889771D01*
X39211772Y-46635819D01*
X39273095Y-46602334D01*
X39299453Y-46599500D01*
X42558334Y-46599500D01*
X42625373Y-46619185D01*
G37*
%TD.AperFunction*%
%TA.AperFunction,Conductor*%
G36*
X96772805Y-51311190D02*
G01*
X96816568Y-51365657D01*
X96825229Y-51426200D01*
X96820000Y-51474837D01*
X96820000Y-52196000D01*
X99186000Y-52196000D01*
X99253039Y-52215685D01*
X99298794Y-52268489D01*
X99310000Y-52320000D01*
X99310000Y-53869334D01*
X100206000Y-53869334D01*
X100273039Y-53889019D01*
X100318794Y-53941823D01*
X100330000Y-53993334D01*
X100330000Y-65662470D01*
X100310315Y-65729509D01*
X100257511Y-65775264D01*
X100206471Y-65786469D01*
X96982593Y-65798727D01*
X96915480Y-65779298D01*
X96869524Y-65726668D01*
X96859318Y-65657548D01*
X96888101Y-65593882D01*
X96946735Y-65555885D01*
X96968710Y-65551456D01*
X97062847Y-65541218D01*
X97417670Y-65463116D01*
X97761969Y-65347108D01*
X98091708Y-65194555D01*
X98403019Y-65007245D01*
X98692254Y-64787375D01*
X98956021Y-64537521D01*
X99191227Y-64260614D01*
X99395117Y-63959900D01*
X99565298Y-63638905D01*
X99699775Y-63301391D01*
X99796973Y-62951316D01*
X99825832Y-62775285D01*
X99855749Y-62592799D01*
X99855751Y-62592782D01*
X99875421Y-62230002D01*
X99875421Y-62229997D01*
X99855751Y-61867217D01*
X99855749Y-61867200D01*
X99796975Y-61508696D01*
X99796974Y-61508695D01*
X99796973Y-61508684D01*
X99737505Y-61294499D01*
X99699778Y-61158618D01*
X99699773Y-61158603D01*
X99582807Y-60865039D01*
X99565298Y-60821095D01*
X99425879Y-60558123D01*
X99395121Y-60500107D01*
X99395119Y-60500104D01*
X99395117Y-60500100D01*
X99191227Y-60199386D01*
X98956021Y-59922479D01*
X98692254Y-59672625D01*
X98692244Y-59672617D01*
X98594702Y-59598468D01*
X98403019Y-59452755D01*
X98091708Y-59265445D01*
X98091707Y-59265444D01*
X98091703Y-59265442D01*
X98091699Y-59265440D01*
X97761979Y-59112896D01*
X97761974Y-59112894D01*
X97761969Y-59112892D01*
X97563818Y-59046127D01*
X97417669Y-58996883D01*
X97062845Y-58918781D01*
X96701660Y-58879500D01*
X96701659Y-58879500D01*
X96338341Y-58879500D01*
X96338339Y-58879500D01*
X95977154Y-58918781D01*
X95622330Y-58996883D01*
X95356178Y-59086560D01*
X95278031Y-59112892D01*
X95278028Y-59112893D01*
X95278020Y-59112896D01*
X94948300Y-59265440D01*
X94948296Y-59265442D01*
X94738811Y-59391486D01*
X94636981Y-59452755D01*
X94603652Y-59478091D01*
X94347755Y-59672617D01*
X94347745Y-59672625D01*
X94083978Y-59922479D01*
X93848772Y-60199386D01*
X93644884Y-60500098D01*
X93644878Y-60500107D01*
X93474706Y-60821086D01*
X93474700Y-60821098D01*
X93340226Y-61158603D01*
X93340221Y-61158618D01*
X93243030Y-61508670D01*
X93243024Y-61508696D01*
X93184250Y-61867200D01*
X93184248Y-61867217D01*
X93164579Y-62229997D01*
X93164579Y-62230002D01*
X93184248Y-62592782D01*
X93184250Y-62592799D01*
X93243024Y-62951303D01*
X93243030Y-62951329D01*
X93340221Y-63301381D01*
X93340226Y-63301396D01*
X93474700Y-63638901D01*
X93474706Y-63638913D01*
X93644878Y-63959892D01*
X93644881Y-63959897D01*
X93644883Y-63959900D01*
X93696824Y-64036507D01*
X93848772Y-64260613D01*
X93946054Y-64375142D01*
X94083979Y-64537521D01*
X94347746Y-64787375D01*
X94636981Y-65007245D01*
X94948292Y-65194555D01*
X94948294Y-65194556D01*
X94948296Y-65194557D01*
X94948300Y-65194559D01*
X95278020Y-65347103D01*
X95278031Y-65347108D01*
X95622330Y-65463116D01*
X95977153Y-65541218D01*
X96071280Y-65551455D01*
X96102505Y-65554851D01*
X96167023Y-65581668D01*
X96206801Y-65639110D01*
X96209208Y-65708938D01*
X96173482Y-65768983D01*
X96110964Y-65800181D01*
X96089569Y-65802123D01*
X90045315Y-65825104D01*
X89978202Y-65805675D01*
X89932246Y-65753045D01*
X89922040Y-65683925D01*
X89950823Y-65620259D01*
X89957133Y-65613455D01*
X91003787Y-64566802D01*
X91016042Y-64556986D01*
X91015859Y-64556764D01*
X91021866Y-64551792D01*
X91021877Y-64551786D01*
X91052775Y-64518882D01*
X91069227Y-64501364D01*
X91079671Y-64490918D01*
X91090120Y-64480471D01*
X91094379Y-64474978D01*
X91098152Y-64470561D01*
X91130062Y-64436582D01*
X91139715Y-64419020D01*
X91150389Y-64402770D01*
X91162673Y-64386936D01*
X91181180Y-64344167D01*
X91183749Y-64338924D01*
X91206196Y-64298093D01*
X91206197Y-64298092D01*
X91211177Y-64278691D01*
X91217478Y-64260288D01*
X91225438Y-64241896D01*
X91232730Y-64195849D01*
X91233911Y-64190152D01*
X91245500Y-64145019D01*
X91245500Y-64124983D01*
X91247027Y-64105582D01*
X91250160Y-64085804D01*
X91245775Y-64039415D01*
X91245500Y-64033577D01*
X91245500Y-57264452D01*
X91265185Y-57197413D01*
X91281819Y-57176771D01*
X91539747Y-56918843D01*
X91823788Y-56634801D01*
X91836042Y-56624986D01*
X91835859Y-56624764D01*
X91841866Y-56619792D01*
X91841877Y-56619786D01*
X91872775Y-56586882D01*
X91889227Y-56569364D01*
X91899671Y-56558918D01*
X91910120Y-56548471D01*
X91914379Y-56542978D01*
X91918152Y-56538561D01*
X91950062Y-56504582D01*
X91959713Y-56487024D01*
X91970396Y-56470761D01*
X91982673Y-56454936D01*
X92001185Y-56412153D01*
X92003738Y-56406941D01*
X92026197Y-56366092D01*
X92031180Y-56346680D01*
X92037481Y-56328280D01*
X92045437Y-56309896D01*
X92052729Y-56263852D01*
X92053906Y-56258171D01*
X92065500Y-56213019D01*
X92065500Y-56192983D01*
X92067027Y-56173582D01*
X92070160Y-56153804D01*
X92065775Y-56107415D01*
X92065500Y-56101577D01*
X92065500Y-56084499D01*
X92085185Y-56017460D01*
X92137989Y-55971705D01*
X92189500Y-55960499D01*
X92337871Y-55960499D01*
X92337872Y-55960499D01*
X92397483Y-55954091D01*
X92532331Y-55903796D01*
X92647546Y-55817546D01*
X92733796Y-55702331D01*
X92784091Y-55567483D01*
X92790500Y-55507873D01*
X92790499Y-53712128D01*
X92784091Y-53652517D01*
X92780861Y-53643858D01*
X92733797Y-53517671D01*
X92733793Y-53517664D01*
X92647547Y-53402455D01*
X92647544Y-53402452D01*
X92532335Y-53316206D01*
X92532328Y-53316202D01*
X92400917Y-53267189D01*
X92344983Y-53225318D01*
X92320566Y-53159853D01*
X92335418Y-53091580D01*
X92356563Y-53063332D01*
X92478495Y-52941401D01*
X92614035Y-52747830D01*
X92638204Y-52696000D01*
X96820000Y-52696000D01*
X96820000Y-53417178D01*
X96826401Y-53476706D01*
X96826403Y-53476713D01*
X96876645Y-53611420D01*
X96876649Y-53611427D01*
X96962809Y-53726521D01*
X96962812Y-53726524D01*
X97077906Y-53812684D01*
X97077913Y-53812688D01*
X97212620Y-53862930D01*
X97212627Y-53862932D01*
X97272155Y-53869333D01*
X97272172Y-53869334D01*
X98810000Y-53869334D01*
X98810000Y-52696000D01*
X96820000Y-52696000D01*
X92638204Y-52696000D01*
X92713903Y-52533663D01*
X92775063Y-52305408D01*
X92795659Y-52070000D01*
X92775063Y-51834592D01*
X92748143Y-51734125D01*
X92749806Y-51664277D01*
X92780234Y-51614355D01*
X92876875Y-51517713D01*
X92938193Y-51484232D01*
X93007885Y-51489216D01*
X93037437Y-51505080D01*
X93146265Y-51584148D01*
X93146270Y-51584151D01*
X93319192Y-51661142D01*
X93319197Y-51661144D01*
X93504354Y-51700500D01*
X93504355Y-51700500D01*
X93693644Y-51700500D01*
X93693646Y-51700500D01*
X93878803Y-51661144D01*
X94051730Y-51584151D01*
X94204871Y-51472888D01*
X94207788Y-51469647D01*
X94210600Y-51466526D01*
X94270087Y-51429879D01*
X94302748Y-51425500D01*
X96183257Y-51425500D01*
X96198877Y-51427224D01*
X96198904Y-51426939D01*
X96206660Y-51427671D01*
X96206667Y-51427673D01*
X96275814Y-51425500D01*
X96305350Y-51425500D01*
X96312228Y-51424630D01*
X96318041Y-51424172D01*
X96364627Y-51422709D01*
X96383869Y-51417117D01*
X96402912Y-51413174D01*
X96422792Y-51410664D01*
X96466122Y-51393507D01*
X96471646Y-51391617D01*
X96475396Y-51390527D01*
X96516390Y-51378618D01*
X96533629Y-51368422D01*
X96551103Y-51359862D01*
X96569727Y-51352488D01*
X96569727Y-51352487D01*
X96569732Y-51352486D01*
X96607444Y-51325085D01*
X96612300Y-51321895D01*
X96638820Y-51306212D01*
X96706543Y-51289030D01*
X96772805Y-51311190D01*
G37*
%TD.AperFunction*%
%TA.AperFunction,Conductor*%
G36*
X100273039Y-19577685D02*
G01*
X100318794Y-19630489D01*
X100330000Y-19682000D01*
X100330000Y-31508166D01*
X100310315Y-31575205D01*
X100257511Y-31620960D01*
X100206000Y-31632166D01*
X97272129Y-31632166D01*
X97272123Y-31632167D01*
X97212516Y-31638574D01*
X97077671Y-31688868D01*
X97077664Y-31688872D01*
X96962455Y-31775118D01*
X96962452Y-31775121D01*
X96876206Y-31890330D01*
X96876202Y-31890337D01*
X96825908Y-32025183D01*
X96819501Y-32084782D01*
X96819500Y-32084801D01*
X96819500Y-32306500D01*
X96799815Y-32373539D01*
X96747011Y-32419294D01*
X96695500Y-32430500D01*
X95977453Y-32430500D01*
X95910414Y-32410815D01*
X95889772Y-32394181D01*
X94768819Y-31273228D01*
X94735334Y-31211905D01*
X94732500Y-31185547D01*
X94732500Y-28784742D01*
X94734224Y-28769122D01*
X94733939Y-28769096D01*
X94734671Y-28761340D01*
X94734673Y-28761333D01*
X94732500Y-28692185D01*
X94732500Y-28662650D01*
X94731631Y-28655772D01*
X94731172Y-28649943D01*
X94729709Y-28603372D01*
X94724122Y-28584144D01*
X94720174Y-28565084D01*
X94717663Y-28545204D01*
X94700512Y-28501887D01*
X94698619Y-28496358D01*
X94685618Y-28451609D01*
X94685616Y-28451606D01*
X94675423Y-28434371D01*
X94666861Y-28416894D01*
X94659487Y-28398270D01*
X94659486Y-28398268D01*
X94632079Y-28360545D01*
X94628888Y-28355686D01*
X94605172Y-28315583D01*
X94605165Y-28315574D01*
X94591006Y-28301415D01*
X94578368Y-28286619D01*
X94566594Y-28270413D01*
X94530688Y-28240709D01*
X94526376Y-28236786D01*
X89784593Y-23495002D01*
X93164579Y-23495002D01*
X93184248Y-23857782D01*
X93184250Y-23857799D01*
X93243024Y-24216303D01*
X93243030Y-24216329D01*
X93340221Y-24566381D01*
X93340226Y-24566396D01*
X93474700Y-24903901D01*
X93474706Y-24903913D01*
X93644878Y-25224892D01*
X93644881Y-25224897D01*
X93644883Y-25224900D01*
X93730992Y-25351901D01*
X93829000Y-25496452D01*
X93848773Y-25525614D01*
X94083979Y-25802521D01*
X94347746Y-26052375D01*
X94636981Y-26272245D01*
X94948292Y-26459555D01*
X94948294Y-26459556D01*
X94948296Y-26459557D01*
X94948300Y-26459559D01*
X95236425Y-26592859D01*
X95278031Y-26612108D01*
X95622330Y-26728116D01*
X95977153Y-26806218D01*
X96338341Y-26845500D01*
X96338347Y-26845500D01*
X96701653Y-26845500D01*
X96701659Y-26845500D01*
X97062847Y-26806218D01*
X97417670Y-26728116D01*
X97761969Y-26612108D01*
X98091708Y-26459555D01*
X98403019Y-26272245D01*
X98692254Y-26052375D01*
X98956021Y-25802521D01*
X99191227Y-25525614D01*
X99395117Y-25224900D01*
X99565298Y-24903905D01*
X99699775Y-24566391D01*
X99722889Y-24483144D01*
X99761708Y-24343329D01*
X99796973Y-24216316D01*
X99834928Y-23984799D01*
X99855749Y-23857799D01*
X99855751Y-23857782D01*
X99875421Y-23495002D01*
X99875421Y-23494997D01*
X99858322Y-23179626D01*
X99855751Y-23132215D01*
X99852426Y-23111936D01*
X99796975Y-22773696D01*
X99796974Y-22773695D01*
X99796973Y-22773684D01*
X99735039Y-22550618D01*
X99699778Y-22423618D01*
X99699773Y-22423603D01*
X99565299Y-22086098D01*
X99565298Y-22086095D01*
X99395117Y-21765100D01*
X99191227Y-21464386D01*
X98956021Y-21187479D01*
X98692254Y-20937625D01*
X98692244Y-20937617D01*
X98570085Y-20844755D01*
X98403019Y-20717755D01*
X98091708Y-20530445D01*
X98091707Y-20530444D01*
X98091703Y-20530442D01*
X98091699Y-20530440D01*
X97761979Y-20377896D01*
X97761974Y-20377894D01*
X97761969Y-20377892D01*
X97562791Y-20310781D01*
X97417669Y-20261883D01*
X97062845Y-20183781D01*
X96701660Y-20144500D01*
X96701659Y-20144500D01*
X96338341Y-20144500D01*
X96338339Y-20144500D01*
X95977154Y-20183781D01*
X95622330Y-20261883D01*
X95356178Y-20351560D01*
X95278031Y-20377892D01*
X95278028Y-20377893D01*
X95278020Y-20377896D01*
X94948300Y-20530440D01*
X94948296Y-20530442D01*
X94737225Y-20657440D01*
X94636981Y-20717755D01*
X94547332Y-20785903D01*
X94347755Y-20937617D01*
X94347745Y-20937625D01*
X94083978Y-21187479D01*
X93848772Y-21464386D01*
X93644884Y-21765098D01*
X93644878Y-21765107D01*
X93474706Y-22086086D01*
X93474700Y-22086098D01*
X93340226Y-22423603D01*
X93340221Y-22423618D01*
X93243030Y-22773670D01*
X93243024Y-22773696D01*
X93184250Y-23132200D01*
X93184248Y-23132217D01*
X93164579Y-23494997D01*
X93164579Y-23495002D01*
X89784593Y-23495002D01*
X89527803Y-23238212D01*
X89517980Y-23225950D01*
X89517759Y-23226134D01*
X89512786Y-23220123D01*
X89490809Y-23199485D01*
X89462364Y-23172773D01*
X89448775Y-23159184D01*
X89441475Y-23151883D01*
X89435986Y-23147625D01*
X89431561Y-23143847D01*
X89397582Y-23111938D01*
X89397580Y-23111936D01*
X89397577Y-23111935D01*
X89380029Y-23102288D01*
X89363763Y-23091604D01*
X89347933Y-23079325D01*
X89305168Y-23060818D01*
X89299922Y-23058248D01*
X89259093Y-23035803D01*
X89259092Y-23035802D01*
X89239693Y-23030822D01*
X89221281Y-23024518D01*
X89202898Y-23016562D01*
X89202892Y-23016560D01*
X89156874Y-23009272D01*
X89151152Y-23008087D01*
X89106021Y-22996500D01*
X89106019Y-22996500D01*
X89085984Y-22996500D01*
X89066586Y-22994973D01*
X89059162Y-22993797D01*
X89046805Y-22991840D01*
X89046804Y-22991840D01*
X89000416Y-22996225D01*
X88994578Y-22996500D01*
X74109748Y-22996500D01*
X74042709Y-22976815D01*
X74017600Y-22955474D01*
X74011873Y-22949114D01*
X74011869Y-22949110D01*
X73858734Y-22837851D01*
X73858729Y-22837848D01*
X73685807Y-22760857D01*
X73685802Y-22760855D01*
X73527171Y-22727138D01*
X73500646Y-22721500D01*
X73311354Y-22721500D01*
X73284829Y-22727138D01*
X73126197Y-22760855D01*
X73126192Y-22760857D01*
X72953270Y-22837848D01*
X72953265Y-22837851D01*
X72800129Y-22949111D01*
X72673466Y-23089785D01*
X72578821Y-23253715D01*
X72578818Y-23253722D01*
X72520327Y-23433740D01*
X72520326Y-23433744D01*
X72500540Y-23622000D01*
X72520326Y-23810256D01*
X72520327Y-23810259D01*
X72578818Y-23990277D01*
X72578821Y-23990284D01*
X72673467Y-24154216D01*
X72790162Y-24283819D01*
X72800129Y-24294888D01*
X72953265Y-24406148D01*
X72953270Y-24406151D01*
X73126192Y-24483142D01*
X73126197Y-24483144D01*
X73311354Y-24522500D01*
X73311355Y-24522500D01*
X73500644Y-24522500D01*
X73500646Y-24522500D01*
X73685803Y-24483144D01*
X73858730Y-24406151D01*
X74011871Y-24294888D01*
X74014788Y-24291647D01*
X74017600Y-24288526D01*
X74077087Y-24251879D01*
X74109748Y-24247500D01*
X88716548Y-24247500D01*
X88783587Y-24267185D01*
X88804229Y-24283819D01*
X91115228Y-26594819D01*
X91148713Y-26656142D01*
X91143729Y-26725834D01*
X91101857Y-26781767D01*
X91036393Y-26806184D01*
X91027547Y-26806500D01*
X89098188Y-26806500D01*
X89031149Y-26786815D01*
X88996613Y-26753623D01*
X88884045Y-26592858D01*
X88723141Y-26431954D01*
X88536734Y-26301432D01*
X88536732Y-26301431D01*
X88330497Y-26205261D01*
X88330488Y-26205258D01*
X88110697Y-26146366D01*
X88110693Y-26146365D01*
X88110692Y-26146365D01*
X88110691Y-26146364D01*
X88110686Y-26146364D01*
X87884002Y-26126532D01*
X87883998Y-26126532D01*
X87657313Y-26146364D01*
X87657302Y-26146366D01*
X87437511Y-26205258D01*
X87437502Y-26205261D01*
X87231267Y-26301431D01*
X87231265Y-26301432D01*
X87044858Y-26431954D01*
X86883954Y-26592858D01*
X86753432Y-26779265D01*
X86753431Y-26779267D01*
X86657261Y-26985502D01*
X86657258Y-26985511D01*
X86598366Y-27205302D01*
X86598364Y-27205313D01*
X86578532Y-27431998D01*
X86578532Y-27432001D01*
X86598364Y-27658686D01*
X86598366Y-27658697D01*
X86657258Y-27878488D01*
X86657261Y-27878497D01*
X86753431Y-28084732D01*
X86753432Y-28084734D01*
X86883954Y-28271141D01*
X87044858Y-28432045D01*
X87044861Y-28432047D01*
X87231266Y-28562568D01*
X87437504Y-28658739D01*
X87437509Y-28658740D01*
X87437511Y-28658741D01*
X87452100Y-28662650D01*
X87657308Y-28717635D01*
X87819230Y-28731801D01*
X87883998Y-28737468D01*
X87884000Y-28737468D01*
X87884002Y-28737468D01*
X87940673Y-28732509D01*
X88110692Y-28717635D01*
X88330496Y-28658739D01*
X88536734Y-28562568D01*
X88723139Y-28432047D01*
X88884047Y-28271139D01*
X88962681Y-28158836D01*
X88996613Y-28110377D01*
X89051189Y-28066752D01*
X89098188Y-28057500D01*
X91852756Y-28057500D01*
X91919795Y-28077185D01*
X91940437Y-28093819D01*
X92995181Y-29148563D01*
X93028666Y-29209886D01*
X93031500Y-29236244D01*
X93031500Y-31605612D01*
X93011815Y-31672651D01*
X92959011Y-31718406D01*
X92889853Y-31728350D01*
X92826297Y-31699325D01*
X92788523Y-31640547D01*
X92783972Y-31616420D01*
X92780366Y-31575205D01*
X92775063Y-31514592D01*
X92713903Y-31286337D01*
X92614035Y-31072171D01*
X92613652Y-31071623D01*
X92478494Y-30878597D01*
X92311402Y-30711506D01*
X92311395Y-30711501D01*
X92117834Y-30575967D01*
X92117830Y-30575965D01*
X92117828Y-30575964D01*
X91903663Y-30476097D01*
X91903659Y-30476096D01*
X91903655Y-30476094D01*
X91675413Y-30414938D01*
X91675403Y-30414936D01*
X91440001Y-30394341D01*
X91439999Y-30394341D01*
X91204596Y-30414936D01*
X91204586Y-30414938D01*
X90976344Y-30476094D01*
X90976335Y-30476098D01*
X90762171Y-30575964D01*
X90762169Y-30575965D01*
X90568597Y-30711505D01*
X90401505Y-30878597D01*
X90266348Y-31071623D01*
X90211771Y-31115248D01*
X90164773Y-31124500D01*
X88776542Y-31124500D01*
X88760925Y-31122776D01*
X88760898Y-31123062D01*
X88753136Y-31122327D01*
X88684008Y-31124500D01*
X88654455Y-31124500D01*
X88653734Y-31124590D01*
X88647562Y-31125369D01*
X88641750Y-31125826D01*
X88595178Y-31127290D01*
X88595177Y-31127290D01*
X88575934Y-31132881D01*
X88556884Y-31136825D01*
X88537016Y-31139334D01*
X88537014Y-31139335D01*
X88493689Y-31156488D01*
X88488162Y-31158380D01*
X88443415Y-31171381D01*
X88443414Y-31171382D01*
X88426172Y-31181579D01*
X88408704Y-31190137D01*
X88390074Y-31197513D01*
X88390072Y-31197514D01*
X88352381Y-31224898D01*
X88347499Y-31228105D01*
X88307381Y-31251831D01*
X88298815Y-31260397D01*
X88237489Y-31293878D01*
X88179048Y-31292485D01*
X88110700Y-31274172D01*
X88110697Y-31274171D01*
X88110692Y-31274170D01*
X88110689Y-31274169D01*
X88110686Y-31274169D01*
X87884002Y-31254337D01*
X87883998Y-31254337D01*
X87657313Y-31274169D01*
X87657302Y-31274171D01*
X87437511Y-31333063D01*
X87437502Y-31333066D01*
X87231267Y-31429236D01*
X87231265Y-31429237D01*
X87044858Y-31559759D01*
X86883954Y-31720663D01*
X86753432Y-31907070D01*
X86753431Y-31907072D01*
X86657261Y-32113307D01*
X86657258Y-32113316D01*
X86598366Y-32333107D01*
X86598364Y-32333118D01*
X86578532Y-32559803D01*
X86578532Y-32559806D01*
X86598364Y-32786491D01*
X86598366Y-32786502D01*
X86657258Y-33006293D01*
X86657261Y-33006302D01*
X86753431Y-33212537D01*
X86753432Y-33212539D01*
X86883954Y-33398946D01*
X87044858Y-33559850D01*
X87205623Y-33672418D01*
X87249248Y-33726994D01*
X87258500Y-33773993D01*
X87258500Y-36425616D01*
X87238815Y-36492655D01*
X87205623Y-36527191D01*
X87044859Y-36639758D01*
X86883954Y-36800663D01*
X86753432Y-36987070D01*
X86753431Y-36987072D01*
X86657261Y-37193307D01*
X86657258Y-37193316D01*
X86598366Y-37413107D01*
X86598364Y-37413118D01*
X86578532Y-37639803D01*
X86578532Y-37639806D01*
X86598364Y-37866491D01*
X86598366Y-37866502D01*
X86657258Y-38086293D01*
X86657261Y-38086302D01*
X86753431Y-38292537D01*
X86753432Y-38292539D01*
X86883954Y-38478946D01*
X87044858Y-38639850D01*
X87044861Y-38639852D01*
X87231266Y-38770373D01*
X87437504Y-38866544D01*
X87657308Y-38925440D01*
X87819230Y-38939606D01*
X87883998Y-38945273D01*
X87884000Y-38945273D01*
X87884002Y-38945273D01*
X87940673Y-38940314D01*
X88110692Y-38925440D01*
X88330496Y-38866544D01*
X88536734Y-38770373D01*
X88714377Y-38645986D01*
X88780583Y-38623660D01*
X88848351Y-38640670D01*
X88896163Y-38691619D01*
X88909500Y-38747562D01*
X88909500Y-41091546D01*
X88889815Y-41158585D01*
X88873181Y-41179227D01*
X88298821Y-41753586D01*
X88237498Y-41787071D01*
X88179048Y-41785680D01*
X88110697Y-41767366D01*
X88110693Y-41767365D01*
X88110692Y-41767365D01*
X87997346Y-41757448D01*
X87884001Y-41747532D01*
X87883998Y-41747532D01*
X87657313Y-41767364D01*
X87657302Y-41767366D01*
X87437511Y-41826258D01*
X87437502Y-41826261D01*
X87231267Y-41922431D01*
X87231265Y-41922432D01*
X87044858Y-42052954D01*
X86883954Y-42213858D01*
X86753432Y-42400265D01*
X86753431Y-42400267D01*
X86657261Y-42606502D01*
X86657258Y-42606511D01*
X86598366Y-42826302D01*
X86598364Y-42826313D01*
X86578532Y-43052998D01*
X86578532Y-43053001D01*
X86598364Y-43279686D01*
X86598366Y-43279697D01*
X86657258Y-43499488D01*
X86657261Y-43499497D01*
X86753431Y-43705732D01*
X86753432Y-43705734D01*
X86883954Y-43892141D01*
X87044858Y-44053045D01*
X87205623Y-44165613D01*
X87249248Y-44220189D01*
X87258500Y-44267188D01*
X87258500Y-46918811D01*
X87238815Y-46985850D01*
X87205623Y-47020386D01*
X87044859Y-47132953D01*
X86883954Y-47293858D01*
X86753432Y-47480265D01*
X86753431Y-47480267D01*
X86657261Y-47686502D01*
X86657258Y-47686511D01*
X86598366Y-47906302D01*
X86598364Y-47906313D01*
X86578532Y-48132998D01*
X86578532Y-48133001D01*
X86598364Y-48359686D01*
X86598366Y-48359697D01*
X86657258Y-48579488D01*
X86657261Y-48579497D01*
X86753431Y-48785732D01*
X86753432Y-48785734D01*
X86883954Y-48972141D01*
X87044858Y-49133045D01*
X87044861Y-49133047D01*
X87231266Y-49263568D01*
X87355134Y-49321329D01*
X87407572Y-49367500D01*
X87426724Y-49434694D01*
X87406508Y-49501575D01*
X87393123Y-49518591D01*
X87373937Y-49539022D01*
X87373936Y-49539024D01*
X87364284Y-49556580D01*
X87353610Y-49572830D01*
X87341329Y-49588665D01*
X87341324Y-49588672D01*
X87322815Y-49631442D01*
X87320245Y-49636688D01*
X87297803Y-49677510D01*
X87292822Y-49696911D01*
X87286521Y-49715314D01*
X87278562Y-49733706D01*
X87278561Y-49733709D01*
X87271271Y-49779731D01*
X87270087Y-49785450D01*
X87258501Y-49830576D01*
X87258500Y-49830586D01*
X87258500Y-49850620D01*
X87256973Y-49870019D01*
X87253840Y-49889798D01*
X87253840Y-49889799D01*
X87258225Y-49936187D01*
X87258500Y-49942025D01*
X87258500Y-51998811D01*
X87238815Y-52065850D01*
X87205623Y-52100386D01*
X87044859Y-52212953D01*
X86883954Y-52373858D01*
X86753432Y-52560265D01*
X86753431Y-52560267D01*
X86657261Y-52766502D01*
X86657258Y-52766511D01*
X86598366Y-52986302D01*
X86598364Y-52986313D01*
X86578532Y-53212998D01*
X86578532Y-53213001D01*
X86598364Y-53439686D01*
X86598366Y-53439697D01*
X86657258Y-53659488D01*
X86657261Y-53659497D01*
X86753431Y-53865732D01*
X86753432Y-53865734D01*
X86883954Y-54052141D01*
X87044858Y-54213045D01*
X87044861Y-54213047D01*
X87231266Y-54343568D01*
X87437504Y-54439739D01*
X87657308Y-54498635D01*
X87819230Y-54512801D01*
X87883998Y-54518468D01*
X87884000Y-54518468D01*
X87884002Y-54518468D01*
X87940673Y-54513509D01*
X88110692Y-54498635D01*
X88330496Y-54439739D01*
X88536734Y-54343568D01*
X88723139Y-54213047D01*
X88773675Y-54162511D01*
X88824819Y-54111368D01*
X88886142Y-54077883D01*
X88955834Y-54082867D01*
X89011767Y-54124739D01*
X89036184Y-54190203D01*
X89036500Y-54199049D01*
X89036500Y-57306951D01*
X89016815Y-57373990D01*
X88964011Y-57419745D01*
X88894853Y-57429689D01*
X88831297Y-57400664D01*
X88824819Y-57394632D01*
X88723141Y-57292954D01*
X88536734Y-57162432D01*
X88536732Y-57162431D01*
X88330497Y-57066261D01*
X88330488Y-57066258D01*
X88110697Y-57007366D01*
X88110693Y-57007365D01*
X88110692Y-57007365D01*
X88110691Y-57007364D01*
X88110686Y-57007364D01*
X87884002Y-56987532D01*
X87883998Y-56987532D01*
X87657313Y-57007364D01*
X87657302Y-57007366D01*
X87437511Y-57066258D01*
X87437502Y-57066261D01*
X87231267Y-57162431D01*
X87231265Y-57162432D01*
X87044858Y-57292954D01*
X86883954Y-57453858D01*
X86753432Y-57640265D01*
X86753431Y-57640267D01*
X86657261Y-57846502D01*
X86657258Y-57846511D01*
X86598366Y-58066302D01*
X86598364Y-58066313D01*
X86578532Y-58292998D01*
X86578532Y-58293001D01*
X86598364Y-58519686D01*
X86598366Y-58519697D01*
X86657258Y-58739488D01*
X86657261Y-58739497D01*
X86753431Y-58945732D01*
X86753432Y-58945734D01*
X86883954Y-59132141D01*
X87044858Y-59293045D01*
X87044861Y-59293047D01*
X87231266Y-59423568D01*
X87437504Y-59519739D01*
X87437509Y-59519740D01*
X87437511Y-59519741D01*
X87490415Y-59533916D01*
X87657308Y-59578635D01*
X87819230Y-59592801D01*
X87883998Y-59598468D01*
X87884000Y-59598468D01*
X87884002Y-59598468D01*
X87940673Y-59593509D01*
X88110692Y-59578635D01*
X88330496Y-59519739D01*
X88536734Y-59423568D01*
X88723139Y-59293047D01*
X88757388Y-59258798D01*
X88824819Y-59191368D01*
X88886142Y-59157883D01*
X88955834Y-59162867D01*
X89011767Y-59204739D01*
X89036184Y-59270203D01*
X89036500Y-59279049D01*
X89036500Y-61284546D01*
X89016815Y-61351585D01*
X89000181Y-61372227D01*
X88298821Y-62073586D01*
X88237498Y-62107071D01*
X88179048Y-62105680D01*
X88110697Y-62087366D01*
X88110693Y-62087365D01*
X88110692Y-62087365D01*
X87997346Y-62077448D01*
X87884001Y-62067532D01*
X87883998Y-62067532D01*
X87657313Y-62087364D01*
X87657302Y-62087366D01*
X87437511Y-62146258D01*
X87437502Y-62146261D01*
X87231267Y-62242431D01*
X87231265Y-62242432D01*
X87044858Y-62372954D01*
X86883954Y-62533858D01*
X86753432Y-62720265D01*
X86753431Y-62720267D01*
X86657261Y-62926502D01*
X86657258Y-62926511D01*
X86598366Y-63146302D01*
X86598364Y-63146313D01*
X86578532Y-63372998D01*
X86578532Y-63373001D01*
X86598364Y-63599686D01*
X86598366Y-63599697D01*
X86657258Y-63819488D01*
X86657261Y-63819497D01*
X86753431Y-64025732D01*
X86753432Y-64025734D01*
X86883954Y-64212141D01*
X86985632Y-64313819D01*
X87019117Y-64375142D01*
X87014133Y-64444834D01*
X86972261Y-64500767D01*
X86906797Y-64525184D01*
X86897951Y-64525500D01*
X80701452Y-64525500D01*
X80634413Y-64505815D01*
X80613771Y-64489181D01*
X78658451Y-62533861D01*
X76700803Y-60576212D01*
X76690980Y-60563950D01*
X76690759Y-60564134D01*
X76685786Y-60558123D01*
X76635364Y-60510773D01*
X76624689Y-60500098D01*
X76614475Y-60489883D01*
X76608986Y-60485625D01*
X76604561Y-60481847D01*
X76570582Y-60449938D01*
X76570580Y-60449936D01*
X76570577Y-60449935D01*
X76553029Y-60440288D01*
X76536763Y-60429604D01*
X76520933Y-60417325D01*
X76478168Y-60398818D01*
X76472922Y-60396248D01*
X76432093Y-60373803D01*
X76432092Y-60373802D01*
X76412693Y-60368822D01*
X76394281Y-60362518D01*
X76375898Y-60354562D01*
X76375892Y-60354560D01*
X76329874Y-60347272D01*
X76324152Y-60346087D01*
X76279021Y-60334500D01*
X76279019Y-60334500D01*
X76258984Y-60334500D01*
X76239586Y-60332973D01*
X76232162Y-60331797D01*
X76219805Y-60329840D01*
X76219804Y-60329840D01*
X76173416Y-60334225D01*
X76167578Y-60334500D01*
X63601958Y-60334500D01*
X63534919Y-60314815D01*
X63489164Y-60262011D01*
X63479220Y-60192853D01*
X63508245Y-60129297D01*
X63539963Y-60103110D01*
X63542576Y-60101601D01*
X63736082Y-59966105D01*
X63903105Y-59799082D01*
X64038600Y-59605578D01*
X64138429Y-59391492D01*
X64138432Y-59391486D01*
X64195636Y-59178000D01*
X63298686Y-59178000D01*
X63324493Y-59137844D01*
X63365000Y-58999889D01*
X63365000Y-58856111D01*
X63324493Y-58718156D01*
X63298686Y-58678000D01*
X64195636Y-58678000D01*
X64195635Y-58677999D01*
X64138432Y-58464513D01*
X64138429Y-58464507D01*
X64038600Y-58250422D01*
X64038599Y-58250420D01*
X63903113Y-58056926D01*
X63903108Y-58056920D01*
X63736082Y-57889894D01*
X63542578Y-57754399D01*
X63328492Y-57654570D01*
X63328486Y-57654567D01*
X63115000Y-57597364D01*
X63115000Y-58492498D01*
X63007315Y-58443320D01*
X62900763Y-58428000D01*
X62829237Y-58428000D01*
X62722685Y-58443320D01*
X62615000Y-58492498D01*
X62615000Y-57597364D01*
X62614999Y-57597364D01*
X62401513Y-57654567D01*
X62401507Y-57654570D01*
X62187422Y-57754399D01*
X62187420Y-57754400D01*
X61993926Y-57889886D01*
X61871865Y-58011947D01*
X61810542Y-58045431D01*
X61740850Y-58040447D01*
X61684917Y-57998575D01*
X61668002Y-57967598D01*
X61618797Y-57835671D01*
X61618793Y-57835664D01*
X61532547Y-57720455D01*
X61532544Y-57720452D01*
X61417335Y-57634206D01*
X61417328Y-57634202D01*
X61282482Y-57583908D01*
X61282483Y-57583908D01*
X61222883Y-57577501D01*
X61222881Y-57577500D01*
X61222873Y-57577500D01*
X61222865Y-57577500D01*
X61074500Y-57577500D01*
X61007461Y-57557815D01*
X60961706Y-57505011D01*
X60950500Y-57453500D01*
X60950500Y-54553844D01*
X60952697Y-54530606D01*
X60954227Y-54522588D01*
X60951736Y-54483001D01*
X66893532Y-54483001D01*
X66913364Y-54709686D01*
X66913366Y-54709697D01*
X66972258Y-54929488D01*
X66972261Y-54929497D01*
X67068431Y-55135732D01*
X67068432Y-55135734D01*
X67198954Y-55322141D01*
X67359858Y-55483045D01*
X67395331Y-55507883D01*
X67546266Y-55613568D01*
X67752504Y-55709739D01*
X67972308Y-55768635D01*
X68134230Y-55782801D01*
X68198998Y-55788468D01*
X68199000Y-55788468D01*
X68199002Y-55788468D01*
X68255673Y-55783509D01*
X68425692Y-55768635D01*
X68645496Y-55709739D01*
X68851734Y-55613568D01*
X69038139Y-55483047D01*
X69199047Y-55322139D01*
X69329568Y-55135734D01*
X69425739Y-54929496D01*
X69484635Y-54709692D01*
X69504468Y-54483000D01*
X69503197Y-54468477D01*
X69498285Y-54412326D01*
X69484635Y-54256308D01*
X69425739Y-54036504D01*
X69329568Y-53830266D01*
X69199047Y-53643861D01*
X69199045Y-53643858D01*
X69038141Y-53482954D01*
X68851734Y-53352432D01*
X68851732Y-53352431D01*
X68645497Y-53256261D01*
X68645488Y-53256258D01*
X68425697Y-53197366D01*
X68425693Y-53197365D01*
X68425692Y-53197365D01*
X68425691Y-53197364D01*
X68425686Y-53197364D01*
X68199002Y-53177532D01*
X68198998Y-53177532D01*
X67972313Y-53197364D01*
X67972302Y-53197366D01*
X67752511Y-53256258D01*
X67752502Y-53256261D01*
X67546267Y-53352431D01*
X67546265Y-53352432D01*
X67359858Y-53482954D01*
X67198954Y-53643858D01*
X67068432Y-53830265D01*
X67068431Y-53830267D01*
X66972261Y-54036502D01*
X66972258Y-54036511D01*
X66913366Y-54256302D01*
X66913364Y-54256313D01*
X66893532Y-54482998D01*
X66893532Y-54483001D01*
X60951736Y-54483001D01*
X60950621Y-54465275D01*
X60950500Y-54461403D01*
X60950500Y-50969742D01*
X60952224Y-50954122D01*
X60951939Y-50954095D01*
X60952673Y-50946333D01*
X60950500Y-50877172D01*
X60950500Y-50847656D01*
X60950500Y-50847650D01*
X60949631Y-50840779D01*
X60949173Y-50834952D01*
X60948782Y-50822498D01*
X60947710Y-50788373D01*
X60942119Y-50769130D01*
X60938173Y-50750078D01*
X60935664Y-50730208D01*
X60918504Y-50686867D01*
X60916624Y-50681379D01*
X60903618Y-50636610D01*
X60893422Y-50619370D01*
X60884861Y-50601894D01*
X60877487Y-50583270D01*
X60877486Y-50583268D01*
X60850079Y-50545545D01*
X60846888Y-50540686D01*
X60823172Y-50500583D01*
X60823165Y-50500574D01*
X60809006Y-50486415D01*
X60796368Y-50471619D01*
X60789256Y-50461830D01*
X60784594Y-50455413D01*
X60762012Y-50436732D01*
X60748688Y-50425709D01*
X60744376Y-50421786D01*
X60521413Y-50198822D01*
X60487928Y-50137499D01*
X60489319Y-50079048D01*
X60498498Y-50044791D01*
X60507635Y-50010692D01*
X60524634Y-49816384D01*
X60527468Y-49784001D01*
X62916532Y-49784001D01*
X62936364Y-50010686D01*
X62936366Y-50010697D01*
X62995258Y-50230488D01*
X62995261Y-50230497D01*
X63091431Y-50436732D01*
X63091432Y-50436734D01*
X63221954Y-50623141D01*
X63382858Y-50784045D01*
X63389038Y-50788372D01*
X63569266Y-50914568D01*
X63775504Y-51010739D01*
X63995308Y-51069635D01*
X64152780Y-51083412D01*
X64221998Y-51089468D01*
X64222000Y-51089468D01*
X64222002Y-51089468D01*
X64291220Y-51083412D01*
X64448692Y-51069635D01*
X64668496Y-51010739D01*
X64874734Y-50914568D01*
X65061139Y-50784047D01*
X65222047Y-50623139D01*
X65352568Y-50436734D01*
X65448739Y-50230496D01*
X65507635Y-50010692D01*
X65524634Y-49816384D01*
X65527468Y-49784001D01*
X65527468Y-49783998D01*
X65512850Y-49616921D01*
X65507635Y-49557308D01*
X65448739Y-49337504D01*
X65352568Y-49131266D01*
X65244414Y-48976805D01*
X65222045Y-48944858D01*
X65061141Y-48783954D01*
X64874734Y-48653432D01*
X64874732Y-48653431D01*
X64668497Y-48557261D01*
X64668488Y-48557258D01*
X64448697Y-48498366D01*
X64448693Y-48498365D01*
X64448692Y-48498365D01*
X64448691Y-48498364D01*
X64448686Y-48498364D01*
X64222002Y-48478532D01*
X64221998Y-48478532D01*
X63995313Y-48498364D01*
X63995302Y-48498366D01*
X63775511Y-48557258D01*
X63775502Y-48557261D01*
X63569267Y-48653431D01*
X63569265Y-48653432D01*
X63382858Y-48783954D01*
X63221954Y-48944858D01*
X63091432Y-49131265D01*
X63091431Y-49131267D01*
X62995261Y-49337502D01*
X62995258Y-49337511D01*
X62936366Y-49557302D01*
X62936364Y-49557313D01*
X62916532Y-49783998D01*
X62916532Y-49784001D01*
X60527468Y-49784001D01*
X60527468Y-49783998D01*
X60512850Y-49616921D01*
X60507635Y-49557308D01*
X60448739Y-49337504D01*
X60352568Y-49131266D01*
X60244414Y-48976805D01*
X60222045Y-48944858D01*
X60061141Y-48783954D01*
X59874734Y-48653432D01*
X59874732Y-48653431D01*
X59668497Y-48557261D01*
X59668488Y-48557258D01*
X59448697Y-48498366D01*
X59448693Y-48498365D01*
X59448692Y-48498365D01*
X59448691Y-48498364D01*
X59448686Y-48498364D01*
X59222002Y-48478532D01*
X59221998Y-48478532D01*
X58995313Y-48498364D01*
X58995302Y-48498366D01*
X58775511Y-48557258D01*
X58775502Y-48557261D01*
X58569267Y-48653431D01*
X58569265Y-48653432D01*
X58382858Y-48783954D01*
X58221954Y-48944858D01*
X58091432Y-49131265D01*
X58091431Y-49131267D01*
X57995261Y-49337502D01*
X57995258Y-49337511D01*
X57936366Y-49557302D01*
X57936364Y-49557313D01*
X57916532Y-49783998D01*
X57916532Y-49784001D01*
X57936364Y-50010686D01*
X57936366Y-50010697D01*
X57995258Y-50230488D01*
X57995261Y-50230497D01*
X58091431Y-50436732D01*
X58091432Y-50436734D01*
X58221954Y-50623141D01*
X58382858Y-50784045D01*
X58389038Y-50788372D01*
X58569266Y-50914568D01*
X58775504Y-51010739D01*
X58995308Y-51069635D01*
X59152780Y-51083412D01*
X59221998Y-51089468D01*
X59222000Y-51089468D01*
X59222002Y-51089468D01*
X59291220Y-51083412D01*
X59448692Y-51069635D01*
X59517048Y-51051319D01*
X59586896Y-51052980D01*
X59636822Y-51083412D01*
X59663181Y-51109771D01*
X59696666Y-51171094D01*
X59699500Y-51197452D01*
X59699500Y-53733500D01*
X59679815Y-53800539D01*
X59627011Y-53846294D01*
X59575500Y-53857500D01*
X56713188Y-53857500D01*
X56646149Y-53837815D01*
X56611613Y-53804623D01*
X56499045Y-53643858D01*
X56338141Y-53482954D01*
X56151734Y-53352432D01*
X56151732Y-53352431D01*
X55945497Y-53256261D01*
X55945488Y-53256258D01*
X55725697Y-53197366D01*
X55725693Y-53197365D01*
X55725692Y-53197365D01*
X55725691Y-53197364D01*
X55725686Y-53197364D01*
X55499002Y-53177532D01*
X55498998Y-53177532D01*
X55272313Y-53197364D01*
X55272302Y-53197366D01*
X55052511Y-53256258D01*
X55052502Y-53256261D01*
X54846267Y-53352431D01*
X54846265Y-53352432D01*
X54659858Y-53482954D01*
X54498954Y-53643858D01*
X54368432Y-53830265D01*
X54368431Y-53830267D01*
X54272261Y-54036502D01*
X54272258Y-54036511D01*
X54213366Y-54256302D01*
X54213364Y-54256313D01*
X54193532Y-54482998D01*
X54193532Y-54483001D01*
X54213364Y-54709686D01*
X54213366Y-54709697D01*
X54272258Y-54929488D01*
X54272261Y-54929497D01*
X54368431Y-55135732D01*
X54368432Y-55135734D01*
X54498954Y-55322141D01*
X54659858Y-55483045D01*
X54695331Y-55507883D01*
X54846266Y-55613568D01*
X55052504Y-55709739D01*
X55272308Y-55768635D01*
X55434230Y-55782801D01*
X55498998Y-55788468D01*
X55499000Y-55788468D01*
X55499002Y-55788468D01*
X55555673Y-55783509D01*
X55725692Y-55768635D01*
X55945496Y-55709739D01*
X56151734Y-55613568D01*
X56338139Y-55483047D01*
X56499047Y-55322139D01*
X56577681Y-55209836D01*
X56611613Y-55161377D01*
X56666189Y-55117752D01*
X56713188Y-55108500D01*
X59575500Y-55108500D01*
X59642539Y-55128185D01*
X59688294Y-55180989D01*
X59699500Y-55232500D01*
X59699500Y-57453500D01*
X59679815Y-57520539D01*
X59627011Y-57566294D01*
X59575501Y-57577500D01*
X59427130Y-57577500D01*
X59427123Y-57577501D01*
X59367516Y-57583908D01*
X59232671Y-57634202D01*
X59232664Y-57634206D01*
X59117455Y-57720452D01*
X59117452Y-57720455D01*
X59031206Y-57835664D01*
X59031202Y-57835671D01*
X58980908Y-57970517D01*
X58974501Y-58030116D01*
X58974500Y-58030135D01*
X58974500Y-59825870D01*
X58974501Y-59825876D01*
X58980908Y-59885483D01*
X59031202Y-60020328D01*
X59031206Y-60020335D01*
X59117935Y-60136189D01*
X59142353Y-60201653D01*
X59127502Y-60269926D01*
X59078097Y-60319332D01*
X59018669Y-60334500D01*
X58185452Y-60334500D01*
X58118413Y-60314815D01*
X58097771Y-60298181D01*
X57011966Y-59212375D01*
X56978481Y-59151052D01*
X56975647Y-59124694D01*
X56975647Y-58305000D01*
X56970500Y-58233039D01*
X56970499Y-58233034D01*
X56929954Y-58094949D01*
X56928925Y-58093348D01*
X56852143Y-57973872D01*
X56743373Y-57879623D01*
X56743371Y-57879622D01*
X56612456Y-57819834D01*
X56505812Y-57804502D01*
X56470000Y-57799353D01*
X55470000Y-57799353D01*
X55406463Y-57803360D01*
X55406455Y-57803362D01*
X55359881Y-57816191D01*
X55309306Y-57819381D01*
X55170001Y-57799353D01*
X55170000Y-57799353D01*
X54200306Y-57799353D01*
X54133267Y-57779668D01*
X54112625Y-57763034D01*
X53623803Y-57274212D01*
X53613980Y-57261950D01*
X53613759Y-57262134D01*
X53608786Y-57256123D01*
X53558364Y-57208773D01*
X53547004Y-57197413D01*
X53537475Y-57187883D01*
X53531986Y-57183625D01*
X53527561Y-57179847D01*
X53493582Y-57147938D01*
X53493580Y-57147936D01*
X53493577Y-57147935D01*
X53476029Y-57138288D01*
X53459763Y-57127604D01*
X53443933Y-57115325D01*
X53401168Y-57096818D01*
X53395922Y-57094248D01*
X53355093Y-57071803D01*
X53355092Y-57071802D01*
X53335693Y-57066822D01*
X53317281Y-57060518D01*
X53298898Y-57052562D01*
X53298892Y-57052560D01*
X53252874Y-57045272D01*
X53247152Y-57044087D01*
X53202021Y-57032500D01*
X53202019Y-57032500D01*
X53181984Y-57032500D01*
X53162586Y-57030973D01*
X53155162Y-57029797D01*
X53142805Y-57027840D01*
X53142804Y-57027840D01*
X53096416Y-57032225D01*
X53090578Y-57032500D01*
X50169849Y-57032500D01*
X50102810Y-57012815D01*
X50082168Y-56996181D01*
X48712980Y-55626993D01*
X48679495Y-55565670D01*
X48676661Y-55539312D01*
X48676661Y-42291001D01*
X54066532Y-42291001D01*
X54086364Y-42517686D01*
X54086366Y-42517697D01*
X54145258Y-42737488D01*
X54145261Y-42737497D01*
X54241431Y-42943732D01*
X54241432Y-42943734D01*
X54371954Y-43130141D01*
X54532858Y-43291045D01*
X54560800Y-43310610D01*
X54719266Y-43421568D01*
X54925504Y-43517739D01*
X55145308Y-43576635D01*
X55302780Y-43590412D01*
X55371998Y-43596468D01*
X55372000Y-43596468D01*
X55372002Y-43596468D01*
X55440306Y-43590492D01*
X55598692Y-43576635D01*
X55667048Y-43558319D01*
X55736897Y-43559982D01*
X55786822Y-43590413D01*
X55980181Y-43783771D01*
X56013666Y-43845094D01*
X56016500Y-43871452D01*
X56016500Y-45582850D01*
X55996815Y-45649889D01*
X55963623Y-45684425D01*
X55835121Y-45774402D01*
X55680402Y-45929121D01*
X55554900Y-46108357D01*
X55554898Y-46108361D01*
X55462426Y-46306668D01*
X55462422Y-46306677D01*
X55405793Y-46518020D01*
X55405793Y-46518024D01*
X55386723Y-46735997D01*
X55386723Y-46736002D01*
X55388763Y-46759320D01*
X55402716Y-46918811D01*
X55405793Y-46953975D01*
X55405793Y-46953979D01*
X55462422Y-47165322D01*
X55462424Y-47165326D01*
X55462425Y-47165330D01*
X55490440Y-47225408D01*
X55554897Y-47363638D01*
X55554898Y-47363639D01*
X55680402Y-47542877D01*
X55835123Y-47697598D01*
X56014361Y-47823102D01*
X56212670Y-47915575D01*
X56424023Y-47972207D01*
X56606926Y-47988208D01*
X56641998Y-47991277D01*
X56642000Y-47991277D01*
X56642002Y-47991277D01*
X56670254Y-47988805D01*
X56859977Y-47972207D01*
X57071330Y-47915575D01*
X57269639Y-47823102D01*
X57448877Y-47697598D01*
X57603598Y-47542877D01*
X57609905Y-47533870D01*
X65551500Y-47533870D01*
X65551501Y-47533876D01*
X65557908Y-47593483D01*
X65608202Y-47728328D01*
X65608206Y-47728335D01*
X65694452Y-47843544D01*
X65694455Y-47843547D01*
X65809664Y-47929793D01*
X65809671Y-47929797D01*
X65944517Y-47980091D01*
X65944516Y-47980091D01*
X65951444Y-47980835D01*
X66004127Y-47986500D01*
X67599872Y-47986499D01*
X67659483Y-47980091D01*
X67794331Y-47929796D01*
X67909546Y-47843546D01*
X67995796Y-47728331D01*
X68046091Y-47593483D01*
X68052500Y-47533873D01*
X68052499Y-45938128D01*
X68046091Y-45878517D01*
X68044847Y-45875183D01*
X67995797Y-45743671D01*
X67995793Y-45743664D01*
X67909547Y-45628455D01*
X67909544Y-45628452D01*
X67794335Y-45542206D01*
X67794328Y-45542202D01*
X67659482Y-45491908D01*
X67659483Y-45491908D01*
X67599883Y-45485501D01*
X67599881Y-45485500D01*
X67599873Y-45485500D01*
X67599865Y-45485500D01*
X67551500Y-45485500D01*
X67484461Y-45465815D01*
X67438706Y-45413011D01*
X67427500Y-45361500D01*
X67427500Y-43871452D01*
X67447185Y-43804413D01*
X67463819Y-43783771D01*
X67554185Y-43693405D01*
X67657179Y-43590410D01*
X67718500Y-43556927D01*
X67776947Y-43558317D01*
X67845308Y-43576635D01*
X68002780Y-43590412D01*
X68071998Y-43596468D01*
X68072000Y-43596468D01*
X68072002Y-43596468D01*
X68140306Y-43590492D01*
X68298692Y-43576635D01*
X68518496Y-43517739D01*
X68724734Y-43421568D01*
X68911139Y-43291047D01*
X69072047Y-43130139D01*
X69202568Y-42943734D01*
X69298739Y-42737496D01*
X69357635Y-42517692D01*
X69377468Y-42291000D01*
X69357635Y-42064308D01*
X69298739Y-41844504D01*
X69202568Y-41638266D01*
X69072047Y-41451861D01*
X69072045Y-41451858D01*
X68911141Y-41290954D01*
X68724734Y-41160432D01*
X68724732Y-41160431D01*
X68518497Y-41064261D01*
X68518488Y-41064258D01*
X68298697Y-41005366D01*
X68298693Y-41005365D01*
X68298692Y-41005365D01*
X68298691Y-41005364D01*
X68298686Y-41005364D01*
X68072002Y-40985532D01*
X68071998Y-40985532D01*
X67845313Y-41005364D01*
X67845302Y-41005366D01*
X67625511Y-41064258D01*
X67625502Y-41064261D01*
X67419267Y-41160431D01*
X67419265Y-41160432D01*
X67232858Y-41290954D01*
X67071954Y-41451858D01*
X66941432Y-41638265D01*
X66941431Y-41638267D01*
X66845261Y-41844502D01*
X66845258Y-41844511D01*
X66786366Y-42064302D01*
X66786364Y-42064313D01*
X66771082Y-42238989D01*
X66766532Y-42291000D01*
X66786364Y-42517686D01*
X66786365Y-42517691D01*
X66786366Y-42517697D01*
X66804680Y-42586048D01*
X66803017Y-42655897D01*
X66772586Y-42705821D01*
X66418208Y-43060199D01*
X66405951Y-43070020D01*
X66406134Y-43070241D01*
X66400123Y-43075213D01*
X66352772Y-43125636D01*
X66331889Y-43146519D01*
X66331877Y-43146532D01*
X66327621Y-43152017D01*
X66323837Y-43156447D01*
X66291937Y-43190418D01*
X66291936Y-43190420D01*
X66282284Y-43207976D01*
X66271610Y-43224226D01*
X66259329Y-43240061D01*
X66259324Y-43240068D01*
X66240815Y-43282838D01*
X66238245Y-43288084D01*
X66215803Y-43328906D01*
X66210822Y-43348307D01*
X66204521Y-43366710D01*
X66196562Y-43385102D01*
X66196561Y-43385105D01*
X66189271Y-43431127D01*
X66188087Y-43436846D01*
X66176501Y-43481972D01*
X66176500Y-43481982D01*
X66176500Y-43502016D01*
X66174973Y-43521415D01*
X66171840Y-43541194D01*
X66171840Y-43541195D01*
X66176225Y-43587583D01*
X66176500Y-43593421D01*
X66176500Y-45361500D01*
X66156815Y-45428539D01*
X66104011Y-45474294D01*
X66052502Y-45485500D01*
X66004131Y-45485500D01*
X66004123Y-45485501D01*
X65944516Y-45491908D01*
X65809671Y-45542202D01*
X65809664Y-45542206D01*
X65694455Y-45628452D01*
X65694452Y-45628455D01*
X65608206Y-45743664D01*
X65608202Y-45743671D01*
X65557908Y-45878517D01*
X65552468Y-45929121D01*
X65551501Y-45938123D01*
X65551500Y-45938135D01*
X65551500Y-47533870D01*
X57609905Y-47533870D01*
X57729102Y-47363639D01*
X57821575Y-47165330D01*
X57878207Y-46953977D01*
X57895237Y-46759320D01*
X57897277Y-46736002D01*
X57897277Y-46735997D01*
X57891677Y-46671989D01*
X57878207Y-46518023D01*
X57821575Y-46306670D01*
X57729102Y-46108362D01*
X57729100Y-46108359D01*
X57729099Y-46108357D01*
X57603599Y-45929124D01*
X57527097Y-45852622D01*
X57448877Y-45774402D01*
X57320375Y-45684423D01*
X57276751Y-45629847D01*
X57267500Y-45582850D01*
X57267500Y-43643737D01*
X57269224Y-43628123D01*
X57268938Y-43628096D01*
X57269672Y-43620333D01*
X57267500Y-43551203D01*
X57267500Y-43521651D01*
X57267500Y-43521650D01*
X57266629Y-43514759D01*
X57266172Y-43508945D01*
X57265954Y-43502016D01*
X57264709Y-43462373D01*
X57262472Y-43454675D01*
X57259122Y-43443144D01*
X57255174Y-43424084D01*
X57254524Y-43418935D01*
X57252664Y-43404208D01*
X57235507Y-43360875D01*
X57233619Y-43355359D01*
X57220619Y-43310612D01*
X57210418Y-43293363D01*
X57201860Y-43275894D01*
X57194486Y-43257268D01*
X57194483Y-43257264D01*
X57194483Y-43257263D01*
X57167098Y-43219571D01*
X57163890Y-43214687D01*
X57140172Y-43174582D01*
X57140163Y-43174571D01*
X57126005Y-43160413D01*
X57113370Y-43145620D01*
X57101593Y-43129412D01*
X57065693Y-43099713D01*
X57061381Y-43095790D01*
X56671412Y-42705821D01*
X56637928Y-42644499D01*
X56639319Y-42586048D01*
X56639816Y-42584193D01*
X56657635Y-42517692D01*
X56677468Y-42291000D01*
X56657635Y-42064308D01*
X56598739Y-41844504D01*
X56502568Y-41638266D01*
X56372047Y-41451861D01*
X56372045Y-41451858D01*
X56211141Y-41290954D01*
X56024734Y-41160432D01*
X56024732Y-41160431D01*
X55818497Y-41064261D01*
X55818488Y-41064258D01*
X55598697Y-41005366D01*
X55598693Y-41005365D01*
X55598692Y-41005365D01*
X55598691Y-41005364D01*
X55598686Y-41005364D01*
X55372002Y-40985532D01*
X55371998Y-40985532D01*
X55145313Y-41005364D01*
X55145302Y-41005366D01*
X54925511Y-41064258D01*
X54925502Y-41064261D01*
X54719267Y-41160431D01*
X54719265Y-41160432D01*
X54532858Y-41290954D01*
X54371954Y-41451858D01*
X54241432Y-41638265D01*
X54241431Y-41638267D01*
X54145261Y-41844502D01*
X54145258Y-41844511D01*
X54086366Y-42064302D01*
X54086364Y-42064313D01*
X54066532Y-42290998D01*
X54066532Y-42291001D01*
X48676661Y-42291001D01*
X48676661Y-41021899D01*
X48678385Y-41006285D01*
X48678099Y-41006258D01*
X48678833Y-40998495D01*
X48676661Y-40929364D01*
X48676661Y-40899812D01*
X48676661Y-40899811D01*
X48675790Y-40892920D01*
X48675333Y-40887106D01*
X48675302Y-40886135D01*
X48673870Y-40840534D01*
X48668283Y-40821305D01*
X48664335Y-40802245D01*
X48661825Y-40782369D01*
X48644668Y-40739036D01*
X48642780Y-40733520D01*
X48629780Y-40688773D01*
X48627356Y-40684675D01*
X48619579Y-40671524D01*
X48611021Y-40654055D01*
X48603647Y-40635429D01*
X48603644Y-40635425D01*
X48603644Y-40635424D01*
X48576259Y-40597732D01*
X48573051Y-40592848D01*
X48549333Y-40552743D01*
X48549324Y-40552732D01*
X48535166Y-40538574D01*
X48522531Y-40523781D01*
X48510754Y-40507573D01*
X48474854Y-40477874D01*
X48470542Y-40473951D01*
X48055960Y-40059369D01*
X48022475Y-39998046D01*
X48020323Y-39984668D01*
X48002674Y-39816744D01*
X47944179Y-39636716D01*
X47849533Y-39472784D01*
X47722871Y-39332112D01*
X47692500Y-39310046D01*
X47569734Y-39220851D01*
X47569729Y-39220848D01*
X47396807Y-39143857D01*
X47396802Y-39143855D01*
X47251001Y-39112865D01*
X47211646Y-39104500D01*
X47022354Y-39104500D01*
X46989897Y-39111398D01*
X46837197Y-39143855D01*
X46837192Y-39143857D01*
X46715936Y-39197845D01*
X46646686Y-39207130D01*
X46583409Y-39177502D01*
X46546196Y-39118367D01*
X46541500Y-39084566D01*
X46541500Y-36436452D01*
X46561185Y-36369413D01*
X46577819Y-36348771D01*
X47445772Y-35480819D01*
X47507095Y-35447334D01*
X47533453Y-35444500D01*
X47592644Y-35444500D01*
X47592646Y-35444500D01*
X47777803Y-35405144D01*
X47950730Y-35328151D01*
X48103871Y-35216888D01*
X48230533Y-35076216D01*
X48325179Y-34912284D01*
X48383674Y-34732256D01*
X48403460Y-34544000D01*
X48383674Y-34355744D01*
X48325179Y-34175716D01*
X48230533Y-34011784D01*
X48103871Y-33871112D01*
X48103870Y-33871111D01*
X47986668Y-33785959D01*
X47944002Y-33730629D01*
X47938023Y-33661016D01*
X47970629Y-33599221D01*
X47971872Y-33597960D01*
X48064607Y-33505226D01*
X48222014Y-33347819D01*
X48283337Y-33314334D01*
X48309695Y-33311500D01*
X55048399Y-33311500D01*
X55115438Y-33331185D01*
X55161193Y-33383989D01*
X55163815Y-33390168D01*
X55172711Y-33412835D01*
X55172713Y-33412839D01*
X55216392Y-33488492D01*
X55297898Y-33629665D01*
X55419381Y-33782000D01*
X55454006Y-33825418D01*
X55610105Y-33970256D01*
X55637540Y-33995712D01*
X55844408Y-34136752D01*
X55844413Y-34136754D01*
X55844414Y-34136755D01*
X55844415Y-34136756D01*
X55925330Y-34175722D01*
X56069983Y-34245383D01*
X56069984Y-34245383D01*
X56069987Y-34245385D01*
X56309236Y-34319184D01*
X56309237Y-34319184D01*
X56309240Y-34319185D01*
X56556805Y-34356499D01*
X56556810Y-34356499D01*
X56556813Y-34356500D01*
X56556814Y-34356500D01*
X56807186Y-34356500D01*
X56807187Y-34356500D01*
X56812203Y-34355744D01*
X57054759Y-34319185D01*
X57054760Y-34319184D01*
X57054764Y-34319184D01*
X57294013Y-34245385D01*
X57484071Y-34153858D01*
X57519584Y-34136756D01*
X57519584Y-34136755D01*
X57519592Y-34136752D01*
X57726460Y-33995712D01*
X57888415Y-33845439D01*
X57909993Y-33825418D01*
X57909993Y-33825416D01*
X57909997Y-33825414D01*
X58066102Y-33629665D01*
X58191289Y-33412835D01*
X58200173Y-33390196D01*
X58242987Y-33334985D01*
X58308857Y-33311684D01*
X58315601Y-33311500D01*
X64760548Y-33311500D01*
X64827587Y-33331185D01*
X64848228Y-33347818D01*
X67194608Y-35694199D01*
X69524002Y-38023593D01*
X69533827Y-38035856D01*
X69534048Y-38035674D01*
X69539019Y-38041683D01*
X69551073Y-38053002D01*
X69589440Y-38089031D01*
X69610334Y-38109925D01*
X69615816Y-38114178D01*
X69620248Y-38117962D01*
X69654223Y-38149867D01*
X69671781Y-38159519D01*
X69688040Y-38170200D01*
X69703869Y-38182478D01*
X69746643Y-38200987D01*
X69751861Y-38203543D01*
X69792713Y-38226002D01*
X69812121Y-38230985D01*
X69830522Y-38237285D01*
X69848909Y-38245242D01*
X69885839Y-38251091D01*
X69894924Y-38252530D01*
X69900644Y-38253714D01*
X69945786Y-38265305D01*
X69965821Y-38265305D01*
X69985219Y-38266831D01*
X70004999Y-38269964D01*
X70005000Y-38269965D01*
X70005000Y-38269964D01*
X70005001Y-38269965D01*
X70051389Y-38265580D01*
X70057227Y-38265305D01*
X73969812Y-38265305D01*
X74036851Y-38284990D01*
X74071387Y-38318182D01*
X74183954Y-38478946D01*
X74344858Y-38639850D01*
X74505623Y-38752418D01*
X74549248Y-38806994D01*
X74558500Y-38853993D01*
X74558500Y-41838811D01*
X74538815Y-41905850D01*
X74505623Y-41940386D01*
X74344859Y-42052953D01*
X74183954Y-42213858D01*
X74053432Y-42400265D01*
X74053431Y-42400267D01*
X73957261Y-42606502D01*
X73957258Y-42606511D01*
X73898366Y-42826302D01*
X73898364Y-42826313D01*
X73878532Y-43052998D01*
X73878532Y-43053001D01*
X73898364Y-43279686D01*
X73898366Y-43279697D01*
X73957258Y-43499488D01*
X73957261Y-43499497D01*
X74053431Y-43705732D01*
X74053432Y-43705734D01*
X74183954Y-43892141D01*
X74344858Y-44053045D01*
X74344861Y-44053047D01*
X74531266Y-44183568D01*
X74737504Y-44279739D01*
X74957308Y-44338635D01*
X75119230Y-44352801D01*
X75183998Y-44358468D01*
X75184000Y-44358468D01*
X75184002Y-44358468D01*
X75240673Y-44353509D01*
X75410692Y-44338635D01*
X75630496Y-44279739D01*
X75710095Y-44242620D01*
X75779173Y-44232129D01*
X75842957Y-44260649D01*
X75881196Y-44319125D01*
X75886500Y-44355003D01*
X75886500Y-46494546D01*
X75866815Y-46561585D01*
X75850181Y-46582227D01*
X75598821Y-46833586D01*
X75537498Y-46867071D01*
X75479048Y-46865680D01*
X75410697Y-46847366D01*
X75410693Y-46847365D01*
X75410692Y-46847365D01*
X75297346Y-46837448D01*
X75184001Y-46827532D01*
X75183998Y-46827532D01*
X74957313Y-46847364D01*
X74957302Y-46847366D01*
X74737511Y-46906258D01*
X74737502Y-46906261D01*
X74531267Y-47002431D01*
X74531265Y-47002432D01*
X74344858Y-47132954D01*
X74183954Y-47293858D01*
X74053432Y-47480265D01*
X74053431Y-47480267D01*
X73957261Y-47686502D01*
X73957258Y-47686511D01*
X73898366Y-47906302D01*
X73898364Y-47906313D01*
X73878532Y-48132998D01*
X73878532Y-48133001D01*
X73898364Y-48359686D01*
X73898366Y-48359697D01*
X73957258Y-48579488D01*
X73957261Y-48579497D01*
X74053431Y-48785732D01*
X74053432Y-48785734D01*
X74183954Y-48972141D01*
X74344858Y-49133045D01*
X74505623Y-49245613D01*
X74549248Y-49300189D01*
X74558500Y-49347188D01*
X74558500Y-51998811D01*
X74538815Y-52065850D01*
X74505623Y-52100386D01*
X74344859Y-52212953D01*
X74183954Y-52373858D01*
X74053432Y-52560265D01*
X74053431Y-52560267D01*
X73957261Y-52766502D01*
X73957258Y-52766511D01*
X73898366Y-52986302D01*
X73898364Y-52986313D01*
X73878532Y-53212998D01*
X73878532Y-53213001D01*
X73898364Y-53439686D01*
X73898366Y-53439697D01*
X73957258Y-53659488D01*
X73957261Y-53659497D01*
X74053431Y-53865732D01*
X74053432Y-53865734D01*
X74183954Y-54052141D01*
X74344858Y-54213045D01*
X74344861Y-54213047D01*
X74531266Y-54343568D01*
X74737504Y-54439739D01*
X74957308Y-54498635D01*
X75119230Y-54512801D01*
X75183998Y-54518468D01*
X75184000Y-54518468D01*
X75184002Y-54518468D01*
X75240673Y-54513509D01*
X75410692Y-54498635D01*
X75630496Y-54439739D01*
X75836734Y-54343568D01*
X76023139Y-54213047D01*
X76073675Y-54162511D01*
X76124819Y-54111368D01*
X76186142Y-54077883D01*
X76255834Y-54082867D01*
X76311767Y-54124739D01*
X76336184Y-54190203D01*
X76336500Y-54199049D01*
X76336500Y-57306951D01*
X76316815Y-57373990D01*
X76264011Y-57419745D01*
X76194853Y-57429689D01*
X76131297Y-57400664D01*
X76124819Y-57394632D01*
X76023141Y-57292954D01*
X75836734Y-57162432D01*
X75836732Y-57162431D01*
X75630497Y-57066261D01*
X75630488Y-57066258D01*
X75410697Y-57007366D01*
X75410693Y-57007365D01*
X75410692Y-57007365D01*
X75410691Y-57007364D01*
X75410686Y-57007364D01*
X75184002Y-56987532D01*
X75183998Y-56987532D01*
X74957313Y-57007364D01*
X74957302Y-57007366D01*
X74737511Y-57066258D01*
X74737502Y-57066261D01*
X74531267Y-57162431D01*
X74531265Y-57162432D01*
X74344858Y-57292954D01*
X74183954Y-57453858D01*
X74053432Y-57640265D01*
X74053431Y-57640267D01*
X73957261Y-57846502D01*
X73957258Y-57846511D01*
X73898366Y-58066302D01*
X73898364Y-58066313D01*
X73878532Y-58292998D01*
X73878532Y-58293001D01*
X73898364Y-58519686D01*
X73898366Y-58519697D01*
X73957258Y-58739488D01*
X73957261Y-58739497D01*
X74053431Y-58945732D01*
X74053432Y-58945734D01*
X74183954Y-59132141D01*
X74344858Y-59293045D01*
X74344861Y-59293047D01*
X74531266Y-59423568D01*
X74737504Y-59519739D01*
X74737509Y-59519740D01*
X74737511Y-59519741D01*
X74790415Y-59533916D01*
X74957308Y-59578635D01*
X75119230Y-59592801D01*
X75183998Y-59598468D01*
X75184000Y-59598468D01*
X75184002Y-59598468D01*
X75240673Y-59593509D01*
X75410692Y-59578635D01*
X75630496Y-59519739D01*
X75836734Y-59423568D01*
X76023139Y-59293047D01*
X76184047Y-59132139D01*
X76297950Y-58969466D01*
X76352526Y-58925842D01*
X76395631Y-58916651D01*
X76425627Y-58915709D01*
X76444869Y-58910117D01*
X76463912Y-58906174D01*
X76483792Y-58903664D01*
X76527122Y-58886507D01*
X76532646Y-58884617D01*
X76536396Y-58883527D01*
X76577390Y-58871618D01*
X76594629Y-58861422D01*
X76612103Y-58852862D01*
X76630727Y-58845488D01*
X76630727Y-58845487D01*
X76630732Y-58845486D01*
X76668449Y-58818082D01*
X76673305Y-58814892D01*
X76713420Y-58791170D01*
X76727589Y-58776999D01*
X76742379Y-58764368D01*
X76758587Y-58752594D01*
X76788299Y-58716676D01*
X76792212Y-58712376D01*
X77345786Y-58158802D01*
X77358048Y-58148980D01*
X77357865Y-58148759D01*
X77363867Y-58143792D01*
X77363877Y-58143786D01*
X77411241Y-58093348D01*
X77432120Y-58072470D01*
X77436373Y-58066986D01*
X77440150Y-58062563D01*
X77472062Y-58028582D01*
X77481714Y-58011023D01*
X77492389Y-57994772D01*
X77504674Y-57978936D01*
X77523186Y-57936152D01*
X77525742Y-57930935D01*
X77548197Y-57890092D01*
X77553180Y-57870680D01*
X77559477Y-57852291D01*
X77567438Y-57833895D01*
X77574729Y-57787853D01*
X77575908Y-57782162D01*
X77587500Y-57737019D01*
X77587500Y-57716983D01*
X77589027Y-57697582D01*
X77592160Y-57677804D01*
X77587775Y-57631415D01*
X77587500Y-57625577D01*
X77587500Y-34420547D01*
X77589224Y-34404927D01*
X77588939Y-34404900D01*
X77589673Y-34397138D01*
X77587500Y-34327977D01*
X77587500Y-34298461D01*
X77587500Y-34298455D01*
X77586631Y-34291584D01*
X77586173Y-34285757D01*
X77584710Y-34239178D01*
X77579119Y-34219935D01*
X77575173Y-34200883D01*
X77572664Y-34181013D01*
X77555504Y-34137672D01*
X77553624Y-34132184D01*
X77540618Y-34087415D01*
X77540264Y-34086817D01*
X77530423Y-34070176D01*
X77521861Y-34052699D01*
X77514487Y-34034075D01*
X77514486Y-34034073D01*
X77487079Y-33996350D01*
X77483888Y-33991491D01*
X77475121Y-33976667D01*
X77460170Y-33951385D01*
X77460168Y-33951383D01*
X77460165Y-33951379D01*
X77446006Y-33937220D01*
X77433368Y-33922424D01*
X77421594Y-33906218D01*
X77385688Y-33876514D01*
X77381376Y-33872591D01*
X76483413Y-32974627D01*
X76449928Y-32913304D01*
X76451319Y-32854853D01*
X76469635Y-32786497D01*
X76489468Y-32559805D01*
X76485432Y-32513679D01*
X76480817Y-32460923D01*
X76469635Y-32333113D01*
X76410739Y-32113309D01*
X76314568Y-31907071D01*
X76184047Y-31720666D01*
X76184045Y-31720663D01*
X76023141Y-31559759D01*
X75836734Y-31429237D01*
X75836732Y-31429236D01*
X75630497Y-31333066D01*
X75630488Y-31333063D01*
X75410697Y-31274171D01*
X75410693Y-31274170D01*
X75410692Y-31274170D01*
X75410691Y-31274169D01*
X75410686Y-31274169D01*
X75184002Y-31254337D01*
X75183998Y-31254337D01*
X74957313Y-31274169D01*
X74957302Y-31274171D01*
X74737511Y-31333063D01*
X74737501Y-31333067D01*
X74715901Y-31343139D01*
X74646824Y-31353629D01*
X74583040Y-31325107D01*
X74544803Y-31266629D01*
X74539500Y-31230755D01*
X74539500Y-28761048D01*
X74559185Y-28694009D01*
X74611989Y-28648254D01*
X74681147Y-28638310D01*
X74715905Y-28648667D01*
X74737504Y-28658739D01*
X74737509Y-28658740D01*
X74737511Y-28658741D01*
X74752100Y-28662650D01*
X74957308Y-28717635D01*
X75119230Y-28731801D01*
X75183998Y-28737468D01*
X75184000Y-28737468D01*
X75184002Y-28737468D01*
X75240673Y-28732509D01*
X75410692Y-28717635D01*
X75630496Y-28658739D01*
X75836734Y-28562568D01*
X76023139Y-28432047D01*
X76184047Y-28271139D01*
X76314568Y-28084734D01*
X76410739Y-27878496D01*
X76469635Y-27658692D01*
X76489468Y-27432000D01*
X76469635Y-27205308D01*
X76410739Y-26985504D01*
X76314568Y-26779266D01*
X76184047Y-26592861D01*
X76184045Y-26592858D01*
X76023141Y-26431954D01*
X75836734Y-26301432D01*
X75836732Y-26301431D01*
X75630497Y-26205261D01*
X75630488Y-26205258D01*
X75410697Y-26146366D01*
X75410693Y-26146365D01*
X75410692Y-26146365D01*
X75410691Y-26146364D01*
X75410686Y-26146364D01*
X75184002Y-26126532D01*
X75183998Y-26126532D01*
X74957313Y-26146364D01*
X74957302Y-26146366D01*
X74737511Y-26205258D01*
X74737502Y-26205261D01*
X74531267Y-26301431D01*
X74531265Y-26301432D01*
X74344858Y-26431954D01*
X74183953Y-26592859D01*
X74073158Y-26751093D01*
X74018581Y-26794718D01*
X73961538Y-26800622D01*
X73961372Y-26803263D01*
X73953588Y-26802773D01*
X73953586Y-26802773D01*
X73945799Y-26803263D01*
X73896275Y-26806378D01*
X73892403Y-26806500D01*
X70207452Y-26806500D01*
X70140413Y-26786815D01*
X70119771Y-26770181D01*
X68436962Y-25087372D01*
X66746481Y-23396890D01*
X66712998Y-23335570D01*
X66717982Y-23265878D01*
X66718678Y-23264059D01*
X66751760Y-23179769D01*
X66807474Y-22935673D01*
X66810097Y-22900670D01*
X66826184Y-22686004D01*
X68476317Y-22686004D01*
X68495021Y-22935597D01*
X68495021Y-22935599D01*
X68550714Y-23179607D01*
X68550720Y-23179626D01*
X68642163Y-23412618D01*
X68767311Y-23629382D01*
X68805800Y-23677645D01*
X69548452Y-22934993D01*
X69558188Y-22964956D01*
X69646186Y-23103619D01*
X69765903Y-23216040D01*
X69900510Y-23290041D01*
X69159402Y-24031148D01*
X69313651Y-24136313D01*
X69313664Y-24136320D01*
X69539167Y-24244916D01*
X69539165Y-24244916D01*
X69778346Y-24318694D01*
X69778352Y-24318696D01*
X70025843Y-24355999D01*
X70025852Y-24356000D01*
X70276148Y-24356000D01*
X70276156Y-24355999D01*
X70523647Y-24318696D01*
X70523653Y-24318694D01*
X70762833Y-24244916D01*
X70988334Y-24136322D01*
X70988335Y-24136321D01*
X71142596Y-24031148D01*
X70398534Y-23287086D01*
X70466629Y-23260126D01*
X70599492Y-23163595D01*
X70704175Y-23037055D01*
X70752631Y-22934079D01*
X71496198Y-23677646D01*
X71496199Y-23677645D01*
X71534681Y-23629392D01*
X71534688Y-23629381D01*
X71659836Y-23412618D01*
X71751279Y-23179626D01*
X71751285Y-23179607D01*
X71806978Y-22935599D01*
X71806978Y-22935597D01*
X71825683Y-22686004D01*
X71825683Y-22685995D01*
X71806978Y-22436402D01*
X71806978Y-22436400D01*
X71751285Y-22192392D01*
X71751279Y-22192373D01*
X71659836Y-21959381D01*
X71534685Y-21742613D01*
X71496199Y-21694352D01*
X70753546Y-22437004D01*
X70743812Y-22407044D01*
X70655814Y-22268381D01*
X70536097Y-22155960D01*
X70401489Y-22081958D01*
X71142596Y-21340850D01*
X70988342Y-21235682D01*
X70988334Y-21235677D01*
X70762832Y-21127083D01*
X70762834Y-21127083D01*
X70523653Y-21053305D01*
X70523647Y-21053303D01*
X70276156Y-21016000D01*
X70025843Y-21016000D01*
X69778352Y-21053303D01*
X69778346Y-21053305D01*
X69539166Y-21127083D01*
X69313661Y-21235680D01*
X69313660Y-21235681D01*
X69159402Y-21340849D01*
X69903466Y-22084913D01*
X69835371Y-22111874D01*
X69702508Y-22208405D01*
X69597825Y-22334945D01*
X69549368Y-22437921D01*
X68805800Y-21694353D01*
X68767308Y-21742621D01*
X68642163Y-21959381D01*
X68550720Y-22192373D01*
X68550714Y-22192392D01*
X68495021Y-22436400D01*
X68495021Y-22436402D01*
X68476317Y-22685995D01*
X68476317Y-22686004D01*
X66826184Y-22686004D01*
X66826184Y-22685995D01*
X66807475Y-22436336D01*
X66807474Y-22436331D01*
X66807474Y-22436327D01*
X66751760Y-22192231D01*
X66660289Y-21959165D01*
X66535102Y-21742335D01*
X66378997Y-21546586D01*
X66378996Y-21546585D01*
X66378993Y-21546581D01*
X66195460Y-21376288D01*
X66143480Y-21340849D01*
X65988592Y-21235248D01*
X65988588Y-21235246D01*
X65988585Y-21235244D01*
X65988584Y-21235243D01*
X65763015Y-21126616D01*
X65763017Y-21126616D01*
X65523765Y-21052816D01*
X65523759Y-21052814D01*
X65276194Y-21015500D01*
X65276187Y-21015500D01*
X65025813Y-21015500D01*
X65025805Y-21015500D01*
X64778240Y-21052814D01*
X64778234Y-21052816D01*
X64538983Y-21126616D01*
X64313415Y-21235243D01*
X64313414Y-21235244D01*
X64313408Y-21235247D01*
X64313408Y-21235248D01*
X64289118Y-21251808D01*
X64106539Y-21376288D01*
X63923006Y-21546581D01*
X63766898Y-21742335D01*
X63641711Y-21959164D01*
X63550242Y-22192225D01*
X63550236Y-22192244D01*
X63494525Y-22436331D01*
X63494524Y-22436336D01*
X63475816Y-22685995D01*
X63475816Y-22686004D01*
X63494524Y-22935663D01*
X63494525Y-22935668D01*
X63550236Y-23179755D01*
X63550238Y-23179764D01*
X63550240Y-23179769D01*
X63641711Y-23412835D01*
X63766898Y-23629665D01*
X63805161Y-23677645D01*
X63923006Y-23825418D01*
X64094760Y-23984782D01*
X64106540Y-23995712D01*
X64313408Y-24136752D01*
X64313413Y-24136754D01*
X64313414Y-24136755D01*
X64313415Y-24136756D01*
X64406166Y-24181422D01*
X64538983Y-24245383D01*
X64538984Y-24245383D01*
X64538987Y-24245385D01*
X64778236Y-24319184D01*
X64778237Y-24319184D01*
X64778240Y-24319185D01*
X65025805Y-24356499D01*
X65025810Y-24356499D01*
X65025813Y-24356500D01*
X65025814Y-24356500D01*
X65276186Y-24356500D01*
X65276187Y-24356500D01*
X65276194Y-24356499D01*
X65523759Y-24319185D01*
X65523759Y-24319184D01*
X65523764Y-24319184D01*
X65739600Y-24252606D01*
X65809459Y-24251657D01*
X65863827Y-24283417D01*
X69396194Y-27815784D01*
X69406019Y-27828048D01*
X69406240Y-27827866D01*
X69411210Y-27833873D01*
X69411213Y-27833876D01*
X69411214Y-27833877D01*
X69461651Y-27881241D01*
X69482530Y-27902120D01*
X69488004Y-27906366D01*
X69492442Y-27910156D01*
X69526418Y-27942062D01*
X69526422Y-27942064D01*
X69543973Y-27951713D01*
X69560231Y-27962392D01*
X69576064Y-27974674D01*
X69598015Y-27984172D01*
X69618837Y-27993183D01*
X69624081Y-27995752D01*
X69664908Y-28018197D01*
X69684312Y-28023179D01*
X69702710Y-28029478D01*
X69721105Y-28037438D01*
X69767129Y-28044726D01*
X69772832Y-28045907D01*
X69817981Y-28057500D01*
X69838016Y-28057500D01*
X69857413Y-28059026D01*
X69877196Y-28062160D01*
X69923584Y-28057775D01*
X69929422Y-28057500D01*
X73164500Y-28057500D01*
X73231539Y-28077185D01*
X73277294Y-28129989D01*
X73288500Y-28181500D01*
X73288500Y-33953255D01*
X73286775Y-33968872D01*
X73287061Y-33968899D01*
X73286326Y-33976665D01*
X73288500Y-34045814D01*
X73288500Y-34075343D01*
X73288501Y-34075360D01*
X73289368Y-34082231D01*
X73289826Y-34088050D01*
X73291290Y-34134624D01*
X73291291Y-34134627D01*
X73296880Y-34153867D01*
X73300824Y-34172911D01*
X73303336Y-34192792D01*
X73314769Y-34221669D01*
X73320490Y-34236119D01*
X73322382Y-34241647D01*
X73330140Y-34268350D01*
X73335382Y-34286390D01*
X73342520Y-34298461D01*
X73345580Y-34303634D01*
X73354138Y-34321103D01*
X73361514Y-34339732D01*
X73388898Y-34377423D01*
X73392106Y-34382307D01*
X73415827Y-34422416D01*
X73415833Y-34422424D01*
X73429990Y-34436580D01*
X73442628Y-34451376D01*
X73454242Y-34467362D01*
X73454406Y-34467587D01*
X73483076Y-34491305D01*
X73490309Y-34497288D01*
X73494620Y-34501210D01*
X74321521Y-35328111D01*
X75128149Y-36134739D01*
X75161634Y-36196062D01*
X75156650Y-36265754D01*
X75114778Y-36321687D01*
X75051277Y-36345948D01*
X74957311Y-36354169D01*
X74957302Y-36354171D01*
X74737511Y-36413063D01*
X74737502Y-36413066D01*
X74531267Y-36509236D01*
X74531265Y-36509237D01*
X74344858Y-36639759D01*
X74183954Y-36800663D01*
X74071387Y-36961428D01*
X74016811Y-37005053D01*
X73969812Y-37014305D01*
X70335258Y-37014305D01*
X70268219Y-36994620D01*
X70247577Y-36977986D01*
X67819438Y-34549847D01*
X67785953Y-34488524D01*
X67790937Y-34418832D01*
X67832809Y-34362899D01*
X67888638Y-34339551D01*
X68023759Y-34319185D01*
X68023760Y-34319184D01*
X68023764Y-34319184D01*
X68263013Y-34245385D01*
X68453071Y-34153858D01*
X68488584Y-34136756D01*
X68488584Y-34136755D01*
X68488592Y-34136752D01*
X68695460Y-33995712D01*
X68857415Y-33845439D01*
X68878993Y-33825418D01*
X68878993Y-33825416D01*
X68878997Y-33825414D01*
X69035102Y-33629665D01*
X69160289Y-33412835D01*
X69251760Y-33179769D01*
X69307474Y-32935673D01*
X69308346Y-32924035D01*
X69326184Y-32686004D01*
X69326184Y-32685995D01*
X69307475Y-32436336D01*
X69307474Y-32436331D01*
X69307474Y-32436327D01*
X69251760Y-32192231D01*
X69160289Y-31959165D01*
X69035102Y-31742335D01*
X68878997Y-31546586D01*
X68878996Y-31546585D01*
X68878993Y-31546581D01*
X68695460Y-31376288D01*
X68620391Y-31325107D01*
X68488592Y-31235248D01*
X68488586Y-31235245D01*
X68488585Y-31235244D01*
X68488584Y-31235243D01*
X68263015Y-31126616D01*
X68263017Y-31126616D01*
X68023765Y-31052816D01*
X68023759Y-31052814D01*
X67776194Y-31015500D01*
X67776187Y-31015500D01*
X67525813Y-31015500D01*
X67525805Y-31015500D01*
X67278240Y-31052814D01*
X67278234Y-31052816D01*
X67038983Y-31126616D01*
X66813415Y-31235243D01*
X66813414Y-31235244D01*
X66606539Y-31376288D01*
X66423006Y-31546581D01*
X66266898Y-31742335D01*
X66141711Y-31959164D01*
X66050242Y-32192225D01*
X66050236Y-32192244D01*
X65994525Y-32436331D01*
X65993832Y-32440928D01*
X65992550Y-32440734D01*
X65969946Y-32500671D01*
X65913860Y-32542337D01*
X65844150Y-32547067D01*
X65783270Y-32513679D01*
X65571803Y-32302212D01*
X65561980Y-32289950D01*
X65561759Y-32290134D01*
X65556786Y-32284123D01*
X65506364Y-32236773D01*
X65495919Y-32226328D01*
X65485475Y-32215883D01*
X65479986Y-32211625D01*
X65475561Y-32207847D01*
X65441582Y-32175938D01*
X65441580Y-32175936D01*
X65441577Y-32175935D01*
X65424029Y-32166288D01*
X65407763Y-32155604D01*
X65391933Y-32143325D01*
X65349168Y-32124818D01*
X65343922Y-32122248D01*
X65303093Y-32099803D01*
X65303092Y-32099802D01*
X65283693Y-32094822D01*
X65265281Y-32088518D01*
X65246898Y-32080562D01*
X65246892Y-32080560D01*
X65200874Y-32073272D01*
X65195152Y-32072087D01*
X65150021Y-32060500D01*
X65150019Y-32060500D01*
X65129984Y-32060500D01*
X65110586Y-32058973D01*
X65103162Y-32057797D01*
X65090805Y-32055840D01*
X65090804Y-32055840D01*
X65044416Y-32060225D01*
X65038578Y-32060500D01*
X58315601Y-32060500D01*
X58248562Y-32040815D01*
X58202807Y-31988011D01*
X58200184Y-31981831D01*
X58191289Y-31959165D01*
X58066102Y-31742335D01*
X57909997Y-31546586D01*
X57909996Y-31546585D01*
X57909993Y-31546581D01*
X57726460Y-31376288D01*
X57651391Y-31325107D01*
X57519592Y-31235248D01*
X57519589Y-31235247D01*
X57519587Y-31235245D01*
X57377698Y-31166914D01*
X57325838Y-31120091D01*
X57307500Y-31055194D01*
X57307500Y-25134737D01*
X57309224Y-25119123D01*
X57308938Y-25119096D01*
X57309672Y-25111333D01*
X57307500Y-25042202D01*
X57307500Y-25012651D01*
X57307500Y-25012650D01*
X57306629Y-25005759D01*
X57306172Y-24999945D01*
X57305730Y-24985887D01*
X57304709Y-24953372D01*
X57299120Y-24934137D01*
X57295174Y-24915084D01*
X57293762Y-24903905D01*
X57292664Y-24895208D01*
X57275501Y-24851859D01*
X57273614Y-24846346D01*
X57272410Y-24842203D01*
X57260617Y-24801610D01*
X57259418Y-24799583D01*
X57250421Y-24784369D01*
X57241860Y-24766893D01*
X57234486Y-24748269D01*
X57234486Y-24748267D01*
X57224474Y-24734488D01*
X57207083Y-24710550D01*
X57203900Y-24705705D01*
X57180170Y-24665579D01*
X57180165Y-24665573D01*
X57166005Y-24651413D01*
X57153370Y-24636620D01*
X57141593Y-24620412D01*
X57105693Y-24590713D01*
X57101381Y-24586790D01*
X55814753Y-23300162D01*
X55781268Y-23238839D01*
X55783617Y-23184724D01*
X55781728Y-23184293D01*
X55802883Y-23091604D01*
X55838474Y-22935673D01*
X55841097Y-22900670D01*
X55857184Y-22686004D01*
X57507317Y-22686004D01*
X57526021Y-22935597D01*
X57526021Y-22935599D01*
X57581714Y-23179607D01*
X57581720Y-23179626D01*
X57673163Y-23412618D01*
X57798311Y-23629382D01*
X57836800Y-23677645D01*
X58579452Y-22934993D01*
X58589188Y-22964956D01*
X58677186Y-23103619D01*
X58796903Y-23216040D01*
X58931510Y-23290041D01*
X58190402Y-24031148D01*
X58344651Y-24136313D01*
X58344664Y-24136320D01*
X58570167Y-24244916D01*
X58570165Y-24244916D01*
X58809346Y-24318694D01*
X58809352Y-24318696D01*
X59056843Y-24355999D01*
X59056852Y-24356000D01*
X59307148Y-24356000D01*
X59307156Y-24355999D01*
X59554647Y-24318696D01*
X59554653Y-24318694D01*
X59793833Y-24244916D01*
X60019334Y-24136322D01*
X60019335Y-24136321D01*
X60173596Y-24031148D01*
X59429534Y-23287086D01*
X59497629Y-23260126D01*
X59630492Y-23163595D01*
X59735175Y-23037055D01*
X59783631Y-22934079D01*
X60527198Y-23677646D01*
X60527199Y-23677645D01*
X60565681Y-23629392D01*
X60565688Y-23629381D01*
X60690836Y-23412618D01*
X60782279Y-23179626D01*
X60782285Y-23179607D01*
X60837978Y-22935599D01*
X60837978Y-22935597D01*
X60856683Y-22686004D01*
X60856683Y-22685995D01*
X60837978Y-22436402D01*
X60837978Y-22436400D01*
X60782285Y-22192392D01*
X60782279Y-22192373D01*
X60690836Y-21959381D01*
X60565685Y-21742613D01*
X60527199Y-21694352D01*
X59784546Y-22437004D01*
X59774812Y-22407044D01*
X59686814Y-22268381D01*
X59567097Y-22155960D01*
X59432489Y-22081958D01*
X60173596Y-21340850D01*
X60019342Y-21235682D01*
X60019334Y-21235677D01*
X59793832Y-21127083D01*
X59793834Y-21127083D01*
X59554653Y-21053305D01*
X59554647Y-21053303D01*
X59307156Y-21016000D01*
X59056843Y-21016000D01*
X58809352Y-21053303D01*
X58809346Y-21053305D01*
X58570166Y-21127083D01*
X58344661Y-21235680D01*
X58344660Y-21235681D01*
X58190402Y-21340849D01*
X58934466Y-22084913D01*
X58866371Y-22111874D01*
X58733508Y-22208405D01*
X58628825Y-22334945D01*
X58580368Y-22437921D01*
X57836800Y-21694353D01*
X57798308Y-21742621D01*
X57673163Y-21959381D01*
X57581720Y-22192373D01*
X57581714Y-22192392D01*
X57526021Y-22436400D01*
X57526021Y-22436402D01*
X57507317Y-22685995D01*
X57507317Y-22686004D01*
X55857184Y-22686004D01*
X55857184Y-22685995D01*
X55838475Y-22436336D01*
X55838474Y-22436331D01*
X55838474Y-22436327D01*
X55782760Y-22192231D01*
X55691289Y-21959165D01*
X55566102Y-21742335D01*
X55409997Y-21546586D01*
X55409996Y-21546585D01*
X55409993Y-21546581D01*
X55226460Y-21376288D01*
X55174480Y-21340849D01*
X55019592Y-21235248D01*
X55019588Y-21235246D01*
X55019585Y-21235244D01*
X55019584Y-21235243D01*
X54794015Y-21126616D01*
X54794017Y-21126616D01*
X54554765Y-21052816D01*
X54554759Y-21052814D01*
X54307194Y-21015500D01*
X54307187Y-21015500D01*
X54056813Y-21015500D01*
X54056805Y-21015500D01*
X53809240Y-21052814D01*
X53809234Y-21052816D01*
X53569983Y-21126616D01*
X53344415Y-21235243D01*
X53344414Y-21235244D01*
X53344408Y-21235247D01*
X53344408Y-21235248D01*
X53320118Y-21251808D01*
X53137539Y-21376288D01*
X52954006Y-21546581D01*
X52797898Y-21742335D01*
X52672711Y-21959164D01*
X52581242Y-22192225D01*
X52581236Y-22192244D01*
X52525525Y-22436331D01*
X52525524Y-22436336D01*
X52506816Y-22685995D01*
X52506816Y-22686004D01*
X52525524Y-22935663D01*
X52525525Y-22935668D01*
X52581236Y-23179755D01*
X52581238Y-23179764D01*
X52581240Y-23179769D01*
X52672711Y-23412835D01*
X52797898Y-23629665D01*
X52836161Y-23677645D01*
X52954006Y-23825418D01*
X53125760Y-23984782D01*
X53137540Y-23995712D01*
X53344408Y-24136752D01*
X53344413Y-24136754D01*
X53344414Y-24136755D01*
X53344415Y-24136756D01*
X53437166Y-24181422D01*
X53569983Y-24245383D01*
X53569984Y-24245383D01*
X53569987Y-24245385D01*
X53809236Y-24319184D01*
X53809237Y-24319184D01*
X53809240Y-24319185D01*
X54056805Y-24356499D01*
X54056810Y-24356499D01*
X54056813Y-24356500D01*
X54056814Y-24356500D01*
X54307186Y-24356500D01*
X54307187Y-24356500D01*
X54307194Y-24356499D01*
X54554759Y-24319185D01*
X54554760Y-24319184D01*
X54554764Y-24319184D01*
X54794013Y-24245385D01*
X54847562Y-24219596D01*
X54916502Y-24208243D01*
X54980637Y-24235965D01*
X54989045Y-24243635D01*
X56020181Y-25274771D01*
X56053666Y-25336094D01*
X56056500Y-25362452D01*
X56056500Y-31055194D01*
X56036815Y-31122233D01*
X55986302Y-31166914D01*
X55844412Y-31235245D01*
X55637539Y-31376288D01*
X55454006Y-31546581D01*
X55297898Y-31742335D01*
X55172713Y-31959160D01*
X55172711Y-31959164D01*
X55172711Y-31959165D01*
X55163826Y-31981803D01*
X55121013Y-32037015D01*
X55055143Y-32060316D01*
X55048399Y-32060500D01*
X48081979Y-32060500D01*
X48066362Y-32058776D01*
X48066335Y-32059062D01*
X48058573Y-32058327D01*
X47989445Y-32060500D01*
X47959892Y-32060500D01*
X47959171Y-32060590D01*
X47952999Y-32061369D01*
X47947187Y-32061826D01*
X47900615Y-32063290D01*
X47900614Y-32063290D01*
X47881371Y-32068881D01*
X47862321Y-32072825D01*
X47842453Y-32075334D01*
X47842451Y-32075335D01*
X47799126Y-32092488D01*
X47793599Y-32094380D01*
X47748852Y-32107381D01*
X47748851Y-32107382D01*
X47731609Y-32117579D01*
X47714141Y-32126137D01*
X47695511Y-32133513D01*
X47695509Y-32133514D01*
X47657818Y-32160898D01*
X47652936Y-32164105D01*
X47612821Y-32187830D01*
X47598650Y-32202000D01*
X47583865Y-32214628D01*
X47567653Y-32226407D01*
X47561969Y-32231746D01*
X47560226Y-32229890D01*
X47512619Y-32262036D01*
X47442767Y-32263621D01*
X47383147Y-32227190D01*
X47359565Y-32189184D01*
X47280610Y-31988011D01*
X47269289Y-31959165D01*
X47269288Y-31959164D01*
X47269289Y-31959164D01*
X47223466Y-31879799D01*
X47144102Y-31742335D01*
X46987997Y-31546586D01*
X46987996Y-31546585D01*
X46987993Y-31546581D01*
X46804460Y-31376288D01*
X46729391Y-31325107D01*
X46597592Y-31235248D01*
X46597589Y-31235247D01*
X46597587Y-31235245D01*
X46455698Y-31166914D01*
X46403838Y-31120091D01*
X46385500Y-31055194D01*
X46385500Y-25268742D01*
X46387224Y-25253122D01*
X46386939Y-25253096D01*
X46387671Y-25245340D01*
X46387673Y-25245333D01*
X46385500Y-25176185D01*
X46385500Y-25146650D01*
X46384631Y-25139772D01*
X46384172Y-25133943D01*
X46382709Y-25087372D01*
X46377122Y-25068144D01*
X46373174Y-25049084D01*
X46370878Y-25030905D01*
X46370664Y-25029208D01*
X46370663Y-25029206D01*
X46370663Y-25029204D01*
X46353512Y-24985887D01*
X46351619Y-24980358D01*
X46338618Y-24935609D01*
X46338616Y-24935606D01*
X46328423Y-24918371D01*
X46319861Y-24900894D01*
X46312487Y-24882270D01*
X46312486Y-24882268D01*
X46285079Y-24844545D01*
X46281888Y-24839686D01*
X46258172Y-24799583D01*
X46258165Y-24799574D01*
X46244006Y-24785415D01*
X46231368Y-24770619D01*
X46228661Y-24766893D01*
X46219594Y-24754413D01*
X46212167Y-24748269D01*
X46183688Y-24724709D01*
X46179376Y-24720786D01*
X44855481Y-23396890D01*
X44821998Y-23335570D01*
X44826982Y-23265878D01*
X44827678Y-23264059D01*
X44860760Y-23179769D01*
X44916474Y-22935673D01*
X44919097Y-22900670D01*
X44935184Y-22686004D01*
X46585317Y-22686004D01*
X46604021Y-22935597D01*
X46604021Y-22935599D01*
X46659714Y-23179607D01*
X46659720Y-23179626D01*
X46751163Y-23412618D01*
X46876311Y-23629382D01*
X46914800Y-23677645D01*
X47657452Y-22934993D01*
X47667188Y-22964956D01*
X47755186Y-23103619D01*
X47874903Y-23216040D01*
X48009510Y-23290041D01*
X47268402Y-24031148D01*
X47422651Y-24136313D01*
X47422664Y-24136320D01*
X47648167Y-24244916D01*
X47648165Y-24244916D01*
X47887346Y-24318694D01*
X47887352Y-24318696D01*
X48134843Y-24355999D01*
X48134852Y-24356000D01*
X48385148Y-24356000D01*
X48385156Y-24355999D01*
X48632647Y-24318696D01*
X48632653Y-24318694D01*
X48871833Y-24244916D01*
X49097334Y-24136322D01*
X49097335Y-24136321D01*
X49251596Y-24031148D01*
X48507534Y-23287086D01*
X48575629Y-23260126D01*
X48708492Y-23163595D01*
X48813175Y-23037055D01*
X48861631Y-22934079D01*
X49605198Y-23677646D01*
X49605199Y-23677645D01*
X49643681Y-23629392D01*
X49643688Y-23629381D01*
X49768836Y-23412618D01*
X49860279Y-23179626D01*
X49860285Y-23179607D01*
X49915978Y-22935599D01*
X49915978Y-22935597D01*
X49934683Y-22686004D01*
X49934683Y-22685995D01*
X49915978Y-22436402D01*
X49915978Y-22436400D01*
X49860285Y-22192392D01*
X49860279Y-22192373D01*
X49768836Y-21959381D01*
X49643685Y-21742613D01*
X49605199Y-21694352D01*
X48862546Y-22437004D01*
X48852812Y-22407044D01*
X48764814Y-22268381D01*
X48645097Y-22155960D01*
X48510489Y-22081958D01*
X49251596Y-21340850D01*
X49097342Y-21235682D01*
X49097334Y-21235677D01*
X48871832Y-21127083D01*
X48871834Y-21127083D01*
X48632653Y-21053305D01*
X48632647Y-21053303D01*
X48385156Y-21016000D01*
X48134843Y-21016000D01*
X47887352Y-21053303D01*
X47887346Y-21053305D01*
X47648166Y-21127083D01*
X47422661Y-21235680D01*
X47422660Y-21235681D01*
X47268402Y-21340849D01*
X48012466Y-22084913D01*
X47944371Y-22111874D01*
X47811508Y-22208405D01*
X47706825Y-22334945D01*
X47658368Y-22437921D01*
X46914800Y-21694353D01*
X46876308Y-21742621D01*
X46751163Y-21959381D01*
X46659720Y-22192373D01*
X46659714Y-22192392D01*
X46604021Y-22436400D01*
X46604021Y-22436402D01*
X46585317Y-22685995D01*
X46585317Y-22686004D01*
X44935184Y-22686004D01*
X44935184Y-22685995D01*
X44916475Y-22436336D01*
X44916474Y-22436331D01*
X44916474Y-22436327D01*
X44860760Y-22192231D01*
X44769289Y-21959165D01*
X44644102Y-21742335D01*
X44487997Y-21546586D01*
X44487996Y-21546585D01*
X44487993Y-21546581D01*
X44304460Y-21376288D01*
X44252480Y-21340849D01*
X44097592Y-21235248D01*
X44097588Y-21235246D01*
X44097585Y-21235244D01*
X44097584Y-21235243D01*
X43872015Y-21126616D01*
X43872017Y-21126616D01*
X43632765Y-21052816D01*
X43632759Y-21052814D01*
X43385194Y-21015500D01*
X43385187Y-21015500D01*
X43134813Y-21015500D01*
X43134805Y-21015500D01*
X42887240Y-21052814D01*
X42887234Y-21052816D01*
X42647983Y-21126616D01*
X42422415Y-21235243D01*
X42422414Y-21235244D01*
X42422408Y-21235247D01*
X42422408Y-21235248D01*
X42398118Y-21251808D01*
X42215539Y-21376288D01*
X42032006Y-21546581D01*
X41875898Y-21742335D01*
X41750711Y-21959164D01*
X41659242Y-22192225D01*
X41659236Y-22192244D01*
X41603525Y-22436331D01*
X41603524Y-22436336D01*
X41584816Y-22685995D01*
X41584816Y-22686004D01*
X41603524Y-22935663D01*
X41603525Y-22935668D01*
X41659236Y-23179755D01*
X41659238Y-23179764D01*
X41659240Y-23179769D01*
X41750711Y-23412835D01*
X41875898Y-23629665D01*
X41914161Y-23677645D01*
X42032006Y-23825418D01*
X42203760Y-23984782D01*
X42215540Y-23995712D01*
X42422408Y-24136752D01*
X42422413Y-24136754D01*
X42422414Y-24136755D01*
X42422415Y-24136756D01*
X42515166Y-24181422D01*
X42647983Y-24245383D01*
X42647984Y-24245383D01*
X42647987Y-24245385D01*
X42887236Y-24319184D01*
X42887237Y-24319184D01*
X42887240Y-24319185D01*
X43134805Y-24356499D01*
X43134810Y-24356499D01*
X43134813Y-24356500D01*
X43134814Y-24356500D01*
X43385186Y-24356500D01*
X43385187Y-24356500D01*
X43385194Y-24356499D01*
X43632759Y-24319185D01*
X43632759Y-24319184D01*
X43632764Y-24319184D01*
X43848600Y-24252606D01*
X43918459Y-24251657D01*
X43972824Y-24283415D01*
X44529096Y-24839686D01*
X45098181Y-25408771D01*
X45131666Y-25470094D01*
X45134500Y-25496452D01*
X45134500Y-31055194D01*
X45114815Y-31122233D01*
X45064302Y-31166914D01*
X44922412Y-31235245D01*
X44715539Y-31376288D01*
X44532006Y-31546581D01*
X44375898Y-31742335D01*
X44250711Y-31959164D01*
X44159242Y-32192225D01*
X44159236Y-32192244D01*
X44103525Y-32436331D01*
X44103524Y-32436336D01*
X44084816Y-32685995D01*
X44084816Y-32686004D01*
X44103524Y-32935663D01*
X44103525Y-32935668D01*
X44159236Y-33179755D01*
X44159238Y-33179764D01*
X44159240Y-33179769D01*
X44250711Y-33412835D01*
X44375898Y-33629665D01*
X44497381Y-33782000D01*
X44532006Y-33825418D01*
X44688105Y-33970256D01*
X44715540Y-33995712D01*
X44922408Y-34136752D01*
X44922413Y-34136754D01*
X44922414Y-34136755D01*
X44922415Y-34136756D01*
X45003330Y-34175722D01*
X45147983Y-34245383D01*
X45147984Y-34245383D01*
X45147987Y-34245385D01*
X45262607Y-34280740D01*
X45320865Y-34319310D01*
X45349023Y-34383255D01*
X45338139Y-34452272D01*
X45313737Y-34486912D01*
X45082208Y-34718441D01*
X45069951Y-34728262D01*
X45070134Y-34728483D01*
X45064123Y-34733455D01*
X45016772Y-34783878D01*
X44995889Y-34804761D01*
X44995877Y-34804774D01*
X44991621Y-34810259D01*
X44987837Y-34814689D01*
X44955937Y-34848660D01*
X44955936Y-34848662D01*
X44946284Y-34866218D01*
X44935610Y-34882468D01*
X44923329Y-34898303D01*
X44923324Y-34898310D01*
X44904815Y-34941080D01*
X44902245Y-34946326D01*
X44879803Y-34987148D01*
X44874822Y-35006549D01*
X44868521Y-35024952D01*
X44860562Y-35043344D01*
X44860561Y-35043347D01*
X44853271Y-35089369D01*
X44852087Y-35095088D01*
X44840501Y-35140214D01*
X44840500Y-35140224D01*
X44840500Y-35160258D01*
X44838973Y-35179655D01*
X44835840Y-35199438D01*
X44838817Y-35230926D01*
X44840225Y-35245825D01*
X44840500Y-35251663D01*
X44840500Y-35826277D01*
X44820815Y-35893316D01*
X44768011Y-35939071D01*
X44698853Y-35949015D01*
X44645379Y-35927853D01*
X44619838Y-35909970D01*
X44619830Y-35909965D01*
X44568658Y-35886103D01*
X44405663Y-35810097D01*
X44405659Y-35810096D01*
X44405655Y-35810094D01*
X44177413Y-35748938D01*
X44177403Y-35748936D01*
X43942001Y-35728341D01*
X43941999Y-35728341D01*
X43706596Y-35748936D01*
X43706586Y-35748938D01*
X43478344Y-35810094D01*
X43478335Y-35810098D01*
X43264171Y-35909964D01*
X43264169Y-35909965D01*
X43070597Y-36045505D01*
X42903505Y-36212597D01*
X42767965Y-36406169D01*
X42767964Y-36406171D01*
X42668098Y-36620335D01*
X42668094Y-36620344D01*
X42606938Y-36848586D01*
X42606936Y-36848596D01*
X42586341Y-37083999D01*
X42586341Y-37084000D01*
X42606936Y-37319403D01*
X42606938Y-37319413D01*
X42668094Y-37547655D01*
X42668096Y-37547659D01*
X42668097Y-37547663D01*
X42739787Y-37701402D01*
X42767965Y-37761830D01*
X42767967Y-37761834D01*
X42842655Y-37868498D01*
X42889667Y-37935639D01*
X42903501Y-37955395D01*
X42903506Y-37955402D01*
X43070597Y-38122493D01*
X43070603Y-38122498D01*
X43256158Y-38252425D01*
X43299783Y-38307002D01*
X43306977Y-38376500D01*
X43275454Y-38438855D01*
X43256158Y-38455575D01*
X43070597Y-38585505D01*
X42903505Y-38752597D01*
X42767965Y-38946169D01*
X42767964Y-38946171D01*
X42668098Y-39160335D01*
X42668094Y-39160344D01*
X42606938Y-39388586D01*
X42606936Y-39388596D01*
X42586341Y-39623999D01*
X42586341Y-39624000D01*
X42606936Y-39859403D01*
X42606938Y-39859413D01*
X42668094Y-40087655D01*
X42668099Y-40087670D01*
X42671777Y-40095556D01*
X42682268Y-40164633D01*
X42653746Y-40228417D01*
X42595269Y-40266655D01*
X42578797Y-40270431D01*
X42573366Y-40271291D01*
X42554126Y-40276880D01*
X42535087Y-40280823D01*
X42515217Y-40283334D01*
X42515203Y-40283337D01*
X42471883Y-40300488D01*
X42466358Y-40302380D01*
X42421613Y-40315380D01*
X42421610Y-40315381D01*
X42404366Y-40325579D01*
X42386905Y-40334133D01*
X42368274Y-40341510D01*
X42368262Y-40341517D01*
X42330570Y-40368902D01*
X42325687Y-40372109D01*
X42285580Y-40395829D01*
X42271414Y-40409995D01*
X42256624Y-40422627D01*
X42240414Y-40434404D01*
X42240411Y-40434407D01*
X42210710Y-40470309D01*
X42206777Y-40474631D01*
X41291423Y-41389986D01*
X41230100Y-41423471D01*
X41203742Y-41426305D01*
X37289499Y-41426305D01*
X37222460Y-41406620D01*
X37176705Y-41353816D01*
X37165499Y-41302305D01*
X37165499Y-41080600D01*
X37165498Y-41080594D01*
X37163742Y-41064261D01*
X37159091Y-41020988D01*
X37153607Y-41006285D01*
X37108797Y-40886142D01*
X37108793Y-40886135D01*
X37022547Y-40770927D01*
X37022548Y-40770927D01*
X37022546Y-40770925D01*
X37015641Y-40765756D01*
X36973773Y-40709822D01*
X36968791Y-40640130D01*
X37002278Y-40578808D01*
X37015650Y-40567221D01*
X37022192Y-40562323D01*
X37108350Y-40447232D01*
X37108354Y-40447225D01*
X37158596Y-40312518D01*
X37158598Y-40312511D01*
X37164999Y-40252983D01*
X37165000Y-40252966D01*
X37165000Y-39531805D01*
X34799000Y-39531805D01*
X34731961Y-39512120D01*
X34686206Y-39459316D01*
X34675000Y-39407805D01*
X34675000Y-39155805D01*
X34694685Y-39088766D01*
X34747489Y-39043011D01*
X34799000Y-39031805D01*
X37165000Y-39031805D01*
X37165000Y-38310643D01*
X37164999Y-38310626D01*
X37158598Y-38251098D01*
X37158596Y-38251091D01*
X37108354Y-38116384D01*
X37108350Y-38116377D01*
X37022190Y-38001283D01*
X37022189Y-38001282D01*
X37015646Y-37996384D01*
X36973774Y-37940451D01*
X36968790Y-37870759D01*
X37002275Y-37809436D01*
X37015641Y-37797853D01*
X37022546Y-37792685D01*
X37108796Y-37677470D01*
X37159091Y-37542622D01*
X37165500Y-37483012D01*
X37165500Y-37261305D01*
X37185185Y-37194266D01*
X37237989Y-37148511D01*
X37289500Y-37137305D01*
X39370451Y-37137305D01*
X39437490Y-37156990D01*
X39462601Y-37178333D01*
X39526129Y-37248888D01*
X39679265Y-37360148D01*
X39679270Y-37360151D01*
X39852192Y-37437142D01*
X39852197Y-37437144D01*
X40037354Y-37476500D01*
X40037355Y-37476500D01*
X40226644Y-37476500D01*
X40226646Y-37476500D01*
X40411803Y-37437144D01*
X40584730Y-37360151D01*
X40737871Y-37248888D01*
X40864533Y-37108216D01*
X40959179Y-36944284D01*
X41017674Y-36764256D01*
X41037460Y-36576000D01*
X41017674Y-36387744D01*
X40959179Y-36207716D01*
X40864533Y-36043784D01*
X40737871Y-35903112D01*
X40724388Y-35893316D01*
X40584734Y-35791851D01*
X40584729Y-35791848D01*
X40411807Y-35714857D01*
X40411802Y-35714855D01*
X40266001Y-35683865D01*
X40226646Y-35675500D01*
X40037354Y-35675500D01*
X40004897Y-35682398D01*
X39852197Y-35714855D01*
X39852192Y-35714857D01*
X39679270Y-35791848D01*
X39679265Y-35791851D01*
X39581857Y-35862623D01*
X39516051Y-35886103D01*
X39508972Y-35886305D01*
X37289499Y-35886305D01*
X37222460Y-35866620D01*
X37176705Y-35813816D01*
X37165499Y-35762305D01*
X37165499Y-35540600D01*
X37165498Y-35540594D01*
X37159091Y-35480987D01*
X37108797Y-35346142D01*
X37108793Y-35346135D01*
X37022547Y-35230926D01*
X37022546Y-35230925D01*
X37016063Y-35226072D01*
X36974191Y-35170139D01*
X36969207Y-35100448D01*
X37002691Y-35039124D01*
X37016063Y-35027538D01*
X37016146Y-35027476D01*
X37022546Y-35022685D01*
X37108796Y-34907470D01*
X37159091Y-34772622D01*
X37165500Y-34713012D01*
X37165500Y-34491305D01*
X37185185Y-34424266D01*
X37237989Y-34378511D01*
X37289500Y-34367305D01*
X39392060Y-34367305D01*
X39459099Y-34386990D01*
X39484210Y-34408333D01*
X39526123Y-34454883D01*
X39526130Y-34454889D01*
X39679265Y-34566148D01*
X39679270Y-34566151D01*
X39852192Y-34643142D01*
X39852197Y-34643144D01*
X40037354Y-34682500D01*
X40037355Y-34682500D01*
X40226644Y-34682500D01*
X40226646Y-34682500D01*
X40411803Y-34643144D01*
X40584730Y-34566151D01*
X40737871Y-34454888D01*
X40864533Y-34314216D01*
X40959179Y-34150284D01*
X41017674Y-33970256D01*
X41037460Y-33782000D01*
X41017674Y-33593744D01*
X40959179Y-33413716D01*
X40864533Y-33249784D01*
X40737871Y-33109112D01*
X40732012Y-33104855D01*
X40584734Y-32997851D01*
X40584729Y-32997848D01*
X40411807Y-32920857D01*
X40411802Y-32920855D01*
X40266001Y-32889865D01*
X40226646Y-32881500D01*
X40037354Y-32881500D01*
X40004897Y-32888398D01*
X39852197Y-32920855D01*
X39852192Y-32920857D01*
X39679270Y-32997848D01*
X39679265Y-32997851D01*
X39548824Y-33092623D01*
X39483018Y-33116103D01*
X39475939Y-33116305D01*
X37289499Y-33116305D01*
X37222460Y-33096620D01*
X37176705Y-33043816D01*
X37165499Y-32992305D01*
X37165499Y-32770600D01*
X37165498Y-32770594D01*
X37164546Y-32761739D01*
X37159091Y-32710988D01*
X37157925Y-32707863D01*
X37108797Y-32576142D01*
X37108793Y-32576135D01*
X37022547Y-32460926D01*
X37022544Y-32460923D01*
X36907335Y-32374677D01*
X36907328Y-32374673D01*
X36772482Y-32324379D01*
X36772483Y-32324379D01*
X36712883Y-32317972D01*
X36712881Y-32317971D01*
X36712873Y-32317971D01*
X36712865Y-32317971D01*
X33652000Y-32317971D01*
X33584961Y-32298286D01*
X33539206Y-32245482D01*
X33528000Y-32193971D01*
X33528000Y-24164156D01*
X33547685Y-24097117D01*
X33600489Y-24051362D01*
X33669647Y-24041418D01*
X33733203Y-24070443D01*
X33770977Y-24129221D01*
X33774366Y-24144095D01*
X33807024Y-24343303D01*
X33807030Y-24343329D01*
X33904221Y-24693381D01*
X33904226Y-24693396D01*
X34038700Y-25030901D01*
X34038706Y-25030913D01*
X34208878Y-25351892D01*
X34208881Y-25351897D01*
X34208883Y-25351900D01*
X34247443Y-25408771D01*
X34326664Y-25525614D01*
X34412773Y-25652614D01*
X34647979Y-25929521D01*
X34911746Y-26179375D01*
X35200981Y-26399245D01*
X35512292Y-26586555D01*
X35512294Y-26586556D01*
X35512296Y-26586557D01*
X35512300Y-26586559D01*
X35818272Y-26728116D01*
X35842031Y-26739108D01*
X36186330Y-26855116D01*
X36541153Y-26933218D01*
X36902341Y-26972500D01*
X36902347Y-26972500D01*
X37265653Y-26972500D01*
X37265659Y-26972500D01*
X37626847Y-26933218D01*
X37981670Y-26855116D01*
X38325969Y-26739108D01*
X38655708Y-26586555D01*
X38967019Y-26399245D01*
X39256254Y-26179375D01*
X39520021Y-25929521D01*
X39755227Y-25652614D01*
X39959117Y-25351900D01*
X40129298Y-25030905D01*
X40263775Y-24693391D01*
X40277347Y-24644511D01*
X40343527Y-24406151D01*
X40360973Y-24343316D01*
X40405708Y-24070443D01*
X40419749Y-23984799D01*
X40419751Y-23984782D01*
X40439421Y-23622002D01*
X40439421Y-23621997D01*
X40420112Y-23265878D01*
X40419751Y-23259215D01*
X40418850Y-23253722D01*
X40360975Y-22900696D01*
X40360974Y-22900695D01*
X40360973Y-22900684D01*
X40311223Y-22721500D01*
X40263778Y-22550618D01*
X40263773Y-22550603D01*
X40129299Y-22213098D01*
X40129298Y-22213095D01*
X39959117Y-21892100D01*
X39755227Y-21591386D01*
X39520021Y-21314479D01*
X39256254Y-21064625D01*
X39256244Y-21064617D01*
X39187635Y-21012462D01*
X38967019Y-20844755D01*
X38655708Y-20657445D01*
X38655707Y-20657444D01*
X38655703Y-20657442D01*
X38655699Y-20657440D01*
X38325979Y-20504896D01*
X38325974Y-20504894D01*
X38325969Y-20504892D01*
X38158143Y-20448344D01*
X37981669Y-20388883D01*
X37626845Y-20310781D01*
X37265660Y-20271500D01*
X37265659Y-20271500D01*
X36902341Y-20271500D01*
X36902339Y-20271500D01*
X36541154Y-20310781D01*
X36186330Y-20388883D01*
X35920178Y-20478560D01*
X35842031Y-20504892D01*
X35842028Y-20504893D01*
X35842020Y-20504896D01*
X35512300Y-20657440D01*
X35512296Y-20657442D01*
X35412056Y-20717755D01*
X35200981Y-20844755D01*
X35111332Y-20912903D01*
X34911755Y-21064617D01*
X34911745Y-21064625D01*
X34647978Y-21314479D01*
X34412772Y-21591386D01*
X34208884Y-21892098D01*
X34208878Y-21892107D01*
X34038706Y-22213086D01*
X34038700Y-22213098D01*
X33904226Y-22550603D01*
X33904221Y-22550618D01*
X33807030Y-22900670D01*
X33807024Y-22900696D01*
X33774366Y-23099904D01*
X33744095Y-23162876D01*
X33684585Y-23199485D01*
X33614729Y-23198109D01*
X33556706Y-23159184D01*
X33528938Y-23095069D01*
X33528000Y-23079843D01*
X33528000Y-19682000D01*
X33547685Y-19614961D01*
X33600489Y-19569206D01*
X33652000Y-19558000D01*
X100206000Y-19558000D01*
X100273039Y-19577685D01*
G37*
%TD.AperFunction*%
%TA.AperFunction,Conductor*%
G36*
X95514587Y-41285185D02*
G01*
X95535229Y-41301819D01*
X96158197Y-41924788D01*
X96168022Y-41937051D01*
X96168243Y-41936869D01*
X96173214Y-41942878D01*
X96188549Y-41957278D01*
X96223635Y-41990226D01*
X96244529Y-42011120D01*
X96250011Y-42015373D01*
X96254443Y-42019157D01*
X96288418Y-42051062D01*
X96305976Y-42060714D01*
X96322235Y-42071395D01*
X96338064Y-42083673D01*
X96380838Y-42102182D01*
X96386056Y-42104738D01*
X96426908Y-42127197D01*
X96446316Y-42132180D01*
X96464717Y-42138480D01*
X96483104Y-42146437D01*
X96526488Y-42153308D01*
X96529119Y-42153725D01*
X96534839Y-42154909D01*
X96579981Y-42166500D01*
X96600016Y-42166500D01*
X96619414Y-42168026D01*
X96639194Y-42171159D01*
X96639195Y-42171160D01*
X96639195Y-42171159D01*
X96639196Y-42171160D01*
X96685584Y-42166775D01*
X96691422Y-42166500D01*
X96695501Y-42166500D01*
X96762540Y-42186185D01*
X96808295Y-42238989D01*
X96819501Y-42290500D01*
X96819501Y-42337210D01*
X96825908Y-42396817D01*
X96876202Y-42531662D01*
X96876206Y-42531669D01*
X96962452Y-42646878D01*
X96962454Y-42646880D01*
X96968939Y-42651735D01*
X97010809Y-42707670D01*
X97015791Y-42777362D01*
X96982305Y-42838684D01*
X96968939Y-42850265D01*
X96962454Y-42855119D01*
X96962452Y-42855121D01*
X96876206Y-42970330D01*
X96876202Y-42970337D01*
X96825908Y-43105183D01*
X96819501Y-43164782D01*
X96819500Y-43164801D01*
X96819500Y-45107204D01*
X96819501Y-45107210D01*
X96825908Y-45166817D01*
X96876202Y-45301662D01*
X96876206Y-45301669D01*
X96962452Y-45416878D01*
X96962454Y-45416880D01*
X96968939Y-45421735D01*
X97010809Y-45477670D01*
X97015791Y-45547362D01*
X96982305Y-45608684D01*
X96968939Y-45620265D01*
X96962454Y-45625119D01*
X96962452Y-45625121D01*
X96876206Y-45740330D01*
X96876202Y-45740337D01*
X96851193Y-45807391D01*
X96809322Y-45863325D01*
X96743857Y-45887742D01*
X96675584Y-45872890D01*
X96647330Y-45851739D01*
X96512803Y-45717212D01*
X96502980Y-45704950D01*
X96502759Y-45705134D01*
X96497786Y-45699123D01*
X96482134Y-45684425D01*
X96447364Y-45651773D01*
X96435168Y-45639577D01*
X96426475Y-45630883D01*
X96420986Y-45626625D01*
X96416561Y-45622847D01*
X96382582Y-45590938D01*
X96382580Y-45590936D01*
X96382577Y-45590935D01*
X96365029Y-45581288D01*
X96348763Y-45570604D01*
X96332933Y-45558325D01*
X96290168Y-45539818D01*
X96284922Y-45537248D01*
X96244093Y-45514803D01*
X96244092Y-45514802D01*
X96224693Y-45509822D01*
X96206281Y-45503518D01*
X96187898Y-45495562D01*
X96187892Y-45495560D01*
X96141874Y-45488272D01*
X96136152Y-45487087D01*
X96091021Y-45475500D01*
X96091019Y-45475500D01*
X96070984Y-45475500D01*
X96051586Y-45473973D01*
X96044162Y-45472797D01*
X96031805Y-45470840D01*
X96031804Y-45470840D01*
X95985416Y-45475225D01*
X95979578Y-45475500D01*
X92608795Y-45475500D01*
X92541756Y-45455815D01*
X92496001Y-45403011D01*
X92486057Y-45333853D01*
X92507218Y-45280379D01*
X92614035Y-45127830D01*
X92713903Y-44913663D01*
X92775063Y-44685408D01*
X92795659Y-44450000D01*
X92775063Y-44214592D01*
X92713903Y-43986337D01*
X92614035Y-43772171D01*
X92605959Y-43760636D01*
X92478494Y-43578597D01*
X92311402Y-43411506D01*
X92311401Y-43411505D01*
X92125405Y-43281269D01*
X92081781Y-43226692D01*
X92074588Y-43157193D01*
X92106110Y-43094839D01*
X92125405Y-43078119D01*
X92311082Y-42948105D01*
X92478105Y-42781082D01*
X92613600Y-42587578D01*
X92713429Y-42373492D01*
X92713432Y-42373486D01*
X92770636Y-42160000D01*
X91873686Y-42160000D01*
X91899493Y-42119844D01*
X91940000Y-41981889D01*
X91940000Y-41838111D01*
X91899493Y-41700156D01*
X91873686Y-41660000D01*
X92770636Y-41660000D01*
X92770635Y-41659999D01*
X92713432Y-41446513D01*
X92713428Y-41446502D01*
X92711284Y-41441904D01*
X92700792Y-41372827D01*
X92729312Y-41309043D01*
X92787789Y-41270804D01*
X92823666Y-41265500D01*
X95447548Y-41265500D01*
X95514587Y-41285185D01*
G37*
%TD.AperFunction*%
%TA.AperFunction,Conductor*%
G36*
X94487703Y-32761739D02*
G01*
X94494177Y-32767767D01*
X94831264Y-33104855D01*
X95166197Y-33439788D01*
X95176022Y-33452051D01*
X95176243Y-33451869D01*
X95181214Y-33457878D01*
X95207217Y-33482295D01*
X95231635Y-33505226D01*
X95252529Y-33526120D01*
X95258011Y-33530373D01*
X95262443Y-33534157D01*
X95296418Y-33566062D01*
X95313976Y-33575714D01*
X95330235Y-33586395D01*
X95346064Y-33598673D01*
X95388838Y-33617182D01*
X95394056Y-33619738D01*
X95434908Y-33642197D01*
X95454316Y-33647180D01*
X95472717Y-33653480D01*
X95491104Y-33661437D01*
X95534488Y-33668308D01*
X95537119Y-33668725D01*
X95542839Y-33669909D01*
X95587981Y-33681500D01*
X95608016Y-33681500D01*
X95627414Y-33683026D01*
X95647194Y-33686159D01*
X95647195Y-33686160D01*
X95647195Y-33686159D01*
X95647196Y-33686160D01*
X95693584Y-33681775D01*
X95699422Y-33681500D01*
X96695501Y-33681500D01*
X96762540Y-33701185D01*
X96808295Y-33753989D01*
X96819501Y-33805500D01*
X96819501Y-34027210D01*
X96825908Y-34086817D01*
X96876202Y-34221662D01*
X96876206Y-34221669D01*
X96962452Y-34336878D01*
X96962454Y-34336880D01*
X96968939Y-34341735D01*
X97010809Y-34397670D01*
X97015791Y-34467362D01*
X96982305Y-34528684D01*
X96968939Y-34540265D01*
X96962454Y-34545119D01*
X96962452Y-34545121D01*
X96876206Y-34660330D01*
X96876202Y-34660337D01*
X96825908Y-34795183D01*
X96819501Y-34854782D01*
X96819500Y-34854801D01*
X96819500Y-35138969D01*
X96799815Y-35206008D01*
X96747011Y-35251763D01*
X96677853Y-35261707D01*
X96622616Y-35239288D01*
X96591733Y-35216851D01*
X96591729Y-35216848D01*
X96418807Y-35139857D01*
X96418802Y-35139855D01*
X96273001Y-35108865D01*
X96233646Y-35100500D01*
X96044354Y-35100500D01*
X96011897Y-35107398D01*
X95859197Y-35139855D01*
X95859192Y-35139857D01*
X95686270Y-35216848D01*
X95686265Y-35216851D01*
X95533129Y-35328111D01*
X95406466Y-35468785D01*
X95311821Y-35632715D01*
X95311818Y-35632722D01*
X95253327Y-35812740D01*
X95253326Y-35812744D01*
X95233540Y-36001000D01*
X95253326Y-36189256D01*
X95253327Y-36189259D01*
X95311818Y-36369277D01*
X95311821Y-36369284D01*
X95406467Y-36533216D01*
X95484918Y-36620344D01*
X95533129Y-36673888D01*
X95686265Y-36785148D01*
X95686270Y-36785151D01*
X95859192Y-36862142D01*
X95859197Y-36862144D01*
X96044354Y-36901500D01*
X96044355Y-36901500D01*
X96233644Y-36901500D01*
X96233646Y-36901500D01*
X96418803Y-36862144D01*
X96591730Y-36785151D01*
X96628516Y-36758424D01*
X96694320Y-36734944D01*
X96762374Y-36750769D01*
X96811070Y-36800874D01*
X96824691Y-36845488D01*
X96825908Y-36856817D01*
X96876202Y-36991662D01*
X96876206Y-36991669D01*
X96962452Y-37106878D01*
X96962453Y-37106879D01*
X96969356Y-37112047D01*
X97011226Y-37167981D01*
X97016209Y-37237673D01*
X96982722Y-37298995D01*
X96969357Y-37310577D01*
X96962809Y-37315479D01*
X96876649Y-37430572D01*
X96876645Y-37430579D01*
X96826403Y-37565286D01*
X96826401Y-37565293D01*
X96820000Y-37624821D01*
X96820000Y-38346000D01*
X99186000Y-38346000D01*
X99253039Y-38365685D01*
X99298794Y-38418489D01*
X99310000Y-38470000D01*
X99310000Y-38722000D01*
X99290315Y-38789039D01*
X99237511Y-38834794D01*
X99186000Y-38846000D01*
X96820000Y-38846000D01*
X96820000Y-39567178D01*
X96826401Y-39626706D01*
X96826403Y-39626713D01*
X96876645Y-39761420D01*
X96876649Y-39761427D01*
X96962809Y-39876521D01*
X96969352Y-39881419D01*
X97011224Y-39937352D01*
X97016210Y-40007044D01*
X96982725Y-40068367D01*
X96969360Y-40079949D01*
X96962456Y-40085117D01*
X96962452Y-40085121D01*
X96876206Y-40200330D01*
X96876202Y-40200337D01*
X96825908Y-40335183D01*
X96819501Y-40394782D01*
X96819500Y-40394801D01*
X96819500Y-40517547D01*
X96799815Y-40584586D01*
X96747011Y-40630341D01*
X96677853Y-40640285D01*
X96614297Y-40611260D01*
X96607819Y-40605228D01*
X96258803Y-40256212D01*
X96248980Y-40243950D01*
X96248759Y-40244134D01*
X96243786Y-40238123D01*
X96203546Y-40200335D01*
X96193364Y-40190773D01*
X96182919Y-40180328D01*
X96172475Y-40169883D01*
X96166986Y-40165625D01*
X96162561Y-40161847D01*
X96128582Y-40129938D01*
X96128580Y-40129936D01*
X96128577Y-40129935D01*
X96111029Y-40120288D01*
X96094763Y-40109604D01*
X96078933Y-40097325D01*
X96036168Y-40078818D01*
X96030922Y-40076248D01*
X95990093Y-40053803D01*
X95990092Y-40053802D01*
X95970693Y-40048822D01*
X95952281Y-40042518D01*
X95933898Y-40034562D01*
X95933892Y-40034560D01*
X95887874Y-40027272D01*
X95882152Y-40026087D01*
X95837021Y-40014500D01*
X95837019Y-40014500D01*
X95816984Y-40014500D01*
X95797586Y-40012973D01*
X95790162Y-40011797D01*
X95777805Y-40009840D01*
X95777804Y-40009840D01*
X95731416Y-40014225D01*
X95725578Y-40014500D01*
X93020453Y-40014500D01*
X92953414Y-39994815D01*
X92932772Y-39978181D01*
X92780237Y-39825646D01*
X92746752Y-39764323D01*
X92748142Y-39705876D01*
X92775063Y-39605408D01*
X92795659Y-39370000D01*
X92775063Y-39134592D01*
X92713903Y-38906337D01*
X92614035Y-38692171D01*
X92613649Y-38691619D01*
X92478494Y-38498597D01*
X92311402Y-38331506D01*
X92311396Y-38331501D01*
X92125842Y-38201575D01*
X92082217Y-38146998D01*
X92075023Y-38077500D01*
X92106546Y-38015145D01*
X92125842Y-37998425D01*
X92208637Y-37940451D01*
X92311401Y-37868495D01*
X92478495Y-37701401D01*
X92614035Y-37507830D01*
X92713903Y-37293663D01*
X92775063Y-37065408D01*
X92795659Y-36830000D01*
X92775063Y-36594592D01*
X92748143Y-36494125D01*
X92749806Y-36424276D01*
X92780235Y-36374353D01*
X94040787Y-35113802D01*
X94053042Y-35103986D01*
X94052859Y-35103764D01*
X94058866Y-35098792D01*
X94058877Y-35098786D01*
X94089775Y-35065882D01*
X94106227Y-35048364D01*
X94116671Y-35037918D01*
X94127120Y-35027471D01*
X94131379Y-35021978D01*
X94135152Y-35017561D01*
X94167062Y-34983582D01*
X94176713Y-34966024D01*
X94187396Y-34949761D01*
X94199673Y-34933936D01*
X94218185Y-34891153D01*
X94220738Y-34885941D01*
X94243197Y-34845092D01*
X94248180Y-34825680D01*
X94254481Y-34807280D01*
X94262437Y-34788896D01*
X94269729Y-34742852D01*
X94270906Y-34737171D01*
X94282500Y-34692019D01*
X94282500Y-34671983D01*
X94284027Y-34652582D01*
X94285522Y-34643144D01*
X94287160Y-34632804D01*
X94282775Y-34586415D01*
X94282500Y-34580577D01*
X94282500Y-32855452D01*
X94302185Y-32788413D01*
X94354989Y-32742658D01*
X94424147Y-32732714D01*
X94487703Y-32761739D01*
G37*
%TD.AperFunction*%
%TD*%
M02*
