%TF.GenerationSoftware,KiCad,Pcbnew,7.0.8*%
%TF.CreationDate,2026-01-30T16:34:37+01:00*%
%TF.ProjectId,taxanRGB,74617861-6e52-4474-922e-6b696361645f,rev?*%
%TF.SameCoordinates,Original*%
%TF.FileFunction,Copper,L2,Bot*%
%TF.FilePolarity,Positive*%
%FSLAX46Y46*%
G04 Gerber Fmt 4.6, Leading zero omitted, Abs format (unit mm)*
G04 Created by KiCad (PCBNEW 7.0.8) date 2026-01-30 16:34:37*
%MOMM*%
%LPD*%
G01*
G04 APERTURE LIST*
%TA.AperFunction,ComponentPad*%
%ADD10C,2.340000*%
%TD*%
%TA.AperFunction,SMDPad,CuDef*%
%ADD11R,3.480000X1.846667*%
%TD*%
%TA.AperFunction,ComponentPad*%
%ADD12C,1.600000*%
%TD*%
%TA.AperFunction,ComponentPad*%
%ADD13O,1.600000X1.600000*%
%TD*%
%TA.AperFunction,ComponentPad*%
%ADD14C,5.700000*%
%TD*%
%TA.AperFunction,ComponentPad*%
%ADD15R,1.500000X1.500000*%
%TD*%
%TA.AperFunction,ComponentPad*%
%ADD16O,1.500000X1.500000*%
%TD*%
%TA.AperFunction,ComponentPad*%
%ADD17R,1.700000X1.700000*%
%TD*%
%TA.AperFunction,ComponentPad*%
%ADD18O,1.700000X1.700000*%
%TD*%
%TA.AperFunction,ViaPad*%
%ADD19C,0.800000*%
%TD*%
%TA.AperFunction,Conductor*%
%ADD20C,0.250000*%
%TD*%
G04 APERTURE END LIST*
D10*
%TO.P,AB1,1,1*%
%TO.N,B*%
X65151000Y-22686000D03*
%TO.P,AB1,2,2*%
X67651000Y-32686000D03*
%TO.P,AB1,3,3*%
%TO.N,GNDB*%
X70151000Y-22686000D03*
%TD*%
%TO.P,AG1,1,1*%
%TO.N,G*%
X54182000Y-22686000D03*
%TO.P,AG1,2,2*%
X56682000Y-32686000D03*
%TO.P,AG1,3,3*%
%TO.N,GNDB*%
X59182000Y-22686000D03*
%TD*%
%TO.P,AR1,1,1*%
%TO.N,R*%
X43260000Y-22686000D03*
%TO.P,AR1,2,2*%
X45760000Y-32686000D03*
%TO.P,AR1,3,3*%
%TO.N,GNDB*%
X48260000Y-22686000D03*
%TD*%
D11*
%TO.P,J2,9,P9*%
%TO.N,B*%
X34925000Y-51746805D03*
%TO.P,J2,10,P10*%
%TO.N,unconnected-(J2-P10-Pad10)*%
X34925000Y-48976805D03*
%TO.P,J2,11,P111*%
%TO.N,unconnected-(J2-P111-Pad11)*%
X34925000Y-46206805D03*
%TO.P,J2,12,P12*%
%TO.N,unconnected-(J2-P12-Pad12)*%
X34925000Y-43436805D03*
%TO.P,J2,13,P13*%
%TO.N,GNDB*%
X34925000Y-40666805D03*
%TO.P,J2,14,P14*%
%TO.N,unconnected-(J2-P14-Pad14)*%
X34925000Y-37896805D03*
%TO.P,J2,15,P15*%
%TO.N,unconnected-(J2-P15-Pad15)*%
X34925000Y-35126805D03*
%TD*%
D12*
%TO.P,C1,1*%
%TO.N,Audio*%
X64222000Y-49784000D03*
%TO.P,C1,2*%
%TO.N,Net-(J5-Pin_1)*%
X59222000Y-49784000D03*
%TD*%
%TO.P,R1,1*%
%TO.N,+12V_T*%
X55372000Y-42291000D03*
D13*
%TO.P,R1,2*%
%TO.N,CR*%
X68072000Y-42291000D03*
%TD*%
D12*
%TO.P,R6,1*%
%TO.N,XRGB4*%
X87884000Y-43053000D03*
D13*
%TO.P,R6,2*%
%TO.N,G*%
X75184000Y-43053000D03*
%TD*%
D14*
%TO.P,REF\u002A\u002A,1*%
%TO.N,N/C*%
X96520000Y-23495000D03*
%TD*%
%TO.P,REF\u002A\u002A,1*%
%TO.N,N/C*%
X96520000Y-62230000D03*
%TD*%
D15*
%TO.P,D1,1,K*%
%TO.N,CR*%
X66802000Y-46736000D03*
D16*
%TO.P,D1,2,A*%
%TO.N,+12V_T*%
X56642000Y-46736000D03*
%TD*%
D11*
%TO.P,J1,15,15*%
%TO.N,+5V_T*%
X99060000Y-34441000D03*
%TO.P,J1,14,14*%
%TO.N,-12V_T*%
X99060000Y-37211000D03*
%TO.P,J1,13,13*%
%TO.N,GNDB*%
X99060000Y-39981000D03*
%TO.P,J1,12,12*%
%TO.N,unconnected-(J1-Pad12)*%
X99060000Y-42751000D03*
%TO.P,J1,11,11*%
%TO.N,unconnected-(J1-Pad11)*%
X99060000Y-45521000D03*
%TO.P,J1,10,10*%
%TO.N,XRGB8*%
X99060000Y-48291000D03*
%TO.P,J1,9,9*%
%TO.N,XRGB2*%
X99060000Y-51061000D03*
%TD*%
D12*
%TO.P,R3,1*%
%TO.N,XRGB1*%
X87884000Y-58293000D03*
D13*
%TO.P,R3,2*%
%TO.N,R*%
X75184000Y-58293000D03*
%TD*%
D12*
%TO.P,R5,1*%
%TO.N,XRGB8*%
X87884000Y-37639805D03*
D13*
%TO.P,R5,2*%
%TO.N,G*%
X75184000Y-37639805D03*
%TD*%
D12*
%TO.P,R10,1*%
%TO.N,Net-(J5-Pin_1)*%
X55499000Y-54483000D03*
D13*
%TO.P,R10,2*%
%TO.N,+5V_T*%
X68199000Y-54483000D03*
%TD*%
D17*
%TO.P,J5,1,Pin_1*%
%TO.N,Net-(J5-Pin_1)*%
X60325000Y-58928000D03*
D18*
%TO.P,J5,2,Pin_2*%
%TO.N,GNDB*%
X62865000Y-58928000D03*
%TD*%
D12*
%TO.P,R7,1*%
%TO.N,XRGB2*%
X87884000Y-27432000D03*
D13*
%TO.P,R7,2*%
%TO.N,B*%
X75184000Y-27432000D03*
%TD*%
D14*
%TO.P,REF\u002A\u002A,1*%
%TO.N,N/C*%
X37084000Y-23622000D03*
%TD*%
D17*
%TO.P,J3,1,Pin_1*%
%TO.N,CSYNC*%
X43942000Y-59944000D03*
D18*
%TO.P,J3,2,Pin_2*%
%TO.N,unconnected-(J3-Pin_2-Pad2)*%
X43942000Y-57404000D03*
%TO.P,J3,3,Pin_3*%
%TO.N,G*%
X43942000Y-54864000D03*
%TO.P,J3,4,Pin_4*%
%TO.N,R*%
X43942000Y-52324000D03*
%TO.P,J3,5,Pin_5*%
%TO.N,B*%
X43942000Y-49784000D03*
%TO.P,J3,6,Pin_6*%
%TO.N,GNDB*%
X43942000Y-47244000D03*
%TO.P,J3,7,Pin_7*%
%TO.N,CR*%
X43942000Y-44704000D03*
%TO.P,J3,8,Pin_8*%
%TO.N,+12V_T*%
X43942000Y-42164000D03*
%TO.P,J3,9,Pin_9*%
%TO.N,Audio*%
X43942000Y-39624000D03*
%TO.P,J3,10,Pin_10*%
%TO.N,unconnected-(J3-Pin_10-Pad10)*%
X43942000Y-37084000D03*
%TD*%
D12*
%TO.P,R4,1*%
%TO.N,XRGB8*%
X87884000Y-32559805D03*
D13*
%TO.P,R4,2*%
%TO.N,R*%
X75184000Y-32559805D03*
%TD*%
D12*
%TO.P,R9,1*%
%TO.N,XRGB4*%
X87884000Y-48133000D03*
D13*
%TO.P,R9,2*%
%TO.N,B*%
X75184000Y-48133000D03*
%TD*%
D17*
%TO.P,J4,1,Pin_1*%
%TO.N,+12V_T*%
X91440000Y-54610000D03*
D18*
%TO.P,J4,2,Pin_2*%
%TO.N,-12V_T*%
X91440000Y-52070000D03*
%TO.P,J4,3,Pin_3*%
%TO.N,-5V_T*%
X91440000Y-49530000D03*
%TO.P,J4,4,Pin_4*%
%TO.N,SyncTTLLS*%
X91440000Y-46990000D03*
%TO.P,J4,5,Pin_5*%
%TO.N,+5V_T*%
X91440000Y-44450000D03*
%TO.P,J4,6,Pin_6*%
%TO.N,GNDB*%
X91440000Y-41910000D03*
%TO.P,J4,7,Pin_7*%
%TO.N,XRGB1*%
X91440000Y-39370000D03*
%TO.P,J4,8,Pin_8*%
%TO.N,XRGB2*%
X91440000Y-36830000D03*
%TO.P,J4,9,Pin_9*%
%TO.N,XRGB4*%
X91440000Y-34290000D03*
%TO.P,J4,10,Pin_10*%
%TO.N,XRGB8*%
X91440000Y-31750000D03*
%TD*%
D12*
%TO.P,R2,1*%
%TO.N,SyncTTLLS*%
X87884000Y-63373000D03*
D13*
%TO.P,R2,2*%
%TO.N,CSYNC*%
X75184000Y-63373000D03*
%TD*%
D12*
%TO.P,R8,1*%
%TO.N,XRGB1*%
X87884000Y-53213000D03*
D13*
%TO.P,R8,2*%
%TO.N,B*%
X75184000Y-53213000D03*
%TD*%
D14*
%TO.P,REF\u002A\u002A,1*%
%TO.N,N/C*%
X36830000Y-62230000D03*
%TD*%
D19*
%TO.N,GNDB*%
X95504000Y-56515000D03*
X88392000Y-40132000D03*
X93218000Y-41910000D03*
%TO.N,+12V_T*%
X73406000Y-23622000D03*
%TO.N,XRGB4*%
X93599000Y-50800000D03*
%TO.N,GNDB*%
X96083219Y-39370000D03*
X93218000Y-39370000D03*
X38354000Y-40005000D03*
X34290000Y-55880000D03*
%TO.N,-5V_T*%
X95183219Y-47017000D03*
X96139000Y-36001000D03*
%TO.N,-12V_T*%
X96012000Y-47741500D03*
%TO.N,G*%
X46773500Y-54864000D03*
%TO.N,-5V_R*%
X47117000Y-40005000D03*
X40132000Y-36576000D03*
%TO.N,+12V_R*%
X40132000Y-33782000D03*
X47498000Y-34544000D03*
%TD*%
D20*
%TO.N,GNDB*%
X38354000Y-40005000D02*
X37692195Y-40666805D01*
X37692195Y-40666805D02*
X34925000Y-40666805D01*
%TO.N,+12V_T*%
X64516000Y-52578000D02*
X64643000Y-52578000D01*
X88900000Y-50292000D02*
X89662000Y-51054000D01*
X89662000Y-51054000D02*
X89662000Y-54102000D01*
X68707000Y-55626000D02*
X70855000Y-53478000D01*
X89662000Y-54102000D02*
X90170000Y-54610000D01*
X67691000Y-55626000D02*
X68707000Y-55626000D01*
X64643000Y-52578000D02*
X67691000Y-55626000D01*
X70855000Y-53478000D02*
X72760000Y-53478000D01*
X90170000Y-54610000D02*
X91440000Y-54610000D01*
X72760000Y-53478000D02*
X75946000Y-50292000D01*
X75946000Y-50292000D02*
X88900000Y-50292000D01*
%TO.N,R*%
X43942000Y-52324000D02*
X46032000Y-50234000D01*
X64456604Y-53028000D02*
X69721604Y-58293000D01*
X46032000Y-50234000D02*
X48201701Y-50234000D01*
X48201701Y-50234000D02*
X50556701Y-47879000D01*
X63442000Y-53028000D02*
X64456604Y-53028000D01*
X50556701Y-47879000D02*
X59179208Y-47879000D01*
X59179208Y-47879000D02*
X60568000Y-49267792D01*
X60568000Y-49267792D02*
X60568000Y-50154000D01*
X60568000Y-50154000D02*
X63442000Y-53028000D01*
X69721604Y-58293000D02*
X75184000Y-58293000D01*
%TO.N,+12V_T*%
X58672604Y-46736000D02*
X61018000Y-49081396D01*
X61018000Y-49081396D02*
X61018000Y-49967604D01*
X63628396Y-52578000D02*
X72264396Y-52578000D01*
X56642000Y-46736000D02*
X58672604Y-46736000D01*
X72264396Y-52578000D02*
X73406000Y-51436396D01*
X61018000Y-49967604D02*
X63628396Y-52578000D01*
X73406000Y-51436396D02*
X73406000Y-23622000D01*
%TO.N,B*%
X67651000Y-32686000D02*
X72956000Y-37991000D01*
X63814792Y-52128000D02*
X61468000Y-49781208D01*
X54298000Y-47429000D02*
X50370305Y-47429000D01*
X72956000Y-51250000D02*
X72078000Y-52128000D01*
X72078000Y-52128000D02*
X63814792Y-52128000D01*
X72956000Y-37991000D02*
X72956000Y-51250000D01*
X61468000Y-49781208D02*
X61468000Y-48895000D01*
X58166000Y-45593000D02*
X56134000Y-45593000D01*
X56134000Y-45593000D02*
X54298000Y-47429000D01*
X50370305Y-47429000D02*
X48015305Y-49784000D01*
X61468000Y-48895000D02*
X58166000Y-45593000D01*
X48015305Y-49784000D02*
X43942000Y-49784000D01*
%TO.N,-5V_R*%
X46228000Y-40005000D02*
X45212000Y-41021000D01*
X45212000Y-41021000D02*
X45212000Y-42676527D01*
X45212000Y-42676527D02*
X44454527Y-43434000D01*
X44454527Y-43434000D02*
X42543604Y-43434000D01*
X47117000Y-40005000D02*
X46228000Y-40005000D01*
X42543604Y-43434000D02*
X40132000Y-41022396D01*
X40132000Y-41022396D02*
X40132000Y-36576000D01*
%TO.N,Audio*%
X43942000Y-39624000D02*
X44831000Y-38735000D01*
X44831000Y-38735000D02*
X47244000Y-38735000D01*
X47244000Y-38735000D02*
X49132000Y-40623000D01*
X68182000Y-40623000D02*
X69342000Y-41783000D01*
X49132000Y-40623000D02*
X68182000Y-40623000D01*
X69342000Y-41783000D02*
X69342000Y-46482000D01*
X69342000Y-46482000D02*
X66040000Y-49784000D01*
X66040000Y-49784000D02*
X64222000Y-49784000D01*
%TO.N,CR*%
X44069000Y-44704000D02*
X45720000Y-43053000D01*
X45720000Y-41529000D02*
X46176000Y-41073000D01*
X46176000Y-41073000D02*
X66854000Y-41073000D01*
X45720000Y-43053000D02*
X45720000Y-41529000D01*
X43942000Y-44704000D02*
X44069000Y-44704000D01*
X66854000Y-41073000D02*
X68072000Y-42291000D01*
%TO.N,+12V_T*%
X73406000Y-23622000D02*
X73406000Y-22987000D01*
X73406000Y-22987000D02*
X71501000Y-21082000D01*
X51054000Y-33528000D02*
X49276000Y-35306000D01*
X51561515Y-21082000D02*
X51054000Y-21589515D01*
X49276000Y-35306000D02*
X43180000Y-35306000D01*
X51054000Y-21589515D02*
X51054000Y-33528000D01*
X71501000Y-21082000D02*
X51561515Y-21082000D01*
X43180000Y-35306000D02*
X42545000Y-35941000D01*
X42545000Y-35941000D02*
X42545000Y-40767000D01*
X42545000Y-40767000D02*
X43942000Y-42164000D01*
%TO.N,XRGB2*%
X90678000Y-36068000D02*
X87058500Y-36068000D01*
X87058500Y-36068000D02*
X86614000Y-36512500D01*
X86614000Y-41021000D02*
X87376000Y-41783000D01*
X96829000Y-51236000D02*
X98955500Y-51236000D01*
X87376000Y-41783000D02*
X88265000Y-41783000D01*
X91440000Y-36830000D02*
X90678000Y-36068000D01*
X94008719Y-44224719D02*
X94008719Y-47782115D01*
X86614000Y-36512500D02*
X86614000Y-41021000D01*
X88265000Y-41783000D02*
X89662000Y-43180000D01*
X96160000Y-48916000D02*
X96520000Y-49276000D01*
X89662000Y-43180000D02*
X92964000Y-43180000D01*
X92964000Y-43180000D02*
X94008719Y-44224719D01*
X94008719Y-47782115D02*
X95142604Y-48916000D01*
X95142604Y-48916000D02*
X96160000Y-48916000D01*
X96520000Y-49276000D02*
X96520000Y-50927000D01*
X96520000Y-50927000D02*
X96829000Y-51236000D01*
%TO.N,XRGB1*%
X87884000Y-58293000D02*
X87884000Y-53213000D01*
%TO.N,+5V_T*%
X98955500Y-34616000D02*
X95559000Y-34616000D01*
X86868000Y-35560000D02*
X86164000Y-36264000D01*
X86164000Y-36264000D02*
X86164000Y-43873000D01*
X94615000Y-35560000D02*
X86868000Y-35560000D01*
X95559000Y-34616000D02*
X94615000Y-35560000D01*
X86164000Y-43873000D02*
X86741000Y-44450000D01*
X86741000Y-44450000D02*
X91440000Y-44450000D01*
X91440000Y-44450000D02*
X89027000Y-46863000D01*
X72573604Y-53028000D02*
X69654000Y-53028000D01*
X89027000Y-46863000D02*
X87249000Y-46863000D01*
X87249000Y-46863000D02*
X84328000Y-49784000D01*
X69654000Y-53028000D02*
X68199000Y-54483000D01*
X84328000Y-49784000D02*
X75817604Y-49784000D01*
X75817604Y-49784000D02*
X72573604Y-53028000D01*
%TO.N,-5V_T*%
X95250000Y-46355000D02*
X95250000Y-46950219D01*
X94908719Y-46013719D02*
X95250000Y-46355000D01*
X96139000Y-36001000D02*
X94908719Y-37231281D01*
X94908719Y-37231281D02*
X94908719Y-46013719D01*
X95250000Y-46950219D02*
X95183219Y-47017000D01*
%TO.N,GNDB*%
X92964000Y-40640000D02*
X91567000Y-40640000D01*
X93218000Y-39370000D02*
X93218000Y-40386000D01*
X93218000Y-40386000D02*
X92964000Y-40640000D01*
X96083219Y-39370000D02*
X96139000Y-39370000D01*
X96750000Y-39981000D02*
X99060000Y-39981000D01*
X96139000Y-39370000D02*
X96750000Y-39981000D01*
X91567000Y-40640000D02*
X91440000Y-40767000D01*
X91440000Y-40767000D02*
X91440000Y-41910000D01*
%TO.N,-12V_T*%
X96012000Y-47741500D02*
X96012000Y-46228000D01*
X96012000Y-46228000D02*
X95358719Y-45574719D01*
X95358719Y-45574719D02*
X95358719Y-38245281D01*
X95358719Y-38245281D02*
X96393000Y-37211000D01*
X96393000Y-37211000D02*
X99060000Y-37211000D01*
%TO.N,XRGB4*%
X90551000Y-50800000D02*
X87884000Y-48133000D01*
X93599000Y-50800000D02*
X90551000Y-50800000D01*
%TO.N,XRGB8*%
X89970688Y-38100000D02*
X89510493Y-37639805D01*
X98955500Y-48466000D02*
X95329000Y-48466000D01*
X93853000Y-38100000D02*
X89970688Y-38100000D01*
X94458719Y-47595719D02*
X94458719Y-38705719D01*
X95329000Y-48466000D02*
X94458719Y-47595719D01*
X94458719Y-38705719D02*
X93853000Y-38100000D01*
X89510493Y-37639805D02*
X87884000Y-37639805D01*
%TO.N,R*%
X73856000Y-24197305D02*
X73856000Y-31231805D01*
X45212000Y-20574000D02*
X71629396Y-20574000D01*
X43220000Y-22512000D02*
X43274000Y-22512000D01*
X71629396Y-20574000D02*
X74131000Y-23075604D01*
X74131000Y-23922305D02*
X73856000Y-24197305D01*
X43274000Y-22512000D02*
X45212000Y-20574000D01*
X73856000Y-31231805D02*
X75184000Y-32559805D01*
X74131000Y-23075604D02*
X74131000Y-23922305D01*
%TO.N,G*%
X54610000Y-23495000D02*
X53340000Y-22225000D01*
X46773500Y-54864000D02*
X43942000Y-54864000D01*
%TO.N,+12V_R*%
X47498000Y-34544000D02*
X40894000Y-34544000D01*
X40894000Y-34544000D02*
X40132000Y-33782000D01*
%TO.N,B*%
X43942000Y-49784000D02*
X41402000Y-49784000D01*
X39439195Y-51746805D02*
X34925000Y-51746805D01*
X67651000Y-32686000D02*
X65151000Y-30186000D01*
X41402000Y-49784000D02*
X39439195Y-51746805D01*
X65151000Y-22686000D02*
X65151000Y-30186000D01*
%TD*%
%TA.AperFunction,Conductor*%
%TO.N,GNDB*%
G36*
X92944733Y-44054967D02*
G01*
X92978233Y-44078823D01*
X93346900Y-44447490D01*
X93380385Y-44508813D01*
X93383219Y-44535171D01*
X93383219Y-47699370D01*
X93381494Y-47714987D01*
X93381780Y-47715014D01*
X93381045Y-47722780D01*
X93383219Y-47791929D01*
X93383219Y-47821458D01*
X93383220Y-47821475D01*
X93384087Y-47828346D01*
X93384545Y-47834165D01*
X93386009Y-47880739D01*
X93386010Y-47880742D01*
X93391599Y-47899982D01*
X93395543Y-47919026D01*
X93398055Y-47938907D01*
X93415209Y-47982234D01*
X93417101Y-47987762D01*
X93430100Y-48032503D01*
X93440299Y-48049749D01*
X93448857Y-48067218D01*
X93456233Y-48085847D01*
X93483617Y-48123538D01*
X93486825Y-48128422D01*
X93510546Y-48168531D01*
X93510552Y-48168539D01*
X93524709Y-48182695D01*
X93537347Y-48197491D01*
X93549124Y-48213701D01*
X93549125Y-48213702D01*
X93585028Y-48243403D01*
X93589339Y-48247325D01*
X94119158Y-48777144D01*
X94641798Y-49299784D01*
X94651623Y-49312048D01*
X94651844Y-49311866D01*
X94656814Y-49317873D01*
X94656817Y-49317876D01*
X94656818Y-49317877D01*
X94707255Y-49365241D01*
X94728134Y-49386120D01*
X94733608Y-49390366D01*
X94738046Y-49394156D01*
X94772022Y-49426062D01*
X94772026Y-49426064D01*
X94789577Y-49435713D01*
X94805835Y-49446392D01*
X94821668Y-49458674D01*
X94843619Y-49468172D01*
X94864441Y-49477183D01*
X94869685Y-49479752D01*
X94910512Y-49502197D01*
X94929916Y-49507179D01*
X94948314Y-49513478D01*
X94966709Y-49521438D01*
X95012733Y-49528726D01*
X95018436Y-49529907D01*
X95063585Y-49541500D01*
X95083620Y-49541500D01*
X95103017Y-49543026D01*
X95122800Y-49546160D01*
X95169188Y-49541775D01*
X95175026Y-49541500D01*
X95770500Y-49541500D01*
X95837539Y-49561185D01*
X95883294Y-49613989D01*
X95894500Y-49665500D01*
X95894500Y-50844255D01*
X95892775Y-50859872D01*
X95893061Y-50859899D01*
X95892326Y-50867665D01*
X95894500Y-50936814D01*
X95894500Y-50966355D01*
X95895367Y-50973213D01*
X95895826Y-50979040D01*
X95897290Y-51025624D01*
X95897291Y-51025627D01*
X95902880Y-51044867D01*
X95906824Y-51063911D01*
X95909336Y-51083792D01*
X95923066Y-51118471D01*
X95926490Y-51127119D01*
X95928382Y-51132647D01*
X95941381Y-51177388D01*
X95951580Y-51194634D01*
X95960138Y-51212103D01*
X95967514Y-51230732D01*
X95994898Y-51268423D01*
X95998106Y-51273307D01*
X96021827Y-51313416D01*
X96021833Y-51313424D01*
X96035990Y-51327580D01*
X96048628Y-51342376D01*
X96060405Y-51358586D01*
X96060406Y-51358587D01*
X96096308Y-51388287D01*
X96100619Y-51392209D01*
X96241239Y-51532829D01*
X96328194Y-51619784D01*
X96338017Y-51632045D01*
X96338239Y-51631863D01*
X96343212Y-51637875D01*
X96393637Y-51685228D01*
X96414523Y-51706115D01*
X96414527Y-51706118D01*
X96414529Y-51706120D01*
X96420011Y-51710373D01*
X96424443Y-51714157D01*
X96458418Y-51746062D01*
X96475976Y-51755714D01*
X96492233Y-51766393D01*
X96508064Y-51778673D01*
X96527737Y-51787186D01*
X96550833Y-51797182D01*
X96556077Y-51799750D01*
X96596908Y-51822197D01*
X96609523Y-51825435D01*
X96616305Y-51827177D01*
X96634719Y-51833481D01*
X96653104Y-51841438D01*
X96699157Y-51848732D01*
X96704826Y-51849906D01*
X96726342Y-51855430D01*
X96786377Y-51891169D01*
X96817562Y-51953693D01*
X96819500Y-51975531D01*
X96819500Y-52032203D01*
X96819501Y-52032210D01*
X96825908Y-52091817D01*
X96876202Y-52226662D01*
X96876206Y-52226669D01*
X96962452Y-52341878D01*
X96962455Y-52341881D01*
X97077664Y-52428127D01*
X97077671Y-52428131D01*
X97212517Y-52478425D01*
X97212516Y-52478425D01*
X97219444Y-52479169D01*
X97272127Y-52484834D01*
X100206000Y-52484833D01*
X100273039Y-52504518D01*
X100318794Y-52557321D01*
X100330000Y-52608833D01*
X100330000Y-65662470D01*
X100310315Y-65729509D01*
X100257511Y-65775264D01*
X100206471Y-65786469D01*
X96982591Y-65798727D01*
X96915478Y-65779298D01*
X96869522Y-65726668D01*
X96859316Y-65657548D01*
X96888099Y-65593882D01*
X96946733Y-65555885D01*
X96968706Y-65551456D01*
X97062847Y-65541218D01*
X97417670Y-65463116D01*
X97761969Y-65347108D01*
X98091708Y-65194555D01*
X98403019Y-65007245D01*
X98692254Y-64787375D01*
X98956021Y-64537521D01*
X99191227Y-64260614D01*
X99395117Y-63959900D01*
X99565298Y-63638905D01*
X99699775Y-63301391D01*
X99796973Y-62951316D01*
X99815063Y-62840967D01*
X99855749Y-62592799D01*
X99855751Y-62592782D01*
X99875421Y-62230002D01*
X99875421Y-62229997D01*
X99855751Y-61867217D01*
X99855749Y-61867200D01*
X99796975Y-61508696D01*
X99796974Y-61508695D01*
X99796973Y-61508684D01*
X99737505Y-61294499D01*
X99699778Y-61158618D01*
X99699773Y-61158603D01*
X99582807Y-60865039D01*
X99565298Y-60821095D01*
X99395117Y-60500100D01*
X99191227Y-60199386D01*
X98956021Y-59922479D01*
X98692254Y-59672625D01*
X98692244Y-59672617D01*
X98594702Y-59598468D01*
X98403019Y-59452755D01*
X98091708Y-59265445D01*
X98091707Y-59265444D01*
X98091703Y-59265442D01*
X98091699Y-59265440D01*
X97761979Y-59112896D01*
X97761974Y-59112894D01*
X97761969Y-59112892D01*
X97563806Y-59046123D01*
X97417669Y-58996883D01*
X97062845Y-58918781D01*
X96701660Y-58879500D01*
X96701659Y-58879500D01*
X96338341Y-58879500D01*
X96338339Y-58879500D01*
X95977154Y-58918781D01*
X95622330Y-58996883D01*
X95356178Y-59086560D01*
X95278031Y-59112892D01*
X95278028Y-59112893D01*
X95278020Y-59112896D01*
X94948300Y-59265440D01*
X94948296Y-59265442D01*
X94738811Y-59391486D01*
X94636981Y-59452755D01*
X94548866Y-59519738D01*
X94347755Y-59672617D01*
X94347745Y-59672625D01*
X94083978Y-59922479D01*
X93848772Y-60199386D01*
X93644884Y-60500098D01*
X93644878Y-60500107D01*
X93474706Y-60821086D01*
X93474700Y-60821098D01*
X93340226Y-61158603D01*
X93340221Y-61158618D01*
X93243030Y-61508670D01*
X93243024Y-61508696D01*
X93184250Y-61867200D01*
X93184248Y-61867217D01*
X93164579Y-62229997D01*
X93164579Y-62230002D01*
X93184248Y-62592782D01*
X93184250Y-62592799D01*
X93243024Y-62951303D01*
X93243030Y-62951329D01*
X93340221Y-63301381D01*
X93340226Y-63301396D01*
X93474700Y-63638901D01*
X93474706Y-63638913D01*
X93644878Y-63959892D01*
X93644881Y-63959897D01*
X93644883Y-63959900D01*
X93848773Y-64260614D01*
X94083979Y-64537521D01*
X94347746Y-64787375D01*
X94636981Y-65007245D01*
X94948292Y-65194555D01*
X94948294Y-65194556D01*
X94948296Y-65194557D01*
X94948300Y-65194559D01*
X95278020Y-65347103D01*
X95278031Y-65347108D01*
X95622330Y-65463116D01*
X95977153Y-65541218D01*
X96102507Y-65554851D01*
X96167025Y-65581668D01*
X96206802Y-65639110D01*
X96209210Y-65708938D01*
X96173484Y-65768983D01*
X96110967Y-65800181D01*
X96089571Y-65802123D01*
X33652471Y-66039526D01*
X33585358Y-66020097D01*
X33539402Y-65967467D01*
X33528000Y-65915527D01*
X33528000Y-63640857D01*
X33547685Y-63573818D01*
X33600489Y-63528063D01*
X33669647Y-63518119D01*
X33733203Y-63547144D01*
X33767193Y-63594961D01*
X33784697Y-63638895D01*
X33784706Y-63638913D01*
X33954878Y-63959892D01*
X33954881Y-63959897D01*
X33954883Y-63959900D01*
X34158773Y-64260614D01*
X34393979Y-64537521D01*
X34657746Y-64787375D01*
X34946981Y-65007245D01*
X35258292Y-65194555D01*
X35258294Y-65194556D01*
X35258296Y-65194557D01*
X35258300Y-65194559D01*
X35588020Y-65347103D01*
X35588031Y-65347108D01*
X35932330Y-65463116D01*
X36287153Y-65541218D01*
X36648341Y-65580500D01*
X36648347Y-65580500D01*
X37011653Y-65580500D01*
X37011659Y-65580500D01*
X37372847Y-65541218D01*
X37727670Y-65463116D01*
X38071969Y-65347108D01*
X38401708Y-65194555D01*
X38713019Y-65007245D01*
X39002254Y-64787375D01*
X39266021Y-64537521D01*
X39501227Y-64260614D01*
X39705117Y-63959900D01*
X39875298Y-63638905D01*
X39981243Y-63373001D01*
X73878532Y-63373001D01*
X73898364Y-63599686D01*
X73898366Y-63599697D01*
X73957258Y-63819488D01*
X73957261Y-63819497D01*
X74053431Y-64025732D01*
X74053432Y-64025734D01*
X74183954Y-64212141D01*
X74344858Y-64373045D01*
X74344861Y-64373047D01*
X74531266Y-64503568D01*
X74737504Y-64599739D01*
X74957308Y-64658635D01*
X75119230Y-64672801D01*
X75183998Y-64678468D01*
X75184000Y-64678468D01*
X75184002Y-64678468D01*
X75240673Y-64673509D01*
X75410692Y-64658635D01*
X75630496Y-64599739D01*
X75836734Y-64503568D01*
X76023139Y-64373047D01*
X76184047Y-64212139D01*
X76314568Y-64025734D01*
X76410739Y-63819496D01*
X76469635Y-63599692D01*
X76489468Y-63373001D01*
X86578532Y-63373001D01*
X86598364Y-63599686D01*
X86598366Y-63599697D01*
X86657258Y-63819488D01*
X86657261Y-63819497D01*
X86753431Y-64025732D01*
X86753432Y-64025734D01*
X86883954Y-64212141D01*
X87044858Y-64373045D01*
X87044861Y-64373047D01*
X87231266Y-64503568D01*
X87437504Y-64599739D01*
X87657308Y-64658635D01*
X87819230Y-64672801D01*
X87883998Y-64678468D01*
X87884000Y-64678468D01*
X87884002Y-64678468D01*
X87940673Y-64673509D01*
X88110692Y-64658635D01*
X88330496Y-64599739D01*
X88536734Y-64503568D01*
X88723139Y-64373047D01*
X88884047Y-64212139D01*
X89014568Y-64025734D01*
X89110739Y-63819496D01*
X89169635Y-63599692D01*
X89189468Y-63373000D01*
X89169635Y-63146308D01*
X89110739Y-62926504D01*
X89014568Y-62720266D01*
X88884047Y-62533861D01*
X88884045Y-62533858D01*
X88723141Y-62372954D01*
X88536734Y-62242432D01*
X88536732Y-62242431D01*
X88330497Y-62146261D01*
X88330488Y-62146258D01*
X88110697Y-62087366D01*
X88110693Y-62087365D01*
X88110692Y-62087365D01*
X88110691Y-62087364D01*
X88110686Y-62087364D01*
X87884002Y-62067532D01*
X87883998Y-62067532D01*
X87657313Y-62087364D01*
X87657302Y-62087366D01*
X87437511Y-62146258D01*
X87437502Y-62146261D01*
X87231267Y-62242431D01*
X87231265Y-62242432D01*
X87044858Y-62372954D01*
X86883954Y-62533858D01*
X86753432Y-62720265D01*
X86753431Y-62720267D01*
X86657261Y-62926502D01*
X86657258Y-62926511D01*
X86598366Y-63146302D01*
X86598364Y-63146313D01*
X86578532Y-63372998D01*
X86578532Y-63373001D01*
X76489468Y-63373001D01*
X76489468Y-63373000D01*
X76469635Y-63146308D01*
X76410739Y-62926504D01*
X76314568Y-62720266D01*
X76184047Y-62533861D01*
X76184045Y-62533858D01*
X76023141Y-62372954D01*
X75836734Y-62242432D01*
X75836732Y-62242431D01*
X75630497Y-62146261D01*
X75630488Y-62146258D01*
X75410697Y-62087366D01*
X75410693Y-62087365D01*
X75410692Y-62087365D01*
X75410691Y-62087364D01*
X75410686Y-62087364D01*
X75184002Y-62067532D01*
X75183998Y-62067532D01*
X74957313Y-62087364D01*
X74957302Y-62087366D01*
X74737511Y-62146258D01*
X74737502Y-62146261D01*
X74531267Y-62242431D01*
X74531265Y-62242432D01*
X74344858Y-62372954D01*
X74183954Y-62533858D01*
X74053432Y-62720265D01*
X74053431Y-62720267D01*
X73957261Y-62926502D01*
X73957258Y-62926511D01*
X73898366Y-63146302D01*
X73898364Y-63146313D01*
X73878532Y-63372998D01*
X73878532Y-63373001D01*
X39981243Y-63373001D01*
X40009775Y-63301391D01*
X40106973Y-62951316D01*
X40125063Y-62840967D01*
X40165749Y-62592799D01*
X40165751Y-62592782D01*
X40185421Y-62230002D01*
X40185421Y-62229997D01*
X40165751Y-61867217D01*
X40165749Y-61867200D01*
X40106975Y-61508696D01*
X40106974Y-61508695D01*
X40106973Y-61508684D01*
X40047505Y-61294499D01*
X40009778Y-61158618D01*
X40009773Y-61158603D01*
X39892807Y-60865039D01*
X39875298Y-60821095D01*
X39705117Y-60500100D01*
X39501227Y-60199386D01*
X39266021Y-59922479D01*
X39002254Y-59672625D01*
X39002244Y-59672617D01*
X38904702Y-59598468D01*
X38713019Y-59452755D01*
X38401708Y-59265445D01*
X38401707Y-59265444D01*
X38401703Y-59265442D01*
X38401699Y-59265440D01*
X38071979Y-59112896D01*
X38071974Y-59112894D01*
X38071969Y-59112892D01*
X37873806Y-59046123D01*
X37727669Y-58996883D01*
X37372845Y-58918781D01*
X37011660Y-58879500D01*
X37011659Y-58879500D01*
X36648341Y-58879500D01*
X36648339Y-58879500D01*
X36287154Y-58918781D01*
X35932330Y-58996883D01*
X35666178Y-59086560D01*
X35588031Y-59112892D01*
X35588028Y-59112893D01*
X35588020Y-59112896D01*
X35258300Y-59265440D01*
X35258296Y-59265442D01*
X35048811Y-59391486D01*
X34946981Y-59452755D01*
X34858866Y-59519738D01*
X34657755Y-59672617D01*
X34657745Y-59672625D01*
X34393978Y-59922479D01*
X34158772Y-60199386D01*
X33954884Y-60500098D01*
X33954878Y-60500107D01*
X33784706Y-60821086D01*
X33784700Y-60821098D01*
X33767193Y-60865039D01*
X33724093Y-60920031D01*
X33658103Y-60942992D01*
X33590176Y-60926631D01*
X33541878Y-60876143D01*
X33528000Y-60819142D01*
X33528000Y-53294638D01*
X33547685Y-53227599D01*
X33600489Y-53181844D01*
X33651996Y-53170638D01*
X36712872Y-53170638D01*
X36772483Y-53164230D01*
X36907331Y-53113935D01*
X37022546Y-53027685D01*
X37108796Y-52912470D01*
X37159091Y-52777622D01*
X37165500Y-52718012D01*
X37165500Y-52496305D01*
X37185185Y-52429266D01*
X37237989Y-52383511D01*
X37289500Y-52372305D01*
X39356452Y-52372305D01*
X39372072Y-52374029D01*
X39372099Y-52373744D01*
X39379855Y-52374476D01*
X39379862Y-52374478D01*
X39449009Y-52372305D01*
X39478545Y-52372305D01*
X39485423Y-52371435D01*
X39491236Y-52370977D01*
X39537822Y-52369514D01*
X39557064Y-52363922D01*
X39576107Y-52359979D01*
X39595987Y-52357469D01*
X39639317Y-52340312D01*
X39644841Y-52338422D01*
X39648591Y-52337332D01*
X39689585Y-52325423D01*
X39706824Y-52315227D01*
X39724298Y-52306667D01*
X39742922Y-52299293D01*
X39742922Y-52299292D01*
X39742927Y-52299291D01*
X39780644Y-52271887D01*
X39785500Y-52268697D01*
X39825615Y-52244975D01*
X39839784Y-52230804D01*
X39854574Y-52218173D01*
X39870782Y-52206399D01*
X39900494Y-52170481D01*
X39904407Y-52166181D01*
X41624772Y-50445819D01*
X41686095Y-50412334D01*
X41712453Y-50409500D01*
X42666773Y-50409500D01*
X42733812Y-50429185D01*
X42768348Y-50462377D01*
X42903501Y-50655396D01*
X42903506Y-50655402D01*
X43070597Y-50822493D01*
X43070603Y-50822498D01*
X43256158Y-50952425D01*
X43299783Y-51007002D01*
X43306977Y-51076500D01*
X43275454Y-51138855D01*
X43256158Y-51155575D01*
X43070597Y-51285505D01*
X42903505Y-51452597D01*
X42767965Y-51646169D01*
X42767964Y-51646171D01*
X42668098Y-51860335D01*
X42668094Y-51860344D01*
X42606938Y-52088586D01*
X42606936Y-52088596D01*
X42586341Y-52323999D01*
X42586341Y-52324000D01*
X42606936Y-52559403D01*
X42606938Y-52559413D01*
X42668094Y-52787655D01*
X42668096Y-52787659D01*
X42668097Y-52787663D01*
X42760724Y-52986302D01*
X42767965Y-53001830D01*
X42767967Y-53001834D01*
X42876281Y-53156521D01*
X42886166Y-53170639D01*
X42903501Y-53195395D01*
X42903506Y-53195402D01*
X43070597Y-53362493D01*
X43070603Y-53362498D01*
X43256158Y-53492425D01*
X43299783Y-53547002D01*
X43306977Y-53616500D01*
X43275454Y-53678855D01*
X43256158Y-53695575D01*
X43070597Y-53825505D01*
X42903505Y-53992597D01*
X42767965Y-54186169D01*
X42767964Y-54186171D01*
X42668098Y-54400335D01*
X42668094Y-54400344D01*
X42606938Y-54628586D01*
X42606936Y-54628596D01*
X42586341Y-54863999D01*
X42586341Y-54864000D01*
X42606936Y-55099403D01*
X42606938Y-55099413D01*
X42668094Y-55327655D01*
X42668096Y-55327659D01*
X42668097Y-55327663D01*
X42672103Y-55336253D01*
X42767965Y-55541830D01*
X42767967Y-55541834D01*
X42842412Y-55648151D01*
X42903501Y-55735396D01*
X42903506Y-55735402D01*
X43070597Y-55902493D01*
X43070603Y-55902498D01*
X43256158Y-56032425D01*
X43299783Y-56087002D01*
X43306977Y-56156500D01*
X43275454Y-56218855D01*
X43256158Y-56235575D01*
X43070597Y-56365505D01*
X42903505Y-56532597D01*
X42767965Y-56726169D01*
X42767964Y-56726171D01*
X42668098Y-56940335D01*
X42668094Y-56940344D01*
X42606938Y-57168586D01*
X42606936Y-57168596D01*
X42586341Y-57403999D01*
X42586341Y-57404000D01*
X42606936Y-57639403D01*
X42606938Y-57639413D01*
X42668094Y-57867655D01*
X42668096Y-57867659D01*
X42668097Y-57867663D01*
X42743856Y-58030128D01*
X42767965Y-58081830D01*
X42767967Y-58081834D01*
X42876281Y-58236521D01*
X42903501Y-58275396D01*
X42903506Y-58275402D01*
X43025430Y-58397326D01*
X43058915Y-58458649D01*
X43053931Y-58528341D01*
X43012059Y-58584274D01*
X42981083Y-58601189D01*
X42849669Y-58650203D01*
X42849664Y-58650206D01*
X42734455Y-58736452D01*
X42734452Y-58736455D01*
X42648206Y-58851664D01*
X42648202Y-58851671D01*
X42597908Y-58986517D01*
X42591501Y-59046116D01*
X42591501Y-59046123D01*
X42591500Y-59046135D01*
X42591500Y-60841870D01*
X42591501Y-60841876D01*
X42597908Y-60901483D01*
X42648202Y-61036328D01*
X42648206Y-61036335D01*
X42734452Y-61151544D01*
X42734455Y-61151547D01*
X42849664Y-61237793D01*
X42849671Y-61237797D01*
X42984517Y-61288091D01*
X42984516Y-61288091D01*
X42991444Y-61288835D01*
X43044127Y-61294500D01*
X44839872Y-61294499D01*
X44899483Y-61288091D01*
X45034331Y-61237796D01*
X45149546Y-61151546D01*
X45235796Y-61036331D01*
X45286091Y-60901483D01*
X45292500Y-60841873D01*
X45292499Y-59825870D01*
X58974500Y-59825870D01*
X58974501Y-59825876D01*
X58980908Y-59885483D01*
X59031202Y-60020328D01*
X59031206Y-60020335D01*
X59117452Y-60135544D01*
X59117455Y-60135547D01*
X59232664Y-60221793D01*
X59232671Y-60221797D01*
X59367517Y-60272091D01*
X59367516Y-60272091D01*
X59374444Y-60272835D01*
X59427127Y-60278500D01*
X61222872Y-60278499D01*
X61282483Y-60272091D01*
X61417331Y-60221796D01*
X61532546Y-60135546D01*
X61618796Y-60020331D01*
X61668002Y-59888401D01*
X61709872Y-59832468D01*
X61775337Y-59808050D01*
X61843610Y-59822901D01*
X61871865Y-59844053D01*
X61993917Y-59966105D01*
X62187421Y-60101600D01*
X62401507Y-60201429D01*
X62401516Y-60201433D01*
X62615000Y-60258634D01*
X62615000Y-59363501D01*
X62722685Y-59412680D01*
X62829237Y-59428000D01*
X62900763Y-59428000D01*
X63007315Y-59412680D01*
X63115000Y-59363501D01*
X63115000Y-60258633D01*
X63328483Y-60201433D01*
X63328492Y-60201429D01*
X63542578Y-60101600D01*
X63736082Y-59966105D01*
X63903105Y-59799082D01*
X64038600Y-59605578D01*
X64138429Y-59391492D01*
X64138432Y-59391486D01*
X64195636Y-59178000D01*
X63298686Y-59178000D01*
X63324493Y-59137844D01*
X63365000Y-58999889D01*
X63365000Y-58856111D01*
X63324493Y-58718156D01*
X63298686Y-58678000D01*
X64195636Y-58678000D01*
X64195635Y-58677999D01*
X64138432Y-58464513D01*
X64138429Y-58464507D01*
X64038600Y-58250422D01*
X64038599Y-58250420D01*
X63903113Y-58056926D01*
X63903108Y-58056920D01*
X63736082Y-57889894D01*
X63542578Y-57754399D01*
X63328492Y-57654570D01*
X63328486Y-57654567D01*
X63115000Y-57597364D01*
X63115000Y-58492498D01*
X63007315Y-58443320D01*
X62900763Y-58428000D01*
X62829237Y-58428000D01*
X62722685Y-58443320D01*
X62615000Y-58492498D01*
X62615000Y-57597364D01*
X62614999Y-57597364D01*
X62401513Y-57654567D01*
X62401507Y-57654570D01*
X62187422Y-57754399D01*
X62187420Y-57754400D01*
X61993926Y-57889886D01*
X61871865Y-58011947D01*
X61810542Y-58045431D01*
X61740850Y-58040447D01*
X61684917Y-57998575D01*
X61668002Y-57967598D01*
X61618797Y-57835671D01*
X61618793Y-57835664D01*
X61532547Y-57720455D01*
X61532544Y-57720452D01*
X61417335Y-57634206D01*
X61417328Y-57634202D01*
X61282482Y-57583908D01*
X61282483Y-57583908D01*
X61222883Y-57577501D01*
X61222881Y-57577500D01*
X61222873Y-57577500D01*
X61222864Y-57577500D01*
X59427129Y-57577500D01*
X59427123Y-57577501D01*
X59367516Y-57583908D01*
X59232671Y-57634202D01*
X59232664Y-57634206D01*
X59117455Y-57720452D01*
X59117452Y-57720455D01*
X59031206Y-57835664D01*
X59031202Y-57835671D01*
X58980908Y-57970517D01*
X58974501Y-58030116D01*
X58974500Y-58030135D01*
X58974500Y-59825870D01*
X45292499Y-59825870D01*
X45292499Y-59046128D01*
X45286091Y-58986517D01*
X45280444Y-58971377D01*
X45235797Y-58851671D01*
X45235793Y-58851664D01*
X45149547Y-58736455D01*
X45149544Y-58736452D01*
X45034335Y-58650206D01*
X45034328Y-58650202D01*
X44902917Y-58601189D01*
X44846983Y-58559318D01*
X44822566Y-58493853D01*
X44837418Y-58425580D01*
X44858563Y-58397332D01*
X44980495Y-58275401D01*
X45116035Y-58081830D01*
X45215903Y-57867663D01*
X45277063Y-57639408D01*
X45297659Y-57404000D01*
X45277063Y-57168592D01*
X45215903Y-56940337D01*
X45116035Y-56726171D01*
X44980495Y-56532599D01*
X44980494Y-56532597D01*
X44813402Y-56365506D01*
X44813396Y-56365501D01*
X44627842Y-56235575D01*
X44584217Y-56180998D01*
X44577023Y-56111500D01*
X44608546Y-56049145D01*
X44627842Y-56032425D01*
X44730561Y-55960500D01*
X44813401Y-55902495D01*
X44980495Y-55735401D01*
X45115652Y-55542377D01*
X45170229Y-55498752D01*
X45217227Y-55489500D01*
X46069752Y-55489500D01*
X46136791Y-55509185D01*
X46161900Y-55530526D01*
X46167626Y-55536885D01*
X46167630Y-55536889D01*
X46320765Y-55648148D01*
X46320770Y-55648151D01*
X46493692Y-55725142D01*
X46493697Y-55725144D01*
X46678854Y-55764500D01*
X46678855Y-55764500D01*
X46868144Y-55764500D01*
X46868146Y-55764500D01*
X47053303Y-55725144D01*
X47226230Y-55648151D01*
X47379371Y-55536888D01*
X47506033Y-55396216D01*
X47600679Y-55232284D01*
X47659174Y-55052256D01*
X47678960Y-54864000D01*
X47659174Y-54675744D01*
X47600679Y-54495716D01*
X47593338Y-54483001D01*
X54193532Y-54483001D01*
X54213364Y-54709686D01*
X54213366Y-54709697D01*
X54272258Y-54929488D01*
X54272261Y-54929497D01*
X54368431Y-55135732D01*
X54368432Y-55135734D01*
X54498954Y-55322141D01*
X54659858Y-55483045D01*
X54695321Y-55507876D01*
X54846266Y-55613568D01*
X55052504Y-55709739D01*
X55272308Y-55768635D01*
X55434230Y-55782801D01*
X55498998Y-55788468D01*
X55499000Y-55788468D01*
X55499002Y-55788468D01*
X55555673Y-55783509D01*
X55725692Y-55768635D01*
X55945496Y-55709739D01*
X56151734Y-55613568D01*
X56338139Y-55483047D01*
X56499047Y-55322139D01*
X56629568Y-55135734D01*
X56725739Y-54929496D01*
X56784635Y-54709692D01*
X56803355Y-54495722D01*
X56804468Y-54483001D01*
X56804468Y-54482998D01*
X56797708Y-54405732D01*
X56784635Y-54256308D01*
X56725739Y-54036504D01*
X56629568Y-53830266D01*
X56509995Y-53659496D01*
X56499045Y-53643858D01*
X56338141Y-53482954D01*
X56151734Y-53352432D01*
X56151732Y-53352431D01*
X55945497Y-53256261D01*
X55945488Y-53256258D01*
X55725697Y-53197366D01*
X55725693Y-53197365D01*
X55725692Y-53197365D01*
X55725691Y-53197364D01*
X55725686Y-53197364D01*
X55499002Y-53177532D01*
X55498998Y-53177532D01*
X55272313Y-53197364D01*
X55272302Y-53197366D01*
X55052511Y-53256258D01*
X55052502Y-53256261D01*
X54846267Y-53352431D01*
X54846265Y-53352432D01*
X54659858Y-53482954D01*
X54498954Y-53643858D01*
X54368432Y-53830265D01*
X54368431Y-53830267D01*
X54272261Y-54036502D01*
X54272258Y-54036511D01*
X54213366Y-54256302D01*
X54213364Y-54256313D01*
X54193532Y-54482998D01*
X54193532Y-54483001D01*
X47593338Y-54483001D01*
X47506033Y-54331784D01*
X47379371Y-54191112D01*
X47379370Y-54191111D01*
X47226234Y-54079851D01*
X47226229Y-54079848D01*
X47053307Y-54002857D01*
X47053302Y-54002855D01*
X46907501Y-53971865D01*
X46868146Y-53963500D01*
X46678854Y-53963500D01*
X46646397Y-53970398D01*
X46493697Y-54002855D01*
X46493692Y-54002857D01*
X46320770Y-54079848D01*
X46320765Y-54079851D01*
X46167630Y-54191110D01*
X46167626Y-54191114D01*
X46161900Y-54197474D01*
X46102413Y-54234121D01*
X46069752Y-54238500D01*
X45217227Y-54238500D01*
X45150188Y-54218815D01*
X45115652Y-54185623D01*
X44980494Y-53992597D01*
X44813402Y-53825506D01*
X44813396Y-53825501D01*
X44627842Y-53695575D01*
X44584217Y-53640998D01*
X44577023Y-53571500D01*
X44608546Y-53509145D01*
X44627842Y-53492425D01*
X44703161Y-53439686D01*
X44813401Y-53362495D01*
X44980495Y-53195401D01*
X45116035Y-53001830D01*
X45215903Y-52787663D01*
X45277063Y-52559408D01*
X45297659Y-52324000D01*
X45277063Y-52088592D01*
X45250143Y-51988125D01*
X45251806Y-51918276D01*
X45282235Y-51868353D01*
X46254772Y-50895819D01*
X46316095Y-50862334D01*
X46342453Y-50859500D01*
X48118958Y-50859500D01*
X48134578Y-50861224D01*
X48134605Y-50860939D01*
X48142361Y-50861671D01*
X48142368Y-50861673D01*
X48211515Y-50859500D01*
X48241051Y-50859500D01*
X48247929Y-50858630D01*
X48253742Y-50858172D01*
X48300328Y-50856709D01*
X48319570Y-50851117D01*
X48338613Y-50847174D01*
X48358493Y-50844664D01*
X48401823Y-50827507D01*
X48407347Y-50825617D01*
X48411097Y-50824527D01*
X48452091Y-50812618D01*
X48469330Y-50802422D01*
X48486804Y-50793862D01*
X48505428Y-50786488D01*
X48505428Y-50786487D01*
X48505433Y-50786486D01*
X48543150Y-50759082D01*
X48548006Y-50755892D01*
X48588121Y-50732170D01*
X48602290Y-50717999D01*
X48617080Y-50705368D01*
X48633288Y-50693594D01*
X48663000Y-50657676D01*
X48666913Y-50653376D01*
X50779473Y-48540819D01*
X50840796Y-48507334D01*
X50867154Y-48504500D01*
X58388684Y-48504500D01*
X58455723Y-48524185D01*
X58501478Y-48576989D01*
X58511422Y-48646147D01*
X58482397Y-48709703D01*
X58459807Y-48730075D01*
X58382858Y-48783954D01*
X58221954Y-48944858D01*
X58091432Y-49131265D01*
X58091431Y-49131267D01*
X57995261Y-49337502D01*
X57995258Y-49337511D01*
X57936366Y-49557302D01*
X57936364Y-49557313D01*
X57916532Y-49783998D01*
X57916532Y-49784001D01*
X57936364Y-50010686D01*
X57936366Y-50010697D01*
X57995258Y-50230488D01*
X57995261Y-50230497D01*
X58091431Y-50436732D01*
X58091432Y-50436734D01*
X58221954Y-50623141D01*
X58382858Y-50784045D01*
X58382861Y-50784047D01*
X58569266Y-50914568D01*
X58775504Y-51010739D01*
X58995308Y-51069635D01*
X59157112Y-51083791D01*
X59221998Y-51089468D01*
X59222000Y-51089468D01*
X59222002Y-51089468D01*
X59286888Y-51083791D01*
X59448692Y-51069635D01*
X59668496Y-51010739D01*
X59874734Y-50914568D01*
X60061139Y-50784047D01*
X60099616Y-50745570D01*
X60160938Y-50712084D01*
X60230630Y-50717068D01*
X60274979Y-50745569D01*
X62941194Y-53411784D01*
X62951019Y-53424048D01*
X62951240Y-53423866D01*
X62956210Y-53429873D01*
X62956213Y-53429876D01*
X62956214Y-53429877D01*
X63006651Y-53477241D01*
X63021835Y-53492425D01*
X63027529Y-53498119D01*
X63033004Y-53502366D01*
X63037446Y-53506160D01*
X63071415Y-53538060D01*
X63071417Y-53538061D01*
X63071418Y-53538062D01*
X63088976Y-53547714D01*
X63105237Y-53558396D01*
X63121064Y-53570673D01*
X63163823Y-53589176D01*
X63169073Y-53591748D01*
X63209904Y-53614195D01*
X63209908Y-53614197D01*
X63209912Y-53614198D01*
X63229311Y-53619179D01*
X63247722Y-53625483D01*
X63266097Y-53633435D01*
X63266100Y-53633435D01*
X63266105Y-53633438D01*
X63312149Y-53640729D01*
X63317832Y-53641906D01*
X63362981Y-53653500D01*
X63383016Y-53653500D01*
X63402413Y-53655026D01*
X63422196Y-53658160D01*
X63468584Y-53653775D01*
X63474422Y-53653500D01*
X64146152Y-53653500D01*
X64213191Y-53673185D01*
X64233832Y-53689818D01*
X66729875Y-56185862D01*
X69220801Y-58676788D01*
X69230626Y-58689051D01*
X69230847Y-58688869D01*
X69235818Y-58694878D01*
X69260607Y-58718156D01*
X69286239Y-58742226D01*
X69307133Y-58763120D01*
X69312615Y-58767373D01*
X69317047Y-58771157D01*
X69351022Y-58803062D01*
X69368580Y-58812714D01*
X69384839Y-58823395D01*
X69400668Y-58835673D01*
X69443442Y-58854182D01*
X69448660Y-58856738D01*
X69489512Y-58879197D01*
X69508920Y-58884180D01*
X69527321Y-58890480D01*
X69545708Y-58898437D01*
X69589092Y-58905308D01*
X69591723Y-58905725D01*
X69597443Y-58906909D01*
X69642585Y-58918500D01*
X69662620Y-58918500D01*
X69682018Y-58920026D01*
X69701798Y-58923159D01*
X69701799Y-58923160D01*
X69701799Y-58923159D01*
X69701800Y-58923160D01*
X69748114Y-58918782D01*
X69748188Y-58918775D01*
X69754026Y-58918500D01*
X73969812Y-58918500D01*
X74036851Y-58938185D01*
X74071387Y-58971377D01*
X74183954Y-59132141D01*
X74344858Y-59293045D01*
X74344861Y-59293047D01*
X74531266Y-59423568D01*
X74737504Y-59519739D01*
X74957308Y-59578635D01*
X75119230Y-59592801D01*
X75183998Y-59598468D01*
X75184000Y-59598468D01*
X75184002Y-59598468D01*
X75240673Y-59593509D01*
X75410692Y-59578635D01*
X75630496Y-59519739D01*
X75836734Y-59423568D01*
X76023139Y-59293047D01*
X76184047Y-59132139D01*
X76314568Y-58945734D01*
X76410739Y-58739496D01*
X76469635Y-58519692D01*
X76489468Y-58293000D01*
X76487928Y-58275402D01*
X76469635Y-58066313D01*
X76469635Y-58066308D01*
X76410739Y-57846504D01*
X76314568Y-57640266D01*
X76184047Y-57453861D01*
X76184045Y-57453858D01*
X76023141Y-57292954D01*
X75836734Y-57162432D01*
X75836732Y-57162431D01*
X75630497Y-57066261D01*
X75630488Y-57066258D01*
X75410697Y-57007366D01*
X75410693Y-57007365D01*
X75410692Y-57007365D01*
X75410691Y-57007364D01*
X75410686Y-57007364D01*
X75184002Y-56987532D01*
X75183998Y-56987532D01*
X74957313Y-57007364D01*
X74957302Y-57007366D01*
X74737511Y-57066258D01*
X74737502Y-57066261D01*
X74531267Y-57162431D01*
X74531265Y-57162432D01*
X74344858Y-57292954D01*
X74183954Y-57453858D01*
X74071387Y-57614623D01*
X74016811Y-57658248D01*
X73969812Y-57667500D01*
X70032057Y-57667500D01*
X69965018Y-57647815D01*
X69944376Y-57631181D01*
X68765031Y-56451836D01*
X68731546Y-56390513D01*
X68736530Y-56320821D01*
X68778402Y-56264888D01*
X68818101Y-56245084D01*
X68824869Y-56243117D01*
X68843912Y-56239174D01*
X68863792Y-56236664D01*
X68907122Y-56219507D01*
X68912646Y-56217617D01*
X68916396Y-56216527D01*
X68957390Y-56204618D01*
X68974629Y-56194422D01*
X68992103Y-56185862D01*
X69010727Y-56178488D01*
X69010727Y-56178487D01*
X69010732Y-56178486D01*
X69048449Y-56151082D01*
X69053305Y-56147892D01*
X69093420Y-56124170D01*
X69107589Y-56109999D01*
X69122379Y-56097368D01*
X69138587Y-56085594D01*
X69168299Y-56049676D01*
X69172212Y-56045376D01*
X71077771Y-54139819D01*
X71139094Y-54106334D01*
X71165452Y-54103500D01*
X72677257Y-54103500D01*
X72692877Y-54105224D01*
X72692904Y-54104939D01*
X72700660Y-54105671D01*
X72700667Y-54105673D01*
X72769814Y-54103500D01*
X72799350Y-54103500D01*
X72806228Y-54102630D01*
X72812041Y-54102172D01*
X72858627Y-54100709D01*
X72877869Y-54095117D01*
X72896912Y-54091174D01*
X72916792Y-54088664D01*
X72960122Y-54071507D01*
X72965646Y-54069617D01*
X72969396Y-54068527D01*
X73010390Y-54056618D01*
X73027629Y-54046422D01*
X73045103Y-54037862D01*
X73063727Y-54030488D01*
X73063727Y-54030487D01*
X73063732Y-54030486D01*
X73101449Y-54003082D01*
X73106305Y-53999892D01*
X73146420Y-53976170D01*
X73160589Y-53961999D01*
X73175379Y-53949368D01*
X73191587Y-53937594D01*
X73221299Y-53901676D01*
X73225212Y-53897376D01*
X73700964Y-53421624D01*
X73762285Y-53388141D01*
X73831977Y-53393125D01*
X73887910Y-53434997D01*
X73908418Y-53477213D01*
X73957259Y-53659490D01*
X73957261Y-53659497D01*
X74053431Y-53865732D01*
X74053432Y-53865734D01*
X74183954Y-54052141D01*
X74344858Y-54213045D01*
X74344861Y-54213047D01*
X74531266Y-54343568D01*
X74737504Y-54439739D01*
X74957308Y-54498635D01*
X75119230Y-54512801D01*
X75183998Y-54518468D01*
X75184000Y-54518468D01*
X75184002Y-54518468D01*
X75240673Y-54513509D01*
X75410692Y-54498635D01*
X75630496Y-54439739D01*
X75836734Y-54343568D01*
X76023139Y-54213047D01*
X76184047Y-54052139D01*
X76314568Y-53865734D01*
X76410739Y-53659496D01*
X76469635Y-53439692D01*
X76489468Y-53213000D01*
X76487928Y-53195402D01*
X76469635Y-52986313D01*
X76469635Y-52986308D01*
X76410739Y-52766504D01*
X76314568Y-52560266D01*
X76184047Y-52373861D01*
X76184045Y-52373858D01*
X76023141Y-52212954D01*
X75836734Y-52082432D01*
X75836732Y-52082431D01*
X75630497Y-51986261D01*
X75630488Y-51986258D01*
X75448214Y-51937419D01*
X75388553Y-51901054D01*
X75358024Y-51838207D01*
X75366319Y-51768832D01*
X75392626Y-51729963D01*
X75461446Y-51661144D01*
X76168772Y-50953819D01*
X76230095Y-50920334D01*
X76256453Y-50917500D01*
X88589548Y-50917500D01*
X88656587Y-50937185D01*
X88677229Y-50953819D01*
X89000181Y-51276771D01*
X89033666Y-51338094D01*
X89036500Y-51364452D01*
X89036500Y-52226951D01*
X89016815Y-52293990D01*
X88964011Y-52339745D01*
X88894853Y-52349689D01*
X88831297Y-52320664D01*
X88824819Y-52314632D01*
X88723141Y-52212954D01*
X88536734Y-52082432D01*
X88536732Y-52082431D01*
X88330497Y-51986261D01*
X88330488Y-51986258D01*
X88110697Y-51927366D01*
X88110693Y-51927365D01*
X88110692Y-51927365D01*
X88110691Y-51927364D01*
X88110686Y-51927364D01*
X87884002Y-51907532D01*
X87883998Y-51907532D01*
X87657313Y-51927364D01*
X87657302Y-51927366D01*
X87437511Y-51986258D01*
X87437502Y-51986261D01*
X87231267Y-52082431D01*
X87231265Y-52082432D01*
X87044858Y-52212954D01*
X86883954Y-52373858D01*
X86753432Y-52560265D01*
X86753431Y-52560267D01*
X86657261Y-52766502D01*
X86657258Y-52766511D01*
X86598366Y-52986302D01*
X86598364Y-52986313D01*
X86578532Y-53212998D01*
X86578532Y-53213001D01*
X86598364Y-53439686D01*
X86598366Y-53439697D01*
X86657258Y-53659488D01*
X86657261Y-53659497D01*
X86753431Y-53865732D01*
X86753432Y-53865734D01*
X86883954Y-54052141D01*
X87044858Y-54213045D01*
X87205623Y-54325613D01*
X87249248Y-54380189D01*
X87258500Y-54427188D01*
X87258500Y-57078811D01*
X87238815Y-57145850D01*
X87205623Y-57180386D01*
X87044859Y-57292953D01*
X86883954Y-57453858D01*
X86753432Y-57640265D01*
X86753431Y-57640267D01*
X86657261Y-57846502D01*
X86657258Y-57846511D01*
X86598366Y-58066302D01*
X86598364Y-58066313D01*
X86578532Y-58292998D01*
X86578532Y-58293001D01*
X86598364Y-58519686D01*
X86598366Y-58519697D01*
X86657258Y-58739488D01*
X86657261Y-58739497D01*
X86753431Y-58945732D01*
X86753432Y-58945734D01*
X86883954Y-59132141D01*
X87044858Y-59293045D01*
X87044861Y-59293047D01*
X87231266Y-59423568D01*
X87437504Y-59519739D01*
X87657308Y-59578635D01*
X87819230Y-59592801D01*
X87883998Y-59598468D01*
X87884000Y-59598468D01*
X87884002Y-59598468D01*
X87940673Y-59593509D01*
X88110692Y-59578635D01*
X88330496Y-59519739D01*
X88536734Y-59423568D01*
X88723139Y-59293047D01*
X88884047Y-59132139D01*
X89014568Y-58945734D01*
X89110739Y-58739496D01*
X89169635Y-58519692D01*
X89189468Y-58293000D01*
X89187928Y-58275402D01*
X89169635Y-58066313D01*
X89169635Y-58066308D01*
X89110739Y-57846504D01*
X89014568Y-57640266D01*
X88884047Y-57453861D01*
X88884045Y-57453858D01*
X88723140Y-57292953D01*
X88562377Y-57180386D01*
X88518752Y-57125809D01*
X88509500Y-57078811D01*
X88509500Y-54427188D01*
X88529185Y-54360149D01*
X88562377Y-54325613D01*
X88693042Y-54234121D01*
X88723139Y-54213047D01*
X88827418Y-54108767D01*
X88888739Y-54075284D01*
X88958431Y-54080268D01*
X89014365Y-54122139D01*
X89038782Y-54187603D01*
X89039037Y-54192553D01*
X89039290Y-54200624D01*
X89039291Y-54200627D01*
X89044880Y-54219867D01*
X89048824Y-54238911D01*
X89051022Y-54256308D01*
X89051336Y-54258791D01*
X89068490Y-54302119D01*
X89070382Y-54307647D01*
X89080818Y-54343568D01*
X89083382Y-54352390D01*
X89087970Y-54360149D01*
X89093580Y-54369634D01*
X89102138Y-54387103D01*
X89109514Y-54405732D01*
X89136898Y-54443423D01*
X89140106Y-54448307D01*
X89163826Y-54488414D01*
X89163833Y-54488424D01*
X89177990Y-54502580D01*
X89190628Y-54517376D01*
X89202405Y-54533586D01*
X89202406Y-54533587D01*
X89238309Y-54563288D01*
X89242620Y-54567210D01*
X89539409Y-54863999D01*
X89669194Y-54993784D01*
X89679017Y-55006045D01*
X89679239Y-55005863D01*
X89684212Y-55011875D01*
X89734636Y-55059227D01*
X89755523Y-55080115D01*
X89755527Y-55080118D01*
X89755529Y-55080120D01*
X89761011Y-55084373D01*
X89765443Y-55088157D01*
X89799418Y-55120062D01*
X89816976Y-55129714D01*
X89833235Y-55140395D01*
X89849064Y-55152673D01*
X89891838Y-55171182D01*
X89897056Y-55173738D01*
X89937908Y-55196197D01*
X89957316Y-55201180D01*
X89975719Y-55207481D01*
X89994104Y-55215437D01*
X90000096Y-55217178D01*
X90058981Y-55254785D01*
X90088187Y-55318257D01*
X90089500Y-55336253D01*
X90089500Y-55507869D01*
X90089501Y-55507876D01*
X90095908Y-55567483D01*
X90146202Y-55702328D01*
X90146206Y-55702335D01*
X90232452Y-55817544D01*
X90232455Y-55817547D01*
X90347664Y-55903793D01*
X90347671Y-55903797D01*
X90482517Y-55954091D01*
X90482516Y-55954091D01*
X90489444Y-55954835D01*
X90542127Y-55960500D01*
X92337872Y-55960499D01*
X92397483Y-55954091D01*
X92532331Y-55903796D01*
X92647546Y-55817546D01*
X92733796Y-55702331D01*
X92784091Y-55567483D01*
X92790500Y-55507873D01*
X92790499Y-53712128D01*
X92784698Y-53658160D01*
X92784091Y-53652516D01*
X92733797Y-53517671D01*
X92733793Y-53517664D01*
X92647547Y-53402455D01*
X92647544Y-53402452D01*
X92532335Y-53316206D01*
X92532328Y-53316202D01*
X92400917Y-53267189D01*
X92344983Y-53225318D01*
X92320566Y-53159853D01*
X92335418Y-53091580D01*
X92356563Y-53063332D01*
X92478495Y-52941401D01*
X92614035Y-52747830D01*
X92713903Y-52533663D01*
X92775063Y-52305408D01*
X92795659Y-52070000D01*
X92775063Y-51834592D01*
X92722354Y-51637877D01*
X92713905Y-51606344D01*
X92713900Y-51606330D01*
X92711837Y-51601906D01*
X92701344Y-51532829D01*
X92729863Y-51469045D01*
X92788339Y-51430804D01*
X92824218Y-51425500D01*
X92895252Y-51425500D01*
X92962291Y-51445185D01*
X92987400Y-51466526D01*
X92993126Y-51472885D01*
X92993130Y-51472889D01*
X93146265Y-51584148D01*
X93146270Y-51584151D01*
X93319192Y-51661142D01*
X93319197Y-51661144D01*
X93504354Y-51700500D01*
X93504355Y-51700500D01*
X93693644Y-51700500D01*
X93693646Y-51700500D01*
X93878803Y-51661144D01*
X94051730Y-51584151D01*
X94204871Y-51472888D01*
X94331533Y-51332216D01*
X94426179Y-51168284D01*
X94484674Y-50988256D01*
X94504460Y-50800000D01*
X94484674Y-50611744D01*
X94426179Y-50431716D01*
X94331533Y-50267784D01*
X94204871Y-50127112D01*
X94204870Y-50127111D01*
X94051734Y-50015851D01*
X94051729Y-50015848D01*
X93878807Y-49938857D01*
X93878802Y-49938855D01*
X93733001Y-49907865D01*
X93693646Y-49899500D01*
X93504354Y-49899500D01*
X93471897Y-49906398D01*
X93319197Y-49938855D01*
X93319192Y-49938857D01*
X93146270Y-50015848D01*
X93146265Y-50015851D01*
X92993130Y-50127110D01*
X92993126Y-50127114D01*
X92987400Y-50133474D01*
X92927913Y-50170121D01*
X92895252Y-50174500D01*
X92824218Y-50174500D01*
X92757179Y-50154815D01*
X92711424Y-50102011D01*
X92701480Y-50032853D01*
X92711837Y-49998094D01*
X92713900Y-49993669D01*
X92713903Y-49993663D01*
X92775063Y-49765408D01*
X92795659Y-49530000D01*
X92793226Y-49502197D01*
X92786858Y-49429403D01*
X92775063Y-49294592D01*
X92713903Y-49066337D01*
X92614035Y-48852171D01*
X92611660Y-48848778D01*
X92478494Y-48658597D01*
X92311402Y-48491506D01*
X92311396Y-48491501D01*
X92125842Y-48361575D01*
X92082217Y-48306998D01*
X92075023Y-48237500D01*
X92106546Y-48175145D01*
X92125842Y-48158425D01*
X92162151Y-48133001D01*
X92311401Y-48028495D01*
X92478495Y-47861401D01*
X92614035Y-47667830D01*
X92713903Y-47453663D01*
X92775063Y-47225408D01*
X92795659Y-46990000D01*
X92793715Y-46967786D01*
X92787954Y-46901929D01*
X92775063Y-46754592D01*
X92713903Y-46526337D01*
X92614035Y-46312171D01*
X92596644Y-46287333D01*
X92478494Y-46118597D01*
X92311402Y-45951506D01*
X92311396Y-45951501D01*
X92125842Y-45821575D01*
X92082217Y-45766998D01*
X92075023Y-45697500D01*
X92106546Y-45635145D01*
X92125842Y-45618425D01*
X92187295Y-45575395D01*
X92311401Y-45488495D01*
X92478495Y-45321401D01*
X92614035Y-45127830D01*
X92713903Y-44913663D01*
X92775063Y-44685408D01*
X92795659Y-44450000D01*
X92775063Y-44214592D01*
X92770777Y-44198596D01*
X92772440Y-44128748D01*
X92811602Y-44070885D01*
X92875831Y-44043381D01*
X92944733Y-44054967D01*
G37*
%TD.AperFunction*%
%TA.AperFunction,Conductor*%
G36*
X52670275Y-21727185D02*
G01*
X52716030Y-21779989D01*
X52725974Y-21849147D01*
X52710624Y-21893497D01*
X52693891Y-21922481D01*
X52672709Y-21959167D01*
X52581242Y-22192225D01*
X52581236Y-22192244D01*
X52525525Y-22436331D01*
X52525524Y-22436336D01*
X52506816Y-22685995D01*
X52506816Y-22686004D01*
X52525524Y-22935663D01*
X52525525Y-22935668D01*
X52525525Y-22935672D01*
X52525526Y-22935673D01*
X52528424Y-22948371D01*
X52581236Y-23179755D01*
X52581238Y-23179764D01*
X52581240Y-23179769D01*
X52672711Y-23412835D01*
X52797898Y-23629665D01*
X52836161Y-23677645D01*
X52954006Y-23825418D01*
X53079770Y-23942109D01*
X53137540Y-23995712D01*
X53344408Y-24136752D01*
X53344413Y-24136754D01*
X53344414Y-24136755D01*
X53344415Y-24136756D01*
X53464218Y-24194449D01*
X53569983Y-24245383D01*
X53569984Y-24245383D01*
X53569987Y-24245385D01*
X53809236Y-24319184D01*
X53809237Y-24319184D01*
X53809240Y-24319185D01*
X54056805Y-24356499D01*
X54056810Y-24356499D01*
X54056813Y-24356500D01*
X54056814Y-24356500D01*
X54307186Y-24356500D01*
X54307187Y-24356500D01*
X54307194Y-24356499D01*
X54554759Y-24319185D01*
X54554760Y-24319184D01*
X54554764Y-24319184D01*
X54794013Y-24245385D01*
X55019592Y-24136752D01*
X55226460Y-23995712D01*
X55375094Y-23857799D01*
X55409993Y-23825418D01*
X55409993Y-23825416D01*
X55409997Y-23825414D01*
X55566102Y-23629665D01*
X55691289Y-23412835D01*
X55782760Y-23179769D01*
X55838474Y-22935673D01*
X55841097Y-22900670D01*
X55857184Y-22686004D01*
X55857184Y-22685995D01*
X55838475Y-22436336D01*
X55838474Y-22436331D01*
X55838474Y-22436327D01*
X55782760Y-22192231D01*
X55691289Y-21959165D01*
X55653376Y-21893498D01*
X55636904Y-21825601D01*
X55659756Y-21759573D01*
X55714677Y-21716383D01*
X55760764Y-21707500D01*
X57603813Y-21707500D01*
X57670852Y-21727185D01*
X57716607Y-21779989D01*
X57726551Y-21849147D01*
X57711200Y-21893500D01*
X57673163Y-21959381D01*
X57581720Y-22192373D01*
X57581714Y-22192392D01*
X57526021Y-22436400D01*
X57526021Y-22436402D01*
X57507317Y-22685995D01*
X57507317Y-22686004D01*
X57526021Y-22935597D01*
X57526021Y-22935599D01*
X57581714Y-23179607D01*
X57581720Y-23179626D01*
X57673163Y-23412618D01*
X57798311Y-23629382D01*
X57836800Y-23677645D01*
X58579452Y-22934993D01*
X58589188Y-22964956D01*
X58677186Y-23103619D01*
X58796903Y-23216040D01*
X58931510Y-23290041D01*
X58190402Y-24031148D01*
X58344651Y-24136313D01*
X58344664Y-24136320D01*
X58570167Y-24244916D01*
X58570165Y-24244916D01*
X58809346Y-24318694D01*
X58809352Y-24318696D01*
X59056843Y-24355999D01*
X59056852Y-24356000D01*
X59307148Y-24356000D01*
X59307156Y-24355999D01*
X59554647Y-24318696D01*
X59554653Y-24318694D01*
X59793833Y-24244916D01*
X60019334Y-24136322D01*
X60019335Y-24136321D01*
X60173596Y-24031148D01*
X59429534Y-23287086D01*
X59497629Y-23260126D01*
X59630492Y-23163595D01*
X59735175Y-23037055D01*
X59783631Y-22934079D01*
X60527198Y-23677646D01*
X60527199Y-23677645D01*
X60565681Y-23629392D01*
X60565688Y-23629381D01*
X60690836Y-23412618D01*
X60782279Y-23179626D01*
X60782285Y-23179607D01*
X60837978Y-22935599D01*
X60837978Y-22935597D01*
X60856683Y-22686004D01*
X60856683Y-22685995D01*
X60837978Y-22436402D01*
X60837978Y-22436400D01*
X60782285Y-22192392D01*
X60782279Y-22192373D01*
X60690836Y-21959381D01*
X60690837Y-21959381D01*
X60652800Y-21893500D01*
X60636327Y-21825600D01*
X60659179Y-21759573D01*
X60714101Y-21716382D01*
X60760187Y-21707500D01*
X63572236Y-21707500D01*
X63639275Y-21727185D01*
X63685030Y-21779989D01*
X63694974Y-21849147D01*
X63679624Y-21893497D01*
X63662891Y-21922481D01*
X63641709Y-21959167D01*
X63550242Y-22192225D01*
X63550236Y-22192244D01*
X63494525Y-22436331D01*
X63494524Y-22436336D01*
X63475816Y-22685995D01*
X63475816Y-22686004D01*
X63494524Y-22935663D01*
X63494525Y-22935668D01*
X63494525Y-22935672D01*
X63494526Y-22935673D01*
X63497424Y-22948371D01*
X63550236Y-23179755D01*
X63550238Y-23179764D01*
X63550240Y-23179769D01*
X63641711Y-23412835D01*
X63766898Y-23629665D01*
X63805161Y-23677645D01*
X63923006Y-23825418D01*
X64048770Y-23942109D01*
X64106540Y-23995712D01*
X64313408Y-24136752D01*
X64313413Y-24136754D01*
X64313414Y-24136755D01*
X64313415Y-24136756D01*
X64455301Y-24205084D01*
X64507161Y-24251906D01*
X64525500Y-24316804D01*
X64525500Y-30103255D01*
X64523775Y-30118872D01*
X64524061Y-30118899D01*
X64523326Y-30126665D01*
X64525500Y-30195814D01*
X64525500Y-30225343D01*
X64525501Y-30225360D01*
X64526368Y-30232231D01*
X64526826Y-30238050D01*
X64528290Y-30284624D01*
X64528291Y-30284627D01*
X64533880Y-30303867D01*
X64537824Y-30322911D01*
X64540336Y-30342791D01*
X64557490Y-30386119D01*
X64559382Y-30391647D01*
X64572381Y-30436388D01*
X64582580Y-30453634D01*
X64591138Y-30471103D01*
X64598514Y-30489732D01*
X64625898Y-30527423D01*
X64629106Y-30532307D01*
X64652827Y-30572416D01*
X64652833Y-30572424D01*
X64666990Y-30586580D01*
X64679628Y-30601376D01*
X64691405Y-30617586D01*
X64691406Y-30617587D01*
X64727309Y-30647288D01*
X64731620Y-30651210D01*
X65801072Y-31720663D01*
X66055514Y-31975105D01*
X66088999Y-32036428D01*
X66084015Y-32106120D01*
X66083262Y-32108086D01*
X66050239Y-32192229D01*
X65994525Y-32436331D01*
X65994524Y-32436336D01*
X65975816Y-32685995D01*
X65975816Y-32686004D01*
X65994524Y-32935663D01*
X65994525Y-32935668D01*
X66050236Y-33179755D01*
X66050238Y-33179764D01*
X66050240Y-33179769D01*
X66141711Y-33412835D01*
X66266898Y-33629665D01*
X66370716Y-33759848D01*
X66423006Y-33825418D01*
X66571660Y-33963348D01*
X66606540Y-33995712D01*
X66813408Y-34136752D01*
X66813413Y-34136754D01*
X66813414Y-34136755D01*
X66813415Y-34136756D01*
X66894330Y-34175722D01*
X67038983Y-34245383D01*
X67038984Y-34245383D01*
X67038987Y-34245385D01*
X67278236Y-34319184D01*
X67278237Y-34319184D01*
X67278240Y-34319185D01*
X67525805Y-34356499D01*
X67525810Y-34356499D01*
X67525813Y-34356500D01*
X67525814Y-34356500D01*
X67776186Y-34356500D01*
X67776187Y-34356500D01*
X67781203Y-34355744D01*
X68023759Y-34319185D01*
X68023759Y-34319184D01*
X68023764Y-34319184D01*
X68239600Y-34252606D01*
X68309459Y-34251657D01*
X68363827Y-34283417D01*
X72294181Y-38213771D01*
X72327666Y-38275094D01*
X72330500Y-38301452D01*
X72330500Y-50939547D01*
X72310815Y-51006586D01*
X72294181Y-51027228D01*
X71855228Y-51466181D01*
X71793905Y-51499666D01*
X71767547Y-51502500D01*
X64125244Y-51502500D01*
X64058205Y-51482815D01*
X64037563Y-51466181D01*
X63838568Y-51267186D01*
X63805083Y-51205863D01*
X63810067Y-51136171D01*
X63851939Y-51080238D01*
X63917403Y-51055821D01*
X63958341Y-51059729D01*
X63995308Y-51069635D01*
X64157112Y-51083791D01*
X64221998Y-51089468D01*
X64222000Y-51089468D01*
X64222002Y-51089468D01*
X64286888Y-51083791D01*
X64448692Y-51069635D01*
X64668496Y-51010739D01*
X64874734Y-50914568D01*
X65061139Y-50784047D01*
X65222047Y-50623139D01*
X65332128Y-50465926D01*
X65334613Y-50462377D01*
X65389189Y-50418752D01*
X65436188Y-50409500D01*
X65957257Y-50409500D01*
X65972877Y-50411224D01*
X65972904Y-50410939D01*
X65980660Y-50411671D01*
X65980667Y-50411673D01*
X66049814Y-50409500D01*
X66079350Y-50409500D01*
X66086228Y-50408630D01*
X66092041Y-50408172D01*
X66138627Y-50406709D01*
X66157869Y-50401117D01*
X66176912Y-50397174D01*
X66196792Y-50394664D01*
X66240122Y-50377507D01*
X66245646Y-50375617D01*
X66249396Y-50374527D01*
X66290390Y-50362618D01*
X66307629Y-50352422D01*
X66325103Y-50343862D01*
X66343727Y-50336488D01*
X66343727Y-50336487D01*
X66343732Y-50336486D01*
X66381449Y-50309082D01*
X66386305Y-50305892D01*
X66426420Y-50282170D01*
X66440589Y-50267999D01*
X66455379Y-50255368D01*
X66471587Y-50243594D01*
X66501299Y-50207676D01*
X66505212Y-50203376D01*
X69725788Y-46982801D01*
X69738042Y-46972986D01*
X69737859Y-46972764D01*
X69743866Y-46967792D01*
X69743877Y-46967786D01*
X69785117Y-46923870D01*
X69791227Y-46917364D01*
X69801671Y-46906918D01*
X69812120Y-46896471D01*
X69816379Y-46890978D01*
X69820152Y-46886561D01*
X69852062Y-46852582D01*
X69861713Y-46835024D01*
X69872396Y-46818761D01*
X69884673Y-46802936D01*
X69903185Y-46760153D01*
X69905738Y-46754941D01*
X69928197Y-46714092D01*
X69933180Y-46694680D01*
X69939481Y-46676280D01*
X69947437Y-46657896D01*
X69954729Y-46611852D01*
X69955906Y-46606171D01*
X69967500Y-46561019D01*
X69967500Y-46540983D01*
X69969027Y-46521582D01*
X69972160Y-46501804D01*
X69967775Y-46455415D01*
X69967500Y-46449577D01*
X69967500Y-41865742D01*
X69969224Y-41850122D01*
X69968939Y-41850095D01*
X69969673Y-41842333D01*
X69967500Y-41773172D01*
X69967500Y-41743656D01*
X69967500Y-41743650D01*
X69966631Y-41736779D01*
X69966173Y-41730952D01*
X69965463Y-41708352D01*
X69964710Y-41684373D01*
X69959119Y-41665130D01*
X69955173Y-41646078D01*
X69952664Y-41626208D01*
X69935504Y-41582867D01*
X69933624Y-41577379D01*
X69920618Y-41532610D01*
X69910422Y-41515370D01*
X69901861Y-41497894D01*
X69894487Y-41479270D01*
X69894486Y-41479268D01*
X69867079Y-41441545D01*
X69863888Y-41436686D01*
X69857166Y-41425320D01*
X69840170Y-41396580D01*
X69840168Y-41396578D01*
X69840165Y-41396574D01*
X69826006Y-41382415D01*
X69813368Y-41367619D01*
X69810607Y-41363819D01*
X69801594Y-41351413D01*
X69780031Y-41333575D01*
X69765688Y-41321709D01*
X69761376Y-41317786D01*
X68682803Y-40239212D01*
X68672980Y-40226950D01*
X68672759Y-40227134D01*
X68667786Y-40221123D01*
X68666371Y-40219794D01*
X68617364Y-40173773D01*
X68606919Y-40163328D01*
X68596475Y-40152883D01*
X68590986Y-40148625D01*
X68586561Y-40144847D01*
X68552582Y-40112938D01*
X68552580Y-40112936D01*
X68552577Y-40112935D01*
X68535029Y-40103288D01*
X68518763Y-40092604D01*
X68502933Y-40080325D01*
X68460168Y-40061818D01*
X68454922Y-40059248D01*
X68414093Y-40036803D01*
X68414092Y-40036802D01*
X68394693Y-40031822D01*
X68376281Y-40025518D01*
X68357898Y-40017562D01*
X68357892Y-40017560D01*
X68311874Y-40010272D01*
X68306152Y-40009087D01*
X68261021Y-39997500D01*
X68261019Y-39997500D01*
X68240984Y-39997500D01*
X68221586Y-39995973D01*
X68214162Y-39994797D01*
X68201805Y-39992840D01*
X68201804Y-39992840D01*
X68155416Y-39997225D01*
X68149578Y-39997500D01*
X49442453Y-39997500D01*
X49375414Y-39977815D01*
X49354772Y-39961181D01*
X47744803Y-38351212D01*
X47734980Y-38338950D01*
X47734759Y-38339134D01*
X47729786Y-38333123D01*
X47679364Y-38285773D01*
X47668148Y-38274557D01*
X47658475Y-38264883D01*
X47652986Y-38260625D01*
X47648561Y-38256847D01*
X47614582Y-38224938D01*
X47614580Y-38224936D01*
X47614577Y-38224935D01*
X47597029Y-38215288D01*
X47580763Y-38204604D01*
X47564933Y-38192325D01*
X47522168Y-38173818D01*
X47516922Y-38171248D01*
X47476093Y-38148803D01*
X47476092Y-38148802D01*
X47456693Y-38143822D01*
X47438281Y-38137518D01*
X47419898Y-38129562D01*
X47419892Y-38129560D01*
X47373874Y-38122272D01*
X47368152Y-38121087D01*
X47323021Y-38109500D01*
X47323019Y-38109500D01*
X47302984Y-38109500D01*
X47283586Y-38107973D01*
X47276162Y-38106797D01*
X47263805Y-38104840D01*
X47263804Y-38104840D01*
X47217416Y-38109225D01*
X47211578Y-38109500D01*
X45110795Y-38109500D01*
X45043756Y-38089815D01*
X44998001Y-38037011D01*
X44988057Y-37967853D01*
X45009218Y-37914379D01*
X45116035Y-37761830D01*
X45215903Y-37547663D01*
X45277063Y-37319408D01*
X45297659Y-37084000D01*
X45277063Y-36848592D01*
X45227228Y-36662602D01*
X45215905Y-36620344D01*
X45215904Y-36620343D01*
X45215903Y-36620337D01*
X45116035Y-36406171D01*
X45103133Y-36387744D01*
X44980494Y-36212597D01*
X44911078Y-36143181D01*
X44877593Y-36081858D01*
X44882577Y-36012166D01*
X44924449Y-35956233D01*
X44989913Y-35931816D01*
X44998759Y-35931500D01*
X49193257Y-35931500D01*
X49208877Y-35933224D01*
X49208904Y-35932939D01*
X49216660Y-35933671D01*
X49216667Y-35933673D01*
X49285814Y-35931500D01*
X49315350Y-35931500D01*
X49322228Y-35930630D01*
X49328041Y-35930172D01*
X49374627Y-35928709D01*
X49393869Y-35923117D01*
X49412912Y-35919174D01*
X49432792Y-35916664D01*
X49476122Y-35899507D01*
X49481646Y-35897617D01*
X49496099Y-35893418D01*
X49526390Y-35884618D01*
X49543629Y-35874422D01*
X49561103Y-35865862D01*
X49579727Y-35858488D01*
X49579727Y-35858487D01*
X49579732Y-35858486D01*
X49617449Y-35831082D01*
X49622305Y-35827892D01*
X49662420Y-35804170D01*
X49676589Y-35789999D01*
X49691379Y-35777368D01*
X49707587Y-35765594D01*
X49737299Y-35729676D01*
X49741212Y-35725376D01*
X51437786Y-34028802D01*
X51450048Y-34018980D01*
X51449865Y-34018759D01*
X51455867Y-34013792D01*
X51455877Y-34013786D01*
X51503241Y-33963348D01*
X51524120Y-33942470D01*
X51528373Y-33936986D01*
X51532150Y-33932563D01*
X51564062Y-33898582D01*
X51573714Y-33881023D01*
X51584389Y-33864772D01*
X51596674Y-33848936D01*
X51615186Y-33806152D01*
X51617742Y-33800935D01*
X51640197Y-33760092D01*
X51645180Y-33740680D01*
X51651477Y-33722291D01*
X51659438Y-33703895D01*
X51666729Y-33657853D01*
X51667908Y-33652162D01*
X51679500Y-33607019D01*
X51679500Y-33586983D01*
X51681027Y-33567582D01*
X51684160Y-33547804D01*
X51679775Y-33501415D01*
X51679500Y-33495577D01*
X51679500Y-32686004D01*
X55006816Y-32686004D01*
X55025524Y-32935663D01*
X55025525Y-32935668D01*
X55081236Y-33179755D01*
X55081238Y-33179764D01*
X55081240Y-33179769D01*
X55172711Y-33412835D01*
X55297898Y-33629665D01*
X55401716Y-33759848D01*
X55454006Y-33825418D01*
X55602660Y-33963348D01*
X55637540Y-33995712D01*
X55844408Y-34136752D01*
X55844413Y-34136754D01*
X55844414Y-34136755D01*
X55844415Y-34136756D01*
X55925330Y-34175722D01*
X56069983Y-34245383D01*
X56069984Y-34245383D01*
X56069987Y-34245385D01*
X56309236Y-34319184D01*
X56309237Y-34319184D01*
X56309240Y-34319185D01*
X56556805Y-34356499D01*
X56556810Y-34356499D01*
X56556813Y-34356500D01*
X56556814Y-34356500D01*
X56807186Y-34356500D01*
X56807187Y-34356500D01*
X56812203Y-34355744D01*
X57054759Y-34319185D01*
X57054760Y-34319184D01*
X57054764Y-34319184D01*
X57294013Y-34245385D01*
X57480466Y-34155594D01*
X57519584Y-34136756D01*
X57519584Y-34136755D01*
X57519592Y-34136752D01*
X57726460Y-33995712D01*
X57868895Y-33863550D01*
X57909993Y-33825418D01*
X57909993Y-33825416D01*
X57909997Y-33825414D01*
X58066102Y-33629665D01*
X58191289Y-33412835D01*
X58282760Y-33179769D01*
X58338474Y-32935673D01*
X58339346Y-32924035D01*
X58357184Y-32686004D01*
X58357184Y-32685995D01*
X58338475Y-32436336D01*
X58338474Y-32436331D01*
X58338474Y-32436327D01*
X58282760Y-32192231D01*
X58191289Y-31959165D01*
X58066102Y-31742335D01*
X57909997Y-31546586D01*
X57909996Y-31546585D01*
X57909993Y-31546581D01*
X57726460Y-31376288D01*
X57603543Y-31292485D01*
X57519592Y-31235248D01*
X57519588Y-31235246D01*
X57519585Y-31235244D01*
X57519584Y-31235243D01*
X57294015Y-31126616D01*
X57294017Y-31126616D01*
X57054765Y-31052816D01*
X57054759Y-31052814D01*
X56807194Y-31015500D01*
X56807187Y-31015500D01*
X56556813Y-31015500D01*
X56556805Y-31015500D01*
X56309240Y-31052814D01*
X56309234Y-31052816D01*
X56069983Y-31126616D01*
X55844415Y-31235243D01*
X55844414Y-31235244D01*
X55637539Y-31376288D01*
X55454006Y-31546581D01*
X55297898Y-31742335D01*
X55172711Y-31959164D01*
X55081242Y-32192225D01*
X55081236Y-32192244D01*
X55025525Y-32436331D01*
X55025524Y-32436336D01*
X55006816Y-32685995D01*
X55006816Y-32686004D01*
X51679500Y-32686004D01*
X51679500Y-21899967D01*
X51699185Y-21832928D01*
X51715819Y-21812286D01*
X51784286Y-21743819D01*
X51845609Y-21710334D01*
X51871967Y-21707500D01*
X52603236Y-21707500D01*
X52670275Y-21727185D01*
G37*
%TD.AperFunction*%
%TA.AperFunction,Conductor*%
G36*
X100273039Y-19577685D02*
G01*
X100318794Y-19630489D01*
X100330000Y-19682000D01*
X100330000Y-32893166D01*
X100310315Y-32960205D01*
X100257511Y-33005960D01*
X100206000Y-33017166D01*
X97272129Y-33017166D01*
X97272123Y-33017167D01*
X97212516Y-33023574D01*
X97077671Y-33073868D01*
X97077664Y-33073872D01*
X96962455Y-33160118D01*
X96962452Y-33160121D01*
X96876206Y-33275330D01*
X96876202Y-33275337D01*
X96825908Y-33410183D01*
X96819501Y-33469782D01*
X96819500Y-33469801D01*
X96819500Y-33866500D01*
X96799815Y-33933539D01*
X96747011Y-33979294D01*
X96695500Y-33990500D01*
X95641743Y-33990500D01*
X95626122Y-33988775D01*
X95626095Y-33989061D01*
X95618333Y-33988326D01*
X95549172Y-33990500D01*
X95519649Y-33990500D01*
X95512778Y-33991367D01*
X95506959Y-33991825D01*
X95460374Y-33993289D01*
X95460368Y-33993290D01*
X95441126Y-33998880D01*
X95422087Y-34002823D01*
X95402217Y-34005334D01*
X95402203Y-34005337D01*
X95358883Y-34022488D01*
X95353358Y-34024380D01*
X95308613Y-34037380D01*
X95308610Y-34037381D01*
X95291366Y-34047579D01*
X95273905Y-34056133D01*
X95255274Y-34063510D01*
X95255262Y-34063517D01*
X95217570Y-34090902D01*
X95212687Y-34094109D01*
X95172580Y-34117829D01*
X95158414Y-34131995D01*
X95143624Y-34144627D01*
X95127414Y-34156404D01*
X95127411Y-34156407D01*
X95097710Y-34192309D01*
X95093777Y-34196631D01*
X94392228Y-34898181D01*
X94330905Y-34931666D01*
X94304547Y-34934500D01*
X92824218Y-34934500D01*
X92757179Y-34914815D01*
X92711424Y-34862011D01*
X92701480Y-34792853D01*
X92711837Y-34758094D01*
X92713900Y-34753669D01*
X92713903Y-34753663D01*
X92775063Y-34525408D01*
X92795659Y-34290000D01*
X92775063Y-34054592D01*
X92713903Y-33826337D01*
X92614035Y-33612171D01*
X92610427Y-33607017D01*
X92478494Y-33418597D01*
X92311402Y-33251506D01*
X92311396Y-33251501D01*
X92125842Y-33121575D01*
X92082217Y-33066998D01*
X92075023Y-32997500D01*
X92106546Y-32935145D01*
X92125842Y-32918425D01*
X92178576Y-32881500D01*
X92311401Y-32788495D01*
X92478495Y-32621401D01*
X92614035Y-32427830D01*
X92713903Y-32213663D01*
X92775063Y-31985408D01*
X92795659Y-31750000D01*
X92775063Y-31514592D01*
X92715550Y-31292485D01*
X92713905Y-31286344D01*
X92713904Y-31286343D01*
X92713903Y-31286337D01*
X92614035Y-31072171D01*
X92600484Y-31052817D01*
X92478494Y-30878597D01*
X92311402Y-30711506D01*
X92311395Y-30711501D01*
X92117834Y-30575967D01*
X92117830Y-30575965D01*
X92024205Y-30532307D01*
X91903663Y-30476097D01*
X91903659Y-30476096D01*
X91903655Y-30476094D01*
X91675413Y-30414938D01*
X91675403Y-30414936D01*
X91440001Y-30394341D01*
X91439999Y-30394341D01*
X91204596Y-30414936D01*
X91204586Y-30414938D01*
X90976344Y-30476094D01*
X90976335Y-30476098D01*
X90762171Y-30575964D01*
X90762169Y-30575965D01*
X90568597Y-30711505D01*
X90401505Y-30878597D01*
X90265965Y-31072169D01*
X90265964Y-31072171D01*
X90166098Y-31286335D01*
X90166094Y-31286344D01*
X90104938Y-31514586D01*
X90104936Y-31514596D01*
X90084341Y-31749999D01*
X90084341Y-31750000D01*
X90104936Y-31985403D01*
X90104938Y-31985413D01*
X90166094Y-32213655D01*
X90166096Y-32213659D01*
X90166097Y-32213663D01*
X90221795Y-32333107D01*
X90265965Y-32427830D01*
X90265967Y-32427834D01*
X90401501Y-32621395D01*
X90401506Y-32621402D01*
X90568597Y-32788493D01*
X90568603Y-32788498D01*
X90754158Y-32918425D01*
X90797783Y-32973002D01*
X90804977Y-33042500D01*
X90773454Y-33104855D01*
X90754158Y-33121575D01*
X90568597Y-33251505D01*
X90401505Y-33418597D01*
X90265965Y-33612169D01*
X90265964Y-33612171D01*
X90166098Y-33826335D01*
X90166094Y-33826344D01*
X90104938Y-34054586D01*
X90104936Y-34054596D01*
X90084341Y-34289999D01*
X90084341Y-34290000D01*
X90104936Y-34525403D01*
X90104938Y-34525413D01*
X90166094Y-34753655D01*
X90166099Y-34753669D01*
X90168163Y-34758094D01*
X90178656Y-34827171D01*
X90150137Y-34890955D01*
X90091661Y-34929196D01*
X90055782Y-34934500D01*
X86950737Y-34934500D01*
X86935120Y-34932776D01*
X86935093Y-34933062D01*
X86927331Y-34932327D01*
X86858203Y-34934500D01*
X86828650Y-34934500D01*
X86827929Y-34934590D01*
X86821757Y-34935369D01*
X86815945Y-34935826D01*
X86769378Y-34937290D01*
X86769367Y-34937292D01*
X86750134Y-34942879D01*
X86731094Y-34946822D01*
X86711217Y-34949334D01*
X86711210Y-34949335D01*
X86711208Y-34949336D01*
X86711206Y-34949336D01*
X86711205Y-34949337D01*
X86667868Y-34966494D01*
X86662342Y-34968386D01*
X86617611Y-34981382D01*
X86617608Y-34981383D01*
X86600363Y-34991581D01*
X86582901Y-35000135D01*
X86564272Y-35007511D01*
X86564267Y-35007513D01*
X86526564Y-35034906D01*
X86521682Y-35038112D01*
X86481580Y-35061828D01*
X86467408Y-35076000D01*
X86452623Y-35088628D01*
X86436412Y-35100407D01*
X86406709Y-35136310D01*
X86402777Y-35140631D01*
X85780208Y-35763199D01*
X85767951Y-35773020D01*
X85768134Y-35773241D01*
X85762123Y-35778213D01*
X85714772Y-35828636D01*
X85693889Y-35849519D01*
X85693877Y-35849532D01*
X85689621Y-35855017D01*
X85685837Y-35859447D01*
X85653937Y-35893418D01*
X85653936Y-35893420D01*
X85644284Y-35910976D01*
X85633610Y-35927226D01*
X85621329Y-35943061D01*
X85621324Y-35943068D01*
X85602815Y-35985838D01*
X85600245Y-35991084D01*
X85577803Y-36031906D01*
X85572822Y-36051307D01*
X85566521Y-36069710D01*
X85558562Y-36088102D01*
X85558561Y-36088105D01*
X85551271Y-36134127D01*
X85550087Y-36139846D01*
X85538501Y-36184972D01*
X85538500Y-36184982D01*
X85538500Y-36205016D01*
X85536973Y-36224415D01*
X85533840Y-36244194D01*
X85533840Y-36244195D01*
X85538225Y-36290583D01*
X85538500Y-36296421D01*
X85538500Y-43790255D01*
X85536775Y-43805872D01*
X85537061Y-43805899D01*
X85536326Y-43813665D01*
X85538500Y-43882814D01*
X85538500Y-43912343D01*
X85538501Y-43912360D01*
X85539368Y-43919231D01*
X85539826Y-43925050D01*
X85541290Y-43971624D01*
X85541291Y-43971627D01*
X85546880Y-43990867D01*
X85550824Y-44009911D01*
X85553336Y-44029792D01*
X85570490Y-44073119D01*
X85572382Y-44078647D01*
X85583853Y-44118130D01*
X85585382Y-44123390D01*
X85592839Y-44136000D01*
X85595580Y-44140634D01*
X85604136Y-44158100D01*
X85611514Y-44176732D01*
X85627400Y-44198598D01*
X85638898Y-44214423D01*
X85642106Y-44219307D01*
X85665827Y-44259416D01*
X85665833Y-44259424D01*
X85679990Y-44273580D01*
X85692628Y-44288376D01*
X85704405Y-44304586D01*
X85704406Y-44304587D01*
X85740309Y-44334288D01*
X85744620Y-44338210D01*
X86124092Y-44717683D01*
X86240197Y-44833788D01*
X86250022Y-44846051D01*
X86250243Y-44845869D01*
X86255214Y-44851878D01*
X86269336Y-44865139D01*
X86305635Y-44899226D01*
X86326529Y-44920120D01*
X86332011Y-44924373D01*
X86336443Y-44928157D01*
X86370418Y-44960062D01*
X86387976Y-44969714D01*
X86404235Y-44980395D01*
X86420064Y-44992673D01*
X86462838Y-45011182D01*
X86468056Y-45013738D01*
X86508908Y-45036197D01*
X86528316Y-45041180D01*
X86546717Y-45047480D01*
X86565104Y-45055437D01*
X86608488Y-45062308D01*
X86611119Y-45062725D01*
X86616839Y-45063909D01*
X86661981Y-45075500D01*
X86682016Y-45075500D01*
X86701414Y-45077026D01*
X86721194Y-45080159D01*
X86721195Y-45080160D01*
X86721195Y-45080159D01*
X86721196Y-45080160D01*
X86767584Y-45075775D01*
X86773422Y-45075500D01*
X89630547Y-45075500D01*
X89697586Y-45095185D01*
X89743341Y-45147989D01*
X89753285Y-45217147D01*
X89724260Y-45280703D01*
X89718228Y-45287181D01*
X88804228Y-46201181D01*
X88742905Y-46234666D01*
X88716547Y-46237500D01*
X87331743Y-46237500D01*
X87316122Y-46235775D01*
X87316096Y-46236061D01*
X87308334Y-46235327D01*
X87308333Y-46235327D01*
X87239186Y-46237500D01*
X87209649Y-46237500D01*
X87202766Y-46238369D01*
X87196949Y-46238826D01*
X87150373Y-46240290D01*
X87131129Y-46245881D01*
X87112079Y-46249825D01*
X87092211Y-46252334D01*
X87048884Y-46269488D01*
X87043358Y-46271379D01*
X86998614Y-46284379D01*
X86998610Y-46284381D01*
X86981366Y-46294579D01*
X86963905Y-46303133D01*
X86945274Y-46310510D01*
X86945262Y-46310517D01*
X86907570Y-46337902D01*
X86902687Y-46341109D01*
X86862580Y-46364829D01*
X86848414Y-46378995D01*
X86833624Y-46391627D01*
X86817414Y-46403404D01*
X86817411Y-46403407D01*
X86787710Y-46439309D01*
X86783777Y-46443631D01*
X84105228Y-49122181D01*
X84043905Y-49155666D01*
X84017547Y-49158500D01*
X76291758Y-49158500D01*
X76224719Y-49138815D01*
X76178964Y-49086011D01*
X76169020Y-49016853D01*
X76190183Y-48963377D01*
X76265612Y-48855651D01*
X76314568Y-48785734D01*
X76410739Y-48579496D01*
X76469635Y-48359692D01*
X76489468Y-48133000D01*
X76489067Y-48128422D01*
X76476515Y-47984952D01*
X76469635Y-47906308D01*
X76416361Y-47707486D01*
X76410741Y-47686511D01*
X76410738Y-47686502D01*
X76320972Y-47494000D01*
X76314568Y-47480266D01*
X76184047Y-47293861D01*
X76184045Y-47293858D01*
X76023141Y-47132954D01*
X75836734Y-47002432D01*
X75836732Y-47002431D01*
X75630497Y-46906261D01*
X75630488Y-46906258D01*
X75410697Y-46847366D01*
X75410693Y-46847365D01*
X75410692Y-46847365D01*
X75410691Y-46847364D01*
X75410686Y-46847364D01*
X75184002Y-46827532D01*
X75183998Y-46827532D01*
X74957313Y-46847364D01*
X74957302Y-46847366D01*
X74737511Y-46906258D01*
X74737502Y-46906261D01*
X74531267Y-47002431D01*
X74531265Y-47002432D01*
X74344858Y-47132954D01*
X74243181Y-47234632D01*
X74181858Y-47268117D01*
X74112166Y-47263133D01*
X74056233Y-47221261D01*
X74031816Y-47155797D01*
X74031500Y-47146951D01*
X74031500Y-44039049D01*
X74051185Y-43972010D01*
X74103989Y-43926255D01*
X74173147Y-43916311D01*
X74236703Y-43945336D01*
X74243181Y-43951368D01*
X74344858Y-44053045D01*
X74373527Y-44073119D01*
X74531266Y-44183568D01*
X74737504Y-44279739D01*
X74957308Y-44338635D01*
X75119230Y-44352801D01*
X75183998Y-44358468D01*
X75184000Y-44358468D01*
X75184002Y-44358468D01*
X75240673Y-44353509D01*
X75410692Y-44338635D01*
X75630496Y-44279739D01*
X75836734Y-44183568D01*
X76023139Y-44053047D01*
X76184047Y-43892139D01*
X76314568Y-43705734D01*
X76410739Y-43499496D01*
X76469635Y-43279692D01*
X76489468Y-43053000D01*
X76469635Y-42826308D01*
X76410739Y-42606504D01*
X76314568Y-42400266D01*
X76184047Y-42213861D01*
X76184045Y-42213858D01*
X76023141Y-42052954D01*
X75836734Y-41922432D01*
X75836732Y-41922431D01*
X75630497Y-41826261D01*
X75630488Y-41826258D01*
X75410697Y-41767366D01*
X75410693Y-41767365D01*
X75410692Y-41767365D01*
X75410691Y-41767364D01*
X75410686Y-41767364D01*
X75184002Y-41747532D01*
X75183998Y-41747532D01*
X74957313Y-41767364D01*
X74957302Y-41767366D01*
X74737511Y-41826258D01*
X74737502Y-41826261D01*
X74531267Y-41922431D01*
X74531265Y-41922432D01*
X74344858Y-42052954D01*
X74243181Y-42154632D01*
X74181858Y-42188117D01*
X74112166Y-42183133D01*
X74056233Y-42141261D01*
X74031816Y-42075797D01*
X74031500Y-42066951D01*
X74031500Y-38625854D01*
X74051185Y-38558815D01*
X74103989Y-38513060D01*
X74173147Y-38503116D01*
X74236703Y-38532141D01*
X74243181Y-38538173D01*
X74344858Y-38639850D01*
X74344861Y-38639852D01*
X74531266Y-38770373D01*
X74737504Y-38866544D01*
X74737509Y-38866545D01*
X74737511Y-38866546D01*
X74743020Y-38868022D01*
X74957308Y-38925440D01*
X75119230Y-38939606D01*
X75183998Y-38945273D01*
X75184000Y-38945273D01*
X75184002Y-38945273D01*
X75240673Y-38940314D01*
X75410692Y-38925440D01*
X75630496Y-38866544D01*
X75836734Y-38770373D01*
X76023139Y-38639852D01*
X76184047Y-38478944D01*
X76314568Y-38292539D01*
X76410739Y-38086301D01*
X76469635Y-37866497D01*
X76489468Y-37639805D01*
X76469635Y-37413113D01*
X76410739Y-37193309D01*
X76314568Y-36987071D01*
X76184047Y-36800666D01*
X76184045Y-36800663D01*
X76023141Y-36639759D01*
X75836734Y-36509237D01*
X75836732Y-36509236D01*
X75630497Y-36413066D01*
X75630488Y-36413063D01*
X75410697Y-36354171D01*
X75410693Y-36354170D01*
X75410692Y-36354170D01*
X75410691Y-36354169D01*
X75410686Y-36354169D01*
X75184002Y-36334337D01*
X75183998Y-36334337D01*
X74957313Y-36354169D01*
X74957302Y-36354171D01*
X74737511Y-36413063D01*
X74737502Y-36413066D01*
X74531267Y-36509236D01*
X74531265Y-36509237D01*
X74344858Y-36639759D01*
X74243181Y-36741437D01*
X74181858Y-36774922D01*
X74112166Y-36769938D01*
X74056233Y-36728066D01*
X74031816Y-36662602D01*
X74031500Y-36653756D01*
X74031500Y-33545854D01*
X74051185Y-33478815D01*
X74103989Y-33433060D01*
X74173147Y-33423116D01*
X74236703Y-33452141D01*
X74243181Y-33458173D01*
X74344858Y-33559850D01*
X74344861Y-33559852D01*
X74531266Y-33690373D01*
X74737504Y-33786544D01*
X74957308Y-33845440D01*
X75119230Y-33859606D01*
X75183998Y-33865273D01*
X75184000Y-33865273D01*
X75184002Y-33865273D01*
X75240673Y-33860314D01*
X75410692Y-33845440D01*
X75630496Y-33786544D01*
X75836734Y-33690373D01*
X76023139Y-33559852D01*
X76184047Y-33398944D01*
X76314568Y-33212539D01*
X76410739Y-33006301D01*
X76469635Y-32786497D01*
X76489468Y-32559806D01*
X86578532Y-32559806D01*
X86598364Y-32786491D01*
X86598366Y-32786502D01*
X86657258Y-33006293D01*
X86657261Y-33006302D01*
X86753431Y-33212537D01*
X86753432Y-33212539D01*
X86883954Y-33398946D01*
X87044858Y-33559850D01*
X87044861Y-33559852D01*
X87231266Y-33690373D01*
X87437504Y-33786544D01*
X87657308Y-33845440D01*
X87819230Y-33859606D01*
X87883998Y-33865273D01*
X87884000Y-33865273D01*
X87884002Y-33865273D01*
X87940673Y-33860314D01*
X88110692Y-33845440D01*
X88330496Y-33786544D01*
X88536734Y-33690373D01*
X88723139Y-33559852D01*
X88884047Y-33398944D01*
X89014568Y-33212539D01*
X89110739Y-33006301D01*
X89169635Y-32786497D01*
X89189468Y-32559805D01*
X89169635Y-32333113D01*
X89110739Y-32113309D01*
X89014568Y-31907071D01*
X88884047Y-31720666D01*
X88884045Y-31720663D01*
X88723141Y-31559759D01*
X88536734Y-31429237D01*
X88536732Y-31429236D01*
X88330497Y-31333066D01*
X88330488Y-31333063D01*
X88110697Y-31274171D01*
X88110693Y-31274170D01*
X88110692Y-31274170D01*
X88110691Y-31274169D01*
X88110686Y-31274169D01*
X87884002Y-31254337D01*
X87883998Y-31254337D01*
X87657313Y-31274169D01*
X87657302Y-31274171D01*
X87437511Y-31333063D01*
X87437502Y-31333066D01*
X87231267Y-31429236D01*
X87231265Y-31429237D01*
X87044858Y-31559759D01*
X86883954Y-31720663D01*
X86753432Y-31907070D01*
X86753431Y-31907072D01*
X86657261Y-32113307D01*
X86657258Y-32113316D01*
X86598366Y-32333107D01*
X86598364Y-32333118D01*
X86578532Y-32559803D01*
X86578532Y-32559806D01*
X76489468Y-32559806D01*
X76489468Y-32559805D01*
X76469635Y-32333113D01*
X76410739Y-32113309D01*
X76314568Y-31907071D01*
X76184047Y-31720666D01*
X76184045Y-31720663D01*
X76023141Y-31559759D01*
X75836734Y-31429237D01*
X75836732Y-31429236D01*
X75630497Y-31333066D01*
X75630488Y-31333063D01*
X75410697Y-31274171D01*
X75410693Y-31274170D01*
X75410692Y-31274170D01*
X75410691Y-31274169D01*
X75410686Y-31274169D01*
X75184002Y-31254337D01*
X75183999Y-31254337D01*
X74957313Y-31274169D01*
X74957296Y-31274172D01*
X74888949Y-31292485D01*
X74819099Y-31290821D01*
X74769177Y-31260391D01*
X74517819Y-31009033D01*
X74484334Y-30947710D01*
X74481500Y-30921352D01*
X74481500Y-28734003D01*
X74501185Y-28666964D01*
X74553989Y-28621209D01*
X74623147Y-28611265D01*
X74657904Y-28621620D01*
X74737504Y-28658739D01*
X74957308Y-28717635D01*
X75119230Y-28731801D01*
X75183998Y-28737468D01*
X75184000Y-28737468D01*
X75184002Y-28737468D01*
X75240673Y-28732509D01*
X75410692Y-28717635D01*
X75630496Y-28658739D01*
X75836734Y-28562568D01*
X76023139Y-28432047D01*
X76184047Y-28271139D01*
X76314568Y-28084734D01*
X76410739Y-27878496D01*
X76469635Y-27658692D01*
X76489468Y-27432001D01*
X86578532Y-27432001D01*
X86598364Y-27658686D01*
X86598366Y-27658697D01*
X86657258Y-27878488D01*
X86657261Y-27878497D01*
X86753431Y-28084732D01*
X86753432Y-28084734D01*
X86883954Y-28271141D01*
X87044858Y-28432045D01*
X87044861Y-28432047D01*
X87231266Y-28562568D01*
X87437504Y-28658739D01*
X87657308Y-28717635D01*
X87819230Y-28731801D01*
X87883998Y-28737468D01*
X87884000Y-28737468D01*
X87884002Y-28737468D01*
X87940673Y-28732509D01*
X88110692Y-28717635D01*
X88330496Y-28658739D01*
X88536734Y-28562568D01*
X88723139Y-28432047D01*
X88884047Y-28271139D01*
X89014568Y-28084734D01*
X89110739Y-27878496D01*
X89169635Y-27658692D01*
X89189468Y-27432000D01*
X89169635Y-27205308D01*
X89110739Y-26985504D01*
X89014568Y-26779266D01*
X88884047Y-26592861D01*
X88884045Y-26592858D01*
X88723141Y-26431954D01*
X88536734Y-26301432D01*
X88536732Y-26301431D01*
X88330497Y-26205261D01*
X88330488Y-26205258D01*
X88110697Y-26146366D01*
X88110693Y-26146365D01*
X88110692Y-26146365D01*
X88110691Y-26146364D01*
X88110686Y-26146364D01*
X87884002Y-26126532D01*
X87883998Y-26126532D01*
X87657313Y-26146364D01*
X87657302Y-26146366D01*
X87437511Y-26205258D01*
X87437502Y-26205261D01*
X87231267Y-26301431D01*
X87231265Y-26301432D01*
X87044858Y-26431954D01*
X86883954Y-26592858D01*
X86753432Y-26779265D01*
X86753431Y-26779267D01*
X86657261Y-26985502D01*
X86657258Y-26985511D01*
X86598366Y-27205302D01*
X86598364Y-27205313D01*
X86578532Y-27431998D01*
X86578532Y-27432001D01*
X76489468Y-27432001D01*
X76489468Y-27432000D01*
X76469635Y-27205308D01*
X76410739Y-26985504D01*
X76314568Y-26779266D01*
X76184047Y-26592861D01*
X76184045Y-26592858D01*
X76023141Y-26431954D01*
X75836734Y-26301432D01*
X75836732Y-26301431D01*
X75630497Y-26205261D01*
X75630488Y-26205258D01*
X75410697Y-26146366D01*
X75410693Y-26146365D01*
X75410692Y-26146365D01*
X75410691Y-26146364D01*
X75410686Y-26146364D01*
X75184002Y-26126532D01*
X75183998Y-26126532D01*
X74957313Y-26146364D01*
X74957302Y-26146366D01*
X74737511Y-26205258D01*
X74737502Y-26205262D01*
X74657905Y-26242379D01*
X74588827Y-26252871D01*
X74525043Y-26224351D01*
X74486804Y-26165875D01*
X74481500Y-26129997D01*
X74481500Y-24508866D01*
X74501185Y-24441827D01*
X74528333Y-24414838D01*
X74526865Y-24413064D01*
X74532867Y-24408097D01*
X74532877Y-24408091D01*
X74580241Y-24357653D01*
X74601120Y-24336775D01*
X74605373Y-24331291D01*
X74609150Y-24326868D01*
X74641062Y-24292887D01*
X74650714Y-24275328D01*
X74661389Y-24259077D01*
X74673674Y-24243241D01*
X74692186Y-24200457D01*
X74694742Y-24195240D01*
X74717197Y-24154397D01*
X74722180Y-24134985D01*
X74728477Y-24116596D01*
X74736438Y-24098200D01*
X74743729Y-24052158D01*
X74744908Y-24046467D01*
X74756500Y-24001324D01*
X74756500Y-23981288D01*
X74758027Y-23961887D01*
X74761160Y-23942109D01*
X74756775Y-23895720D01*
X74756500Y-23889882D01*
X74756500Y-23495002D01*
X93164579Y-23495002D01*
X93184248Y-23857782D01*
X93184250Y-23857799D01*
X93243024Y-24216303D01*
X93243030Y-24216329D01*
X93340221Y-24566381D01*
X93340226Y-24566396D01*
X93474700Y-24903901D01*
X93474706Y-24903913D01*
X93644878Y-25224892D01*
X93644881Y-25224897D01*
X93644883Y-25224900D01*
X93848773Y-25525614D01*
X94083979Y-25802521D01*
X94347746Y-26052375D01*
X94636981Y-26272245D01*
X94948292Y-26459555D01*
X94948294Y-26459556D01*
X94948296Y-26459557D01*
X94948300Y-26459559D01*
X95236429Y-26592861D01*
X95278031Y-26612108D01*
X95622330Y-26728116D01*
X95977153Y-26806218D01*
X96338341Y-26845500D01*
X96338347Y-26845500D01*
X96701653Y-26845500D01*
X96701659Y-26845500D01*
X97062847Y-26806218D01*
X97417670Y-26728116D01*
X97761969Y-26612108D01*
X98091708Y-26459555D01*
X98403019Y-26272245D01*
X98692254Y-26052375D01*
X98956021Y-25802521D01*
X99191227Y-25525614D01*
X99395117Y-25224900D01*
X99565298Y-24903905D01*
X99699775Y-24566391D01*
X99796973Y-24216316D01*
X99834928Y-23984799D01*
X99855749Y-23857799D01*
X99855751Y-23857782D01*
X99875421Y-23495002D01*
X99875421Y-23494997D01*
X99858322Y-23179626D01*
X99855751Y-23132215D01*
X99852939Y-23115065D01*
X99796975Y-22773696D01*
X99796974Y-22773695D01*
X99796973Y-22773684D01*
X99735039Y-22550618D01*
X99699778Y-22423618D01*
X99699773Y-22423603D01*
X99565299Y-22086098D01*
X99565298Y-22086095D01*
X99463191Y-21893501D01*
X99395121Y-21765107D01*
X99395119Y-21765104D01*
X99395117Y-21765100D01*
X99191227Y-21464386D01*
X98956021Y-21187479D01*
X98692254Y-20937625D01*
X98692244Y-20937617D01*
X98570085Y-20844755D01*
X98403019Y-20717755D01*
X98091708Y-20530445D01*
X98091707Y-20530444D01*
X98091703Y-20530442D01*
X98091699Y-20530440D01*
X97761979Y-20377896D01*
X97761974Y-20377894D01*
X97761969Y-20377892D01*
X97562791Y-20310781D01*
X97417669Y-20261883D01*
X97062845Y-20183781D01*
X96701660Y-20144500D01*
X96701659Y-20144500D01*
X96338341Y-20144500D01*
X96338339Y-20144500D01*
X95977154Y-20183781D01*
X95622330Y-20261883D01*
X95356178Y-20351560D01*
X95278031Y-20377892D01*
X95278028Y-20377893D01*
X95278020Y-20377896D01*
X94948300Y-20530440D01*
X94948296Y-20530442D01*
X94737225Y-20657440D01*
X94636981Y-20717755D01*
X94547332Y-20785903D01*
X94347755Y-20937617D01*
X94347745Y-20937625D01*
X94083978Y-21187479D01*
X93848772Y-21464386D01*
X93644884Y-21765098D01*
X93644878Y-21765107D01*
X93474706Y-22086086D01*
X93474700Y-22086098D01*
X93340226Y-22423603D01*
X93340221Y-22423618D01*
X93243030Y-22773670D01*
X93243024Y-22773696D01*
X93184250Y-23132200D01*
X93184248Y-23132217D01*
X93164579Y-23494997D01*
X93164579Y-23495002D01*
X74756500Y-23495002D01*
X74756500Y-23158341D01*
X74758224Y-23142727D01*
X74757938Y-23142700D01*
X74758672Y-23134937D01*
X74758586Y-23132215D01*
X74756500Y-23065807D01*
X74756500Y-23036254D01*
X74755629Y-23029363D01*
X74755172Y-23023549D01*
X74753709Y-22976977D01*
X74748121Y-22957743D01*
X74744174Y-22938685D01*
X74741664Y-22918812D01*
X74724507Y-22875479D01*
X74722614Y-22869950D01*
X74709618Y-22825218D01*
X74709617Y-22825214D01*
X74699420Y-22807972D01*
X74690863Y-22790506D01*
X74683486Y-22771872D01*
X74656083Y-22734154D01*
X74652900Y-22729309D01*
X74629170Y-22689183D01*
X74629165Y-22689177D01*
X74615005Y-22675017D01*
X74602370Y-22660224D01*
X74590593Y-22644016D01*
X74554693Y-22614317D01*
X74550381Y-22610394D01*
X72130199Y-20190212D01*
X72120376Y-20177950D01*
X72120155Y-20178134D01*
X72115182Y-20172123D01*
X72096555Y-20154631D01*
X72064760Y-20124773D01*
X72054315Y-20114328D01*
X72043871Y-20103883D01*
X72038382Y-20099625D01*
X72033957Y-20095847D01*
X71999978Y-20063938D01*
X71999976Y-20063936D01*
X71999973Y-20063935D01*
X71982425Y-20054288D01*
X71966159Y-20043604D01*
X71950329Y-20031325D01*
X71907564Y-20012818D01*
X71902318Y-20010248D01*
X71861489Y-19987803D01*
X71861488Y-19987802D01*
X71842089Y-19982822D01*
X71823677Y-19976518D01*
X71805294Y-19968562D01*
X71805288Y-19968560D01*
X71759270Y-19961272D01*
X71753548Y-19960087D01*
X71708417Y-19948500D01*
X71708415Y-19948500D01*
X71688380Y-19948500D01*
X71668982Y-19946973D01*
X71661558Y-19945797D01*
X71649201Y-19943840D01*
X71649200Y-19943840D01*
X71602812Y-19948225D01*
X71596974Y-19948500D01*
X45294743Y-19948500D01*
X45279122Y-19946775D01*
X45279096Y-19947061D01*
X45271334Y-19946327D01*
X45271333Y-19946327D01*
X45202186Y-19948500D01*
X45172649Y-19948500D01*
X45165766Y-19949369D01*
X45159949Y-19949826D01*
X45113373Y-19951290D01*
X45094129Y-19956881D01*
X45075079Y-19960825D01*
X45055211Y-19963334D01*
X45011884Y-19980488D01*
X45006358Y-19982379D01*
X44961614Y-19995379D01*
X44961610Y-19995381D01*
X44944366Y-20005579D01*
X44926905Y-20014133D01*
X44908274Y-20021510D01*
X44908262Y-20021517D01*
X44870570Y-20048902D01*
X44865687Y-20052109D01*
X44825580Y-20075829D01*
X44811414Y-20089995D01*
X44796624Y-20102627D01*
X44780414Y-20114404D01*
X44780411Y-20114407D01*
X44750710Y-20150309D01*
X44746777Y-20154631D01*
X43850546Y-21050862D01*
X43789223Y-21084347D01*
X43726316Y-21081672D01*
X43632769Y-21052817D01*
X43632759Y-21052814D01*
X43385194Y-21015500D01*
X43385187Y-21015500D01*
X43134813Y-21015500D01*
X43134805Y-21015500D01*
X42887240Y-21052814D01*
X42887234Y-21052816D01*
X42647983Y-21126616D01*
X42422415Y-21235243D01*
X42422414Y-21235244D01*
X42422408Y-21235247D01*
X42422408Y-21235248D01*
X42408046Y-21245040D01*
X42215539Y-21376288D01*
X42032006Y-21546581D01*
X41875898Y-21742335D01*
X41750711Y-21959164D01*
X41659242Y-22192225D01*
X41659236Y-22192244D01*
X41603525Y-22436331D01*
X41603524Y-22436336D01*
X41584816Y-22685995D01*
X41584816Y-22686004D01*
X41603524Y-22935663D01*
X41603525Y-22935668D01*
X41603525Y-22935672D01*
X41603526Y-22935673D01*
X41606424Y-22948371D01*
X41659236Y-23179755D01*
X41659238Y-23179764D01*
X41659240Y-23179769D01*
X41750711Y-23412835D01*
X41875898Y-23629665D01*
X41914161Y-23677645D01*
X42032006Y-23825418D01*
X42157770Y-23942109D01*
X42215540Y-23995712D01*
X42422408Y-24136752D01*
X42422413Y-24136754D01*
X42422414Y-24136755D01*
X42422415Y-24136756D01*
X42542218Y-24194449D01*
X42647983Y-24245383D01*
X42647984Y-24245383D01*
X42647987Y-24245385D01*
X42887236Y-24319184D01*
X42887237Y-24319184D01*
X42887240Y-24319185D01*
X43134805Y-24356499D01*
X43134810Y-24356499D01*
X43134813Y-24356500D01*
X43134814Y-24356500D01*
X43385186Y-24356500D01*
X43385187Y-24356500D01*
X43385194Y-24356499D01*
X43632759Y-24319185D01*
X43632760Y-24319184D01*
X43632764Y-24319184D01*
X43872013Y-24245385D01*
X44097592Y-24136752D01*
X44304460Y-23995712D01*
X44453094Y-23857799D01*
X44487993Y-23825418D01*
X44487993Y-23825416D01*
X44487997Y-23825414D01*
X44644102Y-23629665D01*
X44769289Y-23412835D01*
X44860760Y-23179769D01*
X44916474Y-22935673D01*
X44919097Y-22900670D01*
X44935184Y-22686004D01*
X44935184Y-22685995D01*
X44916475Y-22436336D01*
X44916474Y-22436331D01*
X44916474Y-22436327D01*
X44860760Y-22192231D01*
X44782639Y-21993182D01*
X44776471Y-21923588D01*
X44808909Y-21861705D01*
X44810322Y-21860267D01*
X45434772Y-21235819D01*
X45496095Y-21202334D01*
X45522453Y-21199500D01*
X47145486Y-21199500D01*
X47212525Y-21219185D01*
X47258280Y-21271989D01*
X47268944Y-21335078D01*
X47268402Y-21340849D01*
X48012466Y-22084913D01*
X47944371Y-22111874D01*
X47811508Y-22208405D01*
X47706825Y-22334945D01*
X47658368Y-22437921D01*
X46914800Y-21694353D01*
X46876308Y-21742621D01*
X46751163Y-21959381D01*
X46659720Y-22192373D01*
X46659714Y-22192392D01*
X46604021Y-22436400D01*
X46604021Y-22436402D01*
X46585317Y-22685995D01*
X46585317Y-22686004D01*
X46604021Y-22935597D01*
X46604021Y-22935599D01*
X46659714Y-23179607D01*
X46659720Y-23179626D01*
X46751163Y-23412618D01*
X46876311Y-23629382D01*
X46914800Y-23677645D01*
X47657452Y-22934993D01*
X47667188Y-22964956D01*
X47755186Y-23103619D01*
X47874903Y-23216040D01*
X48009510Y-23290041D01*
X47268402Y-24031148D01*
X47422651Y-24136313D01*
X47422664Y-24136320D01*
X47648167Y-24244916D01*
X47648165Y-24244916D01*
X47887346Y-24318694D01*
X47887352Y-24318696D01*
X48134843Y-24355999D01*
X48134852Y-24356000D01*
X48385148Y-24356000D01*
X48385156Y-24355999D01*
X48632647Y-24318696D01*
X48632653Y-24318694D01*
X48871833Y-24244916D01*
X49097334Y-24136322D01*
X49097335Y-24136321D01*
X49251596Y-24031148D01*
X48507534Y-23287086D01*
X48575629Y-23260126D01*
X48708492Y-23163595D01*
X48813175Y-23037055D01*
X48861631Y-22934079D01*
X49605198Y-23677646D01*
X49605199Y-23677645D01*
X49643681Y-23629392D01*
X49643688Y-23629381D01*
X49768836Y-23412618D01*
X49860279Y-23179626D01*
X49860285Y-23179607D01*
X49915978Y-22935599D01*
X49915978Y-22935597D01*
X49934683Y-22686004D01*
X49934683Y-22685995D01*
X49915978Y-22436402D01*
X49915978Y-22436400D01*
X49860285Y-22192392D01*
X49860279Y-22192373D01*
X49768836Y-21959381D01*
X49643685Y-21742613D01*
X49605199Y-21694352D01*
X48862546Y-22437004D01*
X48852812Y-22407044D01*
X48764814Y-22268381D01*
X48645097Y-22155960D01*
X48510489Y-22081958D01*
X49251596Y-21340850D01*
X49251055Y-21335077D01*
X49264394Y-21266493D01*
X49312695Y-21216008D01*
X49374513Y-21199500D01*
X50348491Y-21199500D01*
X50415530Y-21219185D01*
X50461285Y-21271989D01*
X50471229Y-21341147D01*
X50468595Y-21354341D01*
X50467804Y-21357420D01*
X50467803Y-21357423D01*
X50462959Y-21376288D01*
X50462822Y-21376823D01*
X50456521Y-21395225D01*
X50448562Y-21413617D01*
X50448561Y-21413620D01*
X50441271Y-21459642D01*
X50440087Y-21465361D01*
X50428501Y-21510487D01*
X50428500Y-21510497D01*
X50428500Y-21530531D01*
X50426973Y-21549930D01*
X50423840Y-21569709D01*
X50423840Y-21569710D01*
X50428225Y-21616098D01*
X50428500Y-21621936D01*
X50428500Y-33217547D01*
X50408815Y-33284586D01*
X50392181Y-33305228D01*
X49053228Y-34644181D01*
X48991905Y-34677666D01*
X48965547Y-34680500D01*
X48526829Y-34680500D01*
X48459790Y-34660815D01*
X48414035Y-34608011D01*
X48404646Y-34550498D01*
X48403460Y-34550498D01*
X48403460Y-34544002D01*
X48401505Y-34525403D01*
X48383674Y-34355744D01*
X48325179Y-34175716D01*
X48230533Y-34011784D01*
X48103871Y-33871112D01*
X48103870Y-33871111D01*
X47950734Y-33759851D01*
X47950729Y-33759848D01*
X47777807Y-33682857D01*
X47777802Y-33682855D01*
X47624849Y-33650345D01*
X47592646Y-33643500D01*
X47403354Y-33643500D01*
X47371151Y-33650345D01*
X47301484Y-33645027D01*
X47245751Y-33602889D01*
X47221647Y-33537309D01*
X47236825Y-33469108D01*
X47237986Y-33467053D01*
X47269287Y-33412839D01*
X47269288Y-33412836D01*
X47269289Y-33412835D01*
X47360760Y-33179769D01*
X47416474Y-32935673D01*
X47417346Y-32924035D01*
X47435184Y-32686004D01*
X47435184Y-32685995D01*
X47416475Y-32436336D01*
X47416474Y-32436331D01*
X47416474Y-32436327D01*
X47360760Y-32192231D01*
X47269289Y-31959165D01*
X47144102Y-31742335D01*
X46987997Y-31546586D01*
X46987996Y-31546585D01*
X46987993Y-31546581D01*
X46804460Y-31376288D01*
X46681543Y-31292485D01*
X46597592Y-31235248D01*
X46597588Y-31235246D01*
X46597585Y-31235244D01*
X46597584Y-31235243D01*
X46372015Y-31126616D01*
X46372017Y-31126616D01*
X46132765Y-31052816D01*
X46132759Y-31052814D01*
X45885194Y-31015500D01*
X45885187Y-31015500D01*
X45634813Y-31015500D01*
X45634805Y-31015500D01*
X45387240Y-31052814D01*
X45387234Y-31052816D01*
X45147983Y-31126616D01*
X44922415Y-31235243D01*
X44922414Y-31235244D01*
X44715539Y-31376288D01*
X44532006Y-31546581D01*
X44375898Y-31742335D01*
X44250711Y-31959164D01*
X44159242Y-32192225D01*
X44159236Y-32192244D01*
X44103525Y-32436331D01*
X44103524Y-32436336D01*
X44084816Y-32685995D01*
X44084816Y-32686004D01*
X44103524Y-32935663D01*
X44103525Y-32935668D01*
X44159236Y-33179755D01*
X44159238Y-33179764D01*
X44159240Y-33179769D01*
X44250711Y-33412835D01*
X44375898Y-33629665D01*
X44434358Y-33702971D01*
X44445695Y-33717187D01*
X44472103Y-33781874D01*
X44459348Y-33850569D01*
X44411477Y-33901463D01*
X44348748Y-33918500D01*
X41204453Y-33918500D01*
X41137414Y-33898815D01*
X41116772Y-33882181D01*
X41070960Y-33836369D01*
X41037475Y-33775046D01*
X41035323Y-33761668D01*
X41017674Y-33593744D01*
X40959179Y-33413716D01*
X40864533Y-33249784D01*
X40737871Y-33109112D01*
X40732012Y-33104855D01*
X40584734Y-32997851D01*
X40584729Y-32997848D01*
X40411807Y-32920857D01*
X40411802Y-32920855D01*
X40266001Y-32889865D01*
X40226646Y-32881500D01*
X40037354Y-32881500D01*
X40004897Y-32888398D01*
X39852197Y-32920855D01*
X39852192Y-32920857D01*
X39679270Y-32997848D01*
X39679265Y-32997851D01*
X39526129Y-33109111D01*
X39399466Y-33249785D01*
X39304821Y-33413715D01*
X39304818Y-33413722D01*
X39246327Y-33593740D01*
X39246326Y-33593744D01*
X39226540Y-33782000D01*
X39246326Y-33970256D01*
X39246327Y-33970259D01*
X39304818Y-34150277D01*
X39304821Y-34150284D01*
X39399467Y-34314216D01*
X39437539Y-34356499D01*
X39526129Y-34454888D01*
X39679265Y-34566148D01*
X39679270Y-34566151D01*
X39852192Y-34643142D01*
X39852197Y-34643144D01*
X40037354Y-34682500D01*
X40096548Y-34682500D01*
X40163587Y-34702185D01*
X40184229Y-34718819D01*
X40393194Y-34927784D01*
X40403019Y-34940048D01*
X40403240Y-34939866D01*
X40408210Y-34945873D01*
X40408213Y-34945876D01*
X40408214Y-34945877D01*
X40458651Y-34993241D01*
X40479530Y-35014120D01*
X40485004Y-35018366D01*
X40489442Y-35022156D01*
X40523418Y-35054062D01*
X40523422Y-35054064D01*
X40540973Y-35063713D01*
X40557231Y-35074392D01*
X40573064Y-35086674D01*
X40595015Y-35096172D01*
X40615837Y-35105183D01*
X40621081Y-35107752D01*
X40661908Y-35130197D01*
X40681312Y-35135179D01*
X40699710Y-35141478D01*
X40718105Y-35149438D01*
X40764129Y-35156726D01*
X40769832Y-35157907D01*
X40814981Y-35169500D01*
X40835016Y-35169500D01*
X40854413Y-35171026D01*
X40874196Y-35174160D01*
X40920584Y-35169775D01*
X40926422Y-35169500D01*
X42132546Y-35169500D01*
X42199585Y-35189185D01*
X42245340Y-35241989D01*
X42255284Y-35311147D01*
X42226259Y-35374703D01*
X42220226Y-35381182D01*
X42161207Y-35440200D01*
X42148951Y-35450020D01*
X42149134Y-35450241D01*
X42143123Y-35455213D01*
X42095772Y-35505636D01*
X42074889Y-35526519D01*
X42074877Y-35526532D01*
X42070621Y-35532017D01*
X42066837Y-35536447D01*
X42034937Y-35570418D01*
X42034936Y-35570420D01*
X42025284Y-35587976D01*
X42014610Y-35604226D01*
X42002329Y-35620061D01*
X42002324Y-35620068D01*
X41983815Y-35662838D01*
X41981245Y-35668084D01*
X41958803Y-35708906D01*
X41953822Y-35728307D01*
X41947521Y-35746710D01*
X41939562Y-35765102D01*
X41939561Y-35765105D01*
X41932271Y-35811127D01*
X41931087Y-35816846D01*
X41919501Y-35861972D01*
X41919500Y-35861982D01*
X41919500Y-35882016D01*
X41917973Y-35901415D01*
X41914967Y-35920397D01*
X41914840Y-35921196D01*
X41916907Y-35943061D01*
X41919225Y-35967583D01*
X41919500Y-35973421D01*
X41919500Y-40684255D01*
X41917775Y-40699872D01*
X41918061Y-40699899D01*
X41917326Y-40707665D01*
X41919500Y-40776814D01*
X41919500Y-40806343D01*
X41919501Y-40806360D01*
X41920368Y-40813231D01*
X41920826Y-40819050D01*
X41922290Y-40865624D01*
X41922291Y-40865627D01*
X41927880Y-40884867D01*
X41931824Y-40903911D01*
X41934336Y-40923792D01*
X41945575Y-40952178D01*
X41951490Y-40967119D01*
X41953382Y-40972647D01*
X41966381Y-41017388D01*
X41976580Y-41034634D01*
X41985138Y-41052103D01*
X41992514Y-41070732D01*
X42019898Y-41108423D01*
X42023106Y-41113307D01*
X42046827Y-41153416D01*
X42046833Y-41153424D01*
X42060990Y-41167580D01*
X42073628Y-41182376D01*
X42078727Y-41189395D01*
X42085406Y-41198587D01*
X42114330Y-41222515D01*
X42121309Y-41228288D01*
X42125620Y-41232210D01*
X42372678Y-41479268D01*
X42601762Y-41708352D01*
X42635247Y-41769675D01*
X42633856Y-41828126D01*
X42606938Y-41928586D01*
X42606936Y-41928596D01*
X42586341Y-42163999D01*
X42586341Y-42164002D01*
X42597697Y-42293806D01*
X42583930Y-42362306D01*
X42535315Y-42412489D01*
X42467286Y-42428422D01*
X42401443Y-42405046D01*
X42386488Y-42392294D01*
X41730975Y-41736781D01*
X40793819Y-40799624D01*
X40760334Y-40738301D01*
X40757500Y-40711943D01*
X40757500Y-37274687D01*
X40777185Y-37207648D01*
X40789350Y-37191715D01*
X40807891Y-37171122D01*
X40864533Y-37108216D01*
X40959179Y-36944284D01*
X41017674Y-36764256D01*
X41037460Y-36576000D01*
X41017674Y-36387744D01*
X40959179Y-36207716D01*
X40864533Y-36043784D01*
X40737871Y-35903112D01*
X40737870Y-35903111D01*
X40584734Y-35791851D01*
X40584729Y-35791848D01*
X40411807Y-35714857D01*
X40411802Y-35714855D01*
X40266001Y-35683865D01*
X40226646Y-35675500D01*
X40037354Y-35675500D01*
X40004897Y-35682398D01*
X39852197Y-35714855D01*
X39852192Y-35714857D01*
X39679270Y-35791848D01*
X39679265Y-35791851D01*
X39526129Y-35903111D01*
X39399466Y-36043785D01*
X39304821Y-36207715D01*
X39304818Y-36207722D01*
X39246327Y-36387740D01*
X39246326Y-36387744D01*
X39226540Y-36576000D01*
X39246326Y-36764256D01*
X39246327Y-36764259D01*
X39304818Y-36944277D01*
X39304821Y-36944284D01*
X39399467Y-37108216D01*
X39439154Y-37152292D01*
X39474650Y-37191715D01*
X39504880Y-37254706D01*
X39506500Y-37274687D01*
X39506500Y-40939651D01*
X39504775Y-40955268D01*
X39505061Y-40955295D01*
X39504326Y-40963061D01*
X39506500Y-41032210D01*
X39506500Y-41061739D01*
X39506501Y-41061756D01*
X39507368Y-41068627D01*
X39507826Y-41074446D01*
X39509290Y-41121020D01*
X39509291Y-41121023D01*
X39514880Y-41140263D01*
X39518824Y-41159307D01*
X39521336Y-41179188D01*
X39537755Y-41220658D01*
X39538490Y-41222515D01*
X39540382Y-41228043D01*
X39553381Y-41272784D01*
X39563580Y-41290030D01*
X39572136Y-41307496D01*
X39574270Y-41312883D01*
X39579514Y-41326128D01*
X39606898Y-41363819D01*
X39610106Y-41368703D01*
X39633827Y-41408812D01*
X39633833Y-41408820D01*
X39647990Y-41422976D01*
X39660628Y-41437772D01*
X39672405Y-41453982D01*
X39672406Y-41453983D01*
X39708309Y-41483684D01*
X39712620Y-41487606D01*
X41472287Y-43247274D01*
X42042801Y-43817788D01*
X42052626Y-43830051D01*
X42052847Y-43829869D01*
X42057818Y-43835878D01*
X42083821Y-43860295D01*
X42108239Y-43883226D01*
X42129133Y-43904120D01*
X42134615Y-43908373D01*
X42139047Y-43912157D01*
X42173022Y-43944062D01*
X42190580Y-43953714D01*
X42206839Y-43964395D01*
X42222668Y-43976673D01*
X42265442Y-43995182D01*
X42270660Y-43997738D01*
X42311512Y-44020197D01*
X42330920Y-44025180D01*
X42349321Y-44031480D01*
X42367708Y-44039437D01*
X42411092Y-44046308D01*
X42413723Y-44046725D01*
X42419443Y-44047909D01*
X42464585Y-44059500D01*
X42484620Y-44059500D01*
X42504018Y-44061026D01*
X42523800Y-44064160D01*
X42545135Y-44062143D01*
X42613730Y-44075431D01*
X42664251Y-44123695D01*
X42680659Y-44191611D01*
X42669873Y-44235229D01*
X42669947Y-44235256D01*
X42669698Y-44235938D01*
X42669192Y-44237987D01*
X42668100Y-44240328D01*
X42668094Y-44240344D01*
X42606938Y-44468586D01*
X42606936Y-44468596D01*
X42586341Y-44703999D01*
X42586341Y-44704000D01*
X42606936Y-44939403D01*
X42606938Y-44939413D01*
X42668094Y-45167655D01*
X42668096Y-45167659D01*
X42668097Y-45167663D01*
X42739787Y-45321402D01*
X42767965Y-45381830D01*
X42767967Y-45381834D01*
X42903501Y-45575395D01*
X42903506Y-45575402D01*
X43070597Y-45742493D01*
X43070603Y-45742498D01*
X43099563Y-45762776D01*
X43212098Y-45841574D01*
X43256594Y-45872730D01*
X43300219Y-45927307D01*
X43307413Y-45996805D01*
X43275890Y-46059160D01*
X43256595Y-46075880D01*
X43070922Y-46205890D01*
X43070920Y-46205891D01*
X42903891Y-46372920D01*
X42903886Y-46372926D01*
X42768400Y-46566420D01*
X42768399Y-46566422D01*
X42668570Y-46780507D01*
X42668567Y-46780513D01*
X42611364Y-46993999D01*
X42611364Y-46994000D01*
X43508314Y-46994000D01*
X43482507Y-47034156D01*
X43442000Y-47172111D01*
X43442000Y-47315889D01*
X43482507Y-47453844D01*
X43508314Y-47494000D01*
X42611364Y-47494000D01*
X42668567Y-47707486D01*
X42668570Y-47707492D01*
X42768399Y-47921578D01*
X42903894Y-48115082D01*
X43070917Y-48282105D01*
X43256595Y-48412119D01*
X43300219Y-48466696D01*
X43307412Y-48536195D01*
X43275890Y-48598549D01*
X43256595Y-48615269D01*
X43070594Y-48745508D01*
X42903505Y-48912597D01*
X42768348Y-49105623D01*
X42713771Y-49149248D01*
X42666773Y-49158500D01*
X41484737Y-49158500D01*
X41469120Y-49156776D01*
X41469093Y-49157062D01*
X41461331Y-49156327D01*
X41392203Y-49158500D01*
X41362650Y-49158500D01*
X41361929Y-49158590D01*
X41355757Y-49159369D01*
X41349945Y-49159826D01*
X41303372Y-49161290D01*
X41303369Y-49161291D01*
X41284126Y-49166881D01*
X41265083Y-49170825D01*
X41245204Y-49173336D01*
X41245203Y-49173337D01*
X41201878Y-49190490D01*
X41196352Y-49192382D01*
X41151608Y-49205383D01*
X41151604Y-49205385D01*
X41134365Y-49215580D01*
X41116898Y-49224137D01*
X41098269Y-49231512D01*
X41098267Y-49231513D01*
X41060564Y-49258906D01*
X41055682Y-49262112D01*
X41015580Y-49285828D01*
X41001408Y-49300000D01*
X40986623Y-49312628D01*
X40973977Y-49321817D01*
X40970412Y-49324407D01*
X40940709Y-49360310D01*
X40936776Y-49364631D01*
X40070912Y-50230497D01*
X39216423Y-51084986D01*
X39155100Y-51118471D01*
X39128742Y-51121305D01*
X37289499Y-51121305D01*
X37222460Y-51101620D01*
X37176705Y-51048816D01*
X37165499Y-50997305D01*
X37165499Y-50775600D01*
X37165498Y-50775594D01*
X37160830Y-50732170D01*
X37159091Y-50715988D01*
X37124461Y-50623141D01*
X37108797Y-50581142D01*
X37108793Y-50581135D01*
X37022547Y-50465926D01*
X37022546Y-50465925D01*
X37016063Y-50461072D01*
X36974191Y-50405139D01*
X36969207Y-50335448D01*
X37002691Y-50274124D01*
X37016063Y-50262538D01*
X37017977Y-50261105D01*
X37022546Y-50257685D01*
X37108796Y-50142470D01*
X37159091Y-50007622D01*
X37165500Y-49948012D01*
X37165499Y-48005599D01*
X37159091Y-47945988D01*
X37153052Y-47929797D01*
X37108797Y-47811142D01*
X37108793Y-47811135D01*
X37022547Y-47695926D01*
X37022546Y-47695925D01*
X37016063Y-47691072D01*
X36974191Y-47635139D01*
X36969207Y-47565448D01*
X37002691Y-47504124D01*
X37016063Y-47492538D01*
X37022546Y-47487685D01*
X37108796Y-47372470D01*
X37159091Y-47237622D01*
X37165500Y-47178012D01*
X37165499Y-45235599D01*
X37159091Y-45175988D01*
X37157440Y-45171562D01*
X37108797Y-45041142D01*
X37108793Y-45041135D01*
X37022547Y-44925926D01*
X37022546Y-44925925D01*
X37016063Y-44921072D01*
X36974191Y-44865139D01*
X36969207Y-44795448D01*
X37002691Y-44734124D01*
X37016063Y-44722538D01*
X37022546Y-44717685D01*
X37108796Y-44602470D01*
X37159091Y-44467622D01*
X37165500Y-44408012D01*
X37165499Y-42465599D01*
X37159091Y-42405988D01*
X37156957Y-42400267D01*
X37108797Y-42271142D01*
X37108793Y-42271135D01*
X37028590Y-42163999D01*
X37022546Y-42155925D01*
X37015641Y-42150756D01*
X36973773Y-42094822D01*
X36968791Y-42025130D01*
X37002278Y-41963808D01*
X37015650Y-41952221D01*
X37022192Y-41947323D01*
X37108350Y-41832232D01*
X37108354Y-41832225D01*
X37158596Y-41697518D01*
X37158598Y-41697511D01*
X37164999Y-41637983D01*
X37165000Y-41637966D01*
X37165000Y-40916805D01*
X34799000Y-40916805D01*
X34731961Y-40897120D01*
X34686206Y-40844316D01*
X34675000Y-40792805D01*
X34675000Y-40540805D01*
X34694685Y-40473766D01*
X34747489Y-40428011D01*
X34799000Y-40416805D01*
X37165000Y-40416805D01*
X37165000Y-39695643D01*
X37164999Y-39695626D01*
X37158598Y-39636098D01*
X37158596Y-39636091D01*
X37108354Y-39501384D01*
X37108350Y-39501377D01*
X37022190Y-39386283D01*
X37022189Y-39386282D01*
X37015646Y-39381384D01*
X36973774Y-39325451D01*
X36968790Y-39255759D01*
X37002275Y-39194436D01*
X37015641Y-39182853D01*
X37022546Y-39177685D01*
X37108796Y-39062470D01*
X37159091Y-38927622D01*
X37165500Y-38868012D01*
X37165499Y-36925599D01*
X37159091Y-36865988D01*
X37157118Y-36860699D01*
X37108797Y-36731142D01*
X37108793Y-36731135D01*
X37022547Y-36615926D01*
X37022546Y-36615925D01*
X37016063Y-36611072D01*
X36974191Y-36555139D01*
X36969207Y-36485448D01*
X37002691Y-36424124D01*
X37016063Y-36412538D01*
X37022546Y-36407685D01*
X37108796Y-36292470D01*
X37159091Y-36157622D01*
X37165500Y-36098012D01*
X37165499Y-34155599D01*
X37159091Y-34095988D01*
X37158390Y-34094109D01*
X37108797Y-33961142D01*
X37108793Y-33961135D01*
X37022547Y-33845926D01*
X37022544Y-33845923D01*
X36907335Y-33759677D01*
X36907328Y-33759673D01*
X36772482Y-33709379D01*
X36772483Y-33709379D01*
X36712883Y-33702972D01*
X36712881Y-33702971D01*
X36712873Y-33702971D01*
X36712865Y-33702971D01*
X33652000Y-33702971D01*
X33584961Y-33683286D01*
X33539206Y-33630482D01*
X33528000Y-33578971D01*
X33528000Y-24164156D01*
X33547685Y-24097117D01*
X33600489Y-24051362D01*
X33669647Y-24041418D01*
X33733203Y-24070443D01*
X33770977Y-24129221D01*
X33774366Y-24144095D01*
X33807024Y-24343303D01*
X33807030Y-24343329D01*
X33904221Y-24693381D01*
X33904226Y-24693396D01*
X34038700Y-25030901D01*
X34038706Y-25030913D01*
X34208878Y-25351892D01*
X34208884Y-25351901D01*
X34326664Y-25525614D01*
X34412773Y-25652614D01*
X34647979Y-25929521D01*
X34911746Y-26179375D01*
X35200981Y-26399245D01*
X35512292Y-26586555D01*
X35512294Y-26586556D01*
X35512296Y-26586557D01*
X35512300Y-26586559D01*
X35525922Y-26592861D01*
X35842031Y-26739108D01*
X36186330Y-26855116D01*
X36541153Y-26933218D01*
X36902341Y-26972500D01*
X36902347Y-26972500D01*
X37265653Y-26972500D01*
X37265659Y-26972500D01*
X37626847Y-26933218D01*
X37981670Y-26855116D01*
X38325969Y-26739108D01*
X38655708Y-26586555D01*
X38967019Y-26399245D01*
X39256254Y-26179375D01*
X39520021Y-25929521D01*
X39755227Y-25652614D01*
X39959117Y-25351900D01*
X40129298Y-25030905D01*
X40263775Y-24693391D01*
X40360973Y-24343316D01*
X40405708Y-24070443D01*
X40419749Y-23984799D01*
X40419751Y-23984782D01*
X40419941Y-23981288D01*
X40436404Y-23677645D01*
X40439421Y-23622002D01*
X40439421Y-23621997D01*
X40419751Y-23259217D01*
X40419749Y-23259200D01*
X40360975Y-22900696D01*
X40360974Y-22900695D01*
X40360973Y-22900684D01*
X40325708Y-22773670D01*
X40263778Y-22550618D01*
X40263773Y-22550603D01*
X40129299Y-22213098D01*
X40129298Y-22213095D01*
X39959860Y-21893501D01*
X39959121Y-21892107D01*
X39959119Y-21892104D01*
X39959117Y-21892100D01*
X39755227Y-21591386D01*
X39520021Y-21314479D01*
X39256254Y-21064625D01*
X39256244Y-21064617D01*
X39187635Y-21012462D01*
X38967019Y-20844755D01*
X38655708Y-20657445D01*
X38655707Y-20657444D01*
X38655703Y-20657442D01*
X38655699Y-20657440D01*
X38325979Y-20504896D01*
X38325974Y-20504894D01*
X38325969Y-20504892D01*
X38158143Y-20448344D01*
X37981669Y-20388883D01*
X37626845Y-20310781D01*
X37265660Y-20271500D01*
X37265659Y-20271500D01*
X36902341Y-20271500D01*
X36902339Y-20271500D01*
X36541154Y-20310781D01*
X36186330Y-20388883D01*
X35920178Y-20478560D01*
X35842031Y-20504892D01*
X35842028Y-20504893D01*
X35842020Y-20504896D01*
X35512300Y-20657440D01*
X35512296Y-20657442D01*
X35412056Y-20717755D01*
X35200981Y-20844755D01*
X35111332Y-20912903D01*
X34911755Y-21064617D01*
X34911745Y-21064625D01*
X34647978Y-21314479D01*
X34412772Y-21591386D01*
X34208884Y-21892098D01*
X34208878Y-21892107D01*
X34038706Y-22213086D01*
X34038700Y-22213098D01*
X33904226Y-22550603D01*
X33904221Y-22550618D01*
X33807030Y-22900670D01*
X33807024Y-22900696D01*
X33774366Y-23099904D01*
X33744095Y-23162876D01*
X33684585Y-23199485D01*
X33614729Y-23198109D01*
X33556706Y-23159184D01*
X33528938Y-23095069D01*
X33528000Y-23079843D01*
X33528000Y-19682000D01*
X33547685Y-19614961D01*
X33600489Y-19569206D01*
X33652000Y-19558000D01*
X100206000Y-19558000D01*
X100273039Y-19577685D01*
G37*
%TD.AperFunction*%
%TA.AperFunction,Conductor*%
G36*
X54089821Y-41718185D02*
G01*
X54135576Y-41770989D01*
X54145520Y-41840147D01*
X54142557Y-41854593D01*
X54086366Y-42064302D01*
X54086364Y-42064313D01*
X54066532Y-42290998D01*
X54066532Y-42291001D01*
X54086364Y-42517686D01*
X54086366Y-42517697D01*
X54145258Y-42737488D01*
X54145261Y-42737497D01*
X54241431Y-42943732D01*
X54241432Y-42943734D01*
X54371954Y-43130141D01*
X54532858Y-43291045D01*
X54532861Y-43291047D01*
X54719266Y-43421568D01*
X54925504Y-43517739D01*
X55145308Y-43576635D01*
X55307230Y-43590801D01*
X55371998Y-43596468D01*
X55372000Y-43596468D01*
X55372002Y-43596468D01*
X55428673Y-43591509D01*
X55598692Y-43576635D01*
X55818496Y-43517739D01*
X56024734Y-43421568D01*
X56211139Y-43291047D01*
X56372047Y-43130139D01*
X56502568Y-42943734D01*
X56598739Y-42737496D01*
X56657635Y-42517692D01*
X56677468Y-42291000D01*
X56675730Y-42271140D01*
X56668031Y-42183133D01*
X56657635Y-42064308D01*
X56623657Y-41937500D01*
X56601443Y-41854593D01*
X56603106Y-41784743D01*
X56642269Y-41726881D01*
X56706497Y-41699377D01*
X56721218Y-41698500D01*
X66543548Y-41698500D01*
X66610587Y-41718185D01*
X66631224Y-41734814D01*
X66772587Y-41876178D01*
X66806071Y-41937500D01*
X66804680Y-41995949D01*
X66786367Y-42064296D01*
X66786364Y-42064313D01*
X66766532Y-42290999D01*
X66766532Y-42291001D01*
X66786364Y-42517686D01*
X66786366Y-42517697D01*
X66845258Y-42737488D01*
X66845261Y-42737497D01*
X66941431Y-42943732D01*
X66941432Y-42943734D01*
X67071954Y-43130141D01*
X67232858Y-43291045D01*
X67232861Y-43291047D01*
X67419266Y-43421568D01*
X67625504Y-43517739D01*
X67845308Y-43576635D01*
X68007230Y-43590801D01*
X68071998Y-43596468D01*
X68072000Y-43596468D01*
X68072002Y-43596468D01*
X68128673Y-43591509D01*
X68298692Y-43576635D01*
X68518496Y-43517739D01*
X68540093Y-43507667D01*
X68609169Y-43497173D01*
X68672954Y-43525691D01*
X68711195Y-43584167D01*
X68716500Y-43620048D01*
X68716500Y-46171546D01*
X68696815Y-46238585D01*
X68680181Y-46259227D01*
X68264180Y-46675228D01*
X68202857Y-46708713D01*
X68133165Y-46703729D01*
X68077232Y-46661857D01*
X68052815Y-46596393D01*
X68052499Y-46587547D01*
X68052499Y-45938129D01*
X68052498Y-45938123D01*
X68052497Y-45938116D01*
X68046091Y-45878517D01*
X68045911Y-45878035D01*
X67995797Y-45743671D01*
X67995793Y-45743664D01*
X67909547Y-45628455D01*
X67909544Y-45628452D01*
X67794335Y-45542206D01*
X67794328Y-45542202D01*
X67659482Y-45491908D01*
X67659483Y-45491908D01*
X67599883Y-45485501D01*
X67599881Y-45485500D01*
X67599873Y-45485500D01*
X67599864Y-45485500D01*
X66004129Y-45485500D01*
X66004123Y-45485501D01*
X65944516Y-45491908D01*
X65809671Y-45542202D01*
X65809664Y-45542206D01*
X65694455Y-45628452D01*
X65694452Y-45628455D01*
X65608206Y-45743664D01*
X65608202Y-45743671D01*
X65557908Y-45878517D01*
X65552663Y-45927307D01*
X65551501Y-45938123D01*
X65551500Y-45938135D01*
X65551500Y-47533870D01*
X65551501Y-47533876D01*
X65557908Y-47593483D01*
X65608202Y-47728328D01*
X65608206Y-47728335D01*
X65694452Y-47843544D01*
X65694455Y-47843547D01*
X65809664Y-47929793D01*
X65809671Y-47929797D01*
X65944517Y-47980091D01*
X65944516Y-47980091D01*
X65951444Y-47980835D01*
X66004127Y-47986500D01*
X66653547Y-47986499D01*
X66720585Y-48006183D01*
X66766340Y-48058987D01*
X66776284Y-48128146D01*
X66747259Y-48191702D01*
X66741227Y-48198180D01*
X65817228Y-49122181D01*
X65755905Y-49155666D01*
X65729547Y-49158500D01*
X65436188Y-49158500D01*
X65369149Y-49138815D01*
X65334613Y-49105623D01*
X65222045Y-48944858D01*
X65061141Y-48783954D01*
X64874734Y-48653432D01*
X64874732Y-48653431D01*
X64668497Y-48557261D01*
X64668488Y-48557258D01*
X64448697Y-48498366D01*
X64448693Y-48498365D01*
X64448692Y-48498365D01*
X64448691Y-48498364D01*
X64448686Y-48498364D01*
X64222002Y-48478532D01*
X64221998Y-48478532D01*
X63995313Y-48498364D01*
X63995302Y-48498366D01*
X63775511Y-48557258D01*
X63775502Y-48557261D01*
X63569267Y-48653431D01*
X63569265Y-48653432D01*
X63382858Y-48783954D01*
X63221954Y-48944858D01*
X63091432Y-49131265D01*
X63091431Y-49131267D01*
X62995261Y-49337502D01*
X62995258Y-49337511D01*
X62936366Y-49557302D01*
X62936364Y-49557313D01*
X62916532Y-49783998D01*
X62916532Y-49784001D01*
X62936364Y-50010686D01*
X62936367Y-50010703D01*
X62946269Y-50047659D01*
X62944605Y-50117509D01*
X62905442Y-50175370D01*
X62841213Y-50202873D01*
X62772311Y-50191286D01*
X62738815Y-50167432D01*
X62129819Y-49558436D01*
X62096334Y-49497113D01*
X62093500Y-49470755D01*
X62093500Y-48977737D01*
X62095223Y-48962120D01*
X62094938Y-48962093D01*
X62095672Y-48954331D01*
X62093500Y-48885203D01*
X62093500Y-48855651D01*
X62093500Y-48855650D01*
X62092629Y-48848759D01*
X62092172Y-48842945D01*
X62090709Y-48796372D01*
X62085122Y-48777144D01*
X62081174Y-48758084D01*
X62078664Y-48738208D01*
X62061507Y-48694875D01*
X62059619Y-48689359D01*
X62046619Y-48644612D01*
X62036418Y-48627363D01*
X62027860Y-48609894D01*
X62020486Y-48591268D01*
X62020483Y-48591264D01*
X62020483Y-48591263D01*
X61993098Y-48553571D01*
X61989890Y-48548687D01*
X61966172Y-48508582D01*
X61966163Y-48508571D01*
X61952005Y-48494413D01*
X61939370Y-48479620D01*
X61927593Y-48463412D01*
X61891693Y-48433713D01*
X61887381Y-48429790D01*
X58666803Y-45209212D01*
X58656980Y-45196950D01*
X58656759Y-45197134D01*
X58651786Y-45191123D01*
X58633159Y-45173631D01*
X58601364Y-45143773D01*
X58590919Y-45133328D01*
X58580475Y-45122883D01*
X58574986Y-45118625D01*
X58570561Y-45114847D01*
X58536582Y-45082938D01*
X58536580Y-45082936D01*
X58536577Y-45082935D01*
X58519029Y-45073288D01*
X58502763Y-45062604D01*
X58486936Y-45050327D01*
X58486935Y-45050326D01*
X58486933Y-45050325D01*
X58444168Y-45031818D01*
X58438922Y-45029248D01*
X58398093Y-45006803D01*
X58398092Y-45006802D01*
X58378693Y-45001822D01*
X58360281Y-44995518D01*
X58341898Y-44987562D01*
X58341892Y-44987560D01*
X58295874Y-44980272D01*
X58290152Y-44979087D01*
X58245021Y-44967500D01*
X58245019Y-44967500D01*
X58224984Y-44967500D01*
X58205586Y-44965973D01*
X58198162Y-44964797D01*
X58185805Y-44962840D01*
X58185804Y-44962840D01*
X58139416Y-44967225D01*
X58133578Y-44967500D01*
X56216738Y-44967500D01*
X56201121Y-44965776D01*
X56201094Y-44966062D01*
X56193332Y-44965327D01*
X56124204Y-44967500D01*
X56094650Y-44967500D01*
X56093929Y-44967590D01*
X56087757Y-44968369D01*
X56081945Y-44968826D01*
X56035373Y-44970290D01*
X56035372Y-44970290D01*
X56016129Y-44975881D01*
X55997079Y-44979825D01*
X55977211Y-44982334D01*
X55933884Y-44999488D01*
X55928358Y-45001379D01*
X55883614Y-45014379D01*
X55883610Y-45014381D01*
X55866366Y-45024579D01*
X55848905Y-45033133D01*
X55830274Y-45040510D01*
X55830262Y-45040517D01*
X55792570Y-45067902D01*
X55787687Y-45071109D01*
X55747580Y-45094829D01*
X55733414Y-45108995D01*
X55718624Y-45121627D01*
X55702414Y-45133404D01*
X55702411Y-45133407D01*
X55672710Y-45169309D01*
X55668777Y-45173631D01*
X54075228Y-46767181D01*
X54013905Y-46800666D01*
X53987547Y-46803500D01*
X50453048Y-46803500D01*
X50437427Y-46801775D01*
X50437401Y-46802061D01*
X50429639Y-46801327D01*
X50429638Y-46801327D01*
X50360491Y-46803500D01*
X50330954Y-46803500D01*
X50324071Y-46804369D01*
X50318254Y-46804826D01*
X50271678Y-46806290D01*
X50252434Y-46811881D01*
X50233384Y-46815825D01*
X50213516Y-46818334D01*
X50170189Y-46835488D01*
X50164663Y-46837379D01*
X50119919Y-46850379D01*
X50119915Y-46850381D01*
X50102671Y-46860579D01*
X50085210Y-46869133D01*
X50066579Y-46876510D01*
X50066567Y-46876517D01*
X50028875Y-46903902D01*
X50023992Y-46907109D01*
X49983885Y-46930829D01*
X49969719Y-46944995D01*
X49954929Y-46957627D01*
X49938719Y-46969404D01*
X49938716Y-46969407D01*
X49909015Y-47005309D01*
X49905082Y-47009631D01*
X47792533Y-49122181D01*
X47731210Y-49155666D01*
X47704852Y-49158500D01*
X45217227Y-49158500D01*
X45150188Y-49138815D01*
X45115652Y-49105623D01*
X44980494Y-48912597D01*
X44813402Y-48745506D01*
X44813401Y-48745505D01*
X44627405Y-48615269D01*
X44583781Y-48560692D01*
X44576588Y-48491193D01*
X44608110Y-48428839D01*
X44627405Y-48412119D01*
X44813082Y-48282105D01*
X44980105Y-48115082D01*
X45115600Y-47921578D01*
X45215429Y-47707492D01*
X45215432Y-47707486D01*
X45272636Y-47494000D01*
X44375686Y-47494000D01*
X44401493Y-47453844D01*
X44442000Y-47315889D01*
X44442000Y-47172111D01*
X44401493Y-47034156D01*
X44375686Y-46994000D01*
X45272636Y-46994000D01*
X45272635Y-46993999D01*
X45215432Y-46780513D01*
X45215429Y-46780507D01*
X45115600Y-46566422D01*
X45115599Y-46566420D01*
X44980113Y-46372926D01*
X44980108Y-46372920D01*
X44813078Y-46205890D01*
X44627405Y-46075879D01*
X44583780Y-46021302D01*
X44576588Y-45951804D01*
X44608110Y-45889449D01*
X44627406Y-45872730D01*
X44813401Y-45742495D01*
X44980495Y-45575401D01*
X45116035Y-45381830D01*
X45215903Y-45167663D01*
X45277063Y-44939408D01*
X45297659Y-44704000D01*
X45277063Y-44468592D01*
X45277061Y-44468586D01*
X45276984Y-44468296D01*
X45276987Y-44468162D01*
X45276122Y-44463255D01*
X45277107Y-44463081D01*
X45278641Y-44398446D01*
X45309073Y-44348515D01*
X46103786Y-43553802D01*
X46116048Y-43543980D01*
X46115865Y-43543759D01*
X46121867Y-43538792D01*
X46121877Y-43538786D01*
X46169241Y-43488348D01*
X46190120Y-43467470D01*
X46194373Y-43461986D01*
X46198150Y-43457563D01*
X46230062Y-43423582D01*
X46239714Y-43406023D01*
X46250389Y-43389772D01*
X46262674Y-43373936D01*
X46281186Y-43331152D01*
X46283742Y-43325935D01*
X46306197Y-43285092D01*
X46311180Y-43265680D01*
X46317477Y-43247291D01*
X46325438Y-43228895D01*
X46332729Y-43182853D01*
X46333908Y-43177162D01*
X46345500Y-43132019D01*
X46345500Y-43111983D01*
X46347027Y-43092582D01*
X46350160Y-43072804D01*
X46345775Y-43026415D01*
X46345500Y-43020577D01*
X46345500Y-41839453D01*
X46365185Y-41772414D01*
X46381821Y-41751769D01*
X46398775Y-41734816D01*
X46460099Y-41701333D01*
X46486454Y-41698500D01*
X54022782Y-41698500D01*
X54089821Y-41718185D01*
G37*
%TD.AperFunction*%
%TA.AperFunction,Conductor*%
G36*
X96738835Y-37852269D02*
G01*
X96794768Y-37894141D01*
X96819185Y-37959605D01*
X96819501Y-37968451D01*
X96819501Y-38182210D01*
X96825908Y-38241817D01*
X96876202Y-38376662D01*
X96876206Y-38376669D01*
X96962452Y-38491878D01*
X96962453Y-38491879D01*
X96969356Y-38497047D01*
X97011226Y-38552981D01*
X97016209Y-38622673D01*
X96982722Y-38683995D01*
X96969357Y-38695577D01*
X96962809Y-38700479D01*
X96876649Y-38815572D01*
X96876645Y-38815579D01*
X96826403Y-38950286D01*
X96826401Y-38950293D01*
X96820000Y-39009821D01*
X96820000Y-39731000D01*
X99186000Y-39731000D01*
X99253039Y-39750685D01*
X99298794Y-39803489D01*
X99310000Y-39855000D01*
X99310000Y-40107000D01*
X99290315Y-40174039D01*
X99237511Y-40219794D01*
X99186000Y-40231000D01*
X96820000Y-40231000D01*
X96820000Y-40952178D01*
X96826401Y-41011706D01*
X96826403Y-41011713D01*
X96876645Y-41146420D01*
X96876649Y-41146427D01*
X96962809Y-41261521D01*
X96969352Y-41266419D01*
X97011224Y-41322352D01*
X97016210Y-41392044D01*
X96982725Y-41453367D01*
X96969360Y-41464949D01*
X96962456Y-41470117D01*
X96962452Y-41470121D01*
X96876206Y-41585330D01*
X96876202Y-41585337D01*
X96825908Y-41720183D01*
X96819501Y-41779782D01*
X96819500Y-41779801D01*
X96819500Y-43722204D01*
X96819501Y-43722210D01*
X96825908Y-43781817D01*
X96876202Y-43916662D01*
X96876206Y-43916669D01*
X96962452Y-44031878D01*
X96962454Y-44031880D01*
X96968939Y-44036735D01*
X97010809Y-44092670D01*
X97015791Y-44162362D01*
X96982305Y-44223684D01*
X96968939Y-44235265D01*
X96962454Y-44240119D01*
X96962452Y-44240121D01*
X96876206Y-44355330D01*
X96876202Y-44355337D01*
X96825908Y-44490183D01*
X96819501Y-44549782D01*
X96819500Y-44549801D01*
X96819500Y-45911361D01*
X96799815Y-45978400D01*
X96747011Y-46024155D01*
X96677853Y-46034099D01*
X96614297Y-46005074D01*
X96588768Y-45974482D01*
X96580421Y-45960368D01*
X96571861Y-45942894D01*
X96564487Y-45924270D01*
X96555108Y-45911361D01*
X96537079Y-45886545D01*
X96533888Y-45881686D01*
X96532013Y-45878516D01*
X96510170Y-45841580D01*
X96510168Y-45841578D01*
X96510165Y-45841574D01*
X96496006Y-45827415D01*
X96483368Y-45812619D01*
X96471594Y-45796413D01*
X96435688Y-45766709D01*
X96431376Y-45762786D01*
X96020538Y-45351947D01*
X95987053Y-45290624D01*
X95984219Y-45264266D01*
X95984219Y-38555733D01*
X96003904Y-38488694D01*
X96020538Y-38468052D01*
X96317342Y-38171248D01*
X96607822Y-37880768D01*
X96669143Y-37847285D01*
X96738835Y-37852269D01*
G37*
%TD.AperFunction*%
%TA.AperFunction,Conductor*%
G36*
X93609587Y-38745185D02*
G01*
X93630229Y-38761819D01*
X93796900Y-38928490D01*
X93830385Y-38989813D01*
X93833219Y-39016171D01*
X93833219Y-42865266D01*
X93813534Y-42932305D01*
X93760730Y-42978060D01*
X93691572Y-42988004D01*
X93628016Y-42958979D01*
X93621538Y-42952947D01*
X93464803Y-42796212D01*
X93454980Y-42783950D01*
X93454759Y-42784134D01*
X93449786Y-42778123D01*
X93399364Y-42730773D01*
X93388919Y-42720328D01*
X93378475Y-42709883D01*
X93372986Y-42705625D01*
X93368561Y-42701847D01*
X93334582Y-42669938D01*
X93334580Y-42669936D01*
X93334577Y-42669935D01*
X93317029Y-42660288D01*
X93300763Y-42649604D01*
X93284933Y-42637325D01*
X93242168Y-42618818D01*
X93236922Y-42616248D01*
X93196093Y-42593803D01*
X93196092Y-42593802D01*
X93176693Y-42588822D01*
X93158281Y-42582518D01*
X93139898Y-42574562D01*
X93139892Y-42574560D01*
X93093874Y-42567272D01*
X93088152Y-42566087D01*
X93043021Y-42554500D01*
X93043019Y-42554500D01*
X93022984Y-42554500D01*
X93003586Y-42552973D01*
X92996162Y-42551797D01*
X92983805Y-42549840D01*
X92983804Y-42549840D01*
X92937416Y-42554225D01*
X92931578Y-42554500D01*
X92823666Y-42554500D01*
X92756627Y-42534815D01*
X92710872Y-42482011D01*
X92700928Y-42412853D01*
X92711284Y-42378096D01*
X92713428Y-42373497D01*
X92713432Y-42373486D01*
X92770636Y-42160000D01*
X91873686Y-42160000D01*
X91899493Y-42119844D01*
X91940000Y-41981889D01*
X91940000Y-41838111D01*
X91899493Y-41700156D01*
X91873686Y-41660000D01*
X92770636Y-41660000D01*
X92770635Y-41659999D01*
X92713432Y-41446513D01*
X92713429Y-41446507D01*
X92613600Y-41232422D01*
X92613599Y-41232420D01*
X92478113Y-41038926D01*
X92478108Y-41038920D01*
X92311078Y-40871890D01*
X92125405Y-40741879D01*
X92081780Y-40687302D01*
X92074588Y-40617804D01*
X92106110Y-40555449D01*
X92125406Y-40538730D01*
X92283529Y-40428011D01*
X92311401Y-40408495D01*
X92478495Y-40241401D01*
X92614035Y-40047830D01*
X92713903Y-39833663D01*
X92775063Y-39605408D01*
X92795659Y-39370000D01*
X92775063Y-39134592D01*
X92713903Y-38906337D01*
X92711837Y-38901906D01*
X92701344Y-38832829D01*
X92729863Y-38769045D01*
X92788339Y-38730804D01*
X92824218Y-38725500D01*
X93542548Y-38725500D01*
X93609587Y-38745185D01*
G37*
%TD.AperFunction*%
%TA.AperFunction,Conductor*%
G36*
X89267080Y-38284990D02*
G01*
X89287722Y-38301624D01*
X89469882Y-38483784D01*
X89479705Y-38496045D01*
X89479927Y-38495863D01*
X89484900Y-38501875D01*
X89484901Y-38501876D01*
X89484902Y-38501877D01*
X89487558Y-38504371D01*
X89535324Y-38549227D01*
X89556211Y-38570115D01*
X89556215Y-38570118D01*
X89556217Y-38570120D01*
X89561699Y-38574373D01*
X89566131Y-38578157D01*
X89600106Y-38610062D01*
X89617664Y-38619714D01*
X89633921Y-38630393D01*
X89649752Y-38642673D01*
X89669425Y-38651186D01*
X89692521Y-38661182D01*
X89697765Y-38663750D01*
X89738596Y-38686197D01*
X89751211Y-38689435D01*
X89757993Y-38691177D01*
X89776407Y-38697481D01*
X89794792Y-38705438D01*
X89840845Y-38712732D01*
X89846514Y-38713906D01*
X89891669Y-38725500D01*
X89911704Y-38725500D01*
X89931101Y-38727026D01*
X89950884Y-38730160D01*
X89997272Y-38725775D01*
X90003110Y-38725500D01*
X90055782Y-38725500D01*
X90122821Y-38745185D01*
X90168576Y-38797989D01*
X90178520Y-38867147D01*
X90168163Y-38901906D01*
X90166099Y-38906330D01*
X90166094Y-38906344D01*
X90104938Y-39134586D01*
X90104936Y-39134596D01*
X90084341Y-39369999D01*
X90084341Y-39370000D01*
X90104936Y-39605403D01*
X90104938Y-39605413D01*
X90166094Y-39833655D01*
X90166096Y-39833659D01*
X90166097Y-39833663D01*
X90242496Y-39997500D01*
X90265965Y-40047830D01*
X90265967Y-40047834D01*
X90401501Y-40241395D01*
X90401506Y-40241402D01*
X90568597Y-40408493D01*
X90568603Y-40408498D01*
X90754594Y-40538730D01*
X90798219Y-40593307D01*
X90805413Y-40662805D01*
X90773890Y-40725160D01*
X90754595Y-40741880D01*
X90568922Y-40871890D01*
X90568920Y-40871891D01*
X90401891Y-41038920D01*
X90401886Y-41038926D01*
X90266400Y-41232420D01*
X90266399Y-41232422D01*
X90166570Y-41446507D01*
X90166567Y-41446513D01*
X90109364Y-41659999D01*
X90109364Y-41660000D01*
X91006314Y-41660000D01*
X90980507Y-41700156D01*
X90940000Y-41838111D01*
X90940000Y-41981889D01*
X90980507Y-42119844D01*
X91006314Y-42160000D01*
X90109364Y-42160000D01*
X90166567Y-42373486D01*
X90166571Y-42373497D01*
X90168716Y-42378096D01*
X90179208Y-42447173D01*
X90150688Y-42510957D01*
X90092211Y-42549196D01*
X90056334Y-42554500D01*
X89972453Y-42554500D01*
X89905414Y-42534815D01*
X89884772Y-42518181D01*
X88765803Y-41399212D01*
X88755980Y-41386950D01*
X88755759Y-41387134D01*
X88750786Y-41381123D01*
X88719146Y-41351411D01*
X88700364Y-41333773D01*
X88686438Y-41319847D01*
X88679475Y-41312883D01*
X88673986Y-41308625D01*
X88669561Y-41304847D01*
X88635582Y-41272938D01*
X88635580Y-41272936D01*
X88635577Y-41272935D01*
X88618029Y-41263288D01*
X88601763Y-41252604D01*
X88585933Y-41240325D01*
X88543168Y-41221818D01*
X88537922Y-41219248D01*
X88497093Y-41196803D01*
X88497092Y-41196802D01*
X88477693Y-41191822D01*
X88459281Y-41185518D01*
X88440898Y-41177562D01*
X88440892Y-41177560D01*
X88394874Y-41170272D01*
X88389152Y-41169087D01*
X88344021Y-41157500D01*
X88344019Y-41157500D01*
X88323984Y-41157500D01*
X88304586Y-41155973D01*
X88297162Y-41154797D01*
X88284805Y-41152840D01*
X88284804Y-41152840D01*
X88238416Y-41157225D01*
X88232578Y-41157500D01*
X87686452Y-41157500D01*
X87619413Y-41137815D01*
X87598771Y-41121181D01*
X87275819Y-40798228D01*
X87242334Y-40736905D01*
X87239500Y-40710547D01*
X87239500Y-38968853D01*
X87259185Y-38901814D01*
X87311989Y-38856059D01*
X87381147Y-38846115D01*
X87415905Y-38856472D01*
X87437504Y-38866544D01*
X87437509Y-38866545D01*
X87437511Y-38866546D01*
X87443020Y-38868022D01*
X87657308Y-38925440D01*
X87819230Y-38939606D01*
X87883998Y-38945273D01*
X87884000Y-38945273D01*
X87884002Y-38945273D01*
X87940673Y-38940314D01*
X88110692Y-38925440D01*
X88330496Y-38866544D01*
X88536734Y-38770373D01*
X88723139Y-38639852D01*
X88884047Y-38478944D01*
X88973485Y-38351212D01*
X88996613Y-38318182D01*
X89051189Y-38274557D01*
X89098188Y-38265305D01*
X89200041Y-38265305D01*
X89267080Y-38284990D01*
G37*
%TD.AperFunction*%
%TA.AperFunction,Conductor*%
G36*
X68639852Y-21727185D02*
G01*
X68685607Y-21779989D01*
X68695551Y-21849147D01*
X68680200Y-21893500D01*
X68642163Y-21959381D01*
X68550720Y-22192373D01*
X68550714Y-22192392D01*
X68495021Y-22436400D01*
X68495021Y-22436402D01*
X68476317Y-22685995D01*
X68476317Y-22686004D01*
X68495021Y-22935597D01*
X68495021Y-22935599D01*
X68550714Y-23179607D01*
X68550720Y-23179626D01*
X68642163Y-23412618D01*
X68767311Y-23629382D01*
X68805800Y-23677645D01*
X69548452Y-22934993D01*
X69558188Y-22964956D01*
X69646186Y-23103619D01*
X69765903Y-23216040D01*
X69900510Y-23290041D01*
X69159402Y-24031148D01*
X69313651Y-24136313D01*
X69313664Y-24136320D01*
X69539167Y-24244916D01*
X69539165Y-24244916D01*
X69778346Y-24318694D01*
X69778352Y-24318696D01*
X70025843Y-24355999D01*
X70025852Y-24356000D01*
X70276148Y-24356000D01*
X70276156Y-24355999D01*
X70523647Y-24318696D01*
X70523653Y-24318694D01*
X70762833Y-24244916D01*
X70988334Y-24136322D01*
X70988335Y-24136321D01*
X71142596Y-24031148D01*
X70398534Y-23287086D01*
X70466629Y-23260126D01*
X70599492Y-23163595D01*
X70704175Y-23037055D01*
X70752631Y-22934079D01*
X71496198Y-23677646D01*
X71496199Y-23677645D01*
X71534681Y-23629392D01*
X71534688Y-23629381D01*
X71659836Y-23412618D01*
X71751279Y-23179626D01*
X71751285Y-23179607D01*
X71806978Y-22935599D01*
X71806978Y-22935597D01*
X71825683Y-22686004D01*
X71825683Y-22685996D01*
X71818680Y-22592553D01*
X71833299Y-22524230D01*
X71882536Y-22474657D01*
X71950758Y-22459573D01*
X72016305Y-22483767D01*
X72030014Y-22495605D01*
X72588151Y-23053742D01*
X72621636Y-23115065D01*
X72616652Y-23184757D01*
X72607857Y-23203423D01*
X72578821Y-23253714D01*
X72520327Y-23433740D01*
X72520326Y-23433744D01*
X72500540Y-23622000D01*
X72520326Y-23810256D01*
X72520327Y-23810259D01*
X72578818Y-23990277D01*
X72578821Y-23990284D01*
X72673467Y-24154216D01*
X72710389Y-24195222D01*
X72748650Y-24237715D01*
X72778880Y-24300706D01*
X72780500Y-24320687D01*
X72780500Y-36631547D01*
X72760815Y-36698586D01*
X72708011Y-36744341D01*
X72638853Y-36754285D01*
X72575297Y-36725260D01*
X72568819Y-36719228D01*
X69246484Y-33396893D01*
X69212999Y-33335570D01*
X69217983Y-33265878D01*
X69218737Y-33263910D01*
X69223605Y-33251506D01*
X69251760Y-33179769D01*
X69307474Y-32935673D01*
X69308346Y-32924035D01*
X69326184Y-32686004D01*
X69326184Y-32685995D01*
X69307475Y-32436336D01*
X69307474Y-32436331D01*
X69307474Y-32436327D01*
X69251760Y-32192231D01*
X69160289Y-31959165D01*
X69035102Y-31742335D01*
X68878997Y-31546586D01*
X68878996Y-31546585D01*
X68878993Y-31546581D01*
X68695460Y-31376288D01*
X68572543Y-31292485D01*
X68488592Y-31235248D01*
X68488588Y-31235246D01*
X68488585Y-31235244D01*
X68488584Y-31235243D01*
X68263015Y-31126616D01*
X68263017Y-31126616D01*
X68023765Y-31052816D01*
X68023759Y-31052814D01*
X67776194Y-31015500D01*
X67776187Y-31015500D01*
X67525813Y-31015500D01*
X67525805Y-31015500D01*
X67278240Y-31052814D01*
X67278230Y-31052817D01*
X67062402Y-31119391D01*
X66992539Y-31120341D01*
X66938172Y-31088581D01*
X65812819Y-29963228D01*
X65779334Y-29901905D01*
X65776500Y-29875547D01*
X65776500Y-24316804D01*
X65796185Y-24249765D01*
X65846699Y-24205084D01*
X65988584Y-24136756D01*
X65988584Y-24136755D01*
X65988592Y-24136752D01*
X66195460Y-23995712D01*
X66344094Y-23857799D01*
X66378993Y-23825418D01*
X66378993Y-23825416D01*
X66378997Y-23825414D01*
X66535102Y-23629665D01*
X66660289Y-23412835D01*
X66751760Y-23179769D01*
X66807474Y-22935673D01*
X66810097Y-22900670D01*
X66826184Y-22686004D01*
X66826184Y-22685995D01*
X66807475Y-22436336D01*
X66807474Y-22436331D01*
X66807474Y-22436327D01*
X66751760Y-22192231D01*
X66660289Y-21959165D01*
X66622376Y-21893498D01*
X66605904Y-21825601D01*
X66628756Y-21759573D01*
X66683677Y-21716383D01*
X66729764Y-21707500D01*
X68572813Y-21707500D01*
X68639852Y-21727185D01*
G37*
%TD.AperFunction*%
%TD*%
M02*
