%TF.GenerationSoftware,KiCad,Pcbnew,7.0.8*%
%TF.CreationDate,2026-01-30T16:34:38+01:00*%
%TF.ProjectId,taxanRGB,74617861-6e52-4474-922e-6b696361645f,rev?*%
%TF.SameCoordinates,Original*%
%TF.FileFunction,Soldermask,Bot*%
%TF.FilePolarity,Negative*%
%FSLAX46Y46*%
G04 Gerber Fmt 4.6, Leading zero omitted, Abs format (unit mm)*
G04 Created by KiCad (PCBNEW 7.0.8) date 2026-01-30 16:34:38*
%MOMM*%
%LPD*%
G01*
G04 APERTURE LIST*
%ADD10C,2.340000*%
%ADD11R,3.480000X1.846667*%
%ADD12C,1.600000*%
%ADD13O,1.600000X1.600000*%
%ADD14C,5.700000*%
%ADD15R,1.500000X1.500000*%
%ADD16O,1.500000X1.500000*%
%ADD17R,1.700000X1.700000*%
%ADD18O,1.700000X1.700000*%
G04 APERTURE END LIST*
D10*
%TO.C,AB1*%
X65151000Y-22686000D03*
X67651000Y-32686000D03*
X70151000Y-22686000D03*
%TD*%
%TO.C,AG1*%
X54182000Y-22686000D03*
X56682000Y-32686000D03*
X59182000Y-22686000D03*
%TD*%
%TO.C,AR1*%
X43260000Y-22686000D03*
X45760000Y-32686000D03*
X48260000Y-22686000D03*
%TD*%
D11*
%TO.C,J2*%
X34925000Y-51746805D03*
X34925000Y-48976805D03*
X34925000Y-46206805D03*
X34925000Y-43436805D03*
X34925000Y-40666805D03*
X34925000Y-37896805D03*
X34925000Y-35126805D03*
%TD*%
D12*
%TO.C,C1*%
X64222000Y-49784000D03*
X59222000Y-49784000D03*
%TD*%
%TO.C,R1*%
X55372000Y-42291000D03*
D13*
X68072000Y-42291000D03*
%TD*%
D12*
%TO.C,R6*%
X87884000Y-43053000D03*
D13*
X75184000Y-43053000D03*
%TD*%
D14*
%TO.C,REF\u002A\u002A*%
X96520000Y-23495000D03*
%TD*%
%TO.C,REF\u002A\u002A*%
X96520000Y-62230000D03*
%TD*%
D15*
%TO.C,D1*%
X66802000Y-46736000D03*
D16*
X56642000Y-46736000D03*
%TD*%
D11*
%TO.C,J1*%
X99060000Y-34441000D03*
X99060000Y-37211000D03*
X99060000Y-39981000D03*
X99060000Y-42751000D03*
X99060000Y-45521000D03*
X99060000Y-48291000D03*
X99060000Y-51061000D03*
%TD*%
D12*
%TO.C,R3*%
X87884000Y-58293000D03*
D13*
X75184000Y-58293000D03*
%TD*%
D12*
%TO.C,R5*%
X87884000Y-37639805D03*
D13*
X75184000Y-37639805D03*
%TD*%
D12*
%TO.C,R10*%
X55499000Y-54483000D03*
D13*
X68199000Y-54483000D03*
%TD*%
D17*
%TO.C,J5*%
X60325000Y-58928000D03*
D18*
X62865000Y-58928000D03*
%TD*%
D12*
%TO.C,R7*%
X87884000Y-27432000D03*
D13*
X75184000Y-27432000D03*
%TD*%
D14*
%TO.C,REF\u002A\u002A*%
X37084000Y-23622000D03*
%TD*%
D17*
%TO.C,J3*%
X43942000Y-59944000D03*
D18*
X43942000Y-57404000D03*
X43942000Y-54864000D03*
X43942000Y-52324000D03*
X43942000Y-49784000D03*
X43942000Y-47244000D03*
X43942000Y-44704000D03*
X43942000Y-42164000D03*
X43942000Y-39624000D03*
X43942000Y-37084000D03*
%TD*%
D12*
%TO.C,R4*%
X87884000Y-32559805D03*
D13*
X75184000Y-32559805D03*
%TD*%
D12*
%TO.C,R9*%
X87884000Y-48133000D03*
D13*
X75184000Y-48133000D03*
%TD*%
D17*
%TO.C,J4*%
X91440000Y-54610000D03*
D18*
X91440000Y-52070000D03*
X91440000Y-49530000D03*
X91440000Y-46990000D03*
X91440000Y-44450000D03*
X91440000Y-41910000D03*
X91440000Y-39370000D03*
X91440000Y-36830000D03*
X91440000Y-34290000D03*
X91440000Y-31750000D03*
%TD*%
D12*
%TO.C,R2*%
X87884000Y-63373000D03*
D13*
X75184000Y-63373000D03*
%TD*%
D12*
%TO.C,R8*%
X87884000Y-53213000D03*
D13*
X75184000Y-53213000D03*
%TD*%
D14*
%TO.C,REF\u002A\u002A*%
X36830000Y-62230000D03*
%TD*%
M02*
