%TF.GenerationSoftware,KiCad,Pcbnew,7.0.8*%
%TF.CreationDate,2026-01-30T16:34:38+01:00*%
%TF.ProjectId,taxanRGB,74617861-6e52-4474-922e-6b696361645f,rev?*%
%TF.SameCoordinates,Original*%
%TF.FileFunction,Legend,Top*%
%TF.FilePolarity,Positive*%
%FSLAX46Y46*%
G04 Gerber Fmt 4.6, Leading zero omitted, Abs format (unit mm)*
G04 Created by KiCad (PCBNEW 7.0.8) date 2026-01-30 16:34:38*
%MOMM*%
%LPD*%
G01*
G04 APERTURE LIST*
%ADD10C,0.150000*%
%ADD11C,0.120000*%
G04 APERTURE END LIST*
D10*
X45767826Y-49767247D02*
X45882112Y-49805342D01*
X45882112Y-49805342D02*
X45920207Y-49843438D01*
X45920207Y-49843438D02*
X45958303Y-49919628D01*
X45958303Y-49919628D02*
X45958303Y-50033914D01*
X45958303Y-50033914D02*
X45920207Y-50110104D01*
X45920207Y-50110104D02*
X45882112Y-50148200D01*
X45882112Y-50148200D02*
X45805922Y-50186295D01*
X45805922Y-50186295D02*
X45501160Y-50186295D01*
X45501160Y-50186295D02*
X45501160Y-49386295D01*
X45501160Y-49386295D02*
X45767826Y-49386295D01*
X45767826Y-49386295D02*
X45844017Y-49424390D01*
X45844017Y-49424390D02*
X45882112Y-49462485D01*
X45882112Y-49462485D02*
X45920207Y-49538676D01*
X45920207Y-49538676D02*
X45920207Y-49614866D01*
X45920207Y-49614866D02*
X45882112Y-49691057D01*
X45882112Y-49691057D02*
X45844017Y-49729152D01*
X45844017Y-49729152D02*
X45767826Y-49767247D01*
X45767826Y-49767247D02*
X45501160Y-49767247D01*
X45958303Y-45030104D02*
X45920207Y-45068200D01*
X45920207Y-45068200D02*
X45805922Y-45106295D01*
X45805922Y-45106295D02*
X45729731Y-45106295D01*
X45729731Y-45106295D02*
X45615445Y-45068200D01*
X45615445Y-45068200D02*
X45539255Y-44992009D01*
X45539255Y-44992009D02*
X45501160Y-44915819D01*
X45501160Y-44915819D02*
X45463064Y-44763438D01*
X45463064Y-44763438D02*
X45463064Y-44649152D01*
X45463064Y-44649152D02*
X45501160Y-44496771D01*
X45501160Y-44496771D02*
X45539255Y-44420580D01*
X45539255Y-44420580D02*
X45615445Y-44344390D01*
X45615445Y-44344390D02*
X45729731Y-44306295D01*
X45729731Y-44306295D02*
X45805922Y-44306295D01*
X45805922Y-44306295D02*
X45920207Y-44344390D01*
X45920207Y-44344390D02*
X45958303Y-44382485D01*
X46758303Y-45106295D02*
X46491636Y-44725342D01*
X46301160Y-45106295D02*
X46301160Y-44306295D01*
X46301160Y-44306295D02*
X46605922Y-44306295D01*
X46605922Y-44306295D02*
X46682112Y-44344390D01*
X46682112Y-44344390D02*
X46720207Y-44382485D01*
X46720207Y-44382485D02*
X46758303Y-44458676D01*
X46758303Y-44458676D02*
X46758303Y-44572961D01*
X46758303Y-44572961D02*
X46720207Y-44649152D01*
X46720207Y-44649152D02*
X46682112Y-44687247D01*
X46682112Y-44687247D02*
X46605922Y-44725342D01*
X46605922Y-44725342D02*
X46301160Y-44725342D01*
X45463064Y-39988200D02*
X45577350Y-40026295D01*
X45577350Y-40026295D02*
X45767826Y-40026295D01*
X45767826Y-40026295D02*
X45844017Y-39988200D01*
X45844017Y-39988200D02*
X45882112Y-39950104D01*
X45882112Y-39950104D02*
X45920207Y-39873914D01*
X45920207Y-39873914D02*
X45920207Y-39797723D01*
X45920207Y-39797723D02*
X45882112Y-39721533D01*
X45882112Y-39721533D02*
X45844017Y-39683438D01*
X45844017Y-39683438D02*
X45767826Y-39645342D01*
X45767826Y-39645342D02*
X45615445Y-39607247D01*
X45615445Y-39607247D02*
X45539255Y-39569152D01*
X45539255Y-39569152D02*
X45501160Y-39531057D01*
X45501160Y-39531057D02*
X45463064Y-39454866D01*
X45463064Y-39454866D02*
X45463064Y-39378676D01*
X45463064Y-39378676D02*
X45501160Y-39302485D01*
X45501160Y-39302485D02*
X45539255Y-39264390D01*
X45539255Y-39264390D02*
X45615445Y-39226295D01*
X45615445Y-39226295D02*
X45805922Y-39226295D01*
X45805922Y-39226295D02*
X45920207Y-39264390D01*
X46263065Y-40026295D02*
X46263065Y-39226295D01*
X46263065Y-39226295D02*
X46720208Y-40026295D01*
X46720208Y-40026295D02*
X46720208Y-39226295D01*
X47101160Y-40026295D02*
X47101160Y-39226295D01*
X47101160Y-39226295D02*
X47291636Y-39226295D01*
X47291636Y-39226295D02*
X47405922Y-39264390D01*
X47405922Y-39264390D02*
X47482112Y-39340580D01*
X47482112Y-39340580D02*
X47520207Y-39416771D01*
X47520207Y-39416771D02*
X47558303Y-39569152D01*
X47558303Y-39569152D02*
X47558303Y-39683438D01*
X47558303Y-39683438D02*
X47520207Y-39835819D01*
X47520207Y-39835819D02*
X47482112Y-39912009D01*
X47482112Y-39912009D02*
X47405922Y-39988200D01*
X47405922Y-39988200D02*
X47291636Y-40026295D01*
X47291636Y-40026295D02*
X47101160Y-40026295D01*
X45920207Y-46884390D02*
X45844017Y-46846295D01*
X45844017Y-46846295D02*
X45729731Y-46846295D01*
X45729731Y-46846295D02*
X45615445Y-46884390D01*
X45615445Y-46884390D02*
X45539255Y-46960580D01*
X45539255Y-46960580D02*
X45501160Y-47036771D01*
X45501160Y-47036771D02*
X45463064Y-47189152D01*
X45463064Y-47189152D02*
X45463064Y-47303438D01*
X45463064Y-47303438D02*
X45501160Y-47455819D01*
X45501160Y-47455819D02*
X45539255Y-47532009D01*
X45539255Y-47532009D02*
X45615445Y-47608200D01*
X45615445Y-47608200D02*
X45729731Y-47646295D01*
X45729731Y-47646295D02*
X45805922Y-47646295D01*
X45805922Y-47646295D02*
X45920207Y-47608200D01*
X45920207Y-47608200D02*
X45958303Y-47570104D01*
X45958303Y-47570104D02*
X45958303Y-47303438D01*
X45958303Y-47303438D02*
X45805922Y-47303438D01*
X46301160Y-47646295D02*
X46301160Y-46846295D01*
X46301160Y-46846295D02*
X46758303Y-47646295D01*
X46758303Y-47646295D02*
X46758303Y-46846295D01*
X47139255Y-47646295D02*
X47139255Y-46846295D01*
X47139255Y-46846295D02*
X47329731Y-46846295D01*
X47329731Y-46846295D02*
X47444017Y-46884390D01*
X47444017Y-46884390D02*
X47520207Y-46960580D01*
X47520207Y-46960580D02*
X47558302Y-47036771D01*
X47558302Y-47036771D02*
X47596398Y-47189152D01*
X47596398Y-47189152D02*
X47596398Y-47303438D01*
X47596398Y-47303438D02*
X47558302Y-47455819D01*
X47558302Y-47455819D02*
X47520207Y-47532009D01*
X47520207Y-47532009D02*
X47444017Y-47608200D01*
X47444017Y-47608200D02*
X47329731Y-47646295D01*
X47329731Y-47646295D02*
X47139255Y-47646295D01*
X45920207Y-54504390D02*
X45844017Y-54466295D01*
X45844017Y-54466295D02*
X45729731Y-54466295D01*
X45729731Y-54466295D02*
X45615445Y-54504390D01*
X45615445Y-54504390D02*
X45539255Y-54580580D01*
X45539255Y-54580580D02*
X45501160Y-54656771D01*
X45501160Y-54656771D02*
X45463064Y-54809152D01*
X45463064Y-54809152D02*
X45463064Y-54923438D01*
X45463064Y-54923438D02*
X45501160Y-55075819D01*
X45501160Y-55075819D02*
X45539255Y-55152009D01*
X45539255Y-55152009D02*
X45615445Y-55228200D01*
X45615445Y-55228200D02*
X45729731Y-55266295D01*
X45729731Y-55266295D02*
X45805922Y-55266295D01*
X45805922Y-55266295D02*
X45920207Y-55228200D01*
X45920207Y-55228200D02*
X45958303Y-55190104D01*
X45958303Y-55190104D02*
X45958303Y-54923438D01*
X45958303Y-54923438D02*
X45805922Y-54923438D01*
X45958303Y-52726295D02*
X45691636Y-52345342D01*
X45501160Y-52726295D02*
X45501160Y-51926295D01*
X45501160Y-51926295D02*
X45805922Y-51926295D01*
X45805922Y-51926295D02*
X45882112Y-51964390D01*
X45882112Y-51964390D02*
X45920207Y-52002485D01*
X45920207Y-52002485D02*
X45958303Y-52078676D01*
X45958303Y-52078676D02*
X45958303Y-52192961D01*
X45958303Y-52192961D02*
X45920207Y-52269152D01*
X45920207Y-52269152D02*
X45882112Y-52307247D01*
X45882112Y-52307247D02*
X45805922Y-52345342D01*
X45805922Y-52345342D02*
X45501160Y-52345342D01*
X45501160Y-42388533D02*
X46110684Y-42388533D01*
X45805922Y-42693295D02*
X45805922Y-42083771D01*
X46910683Y-42693295D02*
X46453540Y-42693295D01*
X46682112Y-42693295D02*
X46682112Y-41893295D01*
X46682112Y-41893295D02*
X46605921Y-42007580D01*
X46605921Y-42007580D02*
X46529731Y-42083771D01*
X46529731Y-42083771D02*
X46453540Y-42121866D01*
X47215445Y-41969485D02*
X47253541Y-41931390D01*
X47253541Y-41931390D02*
X47329731Y-41893295D01*
X47329731Y-41893295D02*
X47520207Y-41893295D01*
X47520207Y-41893295D02*
X47596398Y-41931390D01*
X47596398Y-41931390D02*
X47634493Y-41969485D01*
X47634493Y-41969485D02*
X47672588Y-42045676D01*
X47672588Y-42045676D02*
X47672588Y-42121866D01*
X47672588Y-42121866D02*
X47634493Y-42236152D01*
X47634493Y-42236152D02*
X47177350Y-42693295D01*
X47177350Y-42693295D02*
X47672588Y-42693295D01*
X47901160Y-41893295D02*
X48167827Y-42693295D01*
X48167827Y-42693295D02*
X48434493Y-41893295D01*
X46018303Y-60427104D02*
X45980207Y-60465200D01*
X45980207Y-60465200D02*
X45865922Y-60503295D01*
X45865922Y-60503295D02*
X45789731Y-60503295D01*
X45789731Y-60503295D02*
X45675445Y-60465200D01*
X45675445Y-60465200D02*
X45599255Y-60389009D01*
X45599255Y-60389009D02*
X45561160Y-60312819D01*
X45561160Y-60312819D02*
X45523064Y-60160438D01*
X45523064Y-60160438D02*
X45523064Y-60046152D01*
X45523064Y-60046152D02*
X45561160Y-59893771D01*
X45561160Y-59893771D02*
X45599255Y-59817580D01*
X45599255Y-59817580D02*
X45675445Y-59741390D01*
X45675445Y-59741390D02*
X45789731Y-59703295D01*
X45789731Y-59703295D02*
X45865922Y-59703295D01*
X45865922Y-59703295D02*
X45980207Y-59741390D01*
X45980207Y-59741390D02*
X46018303Y-59779485D01*
X46323064Y-60465200D02*
X46437350Y-60503295D01*
X46437350Y-60503295D02*
X46627826Y-60503295D01*
X46627826Y-60503295D02*
X46704017Y-60465200D01*
X46704017Y-60465200D02*
X46742112Y-60427104D01*
X46742112Y-60427104D02*
X46780207Y-60350914D01*
X46780207Y-60350914D02*
X46780207Y-60274723D01*
X46780207Y-60274723D02*
X46742112Y-60198533D01*
X46742112Y-60198533D02*
X46704017Y-60160438D01*
X46704017Y-60160438D02*
X46627826Y-60122342D01*
X46627826Y-60122342D02*
X46475445Y-60084247D01*
X46475445Y-60084247D02*
X46399255Y-60046152D01*
X46399255Y-60046152D02*
X46361160Y-60008057D01*
X46361160Y-60008057D02*
X46323064Y-59931866D01*
X46323064Y-59931866D02*
X46323064Y-59855676D01*
X46323064Y-59855676D02*
X46361160Y-59779485D01*
X46361160Y-59779485D02*
X46399255Y-59741390D01*
X46399255Y-59741390D02*
X46475445Y-59703295D01*
X46475445Y-59703295D02*
X46665922Y-59703295D01*
X46665922Y-59703295D02*
X46780207Y-59741390D01*
X47275446Y-60122342D02*
X47275446Y-60503295D01*
X47008779Y-59703295D02*
X47275446Y-60122342D01*
X47275446Y-60122342D02*
X47542112Y-59703295D01*
X47808779Y-60503295D02*
X47808779Y-59703295D01*
X47808779Y-59703295D02*
X48265922Y-60503295D01*
X48265922Y-60503295D02*
X48265922Y-59703295D01*
X49104017Y-60427104D02*
X49065921Y-60465200D01*
X49065921Y-60465200D02*
X48951636Y-60503295D01*
X48951636Y-60503295D02*
X48875445Y-60503295D01*
X48875445Y-60503295D02*
X48761159Y-60465200D01*
X48761159Y-60465200D02*
X48684969Y-60389009D01*
X48684969Y-60389009D02*
X48646874Y-60312819D01*
X48646874Y-60312819D02*
X48608778Y-60160438D01*
X48608778Y-60160438D02*
X48608778Y-60046152D01*
X48608778Y-60046152D02*
X48646874Y-59893771D01*
X48646874Y-59893771D02*
X48684969Y-59817580D01*
X48684969Y-59817580D02*
X48761159Y-59741390D01*
X48761159Y-59741390D02*
X48875445Y-59703295D01*
X48875445Y-59703295D02*
X48951636Y-59703295D01*
X48951636Y-59703295D02*
X49065921Y-59741390D01*
X49065921Y-59741390D02*
X49104017Y-59779485D01*
X66603714Y-20743104D02*
X67079904Y-20743104D01*
X66508476Y-21028819D02*
X66841809Y-20028819D01*
X66841809Y-20028819D02*
X67175142Y-21028819D01*
X67841809Y-20505009D02*
X67984666Y-20552628D01*
X67984666Y-20552628D02*
X68032285Y-20600247D01*
X68032285Y-20600247D02*
X68079904Y-20695485D01*
X68079904Y-20695485D02*
X68079904Y-20838342D01*
X68079904Y-20838342D02*
X68032285Y-20933580D01*
X68032285Y-20933580D02*
X67984666Y-20981200D01*
X67984666Y-20981200D02*
X67889428Y-21028819D01*
X67889428Y-21028819D02*
X67508476Y-21028819D01*
X67508476Y-21028819D02*
X67508476Y-20028819D01*
X67508476Y-20028819D02*
X67841809Y-20028819D01*
X67841809Y-20028819D02*
X67937047Y-20076438D01*
X67937047Y-20076438D02*
X67984666Y-20124057D01*
X67984666Y-20124057D02*
X68032285Y-20219295D01*
X68032285Y-20219295D02*
X68032285Y-20314533D01*
X68032285Y-20314533D02*
X67984666Y-20409771D01*
X67984666Y-20409771D02*
X67937047Y-20457390D01*
X67937047Y-20457390D02*
X67841809Y-20505009D01*
X67841809Y-20505009D02*
X67508476Y-20505009D01*
X69032285Y-21028819D02*
X68460857Y-21028819D01*
X68746571Y-21028819D02*
X68746571Y-20028819D01*
X68746571Y-20028819D02*
X68651333Y-20171676D01*
X68651333Y-20171676D02*
X68556095Y-20266914D01*
X68556095Y-20266914D02*
X68460857Y-20314533D01*
X71540714Y-28140819D02*
X70969286Y-28140819D01*
X71255000Y-28140819D02*
X71255000Y-27140819D01*
X71255000Y-27140819D02*
X71159762Y-27283676D01*
X71159762Y-27283676D02*
X71064524Y-27378914D01*
X71064524Y-27378914D02*
X70969286Y-27426533D01*
X71969286Y-28140819D02*
X71969286Y-27140819D01*
X72540714Y-28140819D02*
X72112143Y-27569390D01*
X72540714Y-27140819D02*
X71969286Y-27712247D01*
X55300714Y-20743104D02*
X55776904Y-20743104D01*
X55205476Y-21028819D02*
X55538809Y-20028819D01*
X55538809Y-20028819D02*
X55872142Y-21028819D01*
X56729285Y-20076438D02*
X56634047Y-20028819D01*
X56634047Y-20028819D02*
X56491190Y-20028819D01*
X56491190Y-20028819D02*
X56348333Y-20076438D01*
X56348333Y-20076438D02*
X56253095Y-20171676D01*
X56253095Y-20171676D02*
X56205476Y-20266914D01*
X56205476Y-20266914D02*
X56157857Y-20457390D01*
X56157857Y-20457390D02*
X56157857Y-20600247D01*
X56157857Y-20600247D02*
X56205476Y-20790723D01*
X56205476Y-20790723D02*
X56253095Y-20885961D01*
X56253095Y-20885961D02*
X56348333Y-20981200D01*
X56348333Y-20981200D02*
X56491190Y-21028819D01*
X56491190Y-21028819D02*
X56586428Y-21028819D01*
X56586428Y-21028819D02*
X56729285Y-20981200D01*
X56729285Y-20981200D02*
X56776904Y-20933580D01*
X56776904Y-20933580D02*
X56776904Y-20600247D01*
X56776904Y-20600247D02*
X56586428Y-20600247D01*
X57729285Y-21028819D02*
X57157857Y-21028819D01*
X57443571Y-21028819D02*
X57443571Y-20028819D01*
X57443571Y-20028819D02*
X57348333Y-20171676D01*
X57348333Y-20171676D02*
X57253095Y-20266914D01*
X57253095Y-20266914D02*
X57157857Y-20314533D01*
X60491714Y-28140819D02*
X59920286Y-28140819D01*
X60206000Y-28140819D02*
X60206000Y-27140819D01*
X60206000Y-27140819D02*
X60110762Y-27283676D01*
X60110762Y-27283676D02*
X60015524Y-27378914D01*
X60015524Y-27378914D02*
X59920286Y-27426533D01*
X60920286Y-28140819D02*
X60920286Y-27140819D01*
X61491714Y-28140819D02*
X61063143Y-27569390D01*
X61491714Y-27140819D02*
X60920286Y-27712247D01*
X44759714Y-20743104D02*
X45235904Y-20743104D01*
X44664476Y-21028819D02*
X44997809Y-20028819D01*
X44997809Y-20028819D02*
X45331142Y-21028819D01*
X46235904Y-21028819D02*
X45902571Y-20552628D01*
X45664476Y-21028819D02*
X45664476Y-20028819D01*
X45664476Y-20028819D02*
X46045428Y-20028819D01*
X46045428Y-20028819D02*
X46140666Y-20076438D01*
X46140666Y-20076438D02*
X46188285Y-20124057D01*
X46188285Y-20124057D02*
X46235904Y-20219295D01*
X46235904Y-20219295D02*
X46235904Y-20362152D01*
X46235904Y-20362152D02*
X46188285Y-20457390D01*
X46188285Y-20457390D02*
X46140666Y-20505009D01*
X46140666Y-20505009D02*
X46045428Y-20552628D01*
X46045428Y-20552628D02*
X45664476Y-20552628D01*
X47188285Y-21028819D02*
X46616857Y-21028819D01*
X46902571Y-21028819D02*
X46902571Y-20028819D01*
X46902571Y-20028819D02*
X46807333Y-20171676D01*
X46807333Y-20171676D02*
X46712095Y-20266914D01*
X46712095Y-20266914D02*
X46616857Y-20314533D01*
X49442714Y-28140819D02*
X48871286Y-28140819D01*
X49157000Y-28140819D02*
X49157000Y-27140819D01*
X49157000Y-27140819D02*
X49061762Y-27283676D01*
X49061762Y-27283676D02*
X48966524Y-27378914D01*
X48966524Y-27378914D02*
X48871286Y-27426533D01*
X49871286Y-28140819D02*
X49871286Y-27140819D01*
X50442714Y-28140819D02*
X50014143Y-27569390D01*
X50442714Y-27140819D02*
X49871286Y-27712247D01*
X34379819Y-31702333D02*
X35094104Y-31702333D01*
X35094104Y-31702333D02*
X35236961Y-31749952D01*
X35236961Y-31749952D02*
X35332200Y-31845190D01*
X35332200Y-31845190D02*
X35379819Y-31988047D01*
X35379819Y-31988047D02*
X35379819Y-32083285D01*
X34475057Y-31273761D02*
X34427438Y-31226142D01*
X34427438Y-31226142D02*
X34379819Y-31130904D01*
X34379819Y-31130904D02*
X34379819Y-30892809D01*
X34379819Y-30892809D02*
X34427438Y-30797571D01*
X34427438Y-30797571D02*
X34475057Y-30749952D01*
X34475057Y-30749952D02*
X34570295Y-30702333D01*
X34570295Y-30702333D02*
X34665533Y-30702333D01*
X34665533Y-30702333D02*
X34808390Y-30749952D01*
X34808390Y-30749952D02*
X35379819Y-31321380D01*
X35379819Y-31321380D02*
X35379819Y-30702333D01*
X65960333Y-50143580D02*
X65912714Y-50191200D01*
X65912714Y-50191200D02*
X65769857Y-50238819D01*
X65769857Y-50238819D02*
X65674619Y-50238819D01*
X65674619Y-50238819D02*
X65531762Y-50191200D01*
X65531762Y-50191200D02*
X65436524Y-50095961D01*
X65436524Y-50095961D02*
X65388905Y-50000723D01*
X65388905Y-50000723D02*
X65341286Y-49810247D01*
X65341286Y-49810247D02*
X65341286Y-49667390D01*
X65341286Y-49667390D02*
X65388905Y-49476914D01*
X65388905Y-49476914D02*
X65436524Y-49381676D01*
X65436524Y-49381676D02*
X65531762Y-49286438D01*
X65531762Y-49286438D02*
X65674619Y-49238819D01*
X65674619Y-49238819D02*
X65769857Y-49238819D01*
X65769857Y-49238819D02*
X65912714Y-49286438D01*
X65912714Y-49286438D02*
X65960333Y-49334057D01*
X66912714Y-50238819D02*
X66341286Y-50238819D01*
X66627000Y-50238819D02*
X66627000Y-49238819D01*
X66627000Y-49238819D02*
X66531762Y-49381676D01*
X66531762Y-49381676D02*
X66436524Y-49476914D01*
X66436524Y-49476914D02*
X66341286Y-49524533D01*
X61555333Y-40025819D02*
X61222000Y-39549628D01*
X60983905Y-40025819D02*
X60983905Y-39025819D01*
X60983905Y-39025819D02*
X61364857Y-39025819D01*
X61364857Y-39025819D02*
X61460095Y-39073438D01*
X61460095Y-39073438D02*
X61507714Y-39121057D01*
X61507714Y-39121057D02*
X61555333Y-39216295D01*
X61555333Y-39216295D02*
X61555333Y-39359152D01*
X61555333Y-39359152D02*
X61507714Y-39454390D01*
X61507714Y-39454390D02*
X61460095Y-39502009D01*
X61460095Y-39502009D02*
X61364857Y-39549628D01*
X61364857Y-39549628D02*
X60983905Y-39549628D01*
X62507714Y-40025819D02*
X61936286Y-40025819D01*
X62222000Y-40025819D02*
X62222000Y-39025819D01*
X62222000Y-39025819D02*
X62126762Y-39168676D01*
X62126762Y-39168676D02*
X62031524Y-39263914D01*
X62031524Y-39263914D02*
X61936286Y-39311533D01*
X60928333Y-42745819D02*
X60356905Y-42745819D01*
X60642619Y-42745819D02*
X60642619Y-41745819D01*
X60642619Y-41745819D02*
X60547381Y-41888676D01*
X60547381Y-41888676D02*
X60452143Y-41983914D01*
X60452143Y-41983914D02*
X60356905Y-42031533D01*
X61547381Y-41745819D02*
X61642619Y-41745819D01*
X61642619Y-41745819D02*
X61737857Y-41793438D01*
X61737857Y-41793438D02*
X61785476Y-41841057D01*
X61785476Y-41841057D02*
X61833095Y-41936295D01*
X61833095Y-41936295D02*
X61880714Y-42126771D01*
X61880714Y-42126771D02*
X61880714Y-42364866D01*
X61880714Y-42364866D02*
X61833095Y-42555342D01*
X61833095Y-42555342D02*
X61785476Y-42650580D01*
X61785476Y-42650580D02*
X61737857Y-42698200D01*
X61737857Y-42698200D02*
X61642619Y-42745819D01*
X61642619Y-42745819D02*
X61547381Y-42745819D01*
X61547381Y-42745819D02*
X61452143Y-42698200D01*
X61452143Y-42698200D02*
X61404524Y-42650580D01*
X61404524Y-42650580D02*
X61356905Y-42555342D01*
X61356905Y-42555342D02*
X61309286Y-42364866D01*
X61309286Y-42364866D02*
X61309286Y-42126771D01*
X61309286Y-42126771D02*
X61356905Y-41936295D01*
X61356905Y-41936295D02*
X61404524Y-41841057D01*
X61404524Y-41841057D02*
X61452143Y-41793438D01*
X61452143Y-41793438D02*
X61547381Y-41745819D01*
X62499762Y-41745819D02*
X62595000Y-41745819D01*
X62595000Y-41745819D02*
X62690238Y-41793438D01*
X62690238Y-41793438D02*
X62737857Y-41841057D01*
X62737857Y-41841057D02*
X62785476Y-41936295D01*
X62785476Y-41936295D02*
X62833095Y-42126771D01*
X62833095Y-42126771D02*
X62833095Y-42364866D01*
X62833095Y-42364866D02*
X62785476Y-42555342D01*
X62785476Y-42555342D02*
X62737857Y-42650580D01*
X62737857Y-42650580D02*
X62690238Y-42698200D01*
X62690238Y-42698200D02*
X62595000Y-42745819D01*
X62595000Y-42745819D02*
X62499762Y-42745819D01*
X62499762Y-42745819D02*
X62404524Y-42698200D01*
X62404524Y-42698200D02*
X62356905Y-42650580D01*
X62356905Y-42650580D02*
X62309286Y-42555342D01*
X62309286Y-42555342D02*
X62261667Y-42364866D01*
X62261667Y-42364866D02*
X62261667Y-42126771D01*
X62261667Y-42126771D02*
X62309286Y-41936295D01*
X62309286Y-41936295D02*
X62356905Y-41841057D01*
X62356905Y-41841057D02*
X62404524Y-41793438D01*
X62404524Y-41793438D02*
X62499762Y-41745819D01*
X81494333Y-41094819D02*
X81161000Y-40618628D01*
X80922905Y-41094819D02*
X80922905Y-40094819D01*
X80922905Y-40094819D02*
X81303857Y-40094819D01*
X81303857Y-40094819D02*
X81399095Y-40142438D01*
X81399095Y-40142438D02*
X81446714Y-40190057D01*
X81446714Y-40190057D02*
X81494333Y-40285295D01*
X81494333Y-40285295D02*
X81494333Y-40428152D01*
X81494333Y-40428152D02*
X81446714Y-40523390D01*
X81446714Y-40523390D02*
X81399095Y-40571009D01*
X81399095Y-40571009D02*
X81303857Y-40618628D01*
X81303857Y-40618628D02*
X80922905Y-40618628D01*
X82351476Y-40094819D02*
X82161000Y-40094819D01*
X82161000Y-40094819D02*
X82065762Y-40142438D01*
X82065762Y-40142438D02*
X82018143Y-40190057D01*
X82018143Y-40190057D02*
X81922905Y-40332914D01*
X81922905Y-40332914D02*
X81875286Y-40523390D01*
X81875286Y-40523390D02*
X81875286Y-40904342D01*
X81875286Y-40904342D02*
X81922905Y-40999580D01*
X81922905Y-40999580D02*
X81970524Y-41047200D01*
X81970524Y-41047200D02*
X82065762Y-41094819D01*
X82065762Y-41094819D02*
X82256238Y-41094819D01*
X82256238Y-41094819D02*
X82351476Y-41047200D01*
X82351476Y-41047200D02*
X82399095Y-40999580D01*
X82399095Y-40999580D02*
X82446714Y-40904342D01*
X82446714Y-40904342D02*
X82446714Y-40666247D01*
X82446714Y-40666247D02*
X82399095Y-40571009D01*
X82399095Y-40571009D02*
X82351476Y-40523390D01*
X82351476Y-40523390D02*
X82256238Y-40475771D01*
X82256238Y-40475771D02*
X82065762Y-40475771D01*
X82065762Y-40475771D02*
X81970524Y-40523390D01*
X81970524Y-40523390D02*
X81922905Y-40571009D01*
X81922905Y-40571009D02*
X81875286Y-40666247D01*
X80946714Y-42507819D02*
X80470524Y-42507819D01*
X80470524Y-42507819D02*
X80422905Y-42984009D01*
X80422905Y-42984009D02*
X80470524Y-42936390D01*
X80470524Y-42936390D02*
X80565762Y-42888771D01*
X80565762Y-42888771D02*
X80803857Y-42888771D01*
X80803857Y-42888771D02*
X80899095Y-42936390D01*
X80899095Y-42936390D02*
X80946714Y-42984009D01*
X80946714Y-42984009D02*
X80994333Y-43079247D01*
X80994333Y-43079247D02*
X80994333Y-43317342D01*
X80994333Y-43317342D02*
X80946714Y-43412580D01*
X80946714Y-43412580D02*
X80899095Y-43460200D01*
X80899095Y-43460200D02*
X80803857Y-43507819D01*
X80803857Y-43507819D02*
X80565762Y-43507819D01*
X80565762Y-43507819D02*
X80470524Y-43460200D01*
X80470524Y-43460200D02*
X80422905Y-43412580D01*
X81851476Y-42507819D02*
X81661000Y-42507819D01*
X81661000Y-42507819D02*
X81565762Y-42555438D01*
X81565762Y-42555438D02*
X81518143Y-42603057D01*
X81518143Y-42603057D02*
X81422905Y-42745914D01*
X81422905Y-42745914D02*
X81375286Y-42936390D01*
X81375286Y-42936390D02*
X81375286Y-43317342D01*
X81375286Y-43317342D02*
X81422905Y-43412580D01*
X81422905Y-43412580D02*
X81470524Y-43460200D01*
X81470524Y-43460200D02*
X81565762Y-43507819D01*
X81565762Y-43507819D02*
X81756238Y-43507819D01*
X81756238Y-43507819D02*
X81851476Y-43460200D01*
X81851476Y-43460200D02*
X81899095Y-43412580D01*
X81899095Y-43412580D02*
X81946714Y-43317342D01*
X81946714Y-43317342D02*
X81946714Y-43079247D01*
X81946714Y-43079247D02*
X81899095Y-42984009D01*
X81899095Y-42984009D02*
X81851476Y-42936390D01*
X81851476Y-42936390D02*
X81756238Y-42888771D01*
X81756238Y-42888771D02*
X81565762Y-42888771D01*
X81565762Y-42888771D02*
X81470524Y-42936390D01*
X81470524Y-42936390D02*
X81422905Y-42984009D01*
X81422905Y-42984009D02*
X81375286Y-43079247D01*
X82565762Y-42507819D02*
X82661000Y-42507819D01*
X82661000Y-42507819D02*
X82756238Y-42555438D01*
X82756238Y-42555438D02*
X82803857Y-42603057D01*
X82803857Y-42603057D02*
X82851476Y-42698295D01*
X82851476Y-42698295D02*
X82899095Y-42888771D01*
X82899095Y-42888771D02*
X82899095Y-43126866D01*
X82899095Y-43126866D02*
X82851476Y-43317342D01*
X82851476Y-43317342D02*
X82803857Y-43412580D01*
X82803857Y-43412580D02*
X82756238Y-43460200D01*
X82756238Y-43460200D02*
X82661000Y-43507819D01*
X82661000Y-43507819D02*
X82565762Y-43507819D01*
X82565762Y-43507819D02*
X82470524Y-43460200D01*
X82470524Y-43460200D02*
X82422905Y-43412580D01*
X82422905Y-43412580D02*
X82375286Y-43317342D01*
X82375286Y-43317342D02*
X82327667Y-43126866D01*
X82327667Y-43126866D02*
X82327667Y-42888771D01*
X82327667Y-42888771D02*
X82375286Y-42698295D01*
X82375286Y-42698295D02*
X82422905Y-42603057D01*
X82422905Y-42603057D02*
X82470524Y-42555438D01*
X82470524Y-42555438D02*
X82565762Y-42507819D01*
X60983905Y-45412819D02*
X60983905Y-44412819D01*
X60983905Y-44412819D02*
X61222000Y-44412819D01*
X61222000Y-44412819D02*
X61364857Y-44460438D01*
X61364857Y-44460438D02*
X61460095Y-44555676D01*
X61460095Y-44555676D02*
X61507714Y-44650914D01*
X61507714Y-44650914D02*
X61555333Y-44841390D01*
X61555333Y-44841390D02*
X61555333Y-44984247D01*
X61555333Y-44984247D02*
X61507714Y-45174723D01*
X61507714Y-45174723D02*
X61460095Y-45269961D01*
X61460095Y-45269961D02*
X61364857Y-45365200D01*
X61364857Y-45365200D02*
X61222000Y-45412819D01*
X61222000Y-45412819D02*
X60983905Y-45412819D01*
X62507714Y-45412819D02*
X61936286Y-45412819D01*
X62222000Y-45412819D02*
X62222000Y-44412819D01*
X62222000Y-44412819D02*
X62126762Y-44555676D01*
X62126762Y-44555676D02*
X62031524Y-44650914D01*
X62031524Y-44650914D02*
X61936286Y-44698533D01*
X68064095Y-47190819D02*
X68064095Y-46190819D01*
X68635523Y-47190819D02*
X68206952Y-46619390D01*
X68635523Y-46190819D02*
X68064095Y-46762247D01*
X50511666Y-60309819D02*
X50511666Y-61024104D01*
X50511666Y-61024104D02*
X50464047Y-61166961D01*
X50464047Y-61166961D02*
X50368809Y-61262200D01*
X50368809Y-61262200D02*
X50225952Y-61309819D01*
X50225952Y-61309819D02*
X50130714Y-61309819D01*
X50987857Y-61309819D02*
X50987857Y-60309819D01*
X50987857Y-60309819D02*
X51368809Y-60309819D01*
X51368809Y-60309819D02*
X51464047Y-60357438D01*
X51464047Y-60357438D02*
X51511666Y-60405057D01*
X51511666Y-60405057D02*
X51559285Y-60500295D01*
X51559285Y-60500295D02*
X51559285Y-60643152D01*
X51559285Y-60643152D02*
X51511666Y-60738390D01*
X51511666Y-60738390D02*
X51464047Y-60786009D01*
X51464047Y-60786009D02*
X51368809Y-60833628D01*
X51368809Y-60833628D02*
X50987857Y-60833628D01*
X51940238Y-60405057D02*
X51987857Y-60357438D01*
X51987857Y-60357438D02*
X52083095Y-60309819D01*
X52083095Y-60309819D02*
X52321190Y-60309819D01*
X52321190Y-60309819D02*
X52416428Y-60357438D01*
X52416428Y-60357438D02*
X52464047Y-60405057D01*
X52464047Y-60405057D02*
X52511666Y-60500295D01*
X52511666Y-60500295D02*
X52511666Y-60595533D01*
X52511666Y-60595533D02*
X52464047Y-60738390D01*
X52464047Y-60738390D02*
X51892619Y-61309819D01*
X51892619Y-61309819D02*
X52511666Y-61309819D01*
X98260819Y-31067333D02*
X98975104Y-31067333D01*
X98975104Y-31067333D02*
X99117961Y-31114952D01*
X99117961Y-31114952D02*
X99213200Y-31210190D01*
X99213200Y-31210190D02*
X99260819Y-31353047D01*
X99260819Y-31353047D02*
X99260819Y-31448285D01*
X99260819Y-30067333D02*
X99260819Y-30638761D01*
X99260819Y-30353047D02*
X98260819Y-30353047D01*
X98260819Y-30353047D02*
X98403676Y-30448285D01*
X98403676Y-30448285D02*
X98498914Y-30543523D01*
X98498914Y-30543523D02*
X98546533Y-30638761D01*
X81367333Y-56334819D02*
X81034000Y-55858628D01*
X80795905Y-56334819D02*
X80795905Y-55334819D01*
X80795905Y-55334819D02*
X81176857Y-55334819D01*
X81176857Y-55334819D02*
X81272095Y-55382438D01*
X81272095Y-55382438D02*
X81319714Y-55430057D01*
X81319714Y-55430057D02*
X81367333Y-55525295D01*
X81367333Y-55525295D02*
X81367333Y-55668152D01*
X81367333Y-55668152D02*
X81319714Y-55763390D01*
X81319714Y-55763390D02*
X81272095Y-55811009D01*
X81272095Y-55811009D02*
X81176857Y-55858628D01*
X81176857Y-55858628D02*
X80795905Y-55858628D01*
X81700667Y-55334819D02*
X82319714Y-55334819D01*
X82319714Y-55334819D02*
X81986381Y-55715771D01*
X81986381Y-55715771D02*
X82129238Y-55715771D01*
X82129238Y-55715771D02*
X82224476Y-55763390D01*
X82224476Y-55763390D02*
X82272095Y-55811009D01*
X82272095Y-55811009D02*
X82319714Y-55906247D01*
X82319714Y-55906247D02*
X82319714Y-56144342D01*
X82319714Y-56144342D02*
X82272095Y-56239580D01*
X82272095Y-56239580D02*
X82224476Y-56287200D01*
X82224476Y-56287200D02*
X82129238Y-56334819D01*
X82129238Y-56334819D02*
X81843524Y-56334819D01*
X81843524Y-56334819D02*
X81748286Y-56287200D01*
X81748286Y-56287200D02*
X81700667Y-56239580D01*
X80772095Y-58081152D02*
X80772095Y-58747819D01*
X80534000Y-57700200D02*
X80295905Y-58414485D01*
X80295905Y-58414485D02*
X80914952Y-58414485D01*
X81200667Y-57747819D02*
X81867333Y-57747819D01*
X81867333Y-57747819D02*
X81438762Y-58747819D01*
X82438762Y-57747819D02*
X82534000Y-57747819D01*
X82534000Y-57747819D02*
X82629238Y-57795438D01*
X82629238Y-57795438D02*
X82676857Y-57843057D01*
X82676857Y-57843057D02*
X82724476Y-57938295D01*
X82724476Y-57938295D02*
X82772095Y-58128771D01*
X82772095Y-58128771D02*
X82772095Y-58366866D01*
X82772095Y-58366866D02*
X82724476Y-58557342D01*
X82724476Y-58557342D02*
X82676857Y-58652580D01*
X82676857Y-58652580D02*
X82629238Y-58700200D01*
X82629238Y-58700200D02*
X82534000Y-58747819D01*
X82534000Y-58747819D02*
X82438762Y-58747819D01*
X82438762Y-58747819D02*
X82343524Y-58700200D01*
X82343524Y-58700200D02*
X82295905Y-58652580D01*
X82295905Y-58652580D02*
X82248286Y-58557342D01*
X82248286Y-58557342D02*
X82200667Y-58366866D01*
X82200667Y-58366866D02*
X82200667Y-58128771D01*
X82200667Y-58128771D02*
X82248286Y-57938295D01*
X82248286Y-57938295D02*
X82295905Y-57843057D01*
X82295905Y-57843057D02*
X82343524Y-57795438D01*
X82343524Y-57795438D02*
X82438762Y-57747819D01*
X81494333Y-35633819D02*
X81161000Y-35157628D01*
X80922905Y-35633819D02*
X80922905Y-34633819D01*
X80922905Y-34633819D02*
X81303857Y-34633819D01*
X81303857Y-34633819D02*
X81399095Y-34681438D01*
X81399095Y-34681438D02*
X81446714Y-34729057D01*
X81446714Y-34729057D02*
X81494333Y-34824295D01*
X81494333Y-34824295D02*
X81494333Y-34967152D01*
X81494333Y-34967152D02*
X81446714Y-35062390D01*
X81446714Y-35062390D02*
X81399095Y-35110009D01*
X81399095Y-35110009D02*
X81303857Y-35157628D01*
X81303857Y-35157628D02*
X80922905Y-35157628D01*
X82399095Y-34633819D02*
X81922905Y-34633819D01*
X81922905Y-34633819D02*
X81875286Y-35110009D01*
X81875286Y-35110009D02*
X81922905Y-35062390D01*
X81922905Y-35062390D02*
X82018143Y-35014771D01*
X82018143Y-35014771D02*
X82256238Y-35014771D01*
X82256238Y-35014771D02*
X82351476Y-35062390D01*
X82351476Y-35062390D02*
X82399095Y-35110009D01*
X82399095Y-35110009D02*
X82446714Y-35205247D01*
X82446714Y-35205247D02*
X82446714Y-35443342D01*
X82446714Y-35443342D02*
X82399095Y-35538580D01*
X82399095Y-35538580D02*
X82351476Y-35586200D01*
X82351476Y-35586200D02*
X82256238Y-35633819D01*
X82256238Y-35633819D02*
X82018143Y-35633819D01*
X82018143Y-35633819D02*
X81922905Y-35586200D01*
X81922905Y-35586200D02*
X81875286Y-35538580D01*
X80613381Y-37475390D02*
X80518143Y-37427771D01*
X80518143Y-37427771D02*
X80470524Y-37380152D01*
X80470524Y-37380152D02*
X80422905Y-37284914D01*
X80422905Y-37284914D02*
X80422905Y-37237295D01*
X80422905Y-37237295D02*
X80470524Y-37142057D01*
X80470524Y-37142057D02*
X80518143Y-37094438D01*
X80518143Y-37094438D02*
X80613381Y-37046819D01*
X80613381Y-37046819D02*
X80803857Y-37046819D01*
X80803857Y-37046819D02*
X80899095Y-37094438D01*
X80899095Y-37094438D02*
X80946714Y-37142057D01*
X80946714Y-37142057D02*
X80994333Y-37237295D01*
X80994333Y-37237295D02*
X80994333Y-37284914D01*
X80994333Y-37284914D02*
X80946714Y-37380152D01*
X80946714Y-37380152D02*
X80899095Y-37427771D01*
X80899095Y-37427771D02*
X80803857Y-37475390D01*
X80803857Y-37475390D02*
X80613381Y-37475390D01*
X80613381Y-37475390D02*
X80518143Y-37523009D01*
X80518143Y-37523009D02*
X80470524Y-37570628D01*
X80470524Y-37570628D02*
X80422905Y-37665866D01*
X80422905Y-37665866D02*
X80422905Y-37856342D01*
X80422905Y-37856342D02*
X80470524Y-37951580D01*
X80470524Y-37951580D02*
X80518143Y-37999200D01*
X80518143Y-37999200D02*
X80613381Y-38046819D01*
X80613381Y-38046819D02*
X80803857Y-38046819D01*
X80803857Y-38046819D02*
X80899095Y-37999200D01*
X80899095Y-37999200D02*
X80946714Y-37951580D01*
X80946714Y-37951580D02*
X80994333Y-37856342D01*
X80994333Y-37856342D02*
X80994333Y-37665866D01*
X80994333Y-37665866D02*
X80946714Y-37570628D01*
X80946714Y-37570628D02*
X80899095Y-37523009D01*
X80899095Y-37523009D02*
X80803857Y-37475390D01*
X81375286Y-37142057D02*
X81422905Y-37094438D01*
X81422905Y-37094438D02*
X81518143Y-37046819D01*
X81518143Y-37046819D02*
X81756238Y-37046819D01*
X81756238Y-37046819D02*
X81851476Y-37094438D01*
X81851476Y-37094438D02*
X81899095Y-37142057D01*
X81899095Y-37142057D02*
X81946714Y-37237295D01*
X81946714Y-37237295D02*
X81946714Y-37332533D01*
X81946714Y-37332533D02*
X81899095Y-37475390D01*
X81899095Y-37475390D02*
X81327667Y-38046819D01*
X81327667Y-38046819D02*
X81946714Y-38046819D01*
X82565762Y-37046819D02*
X82661000Y-37046819D01*
X82661000Y-37046819D02*
X82756238Y-37094438D01*
X82756238Y-37094438D02*
X82803857Y-37142057D01*
X82803857Y-37142057D02*
X82851476Y-37237295D01*
X82851476Y-37237295D02*
X82899095Y-37427771D01*
X82899095Y-37427771D02*
X82899095Y-37665866D01*
X82899095Y-37665866D02*
X82851476Y-37856342D01*
X82851476Y-37856342D02*
X82803857Y-37951580D01*
X82803857Y-37951580D02*
X82756238Y-37999200D01*
X82756238Y-37999200D02*
X82661000Y-38046819D01*
X82661000Y-38046819D02*
X82565762Y-38046819D01*
X82565762Y-38046819D02*
X82470524Y-37999200D01*
X82470524Y-37999200D02*
X82422905Y-37951580D01*
X82422905Y-37951580D02*
X82375286Y-37856342D01*
X82375286Y-37856342D02*
X82327667Y-37665866D01*
X82327667Y-37665866D02*
X82327667Y-37427771D01*
X82327667Y-37427771D02*
X82375286Y-37237295D01*
X82375286Y-37237295D02*
X82422905Y-37142057D01*
X82422905Y-37142057D02*
X82470524Y-37094438D01*
X82470524Y-37094438D02*
X82565762Y-37046819D01*
X61206142Y-52397819D02*
X60872809Y-51921628D01*
X60634714Y-52397819D02*
X60634714Y-51397819D01*
X60634714Y-51397819D02*
X61015666Y-51397819D01*
X61015666Y-51397819D02*
X61110904Y-51445438D01*
X61110904Y-51445438D02*
X61158523Y-51493057D01*
X61158523Y-51493057D02*
X61206142Y-51588295D01*
X61206142Y-51588295D02*
X61206142Y-51731152D01*
X61206142Y-51731152D02*
X61158523Y-51826390D01*
X61158523Y-51826390D02*
X61110904Y-51874009D01*
X61110904Y-51874009D02*
X61015666Y-51921628D01*
X61015666Y-51921628D02*
X60634714Y-51921628D01*
X62158523Y-52397819D02*
X61587095Y-52397819D01*
X61872809Y-52397819D02*
X61872809Y-51397819D01*
X61872809Y-51397819D02*
X61777571Y-51540676D01*
X61777571Y-51540676D02*
X61682333Y-51635914D01*
X61682333Y-51635914D02*
X61587095Y-51683533D01*
X62777571Y-51397819D02*
X62872809Y-51397819D01*
X62872809Y-51397819D02*
X62968047Y-51445438D01*
X62968047Y-51445438D02*
X63015666Y-51493057D01*
X63015666Y-51493057D02*
X63063285Y-51588295D01*
X63063285Y-51588295D02*
X63110904Y-51778771D01*
X63110904Y-51778771D02*
X63110904Y-52016866D01*
X63110904Y-52016866D02*
X63063285Y-52207342D01*
X63063285Y-52207342D02*
X63015666Y-52302580D01*
X63015666Y-52302580D02*
X62968047Y-52350200D01*
X62968047Y-52350200D02*
X62872809Y-52397819D01*
X62872809Y-52397819D02*
X62777571Y-52397819D01*
X62777571Y-52397819D02*
X62682333Y-52350200D01*
X62682333Y-52350200D02*
X62634714Y-52302580D01*
X62634714Y-52302580D02*
X62587095Y-52207342D01*
X62587095Y-52207342D02*
X62539476Y-52016866D01*
X62539476Y-52016866D02*
X62539476Y-51778771D01*
X62539476Y-51778771D02*
X62587095Y-51588295D01*
X62587095Y-51588295D02*
X62634714Y-51493057D01*
X62634714Y-51493057D02*
X62682333Y-51445438D01*
X62682333Y-51445438D02*
X62777571Y-51397819D01*
X61039476Y-54366390D02*
X60944238Y-54318771D01*
X60944238Y-54318771D02*
X60896619Y-54271152D01*
X60896619Y-54271152D02*
X60849000Y-54175914D01*
X60849000Y-54175914D02*
X60849000Y-54128295D01*
X60849000Y-54128295D02*
X60896619Y-54033057D01*
X60896619Y-54033057D02*
X60944238Y-53985438D01*
X60944238Y-53985438D02*
X61039476Y-53937819D01*
X61039476Y-53937819D02*
X61229952Y-53937819D01*
X61229952Y-53937819D02*
X61325190Y-53985438D01*
X61325190Y-53985438D02*
X61372809Y-54033057D01*
X61372809Y-54033057D02*
X61420428Y-54128295D01*
X61420428Y-54128295D02*
X61420428Y-54175914D01*
X61420428Y-54175914D02*
X61372809Y-54271152D01*
X61372809Y-54271152D02*
X61325190Y-54318771D01*
X61325190Y-54318771D02*
X61229952Y-54366390D01*
X61229952Y-54366390D02*
X61039476Y-54366390D01*
X61039476Y-54366390D02*
X60944238Y-54414009D01*
X60944238Y-54414009D02*
X60896619Y-54461628D01*
X60896619Y-54461628D02*
X60849000Y-54556866D01*
X60849000Y-54556866D02*
X60849000Y-54747342D01*
X60849000Y-54747342D02*
X60896619Y-54842580D01*
X60896619Y-54842580D02*
X60944238Y-54890200D01*
X60944238Y-54890200D02*
X61039476Y-54937819D01*
X61039476Y-54937819D02*
X61229952Y-54937819D01*
X61229952Y-54937819D02*
X61325190Y-54890200D01*
X61325190Y-54890200D02*
X61372809Y-54842580D01*
X61372809Y-54842580D02*
X61420428Y-54747342D01*
X61420428Y-54747342D02*
X61420428Y-54556866D01*
X61420428Y-54556866D02*
X61372809Y-54461628D01*
X61372809Y-54461628D02*
X61325190Y-54414009D01*
X61325190Y-54414009D02*
X61229952Y-54366390D01*
X61849000Y-54842580D02*
X61896619Y-54890200D01*
X61896619Y-54890200D02*
X61849000Y-54937819D01*
X61849000Y-54937819D02*
X61801381Y-54890200D01*
X61801381Y-54890200D02*
X61849000Y-54842580D01*
X61849000Y-54842580D02*
X61849000Y-54937819D01*
X62277571Y-54033057D02*
X62325190Y-53985438D01*
X62325190Y-53985438D02*
X62420428Y-53937819D01*
X62420428Y-53937819D02*
X62658523Y-53937819D01*
X62658523Y-53937819D02*
X62753761Y-53985438D01*
X62753761Y-53985438D02*
X62801380Y-54033057D01*
X62801380Y-54033057D02*
X62848999Y-54128295D01*
X62848999Y-54128295D02*
X62848999Y-54223533D01*
X62848999Y-54223533D02*
X62801380Y-54366390D01*
X62801380Y-54366390D02*
X62229952Y-54937819D01*
X62229952Y-54937819D02*
X62848999Y-54937819D01*
X57449819Y-59261333D02*
X58164104Y-59261333D01*
X58164104Y-59261333D02*
X58306961Y-59308952D01*
X58306961Y-59308952D02*
X58402200Y-59404190D01*
X58402200Y-59404190D02*
X58449819Y-59547047D01*
X58449819Y-59547047D02*
X58449819Y-59642285D01*
X57449819Y-58308952D02*
X57449819Y-58785142D01*
X57449819Y-58785142D02*
X57926009Y-58832761D01*
X57926009Y-58832761D02*
X57878390Y-58785142D01*
X57878390Y-58785142D02*
X57830771Y-58689904D01*
X57830771Y-58689904D02*
X57830771Y-58451809D01*
X57830771Y-58451809D02*
X57878390Y-58356571D01*
X57878390Y-58356571D02*
X57926009Y-58308952D01*
X57926009Y-58308952D02*
X58021247Y-58261333D01*
X58021247Y-58261333D02*
X58259342Y-58261333D01*
X58259342Y-58261333D02*
X58354580Y-58308952D01*
X58354580Y-58308952D02*
X58402200Y-58356571D01*
X58402200Y-58356571D02*
X58449819Y-58451809D01*
X58449819Y-58451809D02*
X58449819Y-58689904D01*
X58449819Y-58689904D02*
X58402200Y-58785142D01*
X58402200Y-58785142D02*
X58354580Y-58832761D01*
X81494333Y-25346819D02*
X81161000Y-24870628D01*
X80922905Y-25346819D02*
X80922905Y-24346819D01*
X80922905Y-24346819D02*
X81303857Y-24346819D01*
X81303857Y-24346819D02*
X81399095Y-24394438D01*
X81399095Y-24394438D02*
X81446714Y-24442057D01*
X81446714Y-24442057D02*
X81494333Y-24537295D01*
X81494333Y-24537295D02*
X81494333Y-24680152D01*
X81494333Y-24680152D02*
X81446714Y-24775390D01*
X81446714Y-24775390D02*
X81399095Y-24823009D01*
X81399095Y-24823009D02*
X81303857Y-24870628D01*
X81303857Y-24870628D02*
X80922905Y-24870628D01*
X81827667Y-24346819D02*
X82494333Y-24346819D01*
X82494333Y-24346819D02*
X82065762Y-25346819D01*
X80899095Y-26886819D02*
X80708619Y-26886819D01*
X80708619Y-26886819D02*
X80613381Y-26934438D01*
X80613381Y-26934438D02*
X80565762Y-26982057D01*
X80565762Y-26982057D02*
X80470524Y-27124914D01*
X80470524Y-27124914D02*
X80422905Y-27315390D01*
X80422905Y-27315390D02*
X80422905Y-27696342D01*
X80422905Y-27696342D02*
X80470524Y-27791580D01*
X80470524Y-27791580D02*
X80518143Y-27839200D01*
X80518143Y-27839200D02*
X80613381Y-27886819D01*
X80613381Y-27886819D02*
X80803857Y-27886819D01*
X80803857Y-27886819D02*
X80899095Y-27839200D01*
X80899095Y-27839200D02*
X80946714Y-27791580D01*
X80946714Y-27791580D02*
X80994333Y-27696342D01*
X80994333Y-27696342D02*
X80994333Y-27458247D01*
X80994333Y-27458247D02*
X80946714Y-27363009D01*
X80946714Y-27363009D02*
X80899095Y-27315390D01*
X80899095Y-27315390D02*
X80803857Y-27267771D01*
X80803857Y-27267771D02*
X80613381Y-27267771D01*
X80613381Y-27267771D02*
X80518143Y-27315390D01*
X80518143Y-27315390D02*
X80470524Y-27363009D01*
X80470524Y-27363009D02*
X80422905Y-27458247D01*
X81375286Y-26982057D02*
X81422905Y-26934438D01*
X81422905Y-26934438D02*
X81518143Y-26886819D01*
X81518143Y-26886819D02*
X81756238Y-26886819D01*
X81756238Y-26886819D02*
X81851476Y-26934438D01*
X81851476Y-26934438D02*
X81899095Y-26982057D01*
X81899095Y-26982057D02*
X81946714Y-27077295D01*
X81946714Y-27077295D02*
X81946714Y-27172533D01*
X81946714Y-27172533D02*
X81899095Y-27315390D01*
X81899095Y-27315390D02*
X81327667Y-27886819D01*
X81327667Y-27886819D02*
X81946714Y-27886819D01*
X82565762Y-26886819D02*
X82661000Y-26886819D01*
X82661000Y-26886819D02*
X82756238Y-26934438D01*
X82756238Y-26934438D02*
X82803857Y-26982057D01*
X82803857Y-26982057D02*
X82851476Y-27077295D01*
X82851476Y-27077295D02*
X82899095Y-27267771D01*
X82899095Y-27267771D02*
X82899095Y-27505866D01*
X82899095Y-27505866D02*
X82851476Y-27696342D01*
X82851476Y-27696342D02*
X82803857Y-27791580D01*
X82803857Y-27791580D02*
X82756238Y-27839200D01*
X82756238Y-27839200D02*
X82661000Y-27886819D01*
X82661000Y-27886819D02*
X82565762Y-27886819D01*
X82565762Y-27886819D02*
X82470524Y-27839200D01*
X82470524Y-27839200D02*
X82422905Y-27791580D01*
X82422905Y-27791580D02*
X82375286Y-27696342D01*
X82375286Y-27696342D02*
X82327667Y-27505866D01*
X82327667Y-27505866D02*
X82327667Y-27267771D01*
X82327667Y-27267771D02*
X82375286Y-27077295D01*
X82375286Y-27077295D02*
X82422905Y-26982057D01*
X82422905Y-26982057D02*
X82470524Y-26934438D01*
X82470524Y-26934438D02*
X82565762Y-26886819D01*
X43608666Y-61728819D02*
X43608666Y-62443104D01*
X43608666Y-62443104D02*
X43561047Y-62585961D01*
X43561047Y-62585961D02*
X43465809Y-62681200D01*
X43465809Y-62681200D02*
X43322952Y-62728819D01*
X43322952Y-62728819D02*
X43227714Y-62728819D01*
X43989619Y-61728819D02*
X44608666Y-61728819D01*
X44608666Y-61728819D02*
X44275333Y-62109771D01*
X44275333Y-62109771D02*
X44418190Y-62109771D01*
X44418190Y-62109771D02*
X44513428Y-62157390D01*
X44513428Y-62157390D02*
X44561047Y-62205009D01*
X44561047Y-62205009D02*
X44608666Y-62300247D01*
X44608666Y-62300247D02*
X44608666Y-62538342D01*
X44608666Y-62538342D02*
X44561047Y-62633580D01*
X44561047Y-62633580D02*
X44513428Y-62681200D01*
X44513428Y-62681200D02*
X44418190Y-62728819D01*
X44418190Y-62728819D02*
X44132476Y-62728819D01*
X44132476Y-62728819D02*
X44037238Y-62681200D01*
X44037238Y-62681200D02*
X43989619Y-62633580D01*
X81494333Y-30553819D02*
X81161000Y-30077628D01*
X80922905Y-30553819D02*
X80922905Y-29553819D01*
X80922905Y-29553819D02*
X81303857Y-29553819D01*
X81303857Y-29553819D02*
X81399095Y-29601438D01*
X81399095Y-29601438D02*
X81446714Y-29649057D01*
X81446714Y-29649057D02*
X81494333Y-29744295D01*
X81494333Y-29744295D02*
X81494333Y-29887152D01*
X81494333Y-29887152D02*
X81446714Y-29982390D01*
X81446714Y-29982390D02*
X81399095Y-30030009D01*
X81399095Y-30030009D02*
X81303857Y-30077628D01*
X81303857Y-30077628D02*
X80922905Y-30077628D01*
X82351476Y-29887152D02*
X82351476Y-30553819D01*
X82113381Y-29506200D02*
X81875286Y-30220485D01*
X81875286Y-30220485D02*
X82494333Y-30220485D01*
X80899095Y-31966819D02*
X80708619Y-31966819D01*
X80708619Y-31966819D02*
X80613381Y-32014438D01*
X80613381Y-32014438D02*
X80565762Y-32062057D01*
X80565762Y-32062057D02*
X80470524Y-32204914D01*
X80470524Y-32204914D02*
X80422905Y-32395390D01*
X80422905Y-32395390D02*
X80422905Y-32776342D01*
X80422905Y-32776342D02*
X80470524Y-32871580D01*
X80470524Y-32871580D02*
X80518143Y-32919200D01*
X80518143Y-32919200D02*
X80613381Y-32966819D01*
X80613381Y-32966819D02*
X80803857Y-32966819D01*
X80803857Y-32966819D02*
X80899095Y-32919200D01*
X80899095Y-32919200D02*
X80946714Y-32871580D01*
X80946714Y-32871580D02*
X80994333Y-32776342D01*
X80994333Y-32776342D02*
X80994333Y-32538247D01*
X80994333Y-32538247D02*
X80946714Y-32443009D01*
X80946714Y-32443009D02*
X80899095Y-32395390D01*
X80899095Y-32395390D02*
X80803857Y-32347771D01*
X80803857Y-32347771D02*
X80613381Y-32347771D01*
X80613381Y-32347771D02*
X80518143Y-32395390D01*
X80518143Y-32395390D02*
X80470524Y-32443009D01*
X80470524Y-32443009D02*
X80422905Y-32538247D01*
X81375286Y-32062057D02*
X81422905Y-32014438D01*
X81422905Y-32014438D02*
X81518143Y-31966819D01*
X81518143Y-31966819D02*
X81756238Y-31966819D01*
X81756238Y-31966819D02*
X81851476Y-32014438D01*
X81851476Y-32014438D02*
X81899095Y-32062057D01*
X81899095Y-32062057D02*
X81946714Y-32157295D01*
X81946714Y-32157295D02*
X81946714Y-32252533D01*
X81946714Y-32252533D02*
X81899095Y-32395390D01*
X81899095Y-32395390D02*
X81327667Y-32966819D01*
X81327667Y-32966819D02*
X81946714Y-32966819D01*
X82565762Y-31966819D02*
X82661000Y-31966819D01*
X82661000Y-31966819D02*
X82756238Y-32014438D01*
X82756238Y-32014438D02*
X82803857Y-32062057D01*
X82803857Y-32062057D02*
X82851476Y-32157295D01*
X82851476Y-32157295D02*
X82899095Y-32347771D01*
X82899095Y-32347771D02*
X82899095Y-32585866D01*
X82899095Y-32585866D02*
X82851476Y-32776342D01*
X82851476Y-32776342D02*
X82803857Y-32871580D01*
X82803857Y-32871580D02*
X82756238Y-32919200D01*
X82756238Y-32919200D02*
X82661000Y-32966819D01*
X82661000Y-32966819D02*
X82565762Y-32966819D01*
X82565762Y-32966819D02*
X82470524Y-32919200D01*
X82470524Y-32919200D02*
X82422905Y-32871580D01*
X82422905Y-32871580D02*
X82375286Y-32776342D01*
X82375286Y-32776342D02*
X82327667Y-32585866D01*
X82327667Y-32585866D02*
X82327667Y-32347771D01*
X82327667Y-32347771D02*
X82375286Y-32157295D01*
X82375286Y-32157295D02*
X82422905Y-32062057D01*
X82422905Y-32062057D02*
X82470524Y-32014438D01*
X82470524Y-32014438D02*
X82565762Y-31966819D01*
X54411666Y-60309819D02*
X54411666Y-61024104D01*
X54411666Y-61024104D02*
X54364047Y-61166961D01*
X54364047Y-61166961D02*
X54268809Y-61262200D01*
X54268809Y-61262200D02*
X54125952Y-61309819D01*
X54125952Y-61309819D02*
X54030714Y-61309819D01*
X54887857Y-61309819D02*
X54887857Y-60309819D01*
X54887857Y-60309819D02*
X55268809Y-60309819D01*
X55268809Y-60309819D02*
X55364047Y-60357438D01*
X55364047Y-60357438D02*
X55411666Y-60405057D01*
X55411666Y-60405057D02*
X55459285Y-60500295D01*
X55459285Y-60500295D02*
X55459285Y-60643152D01*
X55459285Y-60643152D02*
X55411666Y-60738390D01*
X55411666Y-60738390D02*
X55364047Y-60786009D01*
X55364047Y-60786009D02*
X55268809Y-60833628D01*
X55268809Y-60833628D02*
X54887857Y-60833628D01*
X56411666Y-61309819D02*
X55840238Y-61309819D01*
X56125952Y-61309819D02*
X56125952Y-60309819D01*
X56125952Y-60309819D02*
X56030714Y-60452676D01*
X56030714Y-60452676D02*
X55935476Y-60547914D01*
X55935476Y-60547914D02*
X55840238Y-60595533D01*
X81367333Y-46174819D02*
X81034000Y-45698628D01*
X80795905Y-46174819D02*
X80795905Y-45174819D01*
X80795905Y-45174819D02*
X81176857Y-45174819D01*
X81176857Y-45174819D02*
X81272095Y-45222438D01*
X81272095Y-45222438D02*
X81319714Y-45270057D01*
X81319714Y-45270057D02*
X81367333Y-45365295D01*
X81367333Y-45365295D02*
X81367333Y-45508152D01*
X81367333Y-45508152D02*
X81319714Y-45603390D01*
X81319714Y-45603390D02*
X81272095Y-45651009D01*
X81272095Y-45651009D02*
X81176857Y-45698628D01*
X81176857Y-45698628D02*
X80795905Y-45698628D01*
X81843524Y-46174819D02*
X82034000Y-46174819D01*
X82034000Y-46174819D02*
X82129238Y-46127200D01*
X82129238Y-46127200D02*
X82176857Y-46079580D01*
X82176857Y-46079580D02*
X82272095Y-45936723D01*
X82272095Y-45936723D02*
X82319714Y-45746247D01*
X82319714Y-45746247D02*
X82319714Y-45365295D01*
X82319714Y-45365295D02*
X82272095Y-45270057D01*
X82272095Y-45270057D02*
X82224476Y-45222438D01*
X82224476Y-45222438D02*
X82129238Y-45174819D01*
X82129238Y-45174819D02*
X81938762Y-45174819D01*
X81938762Y-45174819D02*
X81843524Y-45222438D01*
X81843524Y-45222438D02*
X81795905Y-45270057D01*
X81795905Y-45270057D02*
X81748286Y-45365295D01*
X81748286Y-45365295D02*
X81748286Y-45603390D01*
X81748286Y-45603390D02*
X81795905Y-45698628D01*
X81795905Y-45698628D02*
X81843524Y-45746247D01*
X81843524Y-45746247D02*
X81938762Y-45793866D01*
X81938762Y-45793866D02*
X82129238Y-45793866D01*
X82129238Y-45793866D02*
X82224476Y-45746247D01*
X82224476Y-45746247D02*
X82272095Y-45698628D01*
X82272095Y-45698628D02*
X82319714Y-45603390D01*
X80518142Y-48587819D02*
X79946714Y-48587819D01*
X80232428Y-48587819D02*
X80232428Y-47587819D01*
X80232428Y-47587819D02*
X80137190Y-47730676D01*
X80137190Y-47730676D02*
X80041952Y-47825914D01*
X80041952Y-47825914D02*
X79946714Y-47873533D01*
X81422904Y-47587819D02*
X80946714Y-47587819D01*
X80946714Y-47587819D02*
X80899095Y-48064009D01*
X80899095Y-48064009D02*
X80946714Y-48016390D01*
X80946714Y-48016390D02*
X81041952Y-47968771D01*
X81041952Y-47968771D02*
X81280047Y-47968771D01*
X81280047Y-47968771D02*
X81375285Y-48016390D01*
X81375285Y-48016390D02*
X81422904Y-48064009D01*
X81422904Y-48064009D02*
X81470523Y-48159247D01*
X81470523Y-48159247D02*
X81470523Y-48397342D01*
X81470523Y-48397342D02*
X81422904Y-48492580D01*
X81422904Y-48492580D02*
X81375285Y-48540200D01*
X81375285Y-48540200D02*
X81280047Y-48587819D01*
X81280047Y-48587819D02*
X81041952Y-48587819D01*
X81041952Y-48587819D02*
X80946714Y-48540200D01*
X80946714Y-48540200D02*
X80899095Y-48492580D01*
X82089571Y-47587819D02*
X82184809Y-47587819D01*
X82184809Y-47587819D02*
X82280047Y-47635438D01*
X82280047Y-47635438D02*
X82327666Y-47683057D01*
X82327666Y-47683057D02*
X82375285Y-47778295D01*
X82375285Y-47778295D02*
X82422904Y-47968771D01*
X82422904Y-47968771D02*
X82422904Y-48206866D01*
X82422904Y-48206866D02*
X82375285Y-48397342D01*
X82375285Y-48397342D02*
X82327666Y-48492580D01*
X82327666Y-48492580D02*
X82280047Y-48540200D01*
X82280047Y-48540200D02*
X82184809Y-48587819D01*
X82184809Y-48587819D02*
X82089571Y-48587819D01*
X82089571Y-48587819D02*
X81994333Y-48540200D01*
X81994333Y-48540200D02*
X81946714Y-48492580D01*
X81946714Y-48492580D02*
X81899095Y-48397342D01*
X81899095Y-48397342D02*
X81851476Y-48206866D01*
X81851476Y-48206866D02*
X81851476Y-47968771D01*
X81851476Y-47968771D02*
X81899095Y-47778295D01*
X81899095Y-47778295D02*
X81946714Y-47683057D01*
X81946714Y-47683057D02*
X81994333Y-47635438D01*
X81994333Y-47635438D02*
X82089571Y-47587819D01*
X83041952Y-47587819D02*
X83137190Y-47587819D01*
X83137190Y-47587819D02*
X83232428Y-47635438D01*
X83232428Y-47635438D02*
X83280047Y-47683057D01*
X83280047Y-47683057D02*
X83327666Y-47778295D01*
X83327666Y-47778295D02*
X83375285Y-47968771D01*
X83375285Y-47968771D02*
X83375285Y-48206866D01*
X83375285Y-48206866D02*
X83327666Y-48397342D01*
X83327666Y-48397342D02*
X83280047Y-48492580D01*
X83280047Y-48492580D02*
X83232428Y-48540200D01*
X83232428Y-48540200D02*
X83137190Y-48587819D01*
X83137190Y-48587819D02*
X83041952Y-48587819D01*
X83041952Y-48587819D02*
X82946714Y-48540200D01*
X82946714Y-48540200D02*
X82899095Y-48492580D01*
X82899095Y-48492580D02*
X82851476Y-48397342D01*
X82851476Y-48397342D02*
X82803857Y-48206866D01*
X82803857Y-48206866D02*
X82803857Y-47968771D01*
X82803857Y-47968771D02*
X82851476Y-47778295D01*
X82851476Y-47778295D02*
X82899095Y-47683057D01*
X82899095Y-47683057D02*
X82946714Y-47635438D01*
X82946714Y-47635438D02*
X83041952Y-47587819D01*
X91106666Y-56394819D02*
X91106666Y-57109104D01*
X91106666Y-57109104D02*
X91059047Y-57251961D01*
X91059047Y-57251961D02*
X90963809Y-57347200D01*
X90963809Y-57347200D02*
X90820952Y-57394819D01*
X90820952Y-57394819D02*
X90725714Y-57394819D01*
X92011428Y-56728152D02*
X92011428Y-57394819D01*
X91773333Y-56347200D02*
X91535238Y-57061485D01*
X91535238Y-57061485D02*
X92154285Y-57061485D01*
X81367333Y-61414819D02*
X81034000Y-60938628D01*
X80795905Y-61414819D02*
X80795905Y-60414819D01*
X80795905Y-60414819D02*
X81176857Y-60414819D01*
X81176857Y-60414819D02*
X81272095Y-60462438D01*
X81272095Y-60462438D02*
X81319714Y-60510057D01*
X81319714Y-60510057D02*
X81367333Y-60605295D01*
X81367333Y-60605295D02*
X81367333Y-60748152D01*
X81367333Y-60748152D02*
X81319714Y-60843390D01*
X81319714Y-60843390D02*
X81272095Y-60891009D01*
X81272095Y-60891009D02*
X81176857Y-60938628D01*
X81176857Y-60938628D02*
X80795905Y-60938628D01*
X81748286Y-60510057D02*
X81795905Y-60462438D01*
X81795905Y-60462438D02*
X81891143Y-60414819D01*
X81891143Y-60414819D02*
X82129238Y-60414819D01*
X82129238Y-60414819D02*
X82224476Y-60462438D01*
X82224476Y-60462438D02*
X82272095Y-60510057D01*
X82272095Y-60510057D02*
X82319714Y-60605295D01*
X82319714Y-60605295D02*
X82319714Y-60700533D01*
X82319714Y-60700533D02*
X82272095Y-60843390D01*
X82272095Y-60843390D02*
X81700667Y-61414819D01*
X81700667Y-61414819D02*
X82319714Y-61414819D01*
X80772095Y-63161152D02*
X80772095Y-63827819D01*
X80534000Y-62780200D02*
X80295905Y-63494485D01*
X80295905Y-63494485D02*
X80914952Y-63494485D01*
X81200667Y-62827819D02*
X81867333Y-62827819D01*
X81867333Y-62827819D02*
X81438762Y-63827819D01*
X82438762Y-62827819D02*
X82534000Y-62827819D01*
X82534000Y-62827819D02*
X82629238Y-62875438D01*
X82629238Y-62875438D02*
X82676857Y-62923057D01*
X82676857Y-62923057D02*
X82724476Y-63018295D01*
X82724476Y-63018295D02*
X82772095Y-63208771D01*
X82772095Y-63208771D02*
X82772095Y-63446866D01*
X82772095Y-63446866D02*
X82724476Y-63637342D01*
X82724476Y-63637342D02*
X82676857Y-63732580D01*
X82676857Y-63732580D02*
X82629238Y-63780200D01*
X82629238Y-63780200D02*
X82534000Y-63827819D01*
X82534000Y-63827819D02*
X82438762Y-63827819D01*
X82438762Y-63827819D02*
X82343524Y-63780200D01*
X82343524Y-63780200D02*
X82295905Y-63732580D01*
X82295905Y-63732580D02*
X82248286Y-63637342D01*
X82248286Y-63637342D02*
X82200667Y-63446866D01*
X82200667Y-63446866D02*
X82200667Y-63208771D01*
X82200667Y-63208771D02*
X82248286Y-63018295D01*
X82248286Y-63018295D02*
X82295905Y-62923057D01*
X82295905Y-62923057D02*
X82343524Y-62875438D01*
X82343524Y-62875438D02*
X82438762Y-62827819D01*
X81367333Y-51254819D02*
X81034000Y-50778628D01*
X80795905Y-51254819D02*
X80795905Y-50254819D01*
X80795905Y-50254819D02*
X81176857Y-50254819D01*
X81176857Y-50254819D02*
X81272095Y-50302438D01*
X81272095Y-50302438D02*
X81319714Y-50350057D01*
X81319714Y-50350057D02*
X81367333Y-50445295D01*
X81367333Y-50445295D02*
X81367333Y-50588152D01*
X81367333Y-50588152D02*
X81319714Y-50683390D01*
X81319714Y-50683390D02*
X81272095Y-50731009D01*
X81272095Y-50731009D02*
X81176857Y-50778628D01*
X81176857Y-50778628D02*
X80795905Y-50778628D01*
X81938762Y-50683390D02*
X81843524Y-50635771D01*
X81843524Y-50635771D02*
X81795905Y-50588152D01*
X81795905Y-50588152D02*
X81748286Y-50492914D01*
X81748286Y-50492914D02*
X81748286Y-50445295D01*
X81748286Y-50445295D02*
X81795905Y-50350057D01*
X81795905Y-50350057D02*
X81843524Y-50302438D01*
X81843524Y-50302438D02*
X81938762Y-50254819D01*
X81938762Y-50254819D02*
X82129238Y-50254819D01*
X82129238Y-50254819D02*
X82224476Y-50302438D01*
X82224476Y-50302438D02*
X82272095Y-50350057D01*
X82272095Y-50350057D02*
X82319714Y-50445295D01*
X82319714Y-50445295D02*
X82319714Y-50492914D01*
X82319714Y-50492914D02*
X82272095Y-50588152D01*
X82272095Y-50588152D02*
X82224476Y-50635771D01*
X82224476Y-50635771D02*
X82129238Y-50683390D01*
X82129238Y-50683390D02*
X81938762Y-50683390D01*
X81938762Y-50683390D02*
X81843524Y-50731009D01*
X81843524Y-50731009D02*
X81795905Y-50778628D01*
X81795905Y-50778628D02*
X81748286Y-50873866D01*
X81748286Y-50873866D02*
X81748286Y-51064342D01*
X81748286Y-51064342D02*
X81795905Y-51159580D01*
X81795905Y-51159580D02*
X81843524Y-51207200D01*
X81843524Y-51207200D02*
X81938762Y-51254819D01*
X81938762Y-51254819D02*
X82129238Y-51254819D01*
X82129238Y-51254819D02*
X82224476Y-51207200D01*
X82224476Y-51207200D02*
X82272095Y-51159580D01*
X82272095Y-51159580D02*
X82319714Y-51064342D01*
X82319714Y-51064342D02*
X82319714Y-50873866D01*
X82319714Y-50873866D02*
X82272095Y-50778628D01*
X82272095Y-50778628D02*
X82224476Y-50731009D01*
X82224476Y-50731009D02*
X82129238Y-50683390D01*
X80391142Y-53667819D02*
X79819714Y-53667819D01*
X80105428Y-53667819D02*
X80105428Y-52667819D01*
X80105428Y-52667819D02*
X80010190Y-52810676D01*
X80010190Y-52810676D02*
X79914952Y-52905914D01*
X79914952Y-52905914D02*
X79819714Y-52953533D01*
X81010190Y-52667819D02*
X81105428Y-52667819D01*
X81105428Y-52667819D02*
X81200666Y-52715438D01*
X81200666Y-52715438D02*
X81248285Y-52763057D01*
X81248285Y-52763057D02*
X81295904Y-52858295D01*
X81295904Y-52858295D02*
X81343523Y-53048771D01*
X81343523Y-53048771D02*
X81343523Y-53286866D01*
X81343523Y-53286866D02*
X81295904Y-53477342D01*
X81295904Y-53477342D02*
X81248285Y-53572580D01*
X81248285Y-53572580D02*
X81200666Y-53620200D01*
X81200666Y-53620200D02*
X81105428Y-53667819D01*
X81105428Y-53667819D02*
X81010190Y-53667819D01*
X81010190Y-53667819D02*
X80914952Y-53620200D01*
X80914952Y-53620200D02*
X80867333Y-53572580D01*
X80867333Y-53572580D02*
X80819714Y-53477342D01*
X80819714Y-53477342D02*
X80772095Y-53286866D01*
X80772095Y-53286866D02*
X80772095Y-53048771D01*
X80772095Y-53048771D02*
X80819714Y-52858295D01*
X80819714Y-52858295D02*
X80867333Y-52763057D01*
X80867333Y-52763057D02*
X80914952Y-52715438D01*
X80914952Y-52715438D02*
X81010190Y-52667819D01*
X81962571Y-52667819D02*
X82057809Y-52667819D01*
X82057809Y-52667819D02*
X82153047Y-52715438D01*
X82153047Y-52715438D02*
X82200666Y-52763057D01*
X82200666Y-52763057D02*
X82248285Y-52858295D01*
X82248285Y-52858295D02*
X82295904Y-53048771D01*
X82295904Y-53048771D02*
X82295904Y-53286866D01*
X82295904Y-53286866D02*
X82248285Y-53477342D01*
X82248285Y-53477342D02*
X82200666Y-53572580D01*
X82200666Y-53572580D02*
X82153047Y-53620200D01*
X82153047Y-53620200D02*
X82057809Y-53667819D01*
X82057809Y-53667819D02*
X81962571Y-53667819D01*
X81962571Y-53667819D02*
X81867333Y-53620200D01*
X81867333Y-53620200D02*
X81819714Y-53572580D01*
X81819714Y-53572580D02*
X81772095Y-53477342D01*
X81772095Y-53477342D02*
X81724476Y-53286866D01*
X81724476Y-53286866D02*
X81724476Y-53048771D01*
X81724476Y-53048771D02*
X81772095Y-52858295D01*
X81772095Y-52858295D02*
X81819714Y-52763057D01*
X81819714Y-52763057D02*
X81867333Y-52715438D01*
X81867333Y-52715438D02*
X81962571Y-52667819D01*
X82914952Y-52667819D02*
X83010190Y-52667819D01*
X83010190Y-52667819D02*
X83105428Y-52715438D01*
X83105428Y-52715438D02*
X83153047Y-52763057D01*
X83153047Y-52763057D02*
X83200666Y-52858295D01*
X83200666Y-52858295D02*
X83248285Y-53048771D01*
X83248285Y-53048771D02*
X83248285Y-53286866D01*
X83248285Y-53286866D02*
X83200666Y-53477342D01*
X83200666Y-53477342D02*
X83153047Y-53572580D01*
X83153047Y-53572580D02*
X83105428Y-53620200D01*
X83105428Y-53620200D02*
X83010190Y-53667819D01*
X83010190Y-53667819D02*
X82914952Y-53667819D01*
X82914952Y-53667819D02*
X82819714Y-53620200D01*
X82819714Y-53620200D02*
X82772095Y-53572580D01*
X82772095Y-53572580D02*
X82724476Y-53477342D01*
X82724476Y-53477342D02*
X82676857Y-53286866D01*
X82676857Y-53286866D02*
X82676857Y-53048771D01*
X82676857Y-53048771D02*
X82724476Y-52858295D01*
X82724476Y-52858295D02*
X82772095Y-52763057D01*
X82772095Y-52763057D02*
X82819714Y-52715438D01*
X82819714Y-52715438D02*
X82914952Y-52667819D01*
D11*
%TO.C,AB1*%
X68807000Y-22512001D02*
G75*
G03*
X66526119Y-22571610I-1006000J-5173999D01*
G01*
X69075000Y-32799999D02*
G75*
G03*
X71189474Y-23649379I-1274000J5113999D01*
G01*
X64140000Y-23895000D02*
G75*
G03*
X62531643Y-27778030I3661000J-3791000D01*
G01*
X62531001Y-27686000D02*
G75*
G03*
X66260201Y-32725725I5269999J0D01*
G01*
%TO.C,AG1*%
X57838000Y-22512001D02*
G75*
G03*
X55557119Y-22571610I-1006000J-5173999D01*
G01*
X58106000Y-32799999D02*
G75*
G03*
X60220474Y-23649379I-1274000J5113999D01*
G01*
X53171000Y-23895000D02*
G75*
G03*
X51562643Y-27778030I3661000J-3791000D01*
G01*
X51562001Y-27686000D02*
G75*
G03*
X55291201Y-32725725I5269999J0D01*
G01*
%TO.C,AR1*%
X46916000Y-22512001D02*
G75*
G03*
X44635119Y-22571610I-1006000J-5173999D01*
G01*
X47184000Y-32799999D02*
G75*
G03*
X49298474Y-23649379I-1274000J5113999D01*
G01*
X42249000Y-23895000D02*
G75*
G03*
X40640643Y-27778030I3661000J-3791000D01*
G01*
X40640001Y-27686000D02*
G75*
G03*
X44369201Y-32725725I5269999J0D01*
G01*
%TO.C,J2*%
X36925000Y-32558472D02*
X33185000Y-32558472D01*
X36925000Y-54315138D02*
X36925000Y-32558472D01*
X33185000Y-54315138D02*
X36925000Y-54315138D01*
X37165000Y-54555138D02*
X37165000Y-50361805D01*
X34925000Y-54555138D02*
X37165000Y-54555138D01*
%TO.C,C1*%
X63992000Y-50854000D02*
X63992000Y-50839000D01*
X63992000Y-50854000D02*
X59452000Y-50854000D01*
X63992000Y-48729000D02*
X63992000Y-48714000D01*
X63992000Y-48714000D02*
X59452000Y-48714000D01*
X59452000Y-50854000D02*
X59452000Y-50839000D01*
X59452000Y-48729000D02*
X59452000Y-48714000D01*
%TO.C,R1*%
X56412000Y-42291000D02*
X57102000Y-42291000D01*
X57102000Y-40571000D02*
X57102000Y-44011000D01*
X57102000Y-44011000D02*
X66342000Y-44011000D01*
X66342000Y-40571000D02*
X57102000Y-40571000D01*
X66342000Y-44011000D02*
X66342000Y-40571000D01*
X67032000Y-42291000D02*
X66342000Y-42291000D01*
%TO.C,R6*%
X86844000Y-43053000D02*
X86154000Y-43053000D01*
X86154000Y-44773000D02*
X86154000Y-41333000D01*
X86154000Y-41333000D02*
X76914000Y-41333000D01*
X76914000Y-44773000D02*
X86154000Y-44773000D01*
X76914000Y-41333000D02*
X76914000Y-44773000D01*
X76224000Y-43053000D02*
X76914000Y-43053000D01*
%TO.C,D1*%
X65812000Y-46736000D02*
X63362000Y-46736000D01*
X63362000Y-47656000D02*
X63362000Y-45816000D01*
X63362000Y-45816000D02*
X60082000Y-45816000D01*
X62906000Y-47656000D02*
X62906000Y-45816000D01*
X62786000Y-47656000D02*
X62786000Y-45816000D01*
X62666000Y-47656000D02*
X62666000Y-45816000D01*
X60082000Y-47656000D02*
X63362000Y-47656000D01*
X60082000Y-45816000D02*
X60082000Y-47656000D01*
X57632000Y-46736000D02*
X60082000Y-46736000D01*
%TO.C,JP2*%
X52745000Y-60055000D02*
X49945000Y-60055000D01*
X52745000Y-58055000D02*
X52745000Y-60055000D01*
X49945000Y-60055000D02*
X49945000Y-58055000D01*
X49945000Y-58055000D02*
X52745000Y-58055000D01*
%TO.C,J1*%
X100800000Y-31872667D02*
X97060000Y-31872667D01*
X97060000Y-31872667D02*
X97060000Y-53629333D01*
X97060000Y-53629333D02*
X100800000Y-53629333D01*
X99060000Y-53869333D02*
X96820000Y-53869333D01*
X96820000Y-53869333D02*
X96820000Y-49676000D01*
%TO.C,R3*%
X86844000Y-58293000D02*
X86154000Y-58293000D01*
X86154000Y-60013000D02*
X86154000Y-56573000D01*
X86154000Y-56573000D02*
X76914000Y-56573000D01*
X76914000Y-60013000D02*
X86154000Y-60013000D01*
X76914000Y-56573000D02*
X76914000Y-60013000D01*
X76224000Y-58293000D02*
X76914000Y-58293000D01*
%TO.C,R5*%
X86844000Y-37639805D02*
X86154000Y-37639805D01*
X86154000Y-39359805D02*
X86154000Y-35919805D01*
X86154000Y-35919805D02*
X76914000Y-35919805D01*
X76914000Y-39359805D02*
X86154000Y-39359805D01*
X76914000Y-35919805D02*
X76914000Y-39359805D01*
X76224000Y-37639805D02*
X76914000Y-37639805D01*
%TO.C,R10*%
X56539000Y-54483000D02*
X57229000Y-54483000D01*
X57229000Y-52763000D02*
X57229000Y-56203000D01*
X57229000Y-56203000D02*
X66469000Y-56203000D01*
X66469000Y-52763000D02*
X57229000Y-52763000D01*
X66469000Y-56203000D02*
X66469000Y-52763000D01*
X67159000Y-54483000D02*
X66469000Y-54483000D01*
%TO.C,J5*%
X58995000Y-60258000D02*
X58995000Y-58928000D01*
X60325000Y-60258000D02*
X58995000Y-60258000D01*
X61595000Y-60258000D02*
X64195000Y-60258000D01*
X61595000Y-60258000D02*
X61595000Y-57598000D01*
X64195000Y-60258000D02*
X64195000Y-57598000D01*
X61595000Y-57598000D02*
X64195000Y-57598000D01*
%TO.C,R7*%
X86844000Y-27432000D02*
X86154000Y-27432000D01*
X86154000Y-29152000D02*
X86154000Y-25712000D01*
X86154000Y-25712000D02*
X76914000Y-25712000D01*
X76914000Y-29152000D02*
X86154000Y-29152000D01*
X76914000Y-25712000D02*
X76914000Y-29152000D01*
X76224000Y-27432000D02*
X76914000Y-27432000D01*
%TO.C,J3*%
X45272000Y-61274000D02*
X43942000Y-61274000D01*
X45272000Y-59944000D02*
X45272000Y-61274000D01*
X45272000Y-58674000D02*
X45272000Y-35754000D01*
X45272000Y-58674000D02*
X42612000Y-58674000D01*
X45272000Y-35754000D02*
X42612000Y-35754000D01*
X42612000Y-58674000D02*
X42612000Y-35754000D01*
%TO.C,R4*%
X86844000Y-32559805D02*
X86154000Y-32559805D01*
X86154000Y-34279805D02*
X86154000Y-30839805D01*
X86154000Y-30839805D02*
X76914000Y-30839805D01*
X76914000Y-34279805D02*
X86154000Y-34279805D01*
X76914000Y-30839805D02*
X76914000Y-34279805D01*
X76224000Y-32559805D02*
X76914000Y-32559805D01*
%TO.C,JP1*%
X56645000Y-60055000D02*
X53845000Y-60055000D01*
X56645000Y-58055000D02*
X56645000Y-60055000D01*
X53845000Y-60055000D02*
X53845000Y-58055000D01*
X53845000Y-58055000D02*
X56645000Y-58055000D01*
%TO.C,R9*%
X86844000Y-48133000D02*
X86154000Y-48133000D01*
X86154000Y-49853000D02*
X86154000Y-46413000D01*
X86154000Y-46413000D02*
X76914000Y-46413000D01*
X76914000Y-49853000D02*
X86154000Y-49853000D01*
X76914000Y-46413000D02*
X76914000Y-49853000D01*
X76224000Y-48133000D02*
X76914000Y-48133000D01*
%TO.C,J4*%
X92770000Y-55940000D02*
X91440000Y-55940000D01*
X92770000Y-54610000D02*
X92770000Y-55940000D01*
X92770000Y-53340000D02*
X92770000Y-30420000D01*
X92770000Y-53340000D02*
X90110000Y-53340000D01*
X92770000Y-30420000D02*
X90110000Y-30420000D01*
X90110000Y-53340000D02*
X90110000Y-30420000D01*
%TO.C,R2*%
X86844000Y-63373000D02*
X86154000Y-63373000D01*
X86154000Y-65093000D02*
X86154000Y-61653000D01*
X86154000Y-61653000D02*
X76914000Y-61653000D01*
X76914000Y-65093000D02*
X86154000Y-65093000D01*
X76914000Y-61653000D02*
X76914000Y-65093000D01*
X76224000Y-63373000D02*
X76914000Y-63373000D01*
%TO.C,R8*%
X86844000Y-53213000D02*
X86154000Y-53213000D01*
X86154000Y-54933000D02*
X86154000Y-51493000D01*
X86154000Y-51493000D02*
X76914000Y-51493000D01*
X76914000Y-54933000D02*
X86154000Y-54933000D01*
X76914000Y-51493000D02*
X76914000Y-54933000D01*
X76224000Y-53213000D02*
X76914000Y-53213000D01*
%TD*%
M02*
