M48
; DRILL file {KiCad 7.0.8} date 2026 January 30, Friday 16:34:40
; FORMAT={-:-/ absolute / inch / decimal}
; #@! TF.CreationDate,2026-01-30T16:34:40+01:00
; #@! TF.GenerationSoftware,Kicad,Pcbnew,7.0.8
; #@! TF.FileFunction,Plated,1,2,PTH
FMAT,2
INCH
; #@! TA.AperFunction,Plated,PTH,ViaDrill
T1C0.0157
; #@! TA.AperFunction,Plated,PTH,ComponentDrill
T2C0.0295
; #@! TA.AperFunction,Plated,PTH,ComponentDrill
T3C0.0315
; #@! TA.AperFunction,Plated,PTH,ComponentDrill
T4C0.0394
; #@! TA.AperFunction,Plated,PTH,ComponentDrill
T5C0.0512
; #@! TA.AperFunction,Plated,PTH,ComponentDrill
T6C0.1260
%
G90
G05
T1
X1.35Y-2.2
X1.51Y-1.575
X1.58Y-1.33
X1.58Y-1.44
X1.8415Y-2.16
X1.855Y-1.575
X1.87Y-1.36
X2.89Y-0.93
X3.48Y-1.58
X3.67Y-1.55
X3.67Y-1.65
X3.685Y-2.0
X3.7474Y-1.8511
X3.76Y-2.225
X3.78Y-1.8796
X3.7828Y-1.55
X3.785Y-1.4174
T2
X2.23Y-1.84
X2.63Y-1.84
T3
X2.18Y-1.665
X2.185Y-2.145
X2.3316Y-1.96
X2.5284Y-1.96
X2.68Y-1.665
X2.685Y-2.145
X2.96Y-1.08
X2.96Y-1.2819
X2.96Y-1.4819
X2.96Y-1.695
X2.96Y-1.895
X2.96Y-2.095
X2.96Y-2.295
X2.96Y-2.495
X3.46Y-1.08
X3.46Y-1.2819
X3.46Y-1.4819
X3.46Y-1.695
X3.46Y-1.895
X3.46Y-2.095
X3.46Y-2.295
X3.46Y-2.495
T4
X1.73Y-1.46
X1.73Y-1.56
X1.73Y-1.66
X1.73Y-1.76
X1.73Y-1.86
X1.73Y-1.96
X1.73Y-2.06
X1.73Y-2.16
X1.73Y-2.26
X1.73Y-2.36
X2.375Y-2.32
X2.475Y-2.32
X3.6Y-1.25
X3.6Y-1.35
X3.6Y-1.45
X3.6Y-1.55
X3.6Y-1.65
X3.6Y-1.75
X3.6Y-1.85
X3.6Y-1.95
X3.6Y-2.05
X3.6Y-2.15
T5
X1.7031Y-0.8931
X1.8016Y-1.2869
X1.9Y-0.8931
X2.1331Y-0.8931
X2.2316Y-1.2869
X2.33Y-0.8931
X2.565Y-0.8931
X2.6634Y-1.2869
X2.7619Y-0.8931
T6
X1.45Y-2.45
X1.46Y-0.93
X3.8Y-0.925
X3.8Y-2.45
T0
M30
